<svg width="178" height="178" viewBox="0 0 178 178" fill="none" xmlns="http://www.w3.org/2000/svg">
<g filter="url(#filter0_d_217_3004)">
<circle cx="88.8273" cy="85.1763" r="68.8273" fill="white"/>
</g>
<path d="M98.7485 80.1492C98.7351 80.9232 98.0967 81.5398 97.3227 81.5264C96.5487 81.513 95.9321 80.8745 95.9455 80.1006C95.959 79.3266 96.5974 78.71 97.3714 78.7234C98.1457 78.7364 98.7624 79.3749 98.7485 80.1492Z" fill="#5B4127"/>
<path d="M111.649 80.3736C111.636 81.1476 110.997 81.7643 110.223 81.7508C109.449 81.7374 108.832 81.0989 108.846 80.325C108.859 79.551 109.498 78.9344 110.272 78.9478C111.046 78.9612 111.662 79.5997 111.649 80.3736Z" fill="#5B4127"/>
<path d="M107.216 74.258L100.591 74.1426C98.8575 74.1124 97.4288 75.4933 97.3986 77.2262L97.2891 83.5207L110.19 83.7455L110.299 77.4511C110.33 75.7182 108.949 74.2882 107.216 74.258ZM108.249 81.8242L99.267 81.6678L99.3337 77.8278C99.3425 77.3286 99.754 76.9322 100.252 76.941L100.747 76.9498C100.887 77.6512 101.501 78.1848 102.245 78.1978L105.421 78.2532C106.165 78.2662 106.797 77.7544 106.962 77.058L107.428 77.066C107.926 77.0748 108.324 77.4855 108.315 77.9843L108.249 81.8242Z" fill="#5B4127"/>
<path opacity="0.2" d="M107.215 74.2575L106.609 74.247C108.342 74.2772 109.724 75.7077 109.694 77.4397L109.584 83.7341L110.19 83.7446L110.3 77.4502C110.33 75.7182 108.949 74.2877 107.215 74.2575ZM106.821 77.0546L106.356 77.0467C106.191 77.7439 105.559 78.2552 104.816 78.2422L105.422 78.2527C106.161 78.2657 106.789 77.7602 106.96 77.0693C106.915 77.0601 106.869 77.0555 106.821 77.0546ZM100.141 76.9384L99.646 76.9296C99.1472 76.9208 98.7352 77.3177 98.7269 77.8173L98.6602 81.6573L99.2663 81.6678L99.333 77.8278C99.341 77.3655 99.695 76.9905 100.143 76.9456C100.142 76.9431 100.141 76.941 100.141 76.9384Z" fill="#705641"/>
<path d="M89.3447 78.5833L89.2071 78.5808C87.6592 78.5539 86.3823 79.7868 86.3555 81.3351L92.0991 81.435C92.1259 79.8871 90.8926 78.6102 89.3447 78.5833Z" fill="#5B4127"/>
<path d="M118.438 79.09L118.301 79.0875C116.753 79.0606 115.476 80.2935 115.449 81.8418L121.193 81.9417C121.22 80.3938 119.986 79.1169 118.438 79.09Z" fill="#5B4127"/>
<path d="M125.733 83.0403L125.245 111.044C125.221 112.38 124.119 113.445 122.783 113.422L83.6675 112.74C82.331 112.717 81.266 111.615 81.2894 110.278L81.7773 82.2748C81.8008 80.9383 82.9032 79.8732 84.2397 79.8967L123.355 80.5779C124.691 80.601 125.756 81.7034 125.733 83.0403Z" fill="#C25F5F"/>
<path d="M99.4247 80.1501L98.8857 80.1407L98.3142 112.983L98.8531 112.993L99.4247 80.1501Z" fill="#9C4E4E"/>
<path d="M108.705 80.311L108.166 80.3016L107.594 113.144L108.133 113.154L108.705 80.311Z" fill="#9C4E4E"/>
<path d="M87.4432 79.9411L86.9043 79.9317L86.3327 112.774L86.8717 112.784L87.4432 79.9411Z" fill="#9C4E4E"/>
<path d="M91.5907 80.0129L91.0518 80.0035L90.4802 112.846L91.0191 112.856L91.5907 80.0129Z" fill="#9C4E4E"/>
<path d="M116.537 80.4471L115.998 80.4377L115.426 113.28L115.965 113.29L116.537 80.4471Z" fill="#9C4E4E"/>
<path d="M120.684 80.5189L120.146 80.5095L119.574 113.352L120.113 113.362L120.684 80.5189Z" fill="#9C4E4E"/>
<path d="M81.293 108.949L81.2699 110.278C81.2464 111.614 82.3115 112.717 83.648 112.74L85.1195 112.766C85.1678 112.555 85.1938 112.338 85.198 112.114C85.2286 110.352 83.8254 108.899 82.0636 108.869C81.7985 108.864 81.5405 108.892 81.293 108.949Z" fill="#5B4127"/>
<path d="M95.8174 87.3464C95.8073 87.9148 95.3387 88.3674 94.7703 88.3578C94.2019 88.3477 93.7493 87.8791 93.7589 87.3107C93.769 86.7423 94.2376 86.2897 94.806 86.2998C95.3748 86.3094 95.8274 86.778 95.8174 87.3464Z" fill="#5B4127"/>
<path d="M95.6578 96.5222C95.6477 97.0906 95.1791 97.5433 94.6107 97.5336C94.0423 97.5235 93.5897 97.055 93.5998 96.4866C93.6098 95.9182 94.0784 95.4655 94.6468 95.4756C95.2148 95.4852 95.6674 95.9538 95.6578 96.5222Z" fill="#5B4127"/>
<path d="M95.498 105.698C95.488 106.266 95.0194 106.719 94.451 106.709C93.8826 106.699 93.43 106.231 93.4396 105.662C93.4497 105.094 93.9182 104.641 94.4866 104.651C95.055 104.661 95.5077 105.13 95.498 105.698Z" fill="#5B4127"/>
<path d="M113.58 87.6559C113.57 88.2243 113.101 88.6769 112.533 88.6673C111.965 88.6572 111.512 88.1886 111.522 87.6202C111.532 87.0518 112 86.5992 112.569 86.6088C113.138 86.6185 113.59 87.0875 113.58 87.6559Z" fill="#5B4127"/>
<path d="M113.421 96.8318C113.411 97.4002 112.942 97.8528 112.374 97.8432C111.805 97.8331 111.353 97.3645 111.362 96.7961C111.373 96.2277 111.841 95.7751 112.409 95.7847C112.978 95.7944 113.431 96.2634 113.421 96.8318Z" fill="#5B4127"/>
<path d="M113.261 106.008C113.251 106.576 112.782 107.029 112.214 107.019C111.645 107.009 111.193 106.54 111.202 105.972C111.212 105.404 111.681 104.951 112.249 104.961C112.818 104.97 113.271 105.439 113.261 106.008Z" fill="#5B4127"/>
<path d="M106.504 80.8077L100.33 83.2392L101.602 86.4693L107.777 84.0377L106.504 80.8077Z" fill="white"/>
<path d="M105.172 83.2022C105.413 83.8138 105.113 84.5051 104.501 84.7459C103.889 84.9867 103.198 84.6863 102.957 84.0743C102.716 83.4627 103.017 82.7714 103.629 82.5306C104.24 82.2898 104.932 82.5906 105.172 83.2022Z" fill="#E06C64"/>
<path d="M107.347 92.2912C107.327 93.4754 106.558 94.4713 105.499 94.8354C105.205 94.9369 104.888 94.9894 104.559 94.9835C104.23 94.9776 103.915 94.9143 103.625 94.8027C102.58 94.4012 101.846 93.3798 101.867 92.1956C101.887 91.0114 102.656 90.0159 103.714 89.6514C104.009 89.5499 104.326 89.4974 104.655 89.5033C104.984 89.5092 105.299 89.5725 105.589 89.6841C106.634 90.0851 107.368 91.1066 107.347 92.2912Z" fill="white"/>
<path d="M107.347 92.2912C107.326 93.4754 106.557 94.4713 105.499 94.8354L105.589 89.6841C106.634 90.0851 107.367 91.1066 107.347 92.2912Z" fill="#EDBA55"/>
<path d="M103.714 89.6514L103.625 94.8027C102.58 94.4012 101.846 93.3798 101.867 92.1956C101.887 91.0118 102.656 90.0159 103.714 89.6514Z" fill="#5B4127"/>
<path d="M102.979 105.835C104.164 105.848 105.164 106.611 105.535 107.668C105.638 107.961 105.692 108.278 105.689 108.607C105.685 108.936 105.623 109.251 105.513 109.543C105.118 110.59 104.101 111.33 102.917 111.317C101.732 111.303 100.732 110.54 100.361 109.484C100.258 109.19 100.203 108.874 100.207 108.544C100.211 108.215 100.273 107.9 100.383 107.609C100.777 106.561 101.795 105.821 102.979 105.835Z" fill="#DD504C"/>
<path d="M102.979 105.835C104.164 105.848 105.164 106.611 105.535 107.668L100.383 107.609C100.778 106.561 101.795 105.821 102.979 105.835Z" fill="#E9A72C"/>
<path d="M100.362 109.484L105.514 109.543C105.119 110.59 104.102 111.33 102.917 111.317C101.734 111.303 100.733 110.54 100.362 109.484Z" fill="#EDBA55"/>
<path d="M106.914 99.757L101.216 97.6544L99.965 101.044L105.663 103.147L106.914 99.757Z" fill="white"/>
<path d="M103.132 98.3622L101.215 97.6547L99.964 101.044L101.881 101.752L103.132 98.3622Z" fill="#5B4127"/>
<path d="M106.893 99.7512L104.976 99.0434L103.724 102.433L105.642 103.141L106.893 99.7512Z" fill="#EDBA55"/>
<path d="M125.733 83.0404L125.245 111.043C125.222 112.381 124.12 113.445 122.782 113.422L119.381 113.363C120.717 113.386 121.82 112.321 121.844 110.984L122.332 82.9812C122.355 81.6439 121.289 80.5419 119.953 80.5184L123.355 80.5776C124.692 80.6011 125.756 81.7035 125.733 83.0404Z" fill="#9C4E4E"/>
<path d="M62.6074 111.264C60.7562 111.369 58.7326 113.41 58.7326 113.41C58.5162 113.63 58.0862 113.809 57.7775 113.809H57.4805C57.7896 113.809 58.2192 113.63 58.4361 113.41C58.4361 113.41 60.5696 111.258 62.4585 111.258C62.5068 111.258 62.5575 111.259 62.6074 111.264Z" fill="#3D3A38"/>
<path d="M74.0416 108.709H73.7446H51.1737C50.865 108.709 50.6133 108.961 50.6133 109.269V110.704C50.6133 111.014 50.6909 111.262 50.7861 111.258C50.7861 111.258 50.7861 111.258 50.8742 111.258C52.7623 111.258 54.8958 113.41 54.8958 113.41C55.1135 113.63 55.5431 113.809 55.8527 113.809H57.4639H57.7605C58.0692 113.809 58.4992 113.63 58.7157 113.41C58.7157 113.41 60.7397 111.369 62.5909 111.264H62.5984C62.6463 111.259 62.692 111.258 62.739 111.258C62.7906 111.258 62.843 111.259 62.8959 111.264C64.7429 111.375 66.7602 113.41 66.7602 113.41C66.9762 113.63 67.4066 113.809 67.7153 113.809H69.3287H69.6261C69.9332 113.809 70.3636 113.63 70.5817 113.41L74.0647 111.414C74.3604 111.329 74.6029 111.006 74.6029 110.699V109.269C74.6025 108.961 74.3504 108.709 74.0416 108.709Z" fill="#5B4127"/>
<path d="M56.3179 57.8578H56.1689V75.0018H56.3179H57.0306V58.7195H68.0576V75.0018H68.9192V57.8578H56.3179Z" fill="#9B643D"/>
<path d="M56.6432 62.6568C57.129 62.6568 57.5266 63.3083 57.5266 64.1049V75.1298C57.5266 75.9264 57.129 76.5783 56.6432 76.5783C56.1579 76.5783 55.7598 75.9269 55.7598 75.1298V64.1053C55.7598 63.3083 56.1574 62.6568 56.6432 62.6568Z" fill="#5B4127"/>
<path d="M68.6665 62.6786C68.6316 62.6711 68.5977 62.6677 68.5633 62.6677C68.5326 62.6677 68.5029 62.6707 68.4739 62.6757C68.4722 62.6757 68.4722 62.6757 68.471 62.6757C68.0293 62.7512 67.6807 63.3704 67.6807 64.1162V75.1408C67.6807 75.8866 68.0293 76.5041 68.471 76.5813C68.4727 76.5813 68.4727 76.5813 68.4739 76.5813C68.5029 76.5859 68.5331 76.5888 68.5633 76.5888C68.5977 76.5888 68.6316 76.5859 68.6665 76.5779C69.104 76.4944 69.4475 75.8799 69.4475 75.1403V64.1158C69.4471 63.3767 69.104 62.7617 68.6665 62.6786Z" fill="#5B4127"/>
<path d="M68.8683 57.7731H56.2204C55.967 57.7731 55.7598 57.9921 55.7598 58.2609V58.3167C55.7598 58.3306 55.7598 58.3444 55.7627 58.357C55.7627 58.3616 55.761 58.3633 55.7627 58.3679C55.7862 58.6133 55.9829 58.808 56.2199 58.808H68.8679C69.1053 58.808 69.3016 58.6133 69.3256 58.3679C69.3268 58.3633 69.3256 58.3616 69.3256 58.357C69.3277 58.3444 69.3277 58.3306 69.3277 58.3167V58.2609C69.3285 57.9921 69.1213 57.7731 68.8683 57.7731Z" fill="#9B643D"/>
<path d="M66.261 57.4271H58.8277C58.2908 57.4271 57.8516 57.8239 57.8516 58.3101C57.8516 58.3516 57.8553 58.3948 57.8621 58.4351C57.9296 58.863 58.3373 59.1931 58.8277 59.1931H66.261C66.7518 59.1931 67.1596 58.8625 67.2267 58.4351C67.2334 58.3948 67.2372 58.3516 67.2372 58.3101C67.2372 57.8239 66.7975 57.4271 66.261 57.4271Z" fill="#5B4127"/>
<path d="M67.3659 75.1235C67.3659 75.1235 67.3659 75.1235 67.3659 75.1218V75.0907C67.3001 72.5243 65.1913 70.4554 62.6094 70.4554C60.0258 70.4554 57.9187 72.5243 57.8528 75.0907V75.1218C57.8528 75.1235 57.8528 75.1235 57.8528 75.1235C57.8516 75.1545 57.8516 75.1839 57.8516 75.2145C57.8516 75.2531 57.8516 75.2946 57.8528 75.3349C57.8528 75.3349 57.8528 75.3349 57.8528 75.3366C57.9187 77.9042 60.0258 79.9731 62.6094 79.9731C65.1909 79.9731 67.3001 77.9042 67.3659 75.3366C67.3659 75.3349 67.3659 75.3349 67.3659 75.3349C67.3672 75.2946 67.3672 75.2531 67.3672 75.2145C67.3672 75.1839 67.3672 75.1545 67.3659 75.1235ZM66.5689 75.3353C66.5056 77.4663 64.753 79.177 62.6094 79.177C60.4658 79.177 58.7132 77.4663 58.6498 75.3353C58.6473 75.2967 58.6473 75.2552 58.6473 75.2149C58.6473 75.1839 58.6473 75.1545 58.6498 75.1239V75.1176C58.6998 72.9774 60.457 71.2545 62.6094 71.2545C64.7614 71.2545 66.5186 72.9778 66.5689 75.1176V75.1239C66.5714 75.1549 66.5714 75.1843 66.5714 75.2149C66.5719 75.2548 66.5719 75.2967 66.5689 75.3353Z" fill="#5B4127"/>
<path d="M73.6823 74.293H52.7906H51.5371C50.0203 74.293 48.7803 75.4692 48.7803 76.9102V109.847C48.7803 111.286 50.0203 112.464 51.5371 112.464H52.7906H73.6823C75.1991 112.464 76.4391 111.285 76.4391 109.847V76.9102C76.4391 75.4696 75.1991 74.293 73.6823 74.293Z" fill="#B78054"/>
<path d="M52.5098 76.6492C52.4225 76.6026 52.3277 76.5783 52.2295 76.5783C51.7828 76.5783 51.417 77.0834 51.417 77.7009V109.056C51.417 109.674 51.7828 110.177 52.2295 110.177C52.3281 110.177 52.4225 110.154 52.5098 110.109C52.8214 109.95 53.0442 109.538 53.0442 109.056V77.7009C53.0442 77.2176 52.8214 76.8053 52.5098 76.6492Z" fill="#9B643D"/>
<path d="M58.8623 76.6492C58.775 76.6026 58.6802 76.5783 58.5821 76.5783C58.1353 76.5783 57.7695 77.0834 57.7695 77.7009V109.056C57.7695 109.674 58.1353 110.177 58.5821 110.177C58.6807 110.177 58.775 110.154 58.8623 110.109C59.174 109.95 59.3967 109.538 59.3967 109.056V77.7009C59.3967 77.2176 59.174 76.8053 58.8623 76.6492Z" fill="#9B643D"/>
<path d="M66.7871 76.6492C66.6999 76.6026 66.6055 76.5783 66.5069 76.5783C66.0601 76.5783 65.6943 77.0834 65.6943 77.7009V109.056C65.6943 109.674 66.0601 110.177 66.5069 110.177C66.6055 110.177 66.6999 110.154 66.7871 110.109C67.0988 109.95 67.3215 109.538 67.3215 109.056V77.7009C67.3215 77.2176 67.0988 76.8053 66.7871 76.6492Z" fill="#9B643D"/>
<path d="M73.8024 109.056C73.8024 109.674 73.4362 110.179 72.9882 110.179C72.5406 110.179 72.1748 109.674 72.1748 109.056V77.7009C72.1748 77.0834 72.5406 76.5783 72.9882 76.5783C73.4358 76.5783 73.8024 77.0834 73.8024 77.7009V109.056Z" fill="#9B643D"/>
<path d="M76.4387 76.9106V109.847C76.4387 111.286 75.1995 112.464 73.6818 112.464H70.9316C72.4493 112.464 73.6885 111.286 73.6885 109.847V76.9106C73.6885 75.4692 72.4493 74.293 70.9316 74.293H73.6818C75.1995 74.293 76.4387 75.4688 76.4387 76.9106Z" fill="#A3724B"/>
<path d="M64.2712 87.1022L59.8564 88.9304L60.813 91.2402L65.2277 89.412L64.2712 87.1022Z" fill="#5B4127"/>
<path d="M63.3341 88.8474C63.5153 89.2849 63.3072 89.7862 62.8701 89.9675C62.4326 90.1487 61.9313 89.9406 61.7501 89.5035C61.5689 89.066 61.7765 88.5647 62.214 88.3835C62.6516 88.2023 63.1528 88.4099 63.3341 88.8474Z" fill="#EDBA55"/>
<path d="M57.4982 93.0575C57.4982 93.9103 56.957 94.6368 56.1994 94.9124C55.9888 94.9892 55.7615 95.0307 55.5245 95.0307C55.2875 95.0307 55.0601 94.9892 54.8491 94.9124C54.0915 94.6364 53.5508 93.9103 53.5508 93.0575C53.5508 92.2046 54.0919 91.4785 54.8491 91.2025C55.0597 91.1257 55.287 91.0838 55.5245 91.0838C55.7615 91.0838 55.9888 91.1257 56.1994 91.2025C56.957 91.4781 57.4982 92.2042 57.4982 93.0575Z" fill="#5B4127"/>
<path d="M57.498 93.0574C57.498 93.9102 56.9568 94.6368 56.1992 94.9124V91.2024C56.9568 91.478 57.498 92.2042 57.498 93.0574Z" fill="#EDBA55"/>
<path d="M54.8491 91.2024V94.9124C54.0915 94.6363 53.5508 93.9102 53.5508 93.0574C53.5504 92.2046 54.0915 91.478 54.8491 91.2024Z" fill="white"/>
<path d="M62.671 98.1289C63.5242 98.1239 64.2537 98.6604 64.5339 99.4163C64.6119 99.6265 64.6551 99.8535 64.6564 100.09C64.6576 100.327 64.6174 100.555 64.5419 100.766C64.2705 101.525 63.5473 102.071 62.6944 102.076C61.8416 102.081 61.1121 101.544 60.8315 100.788C60.7535 100.578 60.7103 100.351 60.709 100.114C60.7078 99.8769 60.748 99.6492 60.8235 99.4382C61.0949 98.6793 61.8177 98.134 62.671 98.1289Z" fill="#DD504C"/>
<path d="M62.6712 98.1289C63.5245 98.1239 64.2539 98.6604 64.5342 99.4163L60.8242 99.4386C61.0952 98.6793 61.818 98.134 62.6712 98.1289Z" fill="#FAEFA3"/>
<path d="M60.832 100.789L64.542 100.766C64.2706 101.525 63.5474 102.071 62.6946 102.076C61.8422 102.081 61.1122 101.544 60.832 100.789Z" fill="#EDBA55"/>
<path d="M72.7923 94.6201L68.6641 93.1778L67.806 95.6338L71.9343 97.076L72.7923 94.6201Z" fill="#5B4127"/>
<path d="M70.0602 93.6811L68.6709 93.1958L67.8129 95.652L69.2022 96.1373L70.0602 93.6811Z" fill="white"/>
<path d="M72.7964 94.6193L71.4072 94.134L70.5492 96.59L71.9384 97.0753L72.7964 94.6193Z" fill="#EDBA55"/>
<defs>
<filter id="filter0_d_217_3004" x="0" y="0.348999" width="177.654" height="177.655" filterUnits="userSpaceOnUse" color-interpolation-filters="sRGB">
<feFlood flood-opacity="0" result="BackgroundImageFix"/>
<feColorMatrix in="SourceAlpha" type="matrix" values="0 0 0 0 0 0 0 0 0 0 0 0 0 0 0 0 0 0 127 0" result="hardAlpha"/>
<feOffset dy="4"/>
<feGaussianBlur stdDeviation="10"/>
<feComposite in2="hardAlpha" operator="out"/>
<feColorMatrix type="matrix" values="0 0 0 0 0 0 0 0 0 0 0 0 0 0 0 0 0 0 0.25 0"/>
<feBlend mode="normal" in2="BackgroundImageFix" result="effect1_dropShadow_217_3004"/>
<feBlend mode="normal" in="SourceGraphic" in2="effect1_dropShadow_217_3004" result="shape"/>
</filter>
</defs>
</svg>
