<svg width="190" height="134" viewBox="0 0 190 134" fill="none" xmlns="http://www.w3.org/2000/svg">
<path opacity="0.1" d="M181.472 110.98C181.472 111.776 170.889 112.422 157.834 112.422C144.779 112.422 134.196 111.777 134.196 110.98C134.196 110.183 144.779 109.538 157.834 109.538C170.889 109.538 181.472 110.183 181.472 110.98Z" fill="black"/>
<path d="M158.351 109.831C172.477 109.831 183.929 98.3789 183.929 84.2524C183.929 70.1259 172.477 58.6741 158.351 58.6741C144.224 58.6741 132.772 70.1259 132.772 84.2524C132.772 98.3789 144.224 109.831 158.351 109.831Z" fill="#DEA004"/>
<path d="M157.834 110.292C171.749 110.292 183.029 99.0118 183.029 85.0971C183.029 71.1824 171.749 59.9023 157.834 59.9023C143.92 59.9023 132.64 71.1824 132.64 85.0971C132.64 99.0118 143.92 110.292 157.834 110.292Z" fill="#F8DC4A"/>
<g opacity="0.28">
<path d="M175.236 66.8772L138.337 101.054C138.87 101.705 139.435 102.329 140.03 102.924L176.97 68.7091C176.422 68.07 175.844 67.4584 175.236 66.8772Z" fill="white"/>
<path d="M181.555 76.5873C180.846 74.6136 179.9 72.7538 178.748 71.0433L142.224 104.873C143.845 106.155 145.627 107.241 147.535 108.096L181.555 76.5873Z" fill="white"/>
<path d="M134.007 93.3016C134.737 95.4216 135.741 97.414 136.978 99.2355L173.525 65.3854C171.799 64.0098 169.889 62.8564 167.837 61.9677L134.007 93.3016Z" fill="white"/>
</g>
<path d="M177.904 96.3712C184.234 85.2911 180.384 71.1769 169.304 64.8463C158.224 58.5157 144.11 62.3659 137.779 73.4461C131.448 84.5262 135.299 98.6404 146.379 104.971C157.459 111.302 171.573 107.451 177.904 96.3712Z" stroke="#F2C341" stroke-width="1.9286" stroke-linecap="round" stroke-linejoin="round" stroke-dasharray="1.93 5.79"/>
<path d="M157.835 106.193C169.486 106.193 178.93 96.7478 178.93 85.0971C178.93 73.4463 169.486 64.0015 157.835 64.0015C146.184 64.0015 136.739 73.4463 136.739 85.0971C136.739 96.7478 146.184 106.193 157.835 106.193Z" fill="#C99204"/>
<path d="M157.835 105.263C168.973 105.263 178.001 96.2346 178.001 85.0971C178.001 73.9596 168.973 64.9309 157.835 64.9309C146.698 64.9309 137.669 73.9596 137.669 85.0971C137.669 96.2346 146.698 105.263 157.835 105.263Z" fill="#DEA004"/>
<g opacity="0.16">
<path d="M138.148 89.4659C138.65 91.7332 139.531 93.8566 140.724 95.7663L169.781 68.8527C167.963 67.5128 165.912 66.4719 163.699 65.8001L138.148 89.4659Z" fill="white"/>
<path d="M171.535 70.3046L142.038 97.6254C142.562 98.2851 143.125 98.9118 143.726 99.5005L173.275 72.1309C172.734 71.4862 172.152 70.8764 171.535 70.3046Z" fill="white"/>
<path d="M177.444 80.3948C176.94 78.2869 176.108 76.3072 175 74.5143L145.972 101.401C147.68 102.646 149.589 103.629 151.644 104.291L177.444 80.3948Z" fill="white"/>
</g>
<path d="M164.446 74.0237L163.426 78.6689C163.426 78.6689 161.284 77.6001 158.976 77.9444C155.582 78.4516 155.705 82.1809 156.84 86.4764C157.994 90.8452 156.284 93.4013 154.661 94.8456H165.557V99.9629H147.012V96.6449C147.012 96.6449 152.951 94.7351 151.456 88.2385C149.634 80.3272 150.435 76.5309 154.831 74.1527C159.532 71.611 164.446 74.0237 164.446 74.0237Z" fill="#C99204"/>
<path d="M162.437 85.2697H147.524V88.8889H162.437V85.2697Z" fill="#C99204"/>
<path d="M165.171 73.2985L164.151 77.9436C164.151 77.9436 162.009 76.8748 159.701 77.2192C156.307 77.7263 156.43 81.4557 157.565 85.7508C158.718 90.1196 157.009 92.6756 155.385 94.12H166.282V99.2373H147.736V95.9193C147.736 95.9193 153.676 94.0095 152.18 87.5129C150.359 79.6016 151.159 75.8053 155.556 73.4271C160.257 70.8857 165.171 73.2985 165.171 73.2985Z" fill="#F8DC4A"/>
<path d="M163.163 84.5448H148.25V88.1644H163.163V84.5448Z" fill="#F8DC4A"/>
<path d="M148.925 91.5257C148.675 94.9487 148.17 95.4208 144.907 95.6844C148.17 95.9479 148.675 96.4201 148.925 99.843C149.174 96.4201 149.679 95.9479 152.942 95.6844C149.679 95.4208 149.174 94.9487 148.925 91.5257Z" fill="white"/>
<path d="M172.388 60.5023C171.989 65.9771 171.181 66.732 165.962 67.1538C171.181 67.5756 171.989 68.3305 172.388 73.8053C172.787 68.3305 173.594 67.5756 178.814 67.1538C173.594 66.732 172.787 65.9771 172.388 60.5023Z" fill="white"/>
<path opacity="0.1" d="M86.7871 125.308C99.8418 125.308 110.425 124.662 110.425 123.865C110.425 123.069 99.8418 122.423 86.7871 122.423C73.7324 122.423 63.1494 123.069 63.1494 123.865C63.1494 124.662 73.7324 125.308 86.7871 125.308Z" fill="black"/>
<path d="M105.387 115.914C115.376 105.925 115.376 89.7296 105.387 79.7408C95.3983 69.752 79.2032 69.7519 69.2143 79.7408C59.2255 89.7296 59.2255 105.925 69.2143 115.914C79.2032 125.902 95.3983 125.902 105.387 115.914Z" fill="#DEA004"/>
<path d="M86.7866 123.865C100.701 123.865 111.981 112.585 111.981 98.6706C111.981 84.7559 100.701 73.4758 86.7866 73.4758C72.8719 73.4758 61.5918 84.7559 61.5918 98.6706C61.5918 112.585 72.8719 123.865 86.7866 123.865Z" fill="#F8DC4A"/>
<g opacity="0.28">
<path d="M104.188 80.4507L67.2891 114.627C67.8225 115.278 68.3876 115.903 68.9827 116.497L105.923 82.2826C105.375 81.6435 104.796 81.0319 104.188 80.4507Z" fill="white"/>
<path d="M110.507 90.1609C109.798 88.1872 108.852 86.3274 107.7 84.6169L71.1758 118.447C72.7968 119.728 74.5792 120.814 76.4874 121.67L110.507 90.1609Z" fill="white"/>
<path d="M62.959 106.875C63.6887 108.995 64.6932 110.988 65.9304 112.809L102.477 78.9585C100.751 77.583 98.8411 76.4296 96.7888 75.5408L62.959 106.875Z" fill="white"/>
</g>
<path d="M86.6053 121.776C99.3661 121.776 109.711 111.431 109.711 98.6706C109.711 85.9099 99.3661 75.5653 86.6053 75.5653C73.8446 75.5653 63.5 85.9099 63.5 98.6706C63.5 111.431 73.8446 121.776 86.6053 121.776Z" stroke="#F2C341" stroke-width="1.9286" stroke-linecap="round" stroke-linejoin="round" stroke-dasharray="1.93 5.79"/>
<path d="M107.291 103.637C110.033 92.3133 103.077 80.9104 91.7535 78.1677C80.4299 75.4251 69.027 82.3813 66.2843 93.7049C63.5417 105.028 70.4979 116.431 81.8215 119.174C93.1451 121.917 104.548 114.96 107.291 103.637Z" fill="#C99204"/>
<path d="M106.689 101.845C108.443 90.8466 100.949 80.5087 89.9511 78.7545C78.9528 77.0004 68.6149 84.4942 66.8608 95.4925C65.1066 106.491 72.6004 116.829 83.5987 118.583C94.597 120.337 104.935 112.843 106.689 101.845Z" fill="#DEA004"/>
<g opacity="0.16">
<path d="M67.1006 103.039C67.6017 105.307 68.4829 107.43 69.6762 109.34L98.7334 82.4262C96.915 81.0863 94.8638 80.0453 92.6511 79.3735L67.1006 103.039Z" fill="white"/>
<path d="M100.487 83.8781L70.9902 111.199C71.5139 111.859 72.0767 112.485 72.6778 113.074L102.228 85.7044C101.686 85.06 101.105 84.4502 100.487 83.8781Z" fill="white"/>
<path d="M106.396 93.9683C105.892 91.8604 105.06 89.8807 103.953 88.0878L74.9238 114.975C76.6317 116.22 78.5411 117.202 80.596 117.864L106.396 93.9683Z" fill="white"/>
</g>
<path d="M77.9363 111.845L72.1348 88.5957H75.2562L77.9705 100.358C78.6491 103.256 79.2596 106.153 79.6667 108.395H79.7348C80.1081 106.085 80.8205 103.325 81.601 100.324L84.6544 88.5961H87.742L90.5239 100.393C91.1687 103.153 91.7792 105.912 92.1187 108.361H92.1863C92.6615 105.809 93.3059 103.221 94.0183 100.324L97.0379 88.5961H100.057L93.577 111.845H90.4893L87.6055 99.7375C86.8931 96.7709 86.4179 94.4942 86.1126 92.1488H86.0446C85.6374 94.46 85.1288 96.7367 84.2803 99.7375L81.0231 111.845H77.9363V111.845Z" fill="#C99204"/>
<path d="M101.258 96.3597H70.9346V98.3105H101.258V96.3597Z" fill="#C99204"/>
<path d="M101.258 101.186H70.9346V103.136H101.258V101.186Z" fill="#C99204"/>
<path d="M78.6609 111.119L72.8594 87.8705H75.9808L78.6951 99.633C79.3737 102.531 79.9842 105.428 80.3913 107.67H80.459C80.8323 105.359 81.5447 102.599 82.3252 99.5984L85.3786 87.8705H88.4662L91.2482 99.6676C91.8929 102.427 92.5034 105.186 92.8429 107.636H92.9106C93.3858 105.083 94.0301 102.496 94.7425 99.5984L97.7621 87.8705H100.782L94.3012 111.119H91.214L88.3301 99.0119C87.6177 96.0454 87.1425 93.7687 86.8372 91.4232H86.7696C86.3624 93.7345 85.8534 96.0112 85.0053 99.0119L81.7481 111.119H78.6609Z" fill="#F8DC4A"/>
<path d="M101.982 95.6344H71.6592V97.5852H101.982V95.6344Z" fill="#F8DC4A"/>
<path d="M101.982 100.461H71.6592V102.412H101.982V100.461Z" fill="#F8DC4A"/>
<path d="M78.4128 105.397C78.1636 108.82 77.6587 109.292 74.3955 109.556C77.6587 109.819 78.1636 110.291 78.4128 113.714C78.6621 110.291 79.167 109.819 82.4305 109.556C79.167 109.292 78.6621 108.82 78.4128 105.397Z" fill="white"/>
<path d="M101.095 73.81C100.696 79.2848 99.8885 80.0401 94.6689 80.4615C99.8885 80.8833 100.696 81.6382 101.095 87.1131C101.494 81.6382 102.301 80.8833 107.521 80.4615C102.301 80.0401 101.494 79.2848 101.095 73.81Z" fill="white"/>
<path opacity="0.1" d="M35.9609 75.308C49.0157 75.308 59.5986 74.6624 59.5986 73.8659C59.5986 73.0695 49.0157 72.4238 35.9609 72.4238C22.9062 72.4238 12.3232 73.0695 12.3232 73.8659C12.3232 74.6624 22.9062 75.308 35.9609 75.308Z" fill="black"/>
<path d="M54.2592 65.9134C64.2481 55.9246 64.2481 39.7295 54.2592 29.7406C44.2704 19.7518 28.0753 19.7518 18.0864 29.7406C8.09756 39.7295 8.09756 55.9246 18.0864 65.9134C28.0753 75.9023 44.2704 75.9023 54.2592 65.9134Z" fill="#DEA004"/>
<path d="M35.6577 73.8659C49.5724 73.8659 60.8525 62.5858 60.8525 48.6711C60.8525 34.7563 49.5724 23.4762 35.6577 23.4762C21.743 23.4762 10.4629 34.7563 10.4629 48.6711C10.4629 62.5858 21.743 73.8659 35.6577 73.8659Z" fill="#F8DC4A"/>
<g opacity="0.28">
<path d="M53.0592 30.451L16.1602 64.6275C16.6936 65.2786 17.2587 65.9031 17.8534 66.4974L54.7934 32.283C54.246 31.6439 53.6674 31.0323 53.0592 30.451Z" fill="white"/>
<path d="M59.3778 40.1613C58.6696 38.1876 57.7233 36.3278 56.5714 34.6173L20.0469 68.4471C21.6679 69.7287 23.4503 70.8148 25.3585 71.6708L59.3778 40.1613Z" fill="white"/>
<path d="M11.8301 56.8756C12.5602 58.9959 13.5643 60.988 14.8015 62.8095L51.3483 28.959C49.6223 27.5834 47.7122 26.43 45.6599 25.5413L11.8301 56.8756Z" fill="white"/>
</g>
<path d="M56.1617 53.6375C58.9044 42.314 51.9482 30.911 40.6246 28.1684C29.301 25.4258 17.8981 32.382 15.1554 43.7056C12.4128 55.0291 19.369 66.4321 30.6926 69.1747C42.0162 71.9173 53.4191 64.9611 56.1617 53.6375Z" fill="#C99204"/>
<path d="M49.9154 62.9311C57.7907 55.0558 57.7907 42.2874 49.9154 34.412C42.04 26.5367 29.2716 26.5367 21.3963 34.412C13.5209 42.2874 13.5209 55.0558 21.3963 62.9311C29.2716 70.8065 42.04 70.8065 49.9154 62.9311Z" fill="#DEA004"/>
<g opacity="0.16">
<path d="M15.9717 53.0399C16.4728 55.3072 17.354 57.4305 18.5473 59.3403L47.6045 32.4266C45.7861 31.0868 43.7349 30.0458 41.5222 29.374L15.9717 53.0399Z" fill="white"/>
<path d="M49.3594 33.8786L19.8623 61.1994C20.386 61.8591 20.9488 62.4858 21.5499 63.0745L51.0996 35.7049C50.5579 35.0605 49.9767 34.4508 49.3594 33.8786Z" fill="white"/>
<path d="M55.2678 43.9688C54.7641 41.8609 53.9325 39.8812 52.8246 38.0883L23.7959 64.9753C25.5034 66.22 27.4132 67.2027 29.4681 67.8648L55.2678 43.9688Z" fill="white"/>
</g>
<path d="M32.3552 63.8125V51.3309L24.3867 36.629H29.6243L32.6544 43.1008C33.515 44.9715 34.1507 46.3925 34.8244 48.1136H34.8992C35.5353 46.5053 36.2462 44.9339 37.1063 43.1008L40.1364 36.629H45.3364L36.9563 51.2189V63.8125H32.3552Z" fill="#C99204"/>
<path d="M41.1448 51.7136H28.5801V54.7219H41.1448V51.7136Z" fill="#C99204"/>
<path d="M41.1448 56.8549H28.5801V59.8632H41.1448V56.8549Z" fill="#C99204"/>
<path d="M33.0807 63.0877V50.6061L25.1123 35.9041H30.3499L33.38 42.376C34.2405 44.2467 34.8763 45.6681 35.5499 47.3888H35.6247C36.2608 45.7805 36.9714 44.2091 37.8319 42.376L40.862 35.9041H46.062L37.6819 50.4941V63.0877H33.0807Z" fill="#F8DC4A"/>
<path d="M41.8694 50.9884H29.3047V53.9967H41.8694V50.9884Z" fill="#F8DC4A"/>
<path d="M41.8694 56.1298H29.3047V59.1381H41.8694V56.1298Z" fill="#F8DC4A"/>
<path d="M35.5868 71.7765C48.3475 71.7765 58.6922 61.4318 58.6922 48.6711C58.6922 35.9104 48.3475 25.5658 35.5868 25.5658C22.8261 25.5658 12.4814 35.9104 12.4814 48.6711C12.4814 61.4318 22.8261 71.7765 35.5868 71.7765Z" stroke="#F2C341" stroke-width="1.9286" stroke-linecap="round" stroke-linejoin="round" stroke-dasharray="1.93 5.79"/>
<path d="M28.8351 54.885C28.5858 58.308 28.0809 58.7802 24.8174 59.0437C28.0806 59.3072 28.5854 59.7794 28.8351 63.2024C29.0843 59.7794 29.5892 59.3072 32.8528 59.0437C29.5892 58.7802 29.0843 58.308 28.8351 54.885Z" fill="white"/>
<path d="M49.9807 23.8105C49.5818 29.2853 48.7743 30.0406 43.5547 30.462C48.7743 30.8838 49.5818 31.6387 49.9807 37.1135C50.3795 31.6387 51.187 30.8838 56.4066 30.462C51.187 30.0406 50.3795 29.2853 49.9807 23.8105Z" fill="white"/>
<path opacity="0.1" d="M107.087 63.6542C120.142 63.6542 130.725 63.0085 130.725 62.2121C130.725 61.4156 120.142 60.77 107.087 60.77C94.0322 60.77 83.4492 61.4156 83.4492 62.2121C83.4492 63.0085 94.0322 63.6542 107.087 63.6542Z" fill="black"/>
<path d="M125.688 54.2593C135.677 44.2704 135.677 28.0753 125.688 18.0864C115.699 8.09759 99.504 8.09759 89.5151 18.0864C79.5263 28.0753 79.5263 44.2704 89.5151 54.2593C99.504 64.2481 115.699 64.2481 125.688 54.2593Z" fill="#DEA004"/>
<path d="M107.086 62.2121C121.001 62.2121 132.281 50.932 132.281 37.0172C132.281 23.1025 121.001 11.8224 107.086 11.8224C93.1717 11.8224 81.8916 23.1025 81.8916 37.0172C81.8916 50.932 93.1717 62.2121 107.086 62.2121Z" fill="#F8DC4A"/>
<path d="M107.086 60.1226C119.847 60.1226 130.191 49.778 130.191 37.0172C130.191 24.2565 119.847 13.9119 107.086 13.9119C94.3251 13.9119 83.9805 24.2565 83.9805 37.0172C83.9805 49.778 94.3251 60.1226 107.086 60.1226Z" stroke="#F2C341" stroke-width="1.9286" stroke-linecap="round" stroke-linejoin="round" stroke-dasharray="1.93 5.79"/>
<g opacity="0.28">
<path d="M124.487 18.7973L87.5879 52.9737C88.1214 53.6248 88.6864 54.2493 89.2811 54.8436L126.221 20.6292C125.673 19.9901 125.095 19.3785 124.487 18.7973Z" fill="white"/>
<path d="M130.806 28.5075C130.097 26.5338 129.151 24.674 127.999 22.9635L91.4746 56.7933C93.0957 58.0749 94.878 59.161 96.7863 60.017L130.806 28.5075Z" fill="white"/>
<path d="M83.2588 45.2218C83.9885 47.3421 84.993 49.3342 86.2302 51.1556L122.777 17.3051C121.051 15.9296 119.141 14.7762 117.089 13.8875L83.2588 45.2218Z" fill="white"/>
</g>
<path d="M110.402 57.8492C121.907 56.0154 129.747 45.2018 127.913 33.6965C126.079 22.1912 115.266 14.3509 103.761 16.1847C92.2555 18.0185 84.4154 28.8321 86.2492 40.3374C88.0831 51.8427 98.8965 59.683 110.402 57.8492Z" fill="#C99204"/>
<path d="M126.743 41.544C129.245 30.6905 122.474 19.8641 111.621 17.3627C100.767 14.8612 89.941 21.6318 87.4395 32.4853C84.938 43.3388 91.7087 54.1652 102.562 56.6667C113.416 59.1682 124.242 52.3975 126.743 41.544Z" fill="#DEA004"/>
<g opacity="0.16">
<path d="M87.4004 41.3861C87.9015 43.6534 88.7827 45.7767 89.976 47.6865L119.033 20.7728C117.215 19.433 115.164 18.392 112.951 17.7202L87.4004 41.3861Z" fill="white"/>
<path d="M120.787 22.2247L91.29 49.5455C91.8137 50.2053 92.3765 50.832 92.9776 51.4207L122.527 24.0511C121.986 23.4067 121.404 22.7969 120.787 22.2247Z" fill="white"/>
<path d="M126.696 32.315C126.192 30.2071 125.36 28.2274 124.252 26.4346L95.2236 53.3215C96.9315 54.5662 98.8409 55.549 100.896 56.211L126.696 32.315Z" fill="white"/>
</g>
<path d="M116.197 50.4447C115.112 51.006 112.718 51.5669 109.688 51.5669C101.682 51.5669 96.8184 46.5537 96.8184 38.8849C96.8184 30.58 102.58 25.5668 110.286 25.5668C113.316 25.5668 115.486 26.2029 116.421 26.689L115.411 30.3552C114.214 29.8315 112.568 29.3826 110.473 29.3826C105.348 29.3826 101.644 32.5999 101.644 38.6604C101.644 44.1973 104.899 47.7511 110.436 47.7511C112.306 47.7511 114.252 47.377 115.449 46.8157L116.197 50.4447Z" fill="#C99204"/>
<path d="M111.592 34.9458H91.0273V37.9541H111.592V34.9458Z" fill="#C99204"/>
<path d="M111.592 40.0872H91.0273V43.0955H111.592V40.0872Z" fill="#C99204"/>
<path d="M111.161 47.0259C107.299 47.0259 104.549 45.2951 103.238 42.3699H112.318V39.3616H102.447C102.397 38.9022 102.37 38.427 102.37 37.9349C102.37 37.6943 102.378 37.4601 102.389 37.2285H112.318V34.2203H102.929C104.145 30.5699 107.249 28.6571 111.199 28.6571C113.294 28.6571 114.94 29.106 116.137 29.6296L117.147 25.9635C116.212 25.477 114.042 24.8413 111.012 24.8413C104.615 24.8413 99.5631 28.2973 98.0285 34.2203H91.7529V37.2285H97.5717C97.5552 37.5346 97.5443 37.844 97.5443 38.1594C97.5443 38.5684 97.5608 38.968 97.5883 39.3616H91.7529V42.3699H98.1022C99.5891 47.6102 103.988 50.8418 110.414 50.8418C113.444 50.8418 115.838 50.2805 116.923 49.7196L116.175 46.0906C114.977 46.6519 113.032 47.0259 111.161 47.0259Z" fill="#F8DC4A"/>
<path d="M101.31 44.0508C101.06 47.4737 100.556 47.9459 97.292 48.2094C100.555 48.473 101.06 48.9451 101.31 52.3681C101.559 48.9451 102.064 48.473 105.327 48.2094C102.064 47.9455 101.559 47.4733 101.31 44.0508Z" fill="white"/>
<path d="M121.64 12.1566C121.241 17.6315 120.433 18.3867 115.214 18.8082C120.433 19.23 121.241 19.9849 121.64 25.4597C122.039 19.9849 122.846 19.23 128.066 18.8082C122.846 18.3867 122.039 17.6315 121.64 12.1566Z" fill="white"/>
</svg>
