<svg width="179" height="179" viewBox="0 0 179 179" fill="none" xmlns="http://www.w3.org/2000/svg">
<g filter="url(#filter0_d_217_3004)">
<circle cx="89.4318" cy="85.3299" r="68.8273" fill="white"/>
</g>
<path d="M72.7503 77.4178L46.3262 94.5981L46.4684 97.2521C46.5021 97.8823 46.8491 98.4537 47.3924 98.7745L87.0369 122.18C87.9714 122.731 89.1604 122.585 89.9332 121.822L114.176 97.9024C114.569 97.5152 114.807 96.9986 114.846 96.4486L115.003 94.2386L72.7503 77.4178Z" fill="#4A91AD"/>
<path d="M72.0659 74.952L46.778 93.4008C45.9474 94.0065 46.0115 95.2656 46.8994 95.7838L87.6792 119.599C88.2357 119.924 88.9408 119.836 89.3997 119.383L113.334 95.7683C114.039 95.0728 113.837 93.888 112.942 93.4645L73.516 74.815C73.044 74.5915 72.4878 74.6443 72.0659 74.952Z" fill="#ECF3FE"/>
<path d="M70.3772 79.1455L58.7974 87.7408C57.4024 88.7763 57.5216 90.9012 59.0239 91.774L91.2394 109.42C92.1812 109.967 93.3722 109.817 94.1493 109.054L105.598 97.9898C106.798 96.811 106.458 94.7974 104.937 94.0781L72.8526 78.9012C72.0458 78.5196 71.0941 78.6134 70.3772 79.1455Z" fill="#BAD9E6"/>
<path d="M75.72 43.9046L72.0634 73.3235C71.9268 74.4231 72.4846 75.488 73.4373 75.9468L113.558 95.2589C114.901 95.9049 116.468 95.114 116.841 93.6028L125.223 59.6678C125.545 58.3648 124.843 57.0243 123.63 56.6239L78.7837 41.828C77.3758 41.3635 75.9128 42.3555 75.72 43.9046Z" fill="#4A91AD"/>
<path d="M75.0471 43.6403L71.3906 73.0591C71.2539 74.1587 71.8118 75.2239 72.7645 75.6825L112.886 94.9945C114.228 95.6405 115.795 94.8499 116.169 93.3384L124.55 59.4034C124.872 58.1005 124.17 56.7596 122.957 56.3595L78.1108 41.5636C76.7029 41.0991 75.2396 42.0908 75.0471 43.6403Z" fill="#ECF3FE"/>
<path d="M77.3012 47.3248L74.0038 72.3543C73.8807 73.2898 74.3834 74.1959 75.2427 74.5861L111.422 91.0167C112.632 91.5663 114.045 90.8936 114.382 89.6078L121.94 60.7359C122.23 59.6275 121.597 58.4866 120.504 58.1463L80.0635 45.5581C78.7942 45.1626 77.4748 46.0067 77.3012 47.3248Z" fill="#184A5F"/>
<path d="M67.3585 99.363L64.3057 101.992C63.792 102.434 63.8713 103.251 64.4602 103.587L71.8149 107.775C72.208 107.999 72.7032 107.924 73.0135 107.596L75.8379 104.6C76.2805 104.13 76.1567 103.368 75.588 103.063L68.4617 99.2419C68.1042 99.0504 67.6658 99.0986 67.3585 99.363Z" fill="#BAD9E6"/>
<path d="M103.992 53.0063C100.379 54.3284 96.7875 55.7204 93.2412 57.1933C87.0091 59.7817 80.9758 62.8365 74.8762 65.7351L74.0044 72.354C73.9327 72.898 74.078 73.4292 74.3767 73.8576C81.7555 72.3979 88.8894 69.462 95.878 66.7574C101.132 64.7243 106.506 63.0316 111.828 61.1929C114.402 60.3036 116.976 59.408 119.563 58.557C119.925 58.4382 120.297 58.3269 120.674 58.2177C120.617 58.1942 120.564 58.1645 120.504 58.1457L103.992 53.0063Z" fill="#24617A"/>
<path d="M75.8389 58.421C79.4327 56.987 83.0975 55.7188 86.6795 54.2587C89.5326 53.0958 92.3738 51.9028 95.1628 50.5929C95.3011 50.5279 95.447 50.4609 95.5956 50.3932L88.3085 48.1247C87.1284 48.6582 85.943 49.1807 84.7569 49.6983C81.9346 50.9299 79.159 52.2428 76.4618 53.6942L75.8389 58.421Z" fill="#24617A"/>
<path d="M73.5495 80.1556C70.6353 82.5677 67.6783 84.9458 64.7905 87.3981C64.4548 87.6774 64.1188 87.956 63.783 88.2353C62.7006 89.1348 61.5014 89.9789 60.5662 91.0352C60.4678 91.1464 60.6236 91.3349 60.7514 91.2597C61.8592 90.6048 62.8205 89.6894 63.8134 88.8753C64.2534 88.5145 64.6931 88.1541 65.1332 87.7933C68.085 85.4251 70.977 82.9751 73.8944 80.5736C74.1641 80.3511 73.8192 79.9335 73.5495 80.1556Z" fill="#8AA7B5"/>
<path d="M77.1393 82.2072C74.2252 84.6193 71.2681 86.9974 68.3804 89.4497C68.0446 89.729 67.7086 90.0076 67.3729 90.2869C66.2905 91.1864 65.0912 92.0305 64.156 93.0868C64.0577 93.1977 64.2135 93.3865 64.3412 93.3113C65.449 92.6564 66.4103 91.741 67.4033 90.9269C67.8433 90.5661 68.283 90.2057 68.723 89.8449C71.6748 87.4767 74.5668 85.0267 77.4843 82.6252C77.7543 82.403 77.4094 81.9851 77.1393 82.2072Z" fill="#8AA7B5"/>
<path d="M80.7302 84.2589C77.816 86.6709 74.8589 89.049 71.9712 91.5013C71.6355 91.7806 71.2994 92.0592 70.9637 92.3385C69.8813 93.238 68.682 94.0821 67.7468 95.1384C67.6485 95.2497 67.8043 95.4382 67.932 95.3629C69.0399 94.708 70.0011 93.7926 70.9941 92.9786C71.4341 92.6178 71.8738 92.2573 72.3138 91.8965C75.2656 89.5283 78.1577 87.0783 81.0751 84.6768C81.3448 84.4546 80.9999 84.0367 80.7302 84.2589Z" fill="#8AA7B5"/>
<path d="M84.32 85.8619C81.4058 88.2739 78.4488 90.652 75.561 93.1043C75.2253 93.3836 74.8893 93.6622 74.5535 93.9415C73.4708 94.841 72.2719 95.6851 71.3367 96.7414C71.2383 96.8527 71.3941 97.0412 71.5219 96.9659C72.6297 96.311 73.591 95.3956 74.5839 94.5816C75.0239 94.2208 75.4636 93.8603 75.9037 93.4995C78.8555 91.1313 81.7475 88.6813 84.665 86.2798C84.935 86.0573 84.59 85.6394 84.32 85.8619Z" fill="#8AA7B5"/>
<path d="M88.0378 87.721C85.1236 90.133 82.1665 92.5111 79.2788 94.9635C78.9431 95.2427 78.607 95.5213 78.2713 95.8006C77.1889 96.7001 75.9896 97.5442 75.0545 98.6005C74.9561 98.7115 75.1119 98.9003 75.2397 98.825C76.3475 98.1701 77.3087 97.2547 78.3017 96.4407C78.7417 96.0799 79.1814 95.7194 79.6214 95.3586C82.5732 92.9904 85.4653 90.5404 88.3827 88.1389C88.6524 87.9167 88.3078 87.4988 88.0378 87.721Z" fill="#8AA7B5"/>
<path d="M91.3737 89.5805C88.4596 91.9925 85.5025 94.3706 82.6147 96.8229C82.279 97.1022 81.943 97.3808 81.6073 97.6601C80.5245 98.5596 79.3256 99.4037 78.3904 100.46C78.292 100.571 78.4478 100.76 78.5756 100.684C79.6834 100.029 80.6447 99.1139 81.6376 98.2998C82.0777 97.939 82.5174 97.5785 82.9574 97.2177C85.9092 94.8496 88.8012 92.3995 91.7187 89.998C91.9884 89.7759 91.6434 89.358 91.3737 89.5805Z" fill="#8AA7B5"/>
<path d="M95.027 91.1831C92.1129 93.5951 89.1558 95.9732 86.2681 98.4255C85.9323 98.7048 85.5963 98.9834 85.2606 99.2627C84.1782 100.162 82.9789 101.006 82.0437 102.063C81.9453 102.174 82.1012 102.362 82.2289 102.287C83.3367 101.632 84.298 100.717 85.291 99.9028C85.731 99.542 86.1707 99.1815 86.6107 98.8207C89.5625 96.4525 92.4545 94.0025 95.372 91.601C95.642 91.3788 95.2971 90.9609 95.027 91.1831Z" fill="#8AA7B5"/>
<path d="M99.0026 93.2987C96.0885 95.7108 93.1314 98.0889 90.2436 100.541C89.9079 100.82 89.5719 101.099 89.2362 101.378C88.1538 102.278 86.9545 103.122 86.0193 104.178C85.9209 104.289 86.0767 104.478 86.2045 104.403C87.3123 103.748 88.2736 102.832 89.2665 102.018C89.7066 101.658 90.1463 101.297 90.5863 100.936C93.5381 98.5682 96.4301 96.1182 99.3476 93.7166C99.6173 93.4945 99.2726 93.0766 99.0026 93.2987Z" fill="#8AA7B5"/>
<path d="M103.49 95.3503C100.576 97.7624 97.6187 100.14 94.731 102.593C94.3952 102.872 94.0592 103.151 93.7235 103.43C92.6407 104.329 91.4418 105.174 90.5066 106.23C90.4082 106.341 90.564 106.53 90.6918 106.454C91.7996 105.799 92.7609 104.884 93.7538 104.07C94.1939 103.709 94.6336 103.349 95.0736 102.988C98.0254 100.62 100.917 98.1697 103.835 95.7682C104.105 95.5461 103.76 95.1282 103.49 95.3503Z" fill="#8AA7B5"/>
<path d="M103.483 96.9527C100.141 95.1803 78.5638 85.4637 75.1945 83.731C74.8082 83.5277 74.4224 83.3233 74.0361 83.1197C72.7913 82.4628 71.5531 81.6768 70.2201 81.216C70.0798 81.1674 69.965 81.3837 70.0835 81.4728C71.1117 82.2465 72.3249 82.7856 73.4565 83.392C73.9579 83.6607 74.459 83.9297 74.9604 84.1985C78.2763 86.0223 99.8951 95.6517 103.229 97.431C103.537 97.5954 103.792 97.1174 103.483 96.9527Z" fill="#8AA7B5"/>
<path d="M100.726 99.5813C97.3839 97.8089 75.807 88.092 72.4376 86.3596C72.0514 86.1563 71.6655 85.9519 71.2793 85.7483C70.0345 85.0914 68.7966 84.3054 67.4633 83.8446C67.323 83.796 67.2081 84.0123 67.3266 84.1014C68.3549 84.8751 69.568 85.4139 70.6996 86.0206C71.2011 86.2893 71.7025 86.5583 72.2036 86.8271C75.5195 88.6509 97.1383 98.2803 100.472 100.06C100.78 100.224 101.035 99.746 100.726 99.5813Z" fill="#8AA7B5"/>
<path d="M97.9694 102.21C94.6271 100.438 73.0502 90.7206 69.6808 88.9883C69.2946 88.7849 68.9087 88.5806 68.5225 88.3769C67.2776 87.72 66.0394 86.934 64.7065 86.4732C64.5662 86.4247 64.4513 86.6409 64.5698 86.73C65.5981 87.5038 66.8112 88.0425 67.9428 88.6492C68.4442 88.9179 68.9453 89.187 69.4468 89.4557C72.7626 91.2792 94.3815 100.909 97.7152 102.688C98.0235 102.853 98.278 102.375 97.9694 102.21Z" fill="#8AA7B5"/>
<path d="M95.2135 104.838C91.8712 103.066 70.2943 93.3492 66.9249 91.6168C66.5387 91.4135 66.1528 91.2091 65.7666 91.0051C64.5218 90.3482 63.2836 89.5623 61.9506 89.1014C61.8103 89.0529 61.6954 89.2691 61.8139 89.3582C62.8422 90.132 64.0553 90.6707 65.1869 91.2775C65.6884 91.5462 66.1898 91.8152 66.6909 92.0839C70.0068 93.9077 91.6256 103.537 94.9593 105.316C95.2673 105.482 95.5218 105.003 95.2135 104.838Z" fill="#8AA7B5"/>
<path d="M92.5941 83.352C92.0306 83.0081 91.4123 82.7803 90.8412 82.4558C90.7937 82.3716 90.7264 82.2997 90.6425 82.2541C90.4788 82.1656 90.3395 82.1267 90.1526 82.1472C89.6813 82.1983 89.3145 82.8189 89.7552 83.1797C90.4289 83.7317 91.3034 83.9132 92.0537 84.3321C92.6997 84.6612 93.2087 83.7274 92.5941 83.352Z" fill="#BAD9E6"/>
<path d="M87.0454 63.7161C86.8404 63.5286 86.3961 63.4481 86.1383 63.5521C84.7179 64.1251 84.7205 65.1643 84.5059 66.4481C84.2009 68.2735 83.8959 70.0993 83.5906 71.9248C83.4341 72.7286 84.0943 73.2597 84.8278 73.3858C85.559 73.5245 86.3634 73.2584 86.4985 72.4507C86.813 70.8358 87.1273 69.2206 87.4419 67.6057C87.7152 66.2031 88.3233 64.886 87.0454 63.7161Z" fill="#00ADEE"/>
<path d="M94.7832 62.4508C94.4795 62.1947 93.8276 62.0765 93.4533 62.2102C91.3894 62.9473 91.4165 64.3417 91.1316 66.0595C90.7266 68.5023 90.3216 70.9454 89.9165 73.3885C89.7059 74.4637 90.683 75.1912 91.7582 75.3771C92.8303 75.5794 94.0006 75.2407 94.1798 74.1596C94.6033 71.9994 95.0269 69.8396 95.4504 67.6797C95.8184 65.8031 96.6777 64.0495 94.7832 62.4508Z" fill="#FFCA05"/>
<path d="M105.844 60.227C105.309 59.8553 104.186 59.6523 103.554 59.8127C100.07 60.6974 100.204 62.6173 99.8248 64.9627C99.2851 68.2977 98.7454 71.6327 98.2057 74.9678C97.9125 76.4338 99.6294 77.4954 101.48 77.8182C103.326 78.1638 105.307 77.771 105.546 76.2955C106.135 73.3506 106.724 70.4061 107.313 67.4612C107.825 64.9032 109.185 62.5447 105.844 60.227Z" fill="#F16871"/>
<defs>
<filter id="filter0_d_217_3004" x="0.604492" y="0.502533" width="177.655" height="177.655" filterUnits="userSpaceOnUse" color-interpolation-filters="sRGB">
<feFlood flood-opacity="0" result="BackgroundImageFix"/>
<feColorMatrix in="SourceAlpha" type="matrix" values="0 0 0 0 0 0 0 0 0 0 0 0 0 0 0 0 0 0 127 0" result="hardAlpha"/>
<feOffset dy="4"/>
<feGaussianBlur stdDeviation="10"/>
<feComposite in2="hardAlpha" operator="out"/>
<feColorMatrix type="matrix" values="0 0 0 0 0 0 0 0 0 0 0 0 0 0 0 0 0 0 0.25 0"/>
<feBlend mode="normal" in2="BackgroundImageFix" result="effect1_dropShadow_217_3004"/>
<feBlend mode="normal" in="SourceGraphic" in2="effect1_dropShadow_217_3004" result="shape"/>
</filter>
</defs>
</svg>
