<svg width="245" height="230" viewBox="0 0 245 230" fill="none" xmlns="http://www.w3.org/2000/svg">
<mask id="mask0_311_7913" style="mask-type:luminance" maskUnits="userSpaceOnUse" x="21" y="8" width="222" height="222">
<path d="M132.124 230C193.179 230 242.674 180.505 242.674 119.45C242.674 58.3949 193.179 8.90003 132.124 8.90003C71.0691 8.90003 21.5742 58.3949 21.5742 119.45C21.5742 180.505 71.0691 230 132.124 230Z" fill="white"/>
</mask>
<g mask="url(#mask0_311_7913)">
<mask id="mask1_311_7913" style="mask-type:luminance" maskUnits="userSpaceOnUse" x="22" y="8" width="222" height="222">
<path d="M243.303 8.90003H22.2031V230H243.303V8.90003Z" fill="white"/>
</mask>
<g mask="url(#mask1_311_7913)">
<path d="M243.222 9.00805H22.1221V230.108H243.222V9.00805Z" fill="#003750"/>
<path opacity="0.1" d="M191.84 178.737C224.474 146.103 224.474 93.1936 191.84 60.5598C159.206 27.926 106.297 27.926 73.6629 60.5598C41.0291 93.1935 41.0291 146.103 73.6629 178.737C106.297 211.371 159.206 211.371 191.84 178.737Z" fill="white"/>
</g>
</g>
<path d="M152.525 134.118H112.865V155.573H152.525V134.118Z" fill="#C4C4C4"/>
<path d="M169.866 164.398H95.5303C95.5316 162.058 96.4619 159.815 98.1168 158.161C99.7717 156.507 102.016 155.578 104.355 155.578H161.039C163.38 155.578 165.625 156.508 167.28 158.163C168.935 159.817 169.866 162.062 169.866 164.403V164.398Z" fill="#FFFFFA"/>
<path d="M218.584 14.812H46.8092C45.5883 14.812 44.5986 15.8017 44.5986 17.0225V131.908C44.5986 133.129 45.5883 134.118 46.8092 134.118H218.584C219.805 134.118 220.795 133.129 220.795 131.908V17.0225C220.795 15.8017 219.805 14.812 218.584 14.812Z" fill="#FFFFFA"/>
<path d="M46.8092 9.44768H218.584C219.171 9.44768 219.733 9.68058 220.147 10.0951C220.562 10.5097 220.795 11.072 220.795 11.6582V118.187H44.5986V11.6582C44.5986 11.072 44.8315 10.5097 45.2461 10.0951C45.6607 9.68058 46.2229 9.44768 46.8092 9.44768Z" fill="#151B35"/>
<path d="M214.942 15.2344H50.4492V111.524H214.942V15.2344Z" fill="#2B4C5A"/>
<path d="M212.668 17.5752H52.7266V109.183H212.668V17.5752Z" fill="#00AEEF"/>
<path d="M136.435 125.826C136.435 126.566 136.215 127.288 135.805 127.903C135.394 128.518 134.81 128.997 134.127 129.28C133.444 129.563 132.692 129.637 131.967 129.493C131.242 129.348 130.576 128.992 130.053 128.47C129.53 127.947 129.174 127.281 129.03 126.556C128.886 125.83 128.96 125.079 129.243 124.396C129.526 123.713 130.005 123.129 130.619 122.718C131.234 122.307 131.957 122.088 132.696 122.088C133.187 122.088 133.674 122.184 134.127 122.372C134.581 122.56 134.993 122.835 135.34 123.182C135.688 123.529 135.963 123.942 136.151 124.395C136.338 124.849 136.435 125.335 136.435 125.826Z" fill="#C4C4C4"/>
<path d="M212.668 17.5752H52.7266V21.3135H212.668V17.5752Z" fill="#9B9B9B"/>
<path d="M56.9167 19.4418C56.9172 19.6455 56.8572 19.8447 56.7444 20.0143C56.6316 20.1838 56.4711 20.3161 56.2831 20.3944C56.0951 20.4727 55.8881 20.4934 55.6883 20.454C55.4885 20.4145 55.3049 20.3167 55.1607 20.1729C55.0165 20.0291 54.9183 19.8457 54.8784 19.646C54.8384 19.4463 54.8587 19.2392 54.9365 19.051C55.0143 18.8628 55.1462 18.702 55.3155 18.5888C55.4848 18.4756 55.6839 18.4152 55.8875 18.4152C56.0226 18.4148 56.1563 18.4412 56.2812 18.4926C56.406 18.5441 56.5195 18.6196 56.6151 18.715C56.7107 18.8104 56.7865 18.9237 56.8383 19.0484C56.89 19.1731 56.9167 19.3068 56.9167 19.4418Z" fill="#C4C4C4"/>
<path d="M60.5739 19.4418C60.5744 19.6455 60.5144 19.8447 60.4016 20.0143C60.2889 20.1838 60.1283 20.3161 59.9403 20.3944C59.7523 20.4727 59.5453 20.4934 59.3455 20.454C59.1457 20.4145 58.9621 20.3167 58.8179 20.1729C58.6737 20.0291 58.5755 19.8457 58.5356 19.646C58.4957 19.4463 58.5159 19.2392 58.5937 19.051C58.6715 18.8628 58.8035 18.702 58.9727 18.5888C59.142 18.4756 59.3411 18.4152 59.5448 18.4152C59.6798 18.4148 59.8136 18.4412 59.9384 18.4926C60.0633 18.5441 60.1767 18.6196 60.2723 18.715C60.3679 18.8104 60.4438 18.9237 60.4955 19.0484C60.5473 19.1731 60.5739 19.3068 60.5739 19.4418Z" fill="#C4C4C4"/>
<path d="M64.2311 19.4418C64.2316 19.6455 64.1717 19.8447 64.0589 20.0143C63.9461 20.1838 63.7855 20.3161 63.5975 20.3944C63.4095 20.4727 63.2025 20.4934 63.0027 20.454C62.8029 20.4145 62.6193 20.3167 62.4751 20.1729C62.331 20.0291 62.2327 19.8457 62.1928 19.646C62.1529 19.4463 62.1731 19.2392 62.251 19.051C62.3288 18.8628 62.4607 18.702 62.63 18.5888C62.7993 18.4756 62.9983 18.4152 63.202 18.4152C63.337 18.4148 63.4708 18.4412 63.5956 18.4926C63.7205 18.5441 63.834 18.6196 63.9296 18.715C64.0251 18.8104 64.101 18.9237 64.1527 19.0484C64.2045 19.1731 64.2311 19.3068 64.2311 19.4418Z" fill="#C4C4C4"/>
<path opacity="0.1" d="M152.525 134.118H112.865V144.847H152.525V134.118Z" fill="#000100"/>
<path d="M195.047 118.767L188.014 119.847L188.331 121.915L195.364 120.835L195.047 118.767Z" fill="#151B35"/>
<path d="M186.406 127.774L235.817 120.287L239.661 145.661C239.69 145.855 239.642 146.052 239.526 146.209C239.41 146.367 239.236 146.472 239.042 146.501L191.091 153.767C190.897 153.796 190.7 153.747 190.543 153.631C190.385 153.515 190.28 153.341 190.251 153.148L186.406 127.774Z" fill="#FFFFFA"/>
<path d="M230.581 111.511L217.787 113.476L219.121 122.162L231.915 120.198L230.581 111.511Z" fill="#151B35"/>
<path d="M186.355 122.11L234.23 114.758C234.423 114.728 234.62 114.777 234.778 114.892C234.935 115.008 235.04 115.181 235.07 115.375L236.42 124.163L187.088 131.738L185.739 122.95C185.709 122.757 185.757 122.56 185.873 122.402C185.989 122.245 186.162 122.139 186.355 122.11Z" fill="#151B35"/>
<path d="M223.159 145.16C229.276 139.043 229.276 129.126 223.159 123.009C217.042 116.892 207.125 116.892 201.008 123.009C194.891 129.126 194.891 139.043 201.008 145.16C207.125 151.277 217.042 151.277 223.159 145.16Z" fill="#256D7E"/>
<path d="M221.935 141.421C225.998 135.977 224.879 128.27 219.435 124.206C213.991 120.142 206.284 121.261 202.22 126.705C198.157 132.149 199.275 139.857 204.719 143.92C210.163 147.984 217.871 146.865 221.935 141.421Z" fill="#9B9B9B"/>
<path d="M218.957 140.959C222.754 137.162 222.754 131.007 218.957 127.211C215.161 123.414 209.006 123.414 205.209 127.211C201.413 131.007 201.413 137.162 205.209 140.959C209.006 144.755 215.161 144.755 218.957 140.959Z" fill="#020202"/>
<path d="M210.105 137.648C210.179 138.128 210.109 138.62 209.904 139.06C209.699 139.501 209.367 139.87 208.952 140.122C208.537 140.374 208.056 140.498 207.57 140.476C207.085 140.455 206.616 140.29 206.225 140.003C205.833 139.715 205.535 139.318 205.369 138.861C205.203 138.404 205.177 137.908 205.293 137.436C205.409 136.965 205.662 136.538 206.021 136.21C206.379 135.882 206.827 135.668 207.308 135.594C207.951 135.496 208.607 135.658 209.131 136.042C209.656 136.427 210.006 137.005 210.105 137.648Z" fill="white"/>
<path d="M53.0385 72.5303L2.03377 94.2541C0.910551 94.7325 0.38782 96.0309 0.866219 97.1541L32.0953 170.476C32.5737 171.599 33.8721 172.122 34.9953 171.644L86.0001 149.92C87.1233 149.441 87.6461 148.143 87.1676 147.02L55.9385 73.6979C55.4601 72.5746 54.1618 72.0519 53.0385 72.5303Z" fill="#FFFFFA"/>
<path d="M61.0944 152.65C61.385 153.33 61.4677 154.08 61.3319 154.807C61.1962 155.533 60.8481 156.203 60.3317 156.732C59.8152 157.261 59.1536 157.625 58.4305 157.778C57.7074 157.93 56.9551 157.865 56.2689 157.591C55.5826 157.316 54.9931 156.845 54.5749 156.235C54.1567 155.626 53.9285 154.906 53.9192 154.167C53.9099 153.428 54.12 152.703 54.5227 152.083C54.9255 151.463 55.5029 150.977 56.1821 150.685C56.6335 150.491 57.1189 150.387 57.6104 150.381C58.102 150.374 58.59 150.465 59.0464 150.647C59.5028 150.83 59.9187 151.101 60.2701 151.444C60.6216 151.788 60.9017 152.198 61.0944 152.65Z" fill="#C4C4C4"/>
<path d="M53.7952 77.6058L5.16992 98.3161L30.6474 158.134L79.2726 137.424L53.7952 77.6058Z" fill="#151B35"/>
<path opacity="0.1" d="M56.4304 147.153L30.4465 158.218L27.8086 88.6741L53.7925 77.6066L56.4304 147.153Z" fill="#FFFFFA"/>
<path d="M242.014 9.70523L212.716 0.652574C211.549 0.292167 210.311 0.945593 209.951 2.11204L191.056 63.265C190.696 64.4314 191.349 65.6692 192.515 66.0296L221.814 75.0823C222.981 75.4427 224.218 74.7892 224.579 73.6228L243.474 12.4698C243.834 11.3034 243.181 10.0656 242.014 9.70523Z" fill="#FFFFFA"/>
<path d="M212.673 65.3945C212.456 66.1018 212.034 66.7289 211.461 67.1963C210.887 67.6638 210.188 67.9506 209.452 68.0204C208.715 68.0902 207.974 67.94 207.323 67.5886C206.672 67.2373 206.14 66.7007 205.794 66.0467C205.448 65.3928 205.304 64.6509 205.38 63.915C205.456 63.1791 205.749 62.4822 206.221 61.9127C206.693 61.3432 207.324 60.9266 208.033 60.7157C208.742 60.5047 209.498 60.5089 210.204 60.7278C211.149 61.021 211.94 61.6767 212.402 62.5514C212.865 63.426 212.962 64.4483 212.673 65.3945Z" fill="#C4C4C4"/>
<path d="M242.708 14.9401L209.186 4.58232L194.009 53.7013L227.532 64.0591L242.708 14.9401Z" fill="#151B35"/>
<path opacity="0.1" d="M194.008 53.7031L208.941 58.3182L242.576 15.372L242.709 14.9422L220.461 8.06734L200.06 34.1151L194.008 53.7031Z" fill="#FFFFFA"/>
<path d="M213.022 174.797L202.04 165.845L215.154 171.206L213.022 174.797Z" fill="#FCEE21"/>
<path d="M199.043 184.573L191.905 166.8L202.725 182.606L199.043 184.573Z" fill="#FCEE21"/>
<path d="M68.9789 167.94L54.0822 183.424L51.3682 180.25L68.9789 167.94Z" fill="#FCEE21"/>
<path d="M82.4234 165.508L72.0314 189.115L68.3594 187.127L82.4234 165.508Z" fill="#FCEE21"/>
<g style="mix-blend-mode:multiply" opacity="0.5">
<path d="M74.0683 60.3545L68.8931 69.1672C68.8517 69.2381 68.7968 69.3001 68.7314 69.3497C68.666 69.3993 68.5915 69.4356 68.5121 69.4563C68.4327 69.4771 68.35 69.482 68.2687 69.4707C68.1874 69.4595 68.1091 69.4323 68.0383 69.3907L53.2178 60.6934L59.0266 50.7999L73.8447 59.4972C73.9876 59.5817 74.0912 59.7192 74.1331 59.8798C74.1749 60.0404 74.1516 60.211 74.0683 60.3545Z" fill="#7F92B1"/>
<path d="M72.8942 61.1158L68.3552 68.8528C68.2703 68.9952 68.1326 69.0983 67.9721 69.1397C67.8115 69.1811 67.6411 69.1574 67.498 69.0738L53.2178 60.6933L58.3929 51.8781L72.6731 60.2586C72.8155 60.3435 72.9187 60.4812 72.9601 60.6417C73.0015 60.8022 72.9778 60.9726 72.8942 61.1158Z" fill="#7F92B1"/>
<path d="M33.8481 36.7456L28.6729 45.5608C28.5896 45.7039 28.5664 45.8742 28.6083 46.0343C28.6502 46.1945 28.7537 46.3316 28.8964 46.4156L41.5138 53.8234L47.3226 43.9299L34.7053 36.5221C34.6343 36.4805 34.5558 36.4533 34.4744 36.442C34.3929 36.4307 34.31 36.4356 34.2304 36.4563C34.1508 36.4771 34.076 36.5133 34.0104 36.5629C33.9448 36.6126 33.8897 36.6747 33.8481 36.7456Z" fill="#7F92B1"/>
<path d="M33.8092 38.1727L29.2677 45.9072C29.2261 45.9782 29.1989 46.0566 29.1876 46.1381C29.1763 46.2196 29.1811 46.3025 29.2019 46.3821C29.2227 46.4617 29.2589 46.5365 29.3085 46.602C29.3582 46.6676 29.4203 46.7228 29.4912 46.7644L41.5142 53.8235L46.6894 45.0083L34.6541 37.9492C34.5119 37.869 34.344 37.8475 34.1862 37.8892C34.0284 37.931 33.8931 38.0327 33.8092 38.1727Z" fill="#7F92B1"/>
<path d="M66.3501 55.5991L61.1378 64.3884C60.9614 64.6859 61.0595 65.0701 61.357 65.2465L63.2201 66.3513C63.5175 66.5277 63.9017 66.4296 64.0781 66.1321L69.2904 57.3428C69.4668 57.0453 69.3687 56.6611 69.0712 56.4847L67.2081 55.3799C66.9106 55.2035 66.5265 55.3016 66.3501 55.5991Z" fill="#7F92B1"/>
<path d="M65.6759 56.15L60.5026 64.9642C60.3275 65.2625 60.4274 65.6463 60.7257 65.8213L62.594 66.9179C62.8923 67.093 63.2761 66.9931 63.4512 66.6948L68.6245 57.8807C68.7996 57.5824 68.6997 57.1986 68.4014 57.0235L66.5331 55.9269C66.2347 55.7518 65.851 55.8517 65.6759 56.15Z" fill="#7F92B1"/>
<path d="M60.8884 51.8905L59.0266 50.7999L58.3929 51.8782L53.2178 60.6934L55.0992 61.7962C56.9778 60.9565 58.5463 59.5496 59.5846 57.7731C60.6229 55.9965 61.0788 53.9394 60.8884 51.8905Z" fill="#7F92B1"/>
<path d="M57.2281 59.274C61.0764 55.4258 61.0764 49.1864 57.2281 45.3381C53.3798 41.4898 47.1405 41.4898 43.2922 45.3381C39.4439 49.1864 39.4439 55.4258 43.2922 59.2741C47.1405 63.1223 53.3798 63.1223 57.2281 59.274Z" fill="#7F92B1"/>
<path d="M56.7875 58.8329C60.3921 55.2283 60.3921 49.384 56.7875 45.7793C53.1828 42.1746 47.3385 42.1746 43.7338 45.7793C40.1292 49.3839 40.1292 55.2283 43.7338 58.8329C47.3385 62.4376 53.1828 62.4376 56.7875 58.8329Z" fill="#7F92B1"/>
<path d="M56.4917 57.687C55.1082 58.7313 53.4463 59.342 51.7159 59.4422C49.9855 59.5424 48.2642 59.1275 46.7695 58.2499C45.2748 57.3723 44.0737 56.0714 43.3179 54.5115C42.5622 52.9517 42.2857 51.2028 42.5234 49.4859C41.866 51.2952 41.8632 53.2777 42.5155 55.0889C43.1678 56.9001 44.434 58.4255 46.0941 59.4002C47.7542 60.3749 49.7033 60.7372 51.6028 60.4243C53.5022 60.1113 55.232 59.1428 56.4917 57.687Z" fill="#7F92B1"/>
</g>
<path d="M73.0512 58.8218L67.8736 67.6468C67.832 67.7178 67.7768 67.7799 67.7112 67.8295C67.6456 67.8792 67.5709 67.9154 67.4913 67.9361C67.4116 67.9569 67.3287 67.9618 67.2473 67.9505C67.1658 67.9392 67.0873 67.912 67.0163 67.8703L52.1982 59.1607L58.0046 49.2673L72.8252 57.967C72.8965 58.008 72.959 58.0626 73.0091 58.1279C73.0591 58.1932 73.0957 58.2677 73.1167 58.3472C73.1377 58.4267 73.1428 58.5096 73.1315 58.5911C73.1203 58.6725 73.093 58.751 73.0512 58.8218Z" fill="#031926"/>
<path d="M71.8747 59.5856L67.3332 67.3201C67.2916 67.3911 67.2364 67.4532 67.1708 67.5028C67.1052 67.5524 67.0305 67.5887 66.9509 67.6094C66.8713 67.6302 66.7884 67.6351 66.7069 67.6238C66.6254 67.6125 66.5469 67.5852 66.476 67.5436L52.1982 59.1632L57.3734 50.3479L71.6511 58.7284C71.794 58.8129 71.8976 58.9504 71.9395 59.111C71.9814 59.2715 71.9581 59.4422 71.8747 59.5856Z" fill="#092A3F"/>
<path d="M32.8286 35.2253L27.6535 44.0405C27.6118 44.1114 27.5846 44.1899 27.5733 44.2714C27.562 44.3529 27.5669 44.4358 27.5876 44.5154C27.6084 44.595 27.6446 44.6697 27.6943 44.7353C27.7439 44.8009 27.806 44.8561 27.877 44.8977L40.4943 52.3055L46.3032 42.3973L33.6834 34.9919C33.612 34.9508 33.5332 34.9242 33.4515 34.9136C33.3698 34.9031 33.2868 34.9088 33.2074 34.9305C33.1279 34.9522 33.0535 34.9894 32.9885 35.04C32.9235 35.0906 32.8692 35.1536 32.8286 35.2253Z" fill="#031926"/>
<path d="M32.7869 36.6425L28.2478 44.377C28.1636 44.52 28.1395 44.6906 28.181 44.8513C28.2224 45.0121 28.326 45.1498 28.4689 45.2342L40.5042 52.2932L45.6793 43.478L33.6441 36.419C33.5731 36.3774 33.4946 36.3501 33.4132 36.3388C33.3317 36.3275 33.2488 36.3324 33.1692 36.3532C33.0896 36.3739 33.0148 36.4102 32.9492 36.4598C32.8836 36.5095 32.8285 36.5715 32.7869 36.6425Z" fill="#092A3F"/>
<path d="M65.2882 53.5396L60.1149 62.3537C59.9398 62.652 60.0397 63.0358 60.338 63.2109L62.2063 64.3075C62.5046 64.4826 62.8884 64.3827 63.0635 64.0843L68.2368 55.2702C68.4119 54.9719 68.312 54.5881 68.0137 54.413L66.1454 53.3165C65.847 53.1414 65.4633 53.2413 65.2882 53.5396Z" fill="#062539"/>
<path d="M64.6563 54.6174L59.4831 63.4316C59.308 63.7299 59.4079 64.1137 59.7062 64.2887L61.5745 65.3853C61.8728 65.5604 62.2566 65.4605 62.4317 65.1622L67.605 56.3481C67.78 56.0498 67.6802 55.666 67.3818 55.4909L65.5135 54.3943C65.2152 54.2192 64.8314 54.3191 64.6563 54.6174Z" fill="#12405B"/>
<path d="M59.8664 50.3603L58.0046 49.2673L57.3734 50.348L52.1982 59.1607L54.0797 60.2636C55.9576 59.4232 57.5254 58.0161 58.5632 56.2396C59.6009 54.4631 60.0567 52.4064 59.8664 50.3578V50.3603Z" fill="#031926"/>
<path d="M56.2056 57.7437C60.0539 53.8954 60.0539 47.656 56.2056 43.8078C52.3573 39.9595 46.118 39.9595 42.2697 43.8078C38.4214 47.656 38.4214 53.8954 42.2697 57.7437C46.118 61.592 52.3573 61.592 56.2056 57.7437Z" fill="#D7DEE0"/>
<path d="M55.765 57.3025C59.3697 53.6979 59.3697 47.8536 55.765 44.2489C52.1603 40.6442 46.316 40.6442 42.7114 44.2489C39.1067 47.8536 39.1067 53.6979 42.7114 57.3025C46.316 60.9072 52.1603 60.9072 55.765 57.3025Z" fill="#062338"/>
<path d="M55.4698 56.1543C54.0865 57.1975 52.4251 57.8075 50.6954 57.9073C48.9658 58.0071 47.2453 57.5922 45.7512 56.7151C44.257 55.8379 43.0563 54.5378 42.3004 52.9789C41.5445 51.4199 41.2673 49.6719 41.504 47.9556C40.8458 49.7648 40.8423 51.7474 41.4943 53.5589C42.1463 55.3703 43.4125 56.896 45.0728 57.8706C46.733 58.8453 48.6824 59.2073 50.5818 58.8938C52.4813 58.5802 54.2109 57.6109 55.4698 56.1543Z" fill="#395063"/>
<path fill-rule="evenodd" clip-rule="evenodd" d="M68.9248 202.764H193.649C193.649 202.177 193.416 201.615 193.002 201.2C192.587 200.786 192.025 200.553 191.439 200.553H71.1427C70.8518 200.552 70.5636 200.608 70.2945 200.719C70.0255 200.83 69.7809 200.992 69.5749 201.198C69.3688 201.403 69.2053 201.647 69.0938 201.916C68.9822 202.185 68.9248 202.473 68.9248 202.764Z" fill="white"/>
<path fill-rule="evenodd" clip-rule="evenodd" d="M193.649 202.763H145.263C145.263 203.26 145.065 203.737 144.714 204.089C144.362 204.44 143.886 204.638 143.389 204.638H119.171C118.674 204.638 118.197 204.44 117.846 204.089C117.494 203.737 117.297 203.26 117.297 202.763H68.9248C68.9248 204.077 69.4468 205.337 70.3758 206.267C71.3049 207.196 72.565 207.718 73.8789 207.718H188.688C189.339 207.719 189.984 207.591 190.586 207.343C191.188 207.094 191.735 206.729 192.196 206.269C192.657 205.809 193.022 205.263 193.272 204.661C193.521 204.059 193.649 203.415 193.649 202.763Z" fill="#182F44"/>
<path fill-rule="evenodd" clip-rule="evenodd" d="M139.464 204.638H143.394C143.891 204.638 144.367 204.44 144.719 204.089C145.07 203.737 145.268 203.26 145.268 202.763H141.333C141.333 203.26 141.136 203.736 140.786 204.087C140.435 204.438 139.96 204.636 139.464 204.638Z" fill="#182F44"/>
<path d="M121.229 202.763H117.299C117.299 203.26 117.496 203.737 117.848 204.089C118.199 204.44 118.676 204.638 119.173 204.638H123.103C122.857 204.638 122.613 204.59 122.385 204.496C122.158 204.401 121.951 204.263 121.777 204.089C121.603 203.915 121.465 203.709 121.371 203.481C121.277 203.253 121.228 203.01 121.229 202.763Z" fill="white"/>
<path d="M141.332 202.763H121.229C121.228 203.009 121.276 203.253 121.37 203.48C121.464 203.708 121.602 203.914 121.776 204.088C121.95 204.263 122.156 204.401 122.383 204.495C122.611 204.589 122.854 204.638 123.1 204.638H139.463C139.959 204.636 140.435 204.438 140.785 204.087C141.136 203.736 141.332 203.26 141.332 202.763Z" fill="white"/>
<path d="M87.344 199.438H179.099C179.153 199.438 179.205 199.459 179.244 199.497C179.282 199.536 179.303 199.588 179.303 199.642V200.546H87.1377V199.642C87.1377 199.615 87.143 199.588 87.1534 199.563C87.1638 199.538 87.1791 199.516 87.1983 199.497C87.2175 199.478 87.2402 199.463 87.2652 199.453C87.2903 199.443 87.317 199.437 87.344 199.438Z" fill="white"/>
<path fill-rule="evenodd" clip-rule="evenodd" d="M178.087 142.069H88.356C87.8647 142.069 87.3783 142.166 86.9245 142.354C86.4706 142.542 86.0582 142.817 85.7109 143.165C85.3635 143.512 85.088 143.924 84.9 144.378C84.712 144.832 84.6152 145.318 84.6152 145.81V200.558H181.828V145.797C181.825 144.807 181.429 143.859 180.728 143.16C180.027 142.461 179.077 142.069 178.087 142.069Z" fill="#151B35"/>
<g opacity="0.1">
<path fill-rule="evenodd" clip-rule="evenodd" d="M90.0352 146.937V178.482L121.58 146.937H90.0352Z" fill="#FFFFFA"/>
<path fill-rule="evenodd" clip-rule="evenodd" d="M121.58 146.937L90.0352 178.482V195.061L138.159 146.937H121.58Z" fill="#FFFFFA"/>
<path fill-rule="evenodd" clip-rule="evenodd" d="M176.455 155.711L137.103 195.061H176.455V155.711Z" fill="#FFFFFA"/>
</g>
</svg>
