<svg width="418" height="205" viewBox="0 0 418 205" fill="none" xmlns="http://www.w3.org/2000/svg">
<path d="M139.951 121.235C87.2682 168.235 1.28613 203.235 1.28613 203.235H416.286V1.23462C384.478 25.7346 304.957 46.7346 286.071 74.2346C267.184 101.735 192.633 74.2346 139.951 121.235Z" fill="url(#paint0_linear_217_3004)"/>
<path d="M1.28613 203.235C1.28613 203.235 87.2682 168.235 139.951 121.235C192.633 74.2346 267.184 101.735 286.071 74.2346C304.957 46.7346 384.478 25.7346 416.286 1.23462" stroke="#FEC524" stroke-width="3"/>
<circle cx="182.035" cy="96.469" r="5" fill="#FEC524"/>
<path d="M146.253 69.229C147.243 69.229 148.027 69.4763 148.605 69.971C149.193 70.4657 149.487 71.133 149.487 71.973C149.487 72.841 149.193 73.513 148.605 73.989C148.027 74.4557 147.243 74.689 146.253 74.689L146.113 74.773H143.971V78.469H142.487V69.229H146.253ZM146.141 73.527C146.748 73.527 147.196 73.4057 147.485 73.163C147.784 72.911 147.933 72.5283 147.933 72.015C147.933 71.511 147.784 71.133 147.485 70.881C147.196 70.629 146.748 70.503 146.141 70.503H143.971V73.527H146.141ZM147.023 73.835L150.033 78.469H148.311L145.735 74.423L147.023 73.835ZM151.629 81.409V71.469H152.959L153.071 73.429L152.875 73.191C152.987 72.827 153.159 72.505 153.393 72.225C153.626 71.945 153.915 71.7257 154.261 71.567C154.615 71.4083 155.003 71.329 155.423 71.329C155.992 71.329 156.51 71.4737 156.977 71.763C157.443 72.0523 157.812 72.4677 158.083 73.009C158.353 73.541 158.489 74.1897 158.489 74.955C158.489 75.7203 158.349 76.3783 158.069 76.929C157.798 77.4703 157.425 77.8857 156.949 78.175C156.482 78.4643 155.959 78.609 155.381 78.609C154.783 78.609 154.275 78.455 153.855 78.147C153.435 77.8297 153.136 77.4283 152.959 76.943L153.127 76.705V81.409H151.629ZM155.059 77.391C155.665 77.391 156.137 77.1763 156.473 76.747C156.818 76.3177 156.991 75.725 156.991 74.969C156.991 74.213 156.823 73.6203 156.487 73.191C156.151 72.7523 155.684 72.533 155.087 72.533C154.695 72.533 154.349 72.6357 154.051 72.841C153.761 73.037 153.533 73.317 153.365 73.681C153.206 74.0357 153.127 74.465 153.127 74.969C153.127 75.4637 153.206 75.893 153.365 76.257C153.523 76.621 153.747 76.901 154.037 77.097C154.326 77.293 154.667 77.391 155.059 77.391ZM166.639 78.469V72.127C166.639 71.9403 166.639 71.749 166.639 71.553C166.648 71.3477 166.658 71.133 166.667 70.909C166.35 71.217 165.986 71.483 165.575 71.707C165.174 71.9217 164.758 72.0757 164.329 72.169L164.049 70.867C164.245 70.839 164.474 70.7737 164.735 70.671C164.996 70.5683 165.267 70.4377 165.547 70.279C165.827 70.1203 166.084 69.9523 166.317 69.775C166.55 69.5883 166.732 69.4063 166.863 69.229H168.123V78.469H166.639ZM171.348 76.579C171.665 76.579 171.917 76.6723 172.104 76.859C172.3 77.0363 172.398 77.279 172.398 77.587C172.398 77.895 172.3 78.1423 172.104 78.329C171.917 78.5157 171.665 78.609 171.348 78.609C171.021 78.609 170.76 78.5157 170.564 78.329C170.377 78.1423 170.284 77.895 170.284 77.587C170.284 77.279 170.377 77.0363 170.564 76.859C170.76 76.6723 171.021 76.579 171.348 76.579ZM177.36 78.609C176.492 78.609 175.736 78.4177 175.092 78.035C174.457 77.643 174.023 77.097 173.79 76.397L175.246 75.711C175.33 76.047 175.46 76.3363 175.638 76.579C175.815 76.8217 176.048 77.0083 176.338 77.139C176.627 77.2603 176.986 77.321 177.416 77.321C177.78 77.321 178.088 77.2557 178.34 77.125C178.592 76.9943 178.783 76.8123 178.914 76.579C179.054 76.3457 179.124 76.0797 179.124 75.781C179.124 75.473 179.063 75.2163 178.942 75.011C178.83 74.8057 178.648 74.6563 178.396 74.563C178.153 74.4697 177.84 74.423 177.458 74.423C177.346 74.423 177.229 74.4277 177.108 74.437C176.996 74.437 176.874 74.4463 176.744 74.465V73.205C176.828 73.2143 176.907 73.2237 176.982 73.233C177.066 73.233 177.145 73.233 177.22 73.233C177.826 73.233 178.26 73.1117 178.522 72.869C178.783 72.6263 178.914 72.2483 178.914 71.735C178.914 71.2963 178.778 70.9603 178.508 70.727C178.246 70.4937 177.868 70.377 177.374 70.377C176.86 70.377 176.459 70.4983 176.17 70.741C175.89 70.9743 175.675 71.315 175.526 71.763L174.154 71.189C174.284 70.7597 174.504 70.3863 174.812 70.069C175.12 69.7517 175.498 69.509 175.946 69.341C176.403 69.1637 176.902 69.075 177.444 69.075C178.106 69.075 178.657 69.1823 179.096 69.397C179.544 69.6117 179.875 69.9057 180.09 70.279C180.314 70.6523 180.426 71.0677 180.426 71.525C180.426 71.8797 180.374 72.1923 180.272 72.463C180.169 72.7243 180.029 72.953 179.852 73.149C179.684 73.3357 179.497 73.4803 179.292 73.583C179.096 73.6857 178.895 73.7557 178.69 73.793V73.821C178.96 73.8303 179.208 73.8863 179.432 73.989C179.665 74.0823 179.87 74.2177 180.048 74.395C180.234 74.563 180.379 74.7683 180.482 75.011C180.584 75.2537 180.636 75.5197 180.636 75.809C180.636 76.369 180.496 76.859 180.216 77.279C179.936 77.699 179.548 78.0257 179.054 78.259C178.568 78.4923 178.004 78.609 177.36 78.609ZM185.479 78.609C184.658 78.609 183.981 78.4317 183.449 78.077C182.926 77.7223 182.511 77.209 182.203 76.537L183.603 75.809C183.743 76.257 183.953 76.6257 184.233 76.915C184.522 77.195 184.947 77.335 185.507 77.335C185.899 77.335 186.23 77.265 186.501 77.125C186.781 76.9757 186.996 76.7703 187.145 76.509C187.294 76.2383 187.369 75.9163 187.369 75.543C187.369 75.151 187.299 74.8243 187.159 74.563C187.019 74.3017 186.818 74.1057 186.557 73.975C186.296 73.835 185.969 73.765 185.577 73.765C185.306 73.765 185.054 73.793 184.821 73.849C184.588 73.905 184.378 73.9937 184.191 74.115C184.004 74.227 183.841 74.3763 183.701 74.563L182.469 74.325L183.029 69.229H188.405V70.517H184.219L183.883 73.121L183.855 73.275H183.883C184.098 73.0417 184.373 72.8597 184.709 72.729C185.054 72.5983 185.46 72.533 185.927 72.533C186.524 72.533 187.038 72.659 187.467 72.911C187.896 73.1537 188.232 73.4943 188.475 73.933C188.718 74.3717 188.839 74.8803 188.839 75.459C188.839 75.963 188.755 76.411 188.587 76.803C188.419 77.195 188.181 77.5263 187.873 77.797C187.565 78.0677 187.206 78.273 186.795 78.413C186.394 78.5437 185.955 78.609 185.479 78.609ZM194.733 78.469V76.159H190.225V75.137C190.244 75.0903 190.272 75.0343 190.309 74.969C190.356 74.9037 190.407 74.829 190.463 74.745L194.313 69.229H196.147V74.997H197.715V76.159H196.147V78.469H194.733ZM191.625 74.997H194.733V71.735C194.733 71.511 194.738 71.2823 194.747 71.049C194.766 70.8063 194.78 70.5683 194.789 70.335H194.761C194.659 70.559 194.523 70.8063 194.355 71.077C194.197 71.3383 194.047 71.567 193.907 71.763L191.723 74.871C191.705 74.8897 191.686 74.9083 191.667 74.927C191.658 74.9457 191.644 74.969 191.625 74.997ZM200.113 76.579C200.431 76.579 200.683 76.6723 200.869 76.859C201.065 77.0363 201.163 77.279 201.163 77.587C201.163 77.895 201.065 78.1423 200.869 78.329C200.683 78.5157 200.431 78.609 200.113 78.609C199.787 78.609 199.525 78.5157 199.329 78.329C199.143 78.1423 199.049 77.895 199.049 77.587C199.049 77.279 199.143 77.0363 199.329 76.859C199.525 76.6723 199.787 76.579 200.113 76.579ZM203.28 78.469V72.127C203.28 71.9403 203.28 71.749 203.28 71.553C203.289 71.3477 203.298 71.133 203.308 70.909C202.99 71.217 202.626 71.483 202.216 71.707C201.814 71.9217 201.399 72.0757 200.97 72.169L200.69 70.867C200.886 70.839 201.114 70.7737 201.376 70.671C201.637 70.5683 201.908 70.4377 202.188 70.279C202.468 70.1203 202.724 69.9523 202.958 69.775C203.191 69.5883 203.373 69.4063 203.504 69.229H204.764V78.469H203.28ZM207.05 78.469V77.377C207.937 76.7423 208.679 76.1823 209.276 75.697C209.883 75.2117 210.368 74.7637 210.732 74.353C211.096 73.9423 211.358 73.555 211.516 73.191C211.684 72.8177 211.768 72.4397 211.768 72.057C211.768 71.5623 211.614 71.161 211.306 70.853C210.998 70.545 210.569 70.391 210.018 70.391C209.44 70.391 208.978 70.587 208.632 70.979C208.296 71.3617 208.105 71.889 208.058 72.561L206.756 71.959C206.822 71.371 206.994 70.8623 207.274 70.433C207.554 70.0037 207.932 69.6723 208.408 69.439C208.894 69.2057 209.454 69.089 210.088 69.089C210.611 69.089 211.068 69.1637 211.46 69.313C211.862 69.4623 212.198 69.6723 212.468 69.943C212.739 70.2043 212.944 70.5123 213.084 70.867C213.234 71.2217 213.308 71.5997 213.308 72.001C213.308 72.589 213.164 73.1583 212.874 73.709C212.585 74.2503 212.128 74.8057 211.502 75.375C210.877 75.9443 210.056 76.5557 209.038 77.209V77.237C209.15 77.2183 209.304 77.209 209.5 77.209C209.696 77.1997 209.892 77.195 210.088 77.195C210.284 77.1857 210.443 77.181 210.564 77.181H213.476V78.469H207.05ZM218.627 69.103C219.252 69.103 219.794 69.2057 220.251 69.411C220.718 69.607 221.077 69.887 221.329 70.251C221.581 70.615 221.707 71.0537 221.707 71.567C221.707 72.043 221.59 72.463 221.357 72.827C221.133 73.1817 220.802 73.4523 220.363 73.639V73.653C220.895 73.849 221.315 74.143 221.623 74.535C221.94 74.9177 222.099 75.3937 222.099 75.963C222.099 76.5137 221.954 76.985 221.665 77.377C221.385 77.769 220.984 78.0723 220.461 78.287C219.948 78.5017 219.336 78.609 218.627 78.609C217.918 78.609 217.302 78.5017 216.779 78.287C216.266 78.0723 215.864 77.769 215.575 77.377C215.286 76.985 215.141 76.5137 215.141 75.963C215.141 75.403 215.295 74.927 215.603 74.535C215.911 74.143 216.34 73.849 216.891 73.653V73.639C216.471 73.4617 216.14 73.1957 215.897 72.841C215.654 72.477 215.533 72.0523 215.533 71.567C215.533 71.0537 215.659 70.615 215.911 70.251C216.163 69.887 216.522 69.607 216.989 69.411C217.456 69.2057 218.002 69.103 218.627 69.103ZM218.627 70.363C218.132 70.363 217.736 70.4843 217.437 70.727C217.148 70.9697 217.003 71.301 217.003 71.721C217.003 72.141 217.152 72.4723 217.451 72.715C217.75 72.9483 218.142 73.065 218.627 73.065C219.112 73.065 219.5 72.9483 219.789 72.715C220.088 72.4723 220.237 72.141 220.237 71.721C220.237 71.301 220.092 70.9697 219.803 70.727C219.514 70.4843 219.122 70.363 218.627 70.363ZM218.627 77.349C219.038 77.349 219.388 77.2883 219.677 77.167C219.966 77.0457 220.19 76.8683 220.349 76.635C220.508 76.4017 220.587 76.131 220.587 75.823C220.587 75.4963 220.503 75.221 220.335 74.997C220.176 74.7637 219.952 74.5863 219.663 74.465C219.374 74.3437 219.028 74.283 218.627 74.283C218.235 74.283 217.89 74.3437 217.591 74.465C217.292 74.5863 217.059 74.7637 216.891 74.997C216.732 75.221 216.653 75.4963 216.653 75.823C216.653 76.131 216.732 76.4017 216.891 76.635C217.05 76.8683 217.278 77.0457 217.577 77.167C217.876 77.2883 218.226 77.349 218.627 77.349Z" fill="#333333"/>
<defs>
<linearGradient id="paint0_linear_217_3004" x1="208.786" y1="1.23462" x2="208.786" y2="203.235" gradientUnits="userSpaceOnUse">
<stop stop-color="#FFC529"/>
<stop offset="1" stop-color="#FFDA77" stop-opacity="0"/>
</linearGradient>
</defs>
</svg>
