<svg width="200" height="200" viewBox="0 0 125 125" fill="none" xmlns="http://www.w3.org/2000/svg"><g filter="url(#filter0_d_217_3004)"><ellipse cx="62.5753" cy="58.5138" rx="42.0753" ry="42.0753" fill="white" /></g><path d="M63.5759 78.2323L40.2275 76.8733L40.2275 41.6665L63.5759 33.1429L69.5665 56.4287L63.5759 78.2323Z" fill="#101418" /><path d="M63.5759 78.2323L40.2275 76.8733L40.2275 41.6665L63.5759 33.1429L69.5665 56.4287L63.5759 78.2323Z" fill="#CB7D3A" /><g style="mix-blend-mode:multiply"><path d="M40.2322 73.7718L40.2256 74.0499L63.574 74.6072L63.5805 74.3291L40.2322 73.7718Z" fill="#CEAE97" /><path d="M63.2654 71.4067L41.0425 71.4924L41.0435 71.7706L63.2665 71.6848L63.2654 71.4067Z" fill="#CEAE97" /><path d="M63.2669 68.481L41.0444 69.2689L41.0542 69.5469L63.2767 68.759L63.2669 68.481Z" fill="#CEAE97" /><path d="M59.3822 74.4645L59.1055 74.4645L59.1055 77.1977L59.3822 77.1977L59.3822 74.4645Z" fill="#CEAE97" /><path d="M54.0838 74.2036L53.8071 74.2036L53.8071 76.9368L54.0838 76.9368L54.0838 74.2036Z" fill="#CEAE97" /><path d="M49.9359 74.2036L49.6592 74.2036L49.6592 76.9368L49.9359 76.9368L49.9359 74.2036Z" fill="#CEAE97" /><path d="M46.2347 74.1108L45.958 74.1108L45.958 76.8441L46.2347 76.8441L46.2347 74.1108Z" fill="#CEAE97" /><path d="M43.5765 73.9426L43.2998 73.9426L43.2998 76.5262L43.5765 76.5262L43.5765 73.9426Z" fill="#CEAE97" /><path d="M41.5023 73.9426L41.2256 73.9426L41.2256 76.3639L41.5023 76.3639L41.5023 73.9426Z" fill="#CEAE97" /><path d="M42.5394 71.7194L42.2627 71.7194L42.2627 73.9426L42.5394 73.9426L42.5394 71.7194Z" fill="#CEAE97" /><path d="M45.0511 71.7194L44.7744 71.7194L44.7744 73.9426L45.0511 73.9426L45.0511 71.7194Z" fill="#CEAE97" /><path d="M48.1502 71.6267L47.8735 71.6267L47.8735 74.048L48.1502 74.048L48.1502 71.6267Z" fill="#CEAE97" /><path d="M52.0404 71.6267L51.7637 71.6267L51.7637 74.1109L52.0404 74.1109L52.0404 71.6267Z" fill="#CEAE97" /><path d="M56.7098 71.6267L56.4331 71.6267L56.4331 74.3076L56.7098 74.3076L56.7098 71.6267Z" fill="#CEAE97" /><path d="M62.2708 71.6267L61.9941 71.6267L61.9941 74.4381L62.2708 74.4381L62.2708 71.6267Z" fill="#CEAE97" /><path d="M62.2708 65.7708L61.9941 65.7708L61.9941 68.5821L62.2708 68.5821L62.2708 65.7708Z" fill="#CEAE97" /><path d="M59.3822 68.708L59.1055 68.708L59.1055 71.5194L59.3822 71.5194L59.3822 68.708Z" fill="#CEAE97" /><path d="M55.036 68.8842L54.7593 68.8842L54.7593 71.6955L55.036 71.6955L55.036 68.8842Z" fill="#CEAE97" /><path d="M51.118 68.9987L50.8413 68.9987L50.8413 71.6266L51.118 71.6266L51.118 68.9987Z" fill="#CEAE97" /><path d="M46.8792 69.1027L46.6025 69.1027L46.6025 71.7306L46.8792 71.7306L46.8792 69.1027Z" fill="#CEAE97" /><path d="M43.7953 69.2571L43.5186 69.2571L43.5186 71.6956L43.7953 71.6956L43.7953 69.2571Z" fill="#CEAE97" /><path d="M41.6756 69.4041L41.3989 69.4041L41.3989 71.8426L41.6756 71.8426L41.6756 69.4041Z" fill="#CEAE97" /></g><path d="M68.2746 51.406L63.5759 33.1429L40.2275 38.8544L40.2275 73.0327L63.5759 72.8307L68.2746 51.406Z" fill="#2F3235" /><path d="M63.5753 53.1293L40.2256 56.5268L40.2256 56.7725L63.5766 53.3743L63.5772 53.3743L63.5772 53.1299L63.5753 53.1293Z" fill="#E09500" /><path d="M40.2275 49.2986L40.2275 52.159L63.5759 47.7422L63.5759 44.4176L40.2275 49.2986Z" fill="#FFCE00" /><path d="M40.8574 49.7006L40.8574 51.4285L62.9461 47.3177L62.9461 45.1514L40.8574 49.7006Z" fill="#E09500" /><path d="M43.553 52.6596L43.553 52.659L43.354 52.6967L43.354 54.8664L43.553 54.8313L48.7055 53.9107L48.7984 53.8961L48.7984 53.8941L48.7984 53.7279L48.7984 51.804L48.7984 51.6371L43.553 52.6596Z" fill="#E09500" /><path d="M53.8254 50.7396L53.8254 50.7389L53.6265 50.7767L53.6265 52.947L53.8254 52.9112L58.978 51.9913L59.0709 51.9767L59.0709 51.9748L59.0709 51.8079L59.0709 49.8839L59.0709 49.717L53.8254 50.7396Z" fill="#E09500" /><path d="M52.0365 52.2907C52.0365 52.8748 51.6412 53.3616 51.159 53.3775C50.6767 53.3934 50.2808 52.9324 50.2808 52.3483C50.2808 51.7642 50.6761 51.2774 51.159 51.2615C51.6419 51.2456 52.0365 51.7066 52.0365 52.2907Z" fill="#FFCE00" /><path d="M42.4618 54.0816C42.4618 54.6664 42.0665 55.1525 41.5836 55.1684C41.1007 55.1843 40.7061 54.7233 40.7061 54.1392C40.7061 53.5551 41.1013 53.0683 41.5836 53.0524C42.0658 53.0365 42.4618 53.4975 42.4618 54.0816Z" fill="#FFCE00" /><path d="M62.0497 50.3655C62.0497 50.9497 61.6544 51.4364 61.1721 51.4523C60.6899 51.4682 60.2939 51.0073 60.2939 50.4231C60.2939 49.839 60.6892 49.3522 61.1721 49.3363C61.6551 49.3204 62.0497 49.7814 62.0497 50.3655Z" fill="#FFCE00" /><path d="M63.5698 78.2322L86.9182 76.8732L86.9182 41.6664L63.5698 72.869L63.5698 78.2322Z" fill="#B76B32" /><g style="mix-blend-mode:multiply"><path d="M86.9181 73.7592L63.5664 74.3254L63.573 74.6036L86.9181 74.0373L86.9181 73.7592Z" fill="#B79279" /><path d="M86.9183 71.4405L63.8776 71.4073L63.877 71.6848L86.9183 71.7186L86.9183 71.4405Z" fill="#B79279" /><path d="M86.918 69.2146L63.882 68.4888L63.8721 68.7669L86.918 69.4928L86.918 69.2146Z" fill="#B79279" /><path d="M68.0399 74.4645L67.7632 74.4645L67.7632 77.1977L68.0399 77.1977L68.0399 74.4645Z" fill="#B79279" /><path d="M73.3392 74.2036L73.0625 74.2036L73.0625 76.9368L73.3392 76.9368L73.3392 74.2036Z" fill="#B79279" /><path d="M77.4867 74.2036L77.21 74.2036L77.21 76.9368L77.4867 76.9368L77.4867 74.2036Z" fill="#B79279" /><path d="M81.1873 74.1108L80.9106 74.1108L80.9106 76.8441L81.1873 76.8441L81.1873 74.1108Z" fill="#B79279" /><path d="M83.846 73.9426L83.5693 73.9426L83.5693 76.5262L83.846 76.5262L83.846 73.9426Z" fill="#B79279" /><path d="M85.9198 73.9426L85.6431 73.9426L85.6431 76.3639L85.9198 76.3639L85.9198 73.9426Z" fill="#B79279" /><path d="M84.8836 71.7194L84.6069 71.7194L84.6069 73.9426L84.8836 73.9426L84.8836 71.7194Z" fill="#B79279" /><path d="M82.3719 71.7194L82.0952 71.7194L82.0952 73.9426L82.3719 73.9426L82.3719 71.7194Z" fill="#B79279" /><path d="M79.2728 71.6267L78.9961 71.6267L78.9961 74.048L79.2728 74.048L79.2728 71.6267Z" fill="#B79279" /><path d="M75.3827 71.6266L75.106 71.6266L75.106 74.1108L75.3827 74.1108L75.3827 71.6266Z" fill="#B79279" /><path d="M70.7122 71.6267L70.4355 71.6267L70.4355 74.3076L70.7122 74.3076L70.7122 71.6267Z" fill="#B79279" /><path d="M65.1527 71.6267L64.876 71.6267L64.876 74.4381L65.1527 74.4381L65.1527 71.6267Z" fill="#B79279" /><path d="M65.1527 65.7708L64.876 65.7708L64.876 68.5821L65.1527 68.5821L65.1527 65.7708Z" fill="#B79279" /><path d="M68.0399 68.708L67.7632 68.708L67.7632 71.5194L68.0399 71.5194L68.0399 68.708Z" fill="#B79279" /><path d="M72.3871 68.8842L72.1104 68.8842L72.1104 71.6955L72.3871 71.6955L72.3871 68.8842Z" fill="#B79279" /><path d="M76.304 68.9987L76.0273 68.9987L76.0273 71.6266L76.304 71.6266L76.304 68.9987Z" fill="#B79279" /><path d="M80.5438 69.1027L80.2671 69.1027L80.2671 71.7306L80.5438 71.7306L80.5438 69.1027Z" fill="#B79279" /><path d="M83.6268 69.2571L83.3501 69.2571L83.3501 71.6956L83.6268 71.6956L83.6268 69.2571Z" fill="#B79279" /><path d="M85.7474 69.4041L85.4707 69.4041L85.4707 71.8426L85.7474 71.8426L85.7474 69.4041Z" fill="#B79279" /></g><path d="M63.5698 33.1429L86.9182 38.8544L86.9182 73.0327L63.5698 72.8307L63.5698 33.1429Z" fill="#202123" /><path d="M63.5698 53.1292L86.9195 56.5266L86.9195 56.7723L63.5685 53.3742L63.5679 53.3742L63.5679 53.1298L63.5698 53.1292Z" fill="#FFAA00" /><path d="M64.1992 72.8366L73.5195 72.9167L73.5195 49.3356L64.1992 47.3176L64.1992 72.8366Z" fill="#FFAA00" /><path d="M86.9182 49.2986L86.9182 52.159L63.5698 47.7422L63.5698 44.4176L86.9182 49.2986Z" fill="#FFAA00" /><path d="M86.2879 49.7006L86.2879 51.4285L64.1992 47.3177L64.1992 45.1514L86.2879 49.7006Z" fill="#C67F00" /><path d="M83.5936 52.6596L83.5936 52.659L83.7926 52.6967L83.7926 54.8664L83.5936 54.8313L78.441 53.9107L78.3481 53.8961L78.3481 53.8941L78.3481 53.7279L78.3481 51.804L78.3481 51.6371L83.5936 52.6596Z" fill="#C67F00" /><path d="M75.1094 52.2908C75.1094 52.8749 75.5047 53.3617 75.9876 53.3776C76.4705 53.3935 76.8651 52.9326 76.8651 52.3484C76.8651 51.7643 76.4698 51.2775 75.9876 51.2616C75.5053 51.2457 75.1094 51.7067 75.1094 52.2908Z" fill="#FFAA00" /><path d="M84.6841 54.0816C84.6841 54.6664 85.0794 55.1525 85.5616 55.1684C86.0439 55.1843 86.4398 54.7233 86.4398 54.1392C86.4398 53.5551 86.0445 53.0683 85.5616 53.0524C85.0787 53.0365 84.6841 53.4975 84.6841 54.0816Z" fill="#FFAA00" /><path d="M87.5573 75.5706L63.5791 76.364L63.5791 78.7276L87.5573 77.3534L87.5573 75.5706Z" fill="#202123" /><path d="M39.5571 75.5706L63.5795 76.364L63.5795 78.7276L39.5571 77.3534L39.5571 75.5706Z" fill="#2F3235" /><defs><filter id="filter0_d_217_3004" x="0.5" y="0.438477" width="124.15" height="124.151" filterUnits="userSpaceOnUse" color-interpolation-filters="sRGB"><feFlood flood-opacity="0" result="BackgroundImageFix" /><feColorMatrix in="SourceAlpha" type="matrix" values="0 0 0 0 0 0 0 0 0 0 0 0 0 0 0 0 0 0 127 0" result="hardAlpha" /><feOffset dy="4" /><feGaussianBlur stdDeviation="10" /><feComposite in2="hardAlpha" operator="out" /><feColorMatrix type="matrix" values="0 0 0 0 0 0 0 0 0 0 0 0 0 0 0 0 0 0 0.25 0" /><feBlend mode="normal" in2="BackgroundImageFix" result="effect1_dropShadow_217_3004" /><feBlend mode="normal" in="SourceGraphic" in2="effect1_dropShadow_217_3004" result="shape" /></filter></defs></svg>