<svg width="178" height="178" viewBox="0 0 178 178" fill="none" xmlns="http://www.w3.org/2000/svg">
<g filter="url(#filter0_d_217_3004)">
<circle cx="88.8273" cy="85.1765" r="68.8273" fill="white"/>
</g>
<path d="M71.0615 104.43L72.6841 108.164C73.3113 109.608 74.7352 110.541 76.3089 110.541H83.1112C84.0142 110.541 84.88 110.183 85.5185 109.544H98.2246C99.2203 109.544 100.155 109.065 100.737 108.257L102.417 105.923L71.0615 104.43Z" fill="#2E353A"/>
<path d="M81.4127 89.6201C81.4127 91.4089 88.5533 104.133 89.2685 104.638C89.9841 105.144 99.3014 104.578 99.3014 104.578L98.6067 107.218H73.0018L62.374 86.574L69.4043 76.4285L82.2177 76.7827C82.2177 76.7827 81.4127 87.8313 81.4127 89.6201Z" fill="#DB5B52"/>
<path opacity="0.2" d="M81.6246 89.8318C81.6246 91.6206 88.7652 104.344 89.4804 104.85C90.196 105.356 99.5133 104.79 99.5133 104.79L98.8186 107.43H73.2137L62.5859 86.7856L69.6162 76.6401L82.4296 76.9944C82.4296 76.9944 81.6246 88.043 81.6246 89.8318Z" fill="#DB5B52"/>
<path d="M60.6239 117.049C66.3888 117.049 71.0622 111.41 71.0622 104.455C71.0622 97.4989 66.3888 91.8602 60.6239 91.8602C54.8589 91.8602 50.1855 97.4989 50.1855 104.455C50.1855 111.41 54.8589 117.049 60.6239 117.049Z" fill="#2E353A"/>
<path d="M58.8755 112.398C62.5115 112.398 65.4591 108.842 65.4591 104.455C65.4591 100.068 62.5115 96.511 58.8755 96.511C55.2395 96.511 52.292 100.068 52.292 104.455C52.292 108.842 55.2395 112.398 58.8755 112.398Z" fill="white"/>
<path d="M57.3635 107.658C58.878 107.658 60.1058 106.177 60.1058 104.349C60.1058 102.522 58.878 101.041 57.3635 101.041C55.8489 101.041 54.6211 102.522 54.6211 104.349C54.6211 106.177 55.8489 107.658 57.3635 107.658Z" fill="#C55547"/>
<path opacity="0.4" d="M57.3635 107.52C58.878 107.52 60.1058 106.039 60.1058 104.212C60.1058 102.384 58.878 100.903 57.3635 100.903C55.8489 100.903 54.6211 102.384 54.6211 104.212C54.6211 106.039 55.8489 107.52 57.3635 107.52Z" fill="#C55547"/>
<path d="M118.78 85.4306C118.78 85.4306 109.355 92.6579 105.762 107.55H90.6738L104.968 84.2972L112.506 81.162L118.78 85.4306Z" fill="#D54E46"/>
<path opacity="0.4" d="M119.125 84.8188L119.077 84.8565C118.989 84.9263 118.778 85.0943 118.473 85.3584C117.95 85.8158 117.148 86.5441 116.186 87.5525C115.728 88.0236 115.245 88.5564 114.734 89.1532C112.778 91.4146 111.054 93.866 109.588 96.4706L109.561 96.5164C109.491 96.6387 109.423 96.7622 109.354 96.8868C109.026 97.4874 108.705 98.1094 108.39 98.7528C107.556 100.463 106.837 102.226 106.237 104.032C106.207 104.122 106.175 104.21 106.139 104.298C105.778 105.221 105.148 106.015 104.331 106.575C103.513 107.135 102.545 107.436 101.554 107.439H90.3037L90.5061 107.109L91.5971 105.335L91.9504 104.763L104.466 84.4198L109.411 82.3617L111.927 81.3144L116.4 83.4868L119.103 84.8039L119.125 84.8188Z" fill="#BC1915"/>
<path d="M118.846 85.2817H113.025C111.916 85.2817 110.836 85.5755 109.916 86.191C106.46 88.4913 98.2856 94.9067 97.4304 105.071C97.3124 106.455 96.1674 107.551 94.7758 107.551H69.4753C65.225 107.551 61.0498 106.424 57.3792 104.284L50.1452 100.07C48.5462 99.1361 47.7123 97.2861 48.0918 95.476C48.954 91.3258 51.3789 84.2028 58.3234 81.4159C58.4308 81.3657 58.2659 81.3229 58.5983 81.2836V76.9725H76.7332C76.7332 76.9725 73.0948 85.643 73.0948 89.2209C73.0948 92.6054 76.6724 105.556 81.2983 106.886H87.6279C89.32 106.886 90.8801 105.869 91.71 104.391C94.7868 98.8998 101.624 84.6528 99.4914 71.1903C99.2445 69.6162 100.454 67.9986 102.05 67.9986H110.192C110.192 67.9986 117.519 76.4793 119.877 83.6488C120.105 84.3464 119.583 85.2817 118.846 85.2817Z" fill="#DB5B52"/>
<path d="M119.881 85.2514C119.873 85.2679 119.864 85.2839 119.854 85.2994C119.719 85.5335 119.505 85.7116 119.25 85.8013C119.166 85.8284 119.078 85.8423 118.989 85.8425H113.224C112.13 85.8296 111.058 86.1429 110.144 86.7423L110.123 86.756C106.73 89.0176 98.8284 95.2305 97.8107 105.052C97.7969 105.181 97.7855 105.311 97.7741 105.442C97.7357 105.881 97.5906 106.304 97.3515 106.675C97.1124 107.046 96.7864 107.352 96.4018 107.568C96.0176 107.784 95.5845 107.897 95.1439 107.898H70.0817C69.6357 107.898 69.1905 107.885 68.746 107.859C65.9417 107.703 63.1873 107.051 60.6108 105.933C59.7479 105.56 58.9079 105.136 58.0949 104.663L56.1349 103.52L55.658 103.243L53.4967 101.985L51.5126 100.829L51.0129 100.538L50.9283 100.489C50.1549 100.039 49.5425 99.358 49.1776 98.5414C48.8127 97.7247 48.7139 96.8141 48.895 95.9382C48.935 95.7462 48.9785 95.5461 49.0254 95.3414C49.1878 94.6348 49.3948 93.8551 49.6589 93.0467C50.6881 89.8522 52.6001 86.078 56.1349 83.5844C57.0354 82.9492 58.0072 82.4215 59.0304 82.0123C59.0426 82.0077 59.0536 82.0003 59.0624 81.9905C59.099 81.9505 59.0212 81.9151 59.3025 81.8762V77.6115H77.2678C77.2678 77.6115 77.1992 77.7739 77.0825 78.0689C76.919 78.4702 76.6606 79.1162 76.3575 79.9119C76.3152 80.0263 76.2729 80.1406 76.2283 80.2549C75.1637 83.0802 73.6633 87.466 73.6633 89.7527C73.6633 92.419 75.9047 101.072 79.1272 105.172C79.9563 106.227 80.8517 106.978 81.7894 107.248H88.0607C88.6868 107.24 89.3046 107.103 89.8762 106.848C90.4478 106.592 90.9612 106.223 91.385 105.762C91.5418 105.597 91.6862 105.421 91.8173 105.235C91.9216 105.09 92.0174 104.94 92.1043 104.784C95.1553 99.3294 101.927 85.2194 99.8165 71.8891C99.7396 71.3511 99.8184 70.8025 100.044 70.3079C100.269 69.8133 100.631 69.3936 101.087 69.0982C101.464 68.8573 101.903 68.7288 102.351 68.7277H110.416C110.416 68.7277 110.609 68.9564 110.943 69.3566C111.092 69.5372 111.269 69.7545 111.469 70.0048C113.231 72.1962 114.865 74.4866 116.364 76.8649C116.461 77.0181 116.556 77.1736 116.651 77.3303C116.96 77.8333 117.261 78.3467 117.553 78.8658C118.549 80.6334 119.426 82.4673 120.004 84.2224C120.054 84.3932 120.07 84.5725 120.049 84.7495C120.028 84.9264 119.971 85.0972 119.881 85.2514Z" fill="#C55547"/>
<path d="M105.785 65.3014H103.464C102.855 65.3014 102.258 65.09 101.784 64.7068L97.0012 60.8354C96.8124 60.6825 96.5748 60.5984 96.3321 60.5984H87.1462C86.7792 60.5984 86.4814 60.3006 86.4814 59.9337C86.4814 59.5664 86.7792 59.2689 87.1462 59.2689H96.3321C96.8782 59.2689 97.4127 59.458 97.8374 59.802L102.621 63.6735C102.859 63.8659 103.158 63.9719 103.464 63.9719H105.784C106.448 63.9719 107.018 63.4767 107.111 62.8196L107.323 61.3259C107.489 60.1533 108.507 59.2689 109.692 59.2689H111.441C111.808 59.2689 112.106 59.5664 112.106 59.9337C112.106 60.3006 111.808 60.5984 111.441 60.5984H109.692C109.166 60.5984 108.713 60.9916 108.639 61.5124L108.427 63.0061C108.243 64.3146 107.106 65.3014 105.785 65.3014Z" fill="#2E353A"/>
<path d="M101.689 62.481C101.689 62.481 101.717 64.0487 100.248 63.9507L99.7666 65.6531C99.6297 66.1373 99.7034 66.6568 99.97 67.0839L101.011 68.7517H110.661L111.42 67.3242C111.669 66.8576 111.586 66.2836 111.217 65.9053L108.348 62.9685C108.043 62.6568 107.625 62.481 107.189 62.481H101.689Z" fill="#D54E46"/>
<path opacity="0.4" d="M102.022 62.8106C102.022 62.8106 102.05 64.3632 100.595 64.2672L100.118 65.9536C100.051 66.1909 100.034 66.4396 100.068 66.6838C100.103 66.928 100.188 67.1622 100.319 67.3714L101.348 69.0224H110.908L111.661 67.6092C111.781 67.3839 111.826 67.1264 111.79 66.8738C111.753 66.6212 111.638 66.3866 111.46 66.204L108.617 63.2954C108.468 63.1427 108.29 63.0212 108.094 62.9382C107.897 62.8551 107.686 62.8121 107.473 62.8117L102.022 62.8106Z" fill="#BC1915"/>
<path d="M118.241 117.049C124.006 117.049 128.679 111.41 128.679 104.455C128.679 97.4989 124.006 91.8602 118.241 91.8602C112.476 91.8602 107.803 97.4989 107.803 104.455C107.803 111.41 112.476 117.049 118.241 117.049Z" fill="#2E353A"/>
<path d="M116.494 112.398C120.13 112.398 123.078 108.842 123.078 104.455C123.078 100.068 120.13 96.511 116.494 96.511C112.858 96.511 109.91 100.068 109.91 104.455C109.91 108.842 112.858 112.398 116.494 112.398Z" fill="white"/>
<path d="M128.513 96.3333C127.412 94.463 124.471 90.4154 119.185 89.2322C117.625 88.8829 116.25 88.8979 115.053 89.1122L115.029 89.0584L115.053 89.0069C115.039 89.0099 115.025 89.0139 115.011 89.0165L114.102 86.9435H113.068C112.229 86.9435 111.413 87.2161 110.742 87.7203L108.927 89.084L109.78 92.0454C109.454 92.3967 109.226 92.6935 109.088 92.8846C107.381 95.0111 106.355 97.5567 106.05 99.4312C105.981 99.8557 106.313 100.239 106.743 100.239H107.29C107.579 100.239 107.838 100.063 107.942 99.7922C108.222 99.0607 108.911 97.5713 110.199 96.401L113.226 104.282L115.662 103.258L114.81 93.4357C114.81 93.4357 120.414 91.8613 124.081 96.3921C124.516 96.9289 125.165 97.2473 125.856 97.2473H127.986C128.456 97.2469 128.751 96.7374 128.513 96.3333Z" fill="#DB5B52"/>
<path opacity="0.2" d="M128.513 96.3333C127.412 94.463 124.471 90.4154 119.185 89.2322C117.625 88.8829 116.25 88.8979 115.053 89.1122L115.029 89.0584L115.053 89.0069C115.039 89.0099 115.025 89.0139 115.011 89.0165L114.102 86.9435H113.068C112.229 86.9435 111.413 87.2161 110.742 87.7203L108.927 89.084L109.78 92.0454C109.454 92.3967 109.226 92.6935 109.088 92.8846C107.381 95.0111 106.355 97.5567 106.05 99.4312C105.981 99.8557 106.313 100.239 106.743 100.239H107.29C107.579 100.239 107.838 100.063 107.942 99.7922C108.222 99.0607 108.911 97.5713 110.199 96.401L113.226 104.282L115.662 103.258L114.81 93.4357C114.81 93.4357 120.414 91.8613 124.081 96.3921C124.516 96.9289 125.165 97.2473 125.856 97.2473H127.986C128.456 97.2469 128.751 96.7374 128.513 96.3333Z" fill="#DB5B52"/>
<path d="M114.983 107.658C116.497 107.658 117.725 106.177 117.725 104.349C117.725 102.522 116.497 101.041 114.983 101.041C113.468 101.041 112.24 102.522 112.24 104.349C112.24 106.177 113.468 107.658 114.983 107.658Z" fill="#C55547"/>
<path opacity="0.4" d="M114.983 107.52C116.497 107.52 117.725 106.039 117.725 104.212C117.725 102.384 116.497 100.903 114.983 100.903C113.468 100.903 112.24 102.384 112.24 104.212C112.24 106.039 113.468 107.52 114.983 107.52Z" fill="#C55547"/>
<path d="M105.109 69.117C105.109 69.117 106.834 79.9761 112.531 80.0519C117.87 80.1226 118.369 69.9276 113.274 68.3602C109.159 67.0935 105.109 69.117 105.109 69.117Z" fill="#D54E46"/>
<path opacity="0.2" d="M105.109 69.117C105.109 69.117 106.834 79.9761 112.531 80.0519C117.87 80.1226 118.369 69.9276 113.274 68.3602C109.159 67.0935 105.109 69.117 105.109 69.117Z" fill="#D54E46"/>
<path d="M116.47 74.1098C116.596 76.8671 114.934 79.1026 112.758 79.1026C110.582 79.1026 108.716 76.8671 108.59 74.1098C108.463 71.3522 110.125 69.117 112.301 69.117C114.477 69.117 116.344 71.3522 116.47 74.1098Z" fill="white"/>
<path d="M111.053 66.9882H106.105L106.498 66.3514H111.053V66.9882Z" fill="#DB5B52"/>
<path d="M83.857 76.5142V77.7629C83.857 78.8969 82.9287 79.6318 81.7943 79.6318H59.3173C58.1796 79.6318 57.2676 78.8969 57.2676 77.7629V76.5142C57.2676 75.3802 58.1796 74.646 59.3173 74.646H81.7943C82.9287 74.646 83.857 75.3798 83.857 76.5142Z" fill="#2E353A"/>
<path opacity="0.2" d="M76.5455 76.5142V77.7629C76.5455 78.8969 75.7704 79.6318 74.6327 79.6318H59.3183C58.1806 79.6318 57.2686 78.8969 57.2686 77.7629V76.5142C57.2686 75.3801 58.1806 74.6459 59.3183 74.6459H74.6327C75.7704 74.6459 76.5455 75.3798 76.5455 76.5142Z" fill="white"/>
<path opacity="0.2" d="M73.7174 99.5336V107.55H69.4744C65.224 107.55 61.0488 106.423 57.3782 104.284L50.1442 100.069C48.5452 99.1358 47.7113 97.2858 48.0908 95.4757C48.953 91.3255 51.4251 84.2025 58.3693 81.4156L58.6914 81.4335H61.4979C64.8059 81.4335 67.8148 83.3486 69.2154 86.3459L72.2131 92.761C73.2038 94.8811 73.7174 97.1931 73.7174 99.5336Z" fill="#BC1915"/>
<path d="M73.4776 99.5814V107.521H69.2751C68.8291 107.521 68.3838 107.508 67.9394 107.482C65.1351 107.326 62.3806 106.674 59.8041 105.556C58.9413 105.183 58.1012 104.759 57.2883 104.286L55.3282 103.143L54.8514 102.866L52.6901 101.609L50.706 100.453L50.2062 100.161L50.1216 100.112C49.3483 99.6623 48.7358 98.9811 48.371 98.1645C48.0061 97.3479 47.9072 96.4372 48.0884 95.5614C48.1284 95.3693 48.1719 95.1692 48.2187 94.9645C48.3811 94.2614 48.5893 93.4896 48.8534 92.6778C49.8929 89.4948 51.8107 85.7331 55.3282 83.2372C56.2401 82.5897 57.2255 82.0524 58.2637 81.6365H58.2706L58.5897 81.6548H61.3696C62.9747 81.655 64.5464 82.1128 65.9004 82.9744C67.2545 83.8361 68.3347 85.066 69.0143 86.5198L71.9876 92.8734C72.9693 94.9734 73.478 97.2633 73.4776 99.5814Z" fill="#BC1915"/>
<path d="M92.485 54.7726L91.957 55.1765L95.5579 59.8846L96.0859 59.4808L92.485 54.7726Z" fill="#2E353A"/>
<path d="M90.3217 54.2053H92.0171C92.3764 54.2053 92.7014 54.4194 92.8427 54.7497L93.0697 55.2795C93.3236 55.8725 92.8889 56.5319 92.2441 56.5319H90.3971C89.9501 56.5319 89.5709 56.2032 89.5077 55.7605L89.4319 55.2307C89.3552 54.6896 89.7749 54.2053 90.3217 54.2053Z" fill="#DB5B52"/>
<path d="M109.401 55.5285L108.515 59.7382L109.165 59.8752L110.052 55.6655L109.401 55.5285Z" fill="#2E353A"/>
<path d="M111.715 54.2053H109.891C109.522 54.2053 109.208 54.4769 109.156 54.8428L109.036 55.685C108.972 56.1321 109.319 56.5319 109.771 56.5319H111.595C111.964 56.5319 112.277 56.2603 112.33 55.8947L112.45 55.0525C112.514 54.6055 112.167 54.2053 111.715 54.2053Z" fill="#DB5B52"/>
<path d="M96.0802 75.8521L93.1985 69.7798C92.8303 69.002 91.9036 68.6604 91.1173 69.0117L83.5948 72.3493C83.2877 72.4866 83.0348 72.7152 82.8659 73.0061L75.1061 86.3619C74.6003 87.235 75.027 88.3574 75.9876 88.6715L86.9587 92.2598C87.7075 92.5047 88.5168 92.168 88.8725 91.4657L96.0632 77.2527C96.2866 76.815 96.2919 76.2955 96.0802 75.8521ZM91.446 71.1717C90.9657 71.0148 90.7045 70.499 90.8613 70.0187C91.0185 69.5385 91.534 69.2772 92.0143 69.4341C92.4946 69.591 92.7558 70.1068 92.5989 70.5871C92.4417 71.0674 91.9259 71.3289 91.446 71.1717Z" fill="#8CC63F"/>
<path opacity="0.6" d="M96.0802 75.8521L93.1985 69.7798C92.8303 69.002 91.9036 68.6604 91.1173 69.0117L83.5948 72.3493C83.2877 72.4866 83.0348 72.7152 82.8659 73.0061L75.1061 86.3619C74.6003 87.235 75.027 88.3574 75.9876 88.6715L86.9587 92.2598C87.7075 92.5047 88.5168 92.168 88.8725 91.4657L96.0632 77.2527C96.2866 76.815 96.2919 76.2955 96.0802 75.8521ZM91.446 71.1717C90.9657 71.0148 90.7045 70.499 90.8613 70.0187C91.0185 69.5385 91.534 69.2772 92.0143 69.4341C92.4946 69.591 92.7558 70.1068 92.5989 70.5871C92.4417 71.0674 91.9259 71.3289 91.446 71.1717Z" fill="#8CC63F"/>
<path d="M92.374 69.7436C92.374 69.7436 95.9054 69.9098 95.5315 66.6692C95.0542 62.5329 99.8938 62.39 99.3122 60.8112" stroke="#006837" stroke-miterlimit="10" stroke-linecap="round" stroke-linejoin="round"/>
<path d="M81.0791 82.5788L83.8076 76.7958L84.6779 77.1514L81.9493 82.9356L81.0791 82.5788ZM82.6126 80.2921L82.9763 79.5215L85.0918 80.387C85.2061 80.4379 85.3298 80.4643 85.4549 80.4643C85.58 80.4643 85.7037 80.4379 85.818 80.387C86.0604 80.2746 86.2524 80.0762 86.3566 79.8302C86.48 79.6013 86.5076 79.3328 86.4332 79.0836C86.3933 78.9692 86.3282 78.8652 86.2427 78.7793C86.1572 78.6935 86.0535 78.6279 85.9392 78.5874L83.8236 77.7207L84.1873 76.9501L86.2686 77.8019C86.5973 77.9266 86.8894 78.1319 87.1182 78.3988C87.3174 78.6369 87.4409 78.9291 87.4727 79.238C87.5 79.573 87.4339 79.909 87.2818 80.2087C87.1417 80.5219 86.9211 80.7926 86.6425 80.993C86.3756 81.1807 86.0632 81.2936 85.738 81.32C85.3807 81.3449 85.0226 81.2837 84.6939 81.1416L82.6126 80.2921ZM84.5692 84.0103L84.3863 80.8089L85.3377 80.9804L85.6019 84.4368L84.5692 84.0103Z" fill="white"/>
<path d="M85.5088 86.6334L88.2465 80.8298L89.1167 81.1854L86.3802 86.9901L85.5088 86.6334ZM88.2533 85.8273C87.9998 85.732 87.7793 85.5652 87.6186 85.3471C87.4724 85.1411 87.3999 84.8917 87.4128 84.6394L87.8794 83.8013C87.8005 83.9542 87.7612 84.1244 87.765 84.2964C87.7726 84.4464 87.8293 84.5898 87.9263 84.7046C88.0417 84.8355 88.1879 84.9357 88.3517 84.9961C88.4738 85.054 88.6065 85.0863 88.7416 85.091C88.8767 85.0957 89.0114 85.0728 89.1373 85.0236C89.3932 84.9041 89.5942 84.692 89.6999 84.4302L90.1219 83.5361C90.2637 83.2342 90.2957 82.9644 90.2168 82.7357C90.1695 82.6132 90.0957 82.5027 90.0006 82.4122C89.9055 82.3216 89.7915 82.2533 89.6668 82.2121C89.5047 82.1401 89.3282 82.1065 89.151 82.1137C88.9959 82.1227 88.8471 82.1776 88.7233 82.2715C88.5875 82.378 88.4799 82.5162 88.41 82.674L88.6959 81.8428C88.9258 81.6646 89.1967 81.5467 89.4838 81.4998C89.7591 81.4573 90.0408 81.4913 90.298 81.5981C90.773 81.7925 91.0707 82.0894 91.1911 82.4888C91.3116 82.8882 91.246 83.355 90.9944 83.8894L90.5736 84.7949C90.3258 85.3216 89.9992 85.6764 89.5936 85.8594C89.188 86.0423 88.7424 86.0305 88.2568 85.8239L88.2533 85.8273Z" fill="white"/>
<defs>
<filter id="filter0_d_217_3004" x="0" y="0.349121" width="177.654" height="177.655" filterUnits="userSpaceOnUse" color-interpolation-filters="sRGB">
<feFlood flood-opacity="0" result="BackgroundImageFix"/>
<feColorMatrix in="SourceAlpha" type="matrix" values="0 0 0 0 0 0 0 0 0 0 0 0 0 0 0 0 0 0 127 0" result="hardAlpha"/>
<feOffset dy="4"/>
<feGaussianBlur stdDeviation="10"/>
<feComposite in2="hardAlpha" operator="out"/>
<feColorMatrix type="matrix" values="0 0 0 0 0 0 0 0 0 0 0 0 0 0 0 0 0 0 0.25 0"/>
<feBlend mode="normal" in2="BackgroundImageFix" result="effect1_dropShadow_217_3004"/>
<feBlend mode="normal" in="SourceGraphic" in2="effect1_dropShadow_217_3004" result="shape"/>
</filter>
</defs>
</svg>
