<svg width="216" height="230" viewBox="0 0 216 230" fill="none" xmlns="http://www.w3.org/2000/svg">
<g clip-path="url(#clip0_311_5566)">
<path d="M216 121.62C216 126.178 215.718 130.731 215.154 135.253C212.173 159.002 201.421 181.085 184.584 198.039C184.023 198.606 183.454 199.166 182.878 199.719C182.303 200.272 181.714 200.83 181.111 201.395C178.185 204.1 175.111 206.64 171.904 209.003C170.938 209.717 169.96 210.413 168.971 211.093C168.697 211.282 168.423 211.47 168.147 211.654C168.025 211.736 167.906 211.818 167.782 211.896C167.513 212.079 167.242 212.259 166.969 212.434C163.004 215.035 158.872 217.368 154.599 219.419C153.804 219.803 153.006 220.173 152.2 220.528C150.059 221.493 147.882 222.388 145.67 223.215C144.941 223.488 144.205 223.753 143.461 224.01C142.469 224.356 141.47 224.688 140.466 225.006C139.048 225.449 137.618 225.868 136.178 226.263H136.136C135.522 226.431 134.906 226.592 134.287 226.746C131.18 227.528 128.021 228.17 124.811 228.674C119.25 229.552 113.629 229.996 108 230C104.532 230 101.104 229.838 97.7172 229.515C95.8381 229.337 93.9715 229.111 92.1174 228.836L91.035 228.672C88.3945 228.251 85.7872 227.734 83.213 227.12C81.2985 226.677 79.4002 226.174 77.5182 225.611C76.6184 225.349 75.723 225.074 74.832 224.784C74.4639 224.664 74.0957 224.542 73.7275 224.418C72.6083 224.041 71.4972 223.648 70.3942 223.237C65.5353 221.426 60.8141 219.263 56.2676 216.766C55.3163 216.247 54.3723 215.711 53.4357 215.157C52.0985 214.372 50.7805 213.559 49.4816 212.718C48.707 212.217 47.9383 211.704 47.1754 211.18C45.5746 210.088 44.0062 208.952 42.4703 207.773C20.0313 190.562 4.51529 164.723 0.839524 135.194C0.280334 130.691 -1.03626e-05 126.158 0.000105471 121.62C-0.0375592 94.6078 10.0138 68.5617 28.1714 48.6202C47.5973 27.2418 75.4439 13.6952 106.436 13.2518C106.955 13.2518 107.479 13.2518 108 13.2518C108.626 13.2518 109.25 13.2577 109.873 13.2696C134.556 13.6567 158.355 22.5557 177.272 38.4719C179.861 40.6443 182.345 42.935 184.723 45.3439C204.792 65.617 216.038 93.0442 216 121.62Z" fill="#F9E4D7"/>
<path d="M215.154 135.253C212.174 159.002 201.421 181.085 184.584 198.039C184.023 198.606 183.455 199.166 182.879 199.719C182.303 200.272 181.714 200.83 181.112 201.395C178.185 204.1 175.111 206.64 171.904 209.003C170.938 209.717 169.961 210.413 168.971 211.093C168.697 211.282 168.423 211.47 168.147 211.654C168.025 211.736 167.906 211.818 167.782 211.896C167.513 212.079 167.242 212.259 166.97 212.434C163.005 215.035 158.872 217.368 154.599 219.419C153.804 219.803 153.006 220.173 152.2 220.528C150.059 221.493 147.882 222.388 145.67 223.215L142.883 223.266L139.072 223.328L135.794 223.372H134.91C134.338 223.372 133.766 223.39 133.192 223.394C130.099 223.434 126.997 223.465 123.885 223.487C118.451 223.53 112.98 223.551 107.472 223.551C104.713 223.551 101.962 223.546 99.2219 223.536C98.4465 223.536 97.6756 223.536 96.9046 223.523C95.1065 223.523 93.3143 223.512 91.5279 223.492H90.7791C86.3331 223.458 81.9114 223.409 77.5141 223.345L74.8633 223.308C74.4811 223.308 74.1012 223.292 73.719 223.29L70.4055 223.23C65.5467 221.419 60.8254 219.257 56.279 216.759C55.3277 216.241 54.3837 215.704 53.4471 215.15C52.1099 214.365 50.7919 213.552 49.493 212.712C48.7183 212.211 47.9496 211.698 47.1868 211.173C45.586 210.081 44.0176 208.945 42.4816 207.766C20.0316 190.562 4.51561 164.723 0.839844 135.194C9.76418 134.707 18.8748 134.282 28.1717 133.917C30.4367 133.828 32.712 133.743 34.9975 133.662L35.9231 133.629C38.3059 133.544 40.7019 133.465 43.1112 133.389H43.1995H43.4204L44.3482 133.36C47.4879 133.266 50.6431 133.177 53.8138 133.094L54.7393 133.068L56.3099 133.03C59.8046 132.943 63.3205 132.869 66.8579 132.808L67.7834 132.791C72.6565 132.698 77.5663 132.624 82.513 132.569H83.4408C86.9119 132.529 90.3977 132.498 93.8982 132.476C96.3104 132.461 98.7307 132.45 101.159 132.443H102.085H108.553C109.308 132.443 110.064 132.443 110.819 132.443H111.747C117.695 132.453 123.6 132.49 129.463 132.553H130.391L134.047 132.596L135.01 132.609L139.806 132.678L143.757 132.742L145.118 132.766L146.046 132.784L148.646 132.833C151.833 132.895 155.005 132.969 158.162 133.054L159.088 133.077C162.26 133.153 165.415 133.24 168.553 133.336L169.481 133.365L172.461 133.456H172.569L176.974 133.6L177.902 133.633C180.186 133.71 182.46 133.792 184.725 133.879C195.089 134.249 205.232 134.707 215.154 135.253Z" fill="#E5A87F"/>
<path d="M106.459 150.921L28.1719 146.373V28.5297L106.459 0L126.545 77.9413L106.459 150.921Z" fill="#101418"/>
<path d="M106.459 150.921L28.1719 146.373V28.5297L106.459 0L126.545 77.9413L106.459 150.921Z" fill="#CB7D3A"/>
<g style="mix-blend-mode:multiply">
<path d="M28.1861 135.992L28.1641 136.922L106.451 138.788L106.473 137.857L28.1861 135.992Z" fill="#CEAE97"/>
<path d="M105.418 128.075L30.9043 128.362L30.9079 129.293L105.421 129.006L105.418 128.075Z" fill="#CEAE97"/>
<path d="M105.422 118.282L30.9102 120.919L30.9429 121.85L105.455 119.213L105.422 118.282Z" fill="#CEAE97"/>
<path d="M92.3985 138.31H91.4707V147.459H92.3985V138.31Z" fill="#CEAE97"/>
<path d="M74.6289 137.437H73.7012V146.585H74.6289V137.437Z" fill="#CEAE97"/>
<path d="M60.7227 137.437H59.7949V146.585H60.7227V137.437Z" fill="#CEAE97"/>
<path d="M48.3145 137.127H47.3867V146.275H48.3145V137.127Z" fill="#CEAE97"/>
<path d="M39.3985 136.564H38.4707V145.211H39.3985V136.564Z" fill="#CEAE97"/>
<path d="M32.4454 136.564H31.5176V144.668H32.4454V136.564Z" fill="#CEAE97"/>
<path d="M35.9219 129.122H34.9941V136.563H35.9219V129.122Z" fill="#CEAE97"/>
<path d="M44.3438 129.122H43.416V136.563H44.3438V129.122Z" fill="#CEAE97"/>
<path d="M54.7344 128.812H53.8066V136.916H54.7344V128.812Z" fill="#CEAE97"/>
<path d="M67.7774 128.812H66.8496V137.127H67.7774V128.812Z" fill="#CEAE97"/>
<path d="M83.4356 128.812H82.5078V137.785H83.4356V128.812Z" fill="#CEAE97"/>
<path d="M102.082 128.812H101.154V138.222H102.082V128.812Z" fill="#CEAE97"/>
<path d="M102.082 109.211H101.154V118.621H102.082V109.211Z" fill="#CEAE97"/>
<path d="M92.3985 119.042H91.4707V128.452H92.3985V119.042Z" fill="#CEAE97"/>
<path d="M77.8223 119.632H76.8945V129.042H77.8223V119.632Z" fill="#CEAE97"/>
<path d="M64.6875 120.015H63.7598V128.811H64.6875V120.015Z" fill="#CEAE97"/>
<path d="M50.4727 120.363H49.5449V129.16H50.4727V120.363Z" fill="#CEAE97"/>
<path d="M40.1329 120.88H39.2051V129.042H40.1329V120.88Z" fill="#CEAE97"/>
<path d="M33.0254 121.372H32.0977V129.534H33.0254V121.372Z" fill="#CEAE97"/>
</g>
<path d="M122.213 61.1294L106.459 0L28.1719 19.1173V133.518L106.459 132.842L122.213 61.1294Z" fill="#2F3235"/>
<path d="M106.455 66.8975L28.1641 78.2694V79.0919L106.46 67.7177H106.462V66.8997L106.455 66.8975Z" fill="#E09500"/>
<path d="M28.1719 54.0757V63.6499L106.459 48.8663V37.7382L28.1719 54.0757Z" fill="#FFCE00"/>
<path d="M30.2832 55.4213V61.2048L104.346 47.4454V40.1943L30.2832 55.4213Z" fill="#E09500"/>
<path d="M39.3195 65.3258V65.3235L38.6523 65.4499V72.712L39.3195 72.5945L56.596 69.5132L56.9075 69.4644V69.4578V68.9014V62.4617V61.9031L39.3195 65.3258Z" fill="#E09500"/>
<path d="M73.7628 58.8994V58.8971L73.0957 59.0235V66.2878L73.7628 66.1681L91.0394 63.089L91.3508 63.0403V63.0336V62.475V56.0353V55.4767L73.7628 58.8994Z" fill="#E09500"/>
<path d="M67.7659 64.091C67.7659 66.0461 66.4405 67.6755 64.8235 67.7287C63.2065 67.7819 61.8789 66.239 61.8789 64.2838C61.8789 62.3286 63.2043 60.6993 64.8235 60.6461C66.4427 60.5929 67.7659 62.1358 67.7659 64.091Z" fill="#FFCE00"/>
<path d="M35.6624 70.0851C35.6624 72.0425 34.337 73.6696 32.7178 73.7228C31.0986 73.776 29.7754 72.2331 29.7754 70.278C29.7754 68.3228 31.1008 66.6935 32.7178 66.6403C34.3348 66.587 35.6624 68.1299 35.6624 70.0851Z" fill="#FFCE00"/>
<path d="M101.34 57.6469C101.34 59.6021 100.015 61.2314 98.3977 61.2846C96.7807 61.3378 95.4531 59.7949 95.4531 57.8397C95.4531 55.8845 96.7785 54.2552 98.3977 54.202C100.017 54.1488 101.34 55.6917 101.34 57.6469Z" fill="#FFCE00"/>
<path d="M106.436 150.921L184.722 146.373V28.5297L106.436 132.97V150.921Z" fill="#B76B32"/>
<g style="mix-blend-mode:multiply">
<path d="M184.724 135.949L106.426 137.845L106.448 138.776L184.724 136.88V135.949Z" fill="#B79279"/>
<path d="M184.724 128.189L107.469 128.078L107.467 129.007L184.724 129.12V128.189Z" fill="#B79279"/>
<path d="M184.724 120.738L107.484 118.308L107.451 119.24L184.724 121.669V120.738Z" fill="#B79279"/>
<path d="M121.426 138.31H120.498V147.459H121.426V138.31Z" fill="#B79279"/>
<path d="M139.193 137.437H138.266V146.585H139.193V137.437Z" fill="#B79279"/>
<path d="M153.1 137.437H152.172V146.585H153.1V137.437Z" fill="#B79279"/>
<path d="M165.51 137.127H164.582V146.275H165.51V137.127Z" fill="#B79279"/>
<path d="M174.424 136.564H173.496V145.211H174.424V136.564Z" fill="#B79279"/>
<path d="M181.377 136.564H180.449V144.668H181.377V136.564Z" fill="#B79279"/>
<path d="M177.9 129.122H176.973V136.563H177.9V129.122Z" fill="#B79279"/>
<path d="M169.479 129.122H168.551V136.563H169.479V129.122Z" fill="#B79279"/>
<path d="M159.088 128.812H158.16V136.916H159.088V128.812Z" fill="#B79279"/>
<path d="M146.045 128.812H145.117V137.127H146.045V128.812Z" fill="#B79279"/>
<path d="M130.387 128.812H129.459V137.785H130.387V128.812Z" fill="#B79279"/>
<path d="M111.742 128.812H110.814V138.222H111.742V128.812Z" fill="#B79279"/>
<path d="M111.742 109.211H110.814V118.621H111.742V109.211Z" fill="#B79279"/>
<path d="M121.426 119.042H120.498V128.452H121.426V119.042Z" fill="#B79279"/>
<path d="M136 119.632H135.072V129.042H136V119.632Z" fill="#B79279"/>
<path d="M149.135 120.015H148.207V128.811H149.135V120.015Z" fill="#B79279"/>
<path d="M163.35 120.363H162.422V129.16H163.35V120.363Z" fill="#B79279"/>
<path d="M173.689 120.88H172.762V129.042H173.689V120.88Z" fill="#B79279"/>
<path d="M180.799 121.372H179.871V129.534H180.799V121.372Z" fill="#B79279"/>
</g>
<path d="M106.436 0L184.722 19.1173V133.518L106.436 132.842V0Z" fill="#202123"/>
<path d="M106.438 66.8975L184.729 78.2694V79.0919L106.434 67.7177H106.432V66.8997L106.438 66.8975Z" fill="#FFAA00"/>
<path d="M108.549 132.862L139.799 133.13V54.1998L108.549 47.4453V132.862Z" fill="#FFAA00"/>
<path d="M184.722 54.0757V63.6499L106.436 48.8663V37.7382L184.722 54.0757Z" fill="#FFAA00"/>
<path d="M182.612 55.4213V61.2048L108.549 47.4454V40.1943L182.612 55.4213Z" fill="#C67F00"/>
<path d="M173.574 65.3258V65.3235L174.241 65.4499V72.712L173.574 72.5945L156.298 69.5132L155.986 69.4644V69.4578V68.9014V62.4617V61.9031L173.574 65.3258Z" fill="#C67F00"/>
<path d="M145.129 64.091C145.129 66.0461 146.454 67.6755 148.073 67.7287C149.693 67.7819 151.016 66.239 151.016 64.2838C151.016 62.3286 149.69 60.6993 148.073 60.6461C146.457 60.5929 145.129 62.1358 145.129 64.091Z" fill="#FFAA00"/>
<path d="M177.234 70.0851C177.234 72.0425 178.56 73.6696 180.177 73.7228C181.794 73.776 183.121 72.2331 183.121 70.278C183.121 68.3228 181.796 66.6935 180.177 66.6403C178.558 66.587 177.234 68.1299 177.234 70.0851Z" fill="#FFAA00"/>
<path d="M186.867 142.012L106.469 144.668V152.58L186.867 147.98V142.012Z" fill="#202123"/>
<path d="M25.9219 142.012L106.468 144.668V152.58L25.9219 147.98V142.012Z" fill="#2F3235"/>
<path d="M107.799 208.353C107.774 209.085 107.658 209.811 107.455 210.515C107.292 211.111 107.1 211.7 106.878 212.277C105.502 215.93 102.697 220.59 99.2131 223.558C98.5496 224.13 97.8386 224.644 97.088 225.094C96.2607 225.594 95.3687 225.976 94.4372 226.232C93.5986 226.446 92.7481 226.611 91.8902 226.726C91.5832 226.768 91.2651 226.81 90.936 226.848C88.3683 227.12 85.785 227.214 83.2045 227.129C81.29 226.686 79.3917 226.183 77.5097 225.62C76.6099 225.358 75.7145 225.083 74.8235 224.793C74.4554 224.673 74.0872 224.551 73.719 224.427C72.5998 224.05 71.4887 223.656 70.3857 223.246C65.5268 221.435 60.8056 219.272 56.2591 216.775C55.3078 216.256 54.3638 215.72 53.4272 215.165C52.09 214.381 50.772 213.568 49.4731 212.727C48.6985 212.226 47.9298 211.713 47.1669 211.189C45.5661 210.096 43.9977 208.961 42.4618 207.781C39.7359 203.966 40.1269 202.255 40.1269 202.255C40.3298 201.987 40.5185 201.708 40.6924 201.419V201.402C41.5428 200.023 43.1753 196.946 44.4366 191.952C47.6816 179.108 46.4424 159.119 57.5161 159.124C59.5726 159.124 62.2787 160.615 65.3337 162.959C65.8197 163.329 66.3123 163.726 66.8159 164.138L67.5537 164.75C68.1237 165.233 68.7002 165.738 69.29 166.259C70.072 166.958 70.8672 167.689 71.6713 168.445C73.2331 169.91 74.8302 171.471 76.4295 173.058C77.2689 173.892 78.1083 174.734 78.9477 175.574L79.7872 176.416C84.8546 181.515 89.7497 186.436 93.5205 189.161C94.4039 189.825 95.3528 190.396 96.3524 190.865C104.044 194.259 106.945 201.464 107.618 206.161C107.734 206.886 107.794 207.619 107.799 208.353Z" fill="#DDDDDD"/>
<path d="M77.5162 225.62C76.6164 225.358 75.721 225.083 74.83 224.793C74.4619 224.673 74.0937 224.551 73.7255 224.427C72.6063 224.05 71.4952 223.656 70.3922 223.246C65.5333 221.435 60.812 219.272 56.2656 216.775C56.3164 215.183 56.3496 214.254 56.3496 214.254L73.5687 218.245L74.8632 218.544L77.4632 219.149C77.4632 219.149 77.4897 220.922 77.5073 223.361C77.5162 224.066 77.5162 224.828 77.5162 225.62Z" fill="white"/>
<path d="M77.5162 225.62C76.6164 225.358 75.721 225.083 74.83 224.793C74.4619 224.673 74.0937 224.551 73.7255 224.427C72.6063 224.05 71.4952 223.656 70.3922 223.246C65.5333 221.435 60.812 219.272 56.2656 216.775C56.3164 215.183 56.3496 214.254 56.3496 214.254L73.5687 218.245L74.8632 218.544L77.4632 219.149C77.4632 219.149 77.4897 220.922 77.5073 223.361C77.5162 224.066 77.5162 224.828 77.5162 225.62Z" fill="#E8E8E8"/>
<path d="M97.7161 229.514C95.837 229.337 93.9704 229.111 92.1163 228.836L91.0339 228.672C88.3934 228.251 85.786 227.734 83.2118 227.12C81.2974 226.677 79.3991 226.174 77.517 225.611C76.6172 225.349 75.7219 225.074 74.8309 224.784C74.4627 224.664 74.0946 224.542 73.7264 224.418C72.6072 224.041 71.4961 223.647 70.393 223.237C65.5342 221.426 60.8129 219.263 56.2665 216.766C55.3152 216.247 54.3712 215.711 53.4346 215.156C52.0974 214.372 50.7794 213.559 49.4805 212.718C49.613 210.484 49.7014 208.57 49.7168 207.176C49.7831 202.419 50.8059 192.592 51.8065 183.969C52.0628 181.752 52.319 179.62 52.5598 177.671C52.5841 177.46 52.6106 177.254 52.6349 177.048C53.2844 171.768 53.7836 167.999 53.7836 167.999L62.6836 167.004L64.5856 166.782L69.3062 166.255L74.2168 165.714L82.0941 164.827L86.4988 164.337L86.7197 164.311L90.6959 163.867L92.3571 178.751L92.5426 180.415L92.6862 181.69L93.519 189.161L93.9387 192.929C93.9387 192.929 93.9387 192.947 93.9387 192.98C93.9387 193.013 93.9387 193 93.9387 193.013C93.9387 193.027 93.9387 193.051 93.9387 193.075C93.9387 193.1 93.9387 193.135 93.9387 193.171C93.9387 193.206 93.9387 193.226 93.9387 193.257C93.9387 193.288 93.9387 193.355 93.9498 193.408C93.9608 193.461 93.9498 193.528 93.9652 193.592C93.9807 193.791 94.0006 194.035 94.0227 194.312C94.0227 194.405 94.0381 194.503 94.047 194.605C94.0558 194.707 94.0602 194.78 94.069 194.871C94.0956 195.181 94.1221 195.523 94.153 195.893C94.164 196.041 94.1773 196.194 94.1905 196.352C94.1905 196.447 94.206 196.542 94.2148 196.642C94.2259 196.788 94.2413 196.939 94.2524 197.085C94.2524 197.179 94.2679 197.274 94.2767 197.369C94.2899 197.531 94.3054 197.695 94.3187 197.864C94.3187 197.963 94.3363 198.063 94.3452 198.167C94.3584 198.349 94.3739 198.535 94.3916 198.724C94.3905 198.729 94.3905 198.734 94.3916 198.739C94.407 198.932 94.4225 199.132 94.4402 199.335C94.4578 199.539 94.4733 199.706 94.491 199.894C94.5086 200.116 94.5307 200.353 94.5506 200.59C94.5661 200.779 94.5815 200.967 94.5992 201.16V201.249C94.6102 201.359 94.6191 201.47 94.6301 201.583C94.6412 201.696 94.65 201.805 94.6611 201.925L94.7074 202.486C94.734 202.763 94.7583 203.044 94.7848 203.326C94.7848 203.445 94.8046 203.565 94.8157 203.685C94.8334 203.878 94.851 204.073 94.8687 204.27C94.9747 205.445 95.0896 206.671 95.2045 207.925C95.686 213.097 96.2604 218.788 96.8413 223.543C96.9054 224.07 96.9695 224.589 97.0335 225.094C97.2986 226.73 97.5084 228.227 97.7161 229.514Z" fill="white"/>
<path d="M92.116 228.836L91.0336 228.672C91.0027 228.058 90.974 227.449 90.9431 226.848C90.8834 225.704 90.826 224.585 90.7708 223.507C90.6139 220.464 90.4681 217.744 90.3555 215.808C90.7973 218.318 91.1927 220.907 91.5196 223.514C91.6544 224.587 91.7803 225.662 91.8974 226.726C91.9747 227.433 92.0476 228.138 92.116 228.836Z" fill="#EFEFEF"/>
<path d="M74.8454 223.323C74.8454 223.815 74.8454 224.305 74.8299 224.793C74.4617 224.673 74.0936 224.551 73.7254 224.427C73.7254 224.05 73.7099 223.676 73.7033 223.305C73.6658 221.578 73.6216 219.892 73.5686 218.256C73.1908 206.252 72.4641 196.819 72.2255 194.002C72.1769 193.437 72.1504 193.137 72.1504 193.137H74.218C74.218 193.137 74.26 194.013 74.3263 195.54C74.5008 199.772 74.8343 209.007 74.863 218.555C74.8652 220.144 74.8652 221.738 74.8454 223.323Z" fill="#EFEFEF"/>
<path d="M95.2587 207.928C87.6068 205.394 81.0505 200.493 74.3241 195.54C73.626 195.031 72.9258 194.514 72.2233 194.002C70.8869 193.029 69.5394 192.062 68.1676 191.12C65.5787 189.039 62.3712 191.189 60.657 194.199C57.1995 200.778 54.765 207.848 53.438 215.165C52.1008 214.381 50.7828 213.568 49.4839 212.727C48.7093 212.226 47.9406 211.713 47.1777 211.189C47.2219 208.528 47.2595 206.285 47.2816 204.729C47.3081 202.896 47.5533 200.193 47.931 197.028C49.5082 183.809 53.438 162.524 53.438 162.524L65.3666 162.952L68.415 163.061L70.0497 163.12L75.983 163.342L82.8574 163.586L86.7872 163.73H86.9617L90.717 163.865L92.3782 178.749L92.5638 180.413L92.7073 181.688L93.5423 189.158L93.962 192.927C93.962 192.927 93.962 192.945 93.962 192.978C93.962 193.011 93.962 192.998 93.962 193.011C93.962 193.024 93.962 193.049 93.962 193.073C93.962 193.098 93.962 193.133 93.962 193.169C93.962 193.204 93.962 193.224 93.962 193.255C93.962 193.286 93.962 193.353 93.9731 193.406C93.9841 193.459 93.9731 193.525 93.9886 193.59C94.004 193.789 94.0239 194.033 94.046 194.31C94.046 194.403 94.0615 194.501 94.0703 194.603C94.0791 194.705 94.0835 194.778 94.0924 194.869C94.1189 195.179 94.1454 195.521 94.1763 195.891C94.1874 196.039 94.2006 196.192 94.2139 196.35C94.2139 196.445 94.2293 196.54 94.2382 196.64C94.2492 196.786 94.2647 196.937 94.2757 197.083C94.2757 197.176 94.2912 197.272 94.3 197.367C94.3133 197.529 94.3287 197.693 94.342 197.861C94.342 197.961 94.3597 198.061 94.3685 198.165C94.3818 198.347 94.3972 198.533 94.4149 198.722C94.4138 198.727 94.4138 198.732 94.4149 198.737C94.4304 198.93 94.4458 199.129 94.4635 199.333C94.4812 199.537 94.4966 199.704 94.5143 199.892C94.532 200.114 94.5541 200.351 94.5739 200.588C94.5894 200.776 94.6049 200.965 94.6225 201.158V201.246C94.6336 201.357 94.6424 201.468 94.6535 201.581C94.6645 201.694 94.6733 201.803 94.6844 201.923L94.7308 202.483C94.7573 202.76 94.7816 203.042 94.8081 203.324C94.8081 203.443 94.828 203.563 94.839 203.683C94.8567 203.876 94.8744 204.071 94.892 204.268C95.029 205.447 95.1394 206.673 95.2587 207.928Z" fill="#E5E5E5"/>
<path d="M90.7308 124.507C90.7308 124.507 92.297 114.64 91.5017 110.319C90.7065 105.999 88.8244 100.344 79.593 99.5857C70.3616 98.8276 66.8471 108.978 66.6925 114.398C66.5379 119.818 59.5442 129.774 53.9422 135.679C48.3402 141.584 44.8698 160.385 45.6209 170.249C46.3719 180.114 42.166 200.561 40.1426 202.259C53.9532 199.502 48.3159 182.905 53.697 175.698C60.2864 166.871 74.5499 198.905 89.7831 203.011C96.5338 204.829 105.493 205.804 106.879 212.277C111.575 204.126 103.231 189.362 102.383 183.692C101.535 178.021 105.584 174.563 104.86 166.574C104.135 158.585 99.6927 155.047 98.2922 145.278C96.8917 135.508 90.3288 127.415 90.7308 124.507Z" fill="white"/>
<path d="M46.6172 155.422C46.6172 155.422 47.1451 143.526 55.3516 142.431C63.558 141.336 68.5591 152.659 68.5591 152.659C65.482 142.622 60.4389 140.221 55.1395 140.443C49.8401 140.665 46.6415 146.003 46.6172 155.422Z" fill="#EFEFEF"/>
<path d="M84.0449 169.795C84.0449 169.795 84.6723 174.672 91.5555 179.68C98.4387 184.687 103.219 187.385 106.148 195.241C104.719 188.813 101.73 185.082 96.5986 181.823C91.4672 178.565 85.0876 172.435 84.0449 169.795Z" fill="#EFEFEF"/>
<path d="M66.6919 114.398C66.6919 114.398 67.4142 117.67 69.8198 118.448C72.2254 119.226 71.0657 122.392 73.2858 126.134C75.5058 129.876 79.9282 131.474 82.9612 130.767C85.9941 130.06 89.608 125.699 91.3178 120.075C91.035 126.282 88.5853 130.397 81.9516 131.585C75.318 132.773 72.8329 130.31 70.0363 124.926C67.2397 119.541 66.471 116.566 66.6919 114.398Z" fill="#EFEFEF"/>
<path d="M72.0469 123.139C72.0469 123.139 69.8114 114.533 74.2184 107.045C71.7001 110.133 69.765 115.247 70.6089 121.328C71.4151 127.346 72.0469 123.139 72.0469 123.139Z" fill="#EFEFEF"/>
<path d="M84.5681 106.396C84.5681 106.396 80.6869 105.538 77.9411 108.612C75.1954 111.687 74.473 115.531 73.8722 117.111C73.2713 118.692 74.2919 124.761 77.2343 127.508C80.1766 130.255 82.7567 130.073 84.2412 128.925C85.7256 127.776 87.4972 125.291 88.752 122.647C90.0067 120.002 89.4147 117.69 89.397 116.138C89.3793 114.587 89.207 107.249 84.5681 106.396Z" fill="#F7916D"/>
<path d="M78.9349 128.251C75.9925 125.504 75.3077 119.277 75.6501 117.61C76.0632 115.615 75.9395 112.31 78.6831 109.229C81.4267 106.147 85.3101 107.012 85.3101 107.012C85.8965 107.117 86.4548 107.343 86.9492 107.677C86.3129 107.003 85.4798 106.55 84.5701 106.382C84.5701 106.382 80.6889 105.524 77.9431 108.599C75.1973 111.674 74.475 115.518 73.8741 117.098C73.2733 118.679 74.2938 124.748 77.2362 127.495C78.3893 128.57 79.485 129.191 80.4812 129.49C79.9342 129.118 79.4172 128.704 78.9349 128.251Z" fill="#EF8362"/>
<path d="M81.252 125.99C81.252 125.99 82.3564 126.433 83.2666 126.262C84.1767 126.092 84.3711 126.191 84.1502 126.601C83.9293 127.012 82.4559 127.251 81.252 125.99Z" fill="#EF8362"/>
<path d="M85.8755 115.662C86.0544 115.46 87.0728 114.66 88.069 115.039C89.0653 115.418 89.0631 116.063 89.0631 116.063C89.0631 116.063 88.7406 115.475 87.6935 115.566C86.6464 115.657 86.8651 115.912 86.1295 116.03C85.3939 116.147 85.8755 115.662 85.8755 115.662Z" fill="#542313"/>
<path d="M81.5806 115.232C81.3443 115.01 80.1845 114.088 78.8702 114.345C77.5558 114.602 77.4785 115.232 77.4785 115.232C77.4785 115.232 77.9623 114.689 79.2811 114.91C80.5998 115.132 80.9599 115.757 81.4127 115.85C82.0975 115.992 81.7441 115.378 81.5806 115.232Z" fill="#542313"/>
<path d="M78.6364 117.167H78.621C78.5933 117.173 78.569 117.189 78.5533 117.213C78.5377 117.237 78.5318 117.265 78.537 117.293C78.537 117.344 78.8087 118.552 79.8116 118.623C80.6201 118.683 80.9515 117.881 81.0111 117.453C81.0149 117.423 81.0069 117.394 80.9889 117.37C80.9709 117.347 80.9443 117.331 80.915 117.328C80.8857 117.324 80.8561 117.332 80.8327 117.35C80.8093 117.368 80.794 117.395 80.7902 117.424C80.7902 117.466 80.6267 118.459 79.816 118.41C79.0053 118.362 78.7403 117.267 78.738 117.256C78.734 117.231 78.7216 117.209 78.7031 117.193C78.6845 117.177 78.661 117.168 78.6364 117.167Z" fill="#622807"/>
<path d="M86.1311 117.42H86.1112C86.0835 117.425 86.0593 117.442 86.0436 117.466C86.0279 117.489 86.022 117.518 86.0273 117.546C86.0383 117.597 86.2968 118.807 87.2996 118.876C88.1081 118.936 88.4417 118.131 88.5013 117.703C88.5045 117.675 88.4965 117.647 88.4792 117.625C88.4619 117.602 88.4365 117.587 88.4086 117.584C88.3807 117.58 88.3525 117.587 88.3302 117.604C88.3078 117.621 88.2931 117.647 88.2893 117.674C88.2893 117.717 88.1258 118.712 87.3151 118.663C86.5044 118.614 86.2371 117.519 86.2349 117.508C86.2312 117.483 86.2186 117.461 86.1995 117.444C86.1804 117.428 86.1561 117.419 86.1311 117.42Z" fill="#622807"/>
<path d="M85.689 115.99C85.689 115.99 84.865 117.156 85.0263 118.475C85.1875 119.794 86.979 120.762 86.7935 121.43C86.6079 122.097 84.1117 122.786 82.6074 122.026C85.0108 122.248 85.9342 121.6 85.7862 121.035C85.6382 120.47 84.6817 119.909 84.6088 118.548C84.5359 117.187 85.689 115.99 85.689 115.99Z" fill="#E5745A"/>
<path d="M85.9628 123.76C85.6157 123.955 85.2152 124.032 84.8207 123.981C84.3538 123.957 83.8895 124.066 83.4821 124.296C82.9394 123.905 82.296 123.679 81.6287 123.644C81.0822 123.645 80.5382 123.57 80.0117 123.423C80.0117 123.423 80.279 124.116 81.2951 125.019C82.3113 125.921 83.9018 125.865 84.538 125.513C85.1741 125.161 85.8059 124.227 85.9628 123.76Z" fill="#E23B3B"/>
<path d="M81.3283 124.298C82.3542 124.738 83.4844 124.873 84.5843 124.686C85.1247 124.549 85.6052 124.238 85.9517 123.799C85.9544 123.79 85.9581 123.78 85.9628 123.771C85.6157 123.966 85.2152 124.044 84.8207 123.992C84.3538 123.968 83.8895 124.077 83.4821 124.307C82.9394 123.916 82.296 123.69 81.6287 123.655C81.0822 123.656 80.5382 123.581 80.0117 123.434C80.0117 123.434 80.2348 123.835 81.3283 124.298Z" fill="#CC2B2B"/>
<path d="M74.5488 115.01C74.5488 115.01 77.8314 110.665 83.7228 110.067C86.515 109.639 88.4633 112.257 89.3756 115.311C90.3476 111.973 89.137 105.855 84.4473 105.066C79.7576 104.276 76.3028 106.509 74.5488 115.01Z" fill="#EFEFEF"/>
<path d="M108.085 137.911C107.901 137.266 106.912 138.011 106.912 138.011C106.912 138.011 106.3 135.145 106.169 134.172C106.039 133.199 105.341 133.021 104.988 133.254C104.871 132.387 104.429 131.962 103.952 131.997C103.474 132.033 102.94 132.101 102.988 133.168C102.105 133.168 101.515 133.999 101.758 135.435C101.637 135.016 100.627 135.214 100.293 136.295C99.9356 137.448 100.099 139.927 100.172 141.416C100.245 142.906 99.4231 144.076 97.8989 147.067C96.4167 149.977 98.1331 152.194 98.7163 153.628C98.851 156.953 97.6294 165.978 96.4874 169.627C95.162 173.865 98.3827 179.879 103.689 177.607C108.995 175.335 108.431 165.699 106.339 160.128C105.733 158.503 105.255 156.832 104.91 155.131C104.594 153.107 104.263 150.394 104.53 149.279C104.972 147.399 106.194 146.176 107.024 144.963C107.855 143.75 108.383 142.456 107.985 141.17C107.588 139.884 108.268 138.565 108.085 137.911Z" fill="#F7916D"/>
<path d="M98.7708 153.522C98.7708 153.522 100.98 154.213 102.526 153.22C104.072 152.227 104.501 149.822 104.501 149.822L105.495 153.743C108.051 154.852 109.42 162.91 109.955 167.525C110.49 172.14 109.418 177.168 104.362 178.746C99.3054 180.325 95.8505 176.576 94.9051 173.723C93.9596 170.87 94.4964 167.119 95.6517 163.083C96.807 159.046 96.617 157.122 97.5161 156.244C98.4152 155.366 98.4107 154.355 98.7708 153.522Z" fill="white"/>
<path d="M104.566 150.081L104.495 149.811C104.495 149.811 104.478 149.913 104.436 150.077L104.566 150.081Z" fill="#EFEFEF"/>
<path d="M108.604 175.086C103.547 176.665 100.099 172.925 99.1469 170.061C98.1948 167.197 98.736 163.457 99.8935 159.421C100.523 157.224 100.368 155.235 100.24 153.735C99.7436 153.72 99.2504 153.646 98.7714 153.513C98.4113 154.358 98.4157 155.375 97.5167 156.251C96.6176 157.126 96.8098 159.057 95.6523 163.089C94.4947 167.122 93.9557 170.861 94.9056 173.73C95.8555 176.598 99.3082 180.334 104.362 178.755C105.343 178.473 106.255 177.991 107.043 177.34C107.83 176.689 108.475 175.881 108.937 174.969C108.824 175.002 108.721 175.051 108.604 175.086Z" fill="#EFEFEF"/>
<path d="M101.814 135.318C101.814 135.318 102.119 138.865 102.168 139.86C102.216 140.855 102.168 142.236 101.98 142.948C101.792 143.659 102.175 143.322 102.373 142.7C102.594 142.035 102.473 141.392 102.398 139.636C102.291 138.186 102.096 136.744 101.814 135.318Z" fill="#E27756"/>
<path d="M103.043 133.05C103.043 133.05 103.887 137.528 104.048 138.503C104.209 139.479 104.315 141.607 104.214 142.34C104.112 143.074 104.406 143.267 104.572 142.633C104.737 141.999 104.525 139.999 104.245 138.257C103.964 136.515 103.043 133.05 103.043 133.05Z" fill="#E27756"/>
<path d="M105.041 133.074C105.041 133.074 105.794 137.195 105.925 138.093C106.055 138.991 106.146 141.261 106.039 141.935C105.933 142.609 106.236 142.567 106.415 141.979C106.594 141.392 106.371 139.459 106.13 137.863C105.889 136.266 105.041 133.074 105.041 133.074Z" fill="#E27756"/>
<path d="M106.699 136.612C106.699 136.612 106.984 138.468 107.17 139.436C107.355 140.405 107.433 141.516 107.115 142.347C106.796 143.178 106.629 143.455 106.768 143.662C106.907 143.868 107.565 142.64 107.651 141.527C107.737 140.414 106.699 136.612 106.699 136.612Z" fill="#E27756"/>
<path d="M91.3905 138.53C91.4529 137.774 91.4247 137.013 91.3066 136.264C91.2204 135.759 90.3523 135.726 90.222 136.548C90.3501 135.393 90.1093 134.331 89.4046 134.378C88.7 134.424 88.3885 135.167 88.1057 136.923C88.256 135.697 88.1698 134.613 87.6507 134.642C87.1316 134.67 86.3894 135.635 86.1044 137.424C85.8194 139.213 85.2208 141.358 85.1391 142.019C85.0573 142.68 84.5007 143.338 83.1731 145.723C83.1731 145.723 84.0567 143.752 84.6619 141.924C85.2672 140.095 83.7783 139.423 83.4558 140.257C83.1333 141.09 81.3595 143.478 81.0259 146.056C80.6924 148.634 81.8455 149.603 81.6709 151.17C81.5693 152.094 80.5664 153.766 79.7646 154.989C78.6601 156.339 75.9982 159.23 71.1628 162.384C64.5093 166.727 57.2903 171.431 55.4126 175.572C53.535 179.713 55.6468 182.513 55.6468 182.513C55.6468 182.513 58.5604 186.724 67.8382 181.309C74.2576 177.558 80.7034 167.399 84.0677 161.493C84.0677 161.493 87.6154 155.752 88.5917 153.788C89.5681 151.824 92.1681 150.604 92.3249 147.381C92.4818 144.158 92.135 140.813 92.1681 139.623C92.2012 138.432 91.8522 138.155 91.3905 138.53Z" fill="#F7916D"/>
<path d="M81.6663 151.17C81.6663 151.17 82.0573 152.722 84.4364 154.052C86.8155 155.382 88.5849 153.799 88.5849 153.799L87.4804 158.011C89.9854 162.223 79.3579 178.478 74.1248 183.089C68.8917 187.7 59.3709 190.349 54.0583 186.764C48.7457 183.18 51.9951 174.976 58.8165 169.804C65.6379 164.632 74.4407 159.469 76.1063 156.947C77.7719 154.424 79.7577 154.998 79.7577 154.998L81.6663 151.17Z" fill="#EFEFEF"/>
<path d="M87.8063 158.948C86.4588 159.773 83.9737 160.221 79.7987 157.589C75.3962 163.963 73.8499 167.931 65.9969 172.612C58.7536 176.924 51.9786 180.985 55.4467 186.201C60.8477 189.254 68.4422 185.829 73.4964 181.378C78.4004 177.062 88.6545 164.238 87.8063 158.948Z" fill="white"/>
<path d="M88.131 136.705C88.131 136.705 87.9101 140.396 87.6737 141.418C87.4374 142.44 86.7901 143.877 86.8299 144.094C86.8696 144.311 87.3379 144.136 87.7797 142.618C88.2215 141.099 88.131 136.705 88.131 136.705Z" fill="#E27756"/>
<path d="M90.2377 135.597C90.2377 135.597 90.0389 140.172 89.9903 141.09C89.9417 142.008 89.268 143.886 89.1619 144.34C89.0559 144.794 89.4049 144.648 89.7363 143.801C90.0676 142.954 90.2024 141.888 90.3703 140.735C90.5381 139.583 90.2377 135.597 90.2377 135.597Z" fill="#E27756"/>
<path d="M91.3906 138.53C91.3906 138.53 91.4657 141.035 91.3023 142.325C91.1388 143.615 91.0703 144.367 90.9488 145.016C90.8273 145.666 91.2205 145.459 91.3244 144.967C91.4642 143.87 91.538 142.764 91.5453 141.658C91.5718 140.443 91.3906 138.53 91.3906 138.53Z" fill="#E27756"/>
<path d="M135.158 122.115C135.158 122.115 137.261 132.336 131.127 135.311C135.675 140.492 152.333 135.311 152.333 135.311L149.683 134.524C149.683 134.524 146.775 131.199 146.775 122.997C143.345 122.456 135.158 122.115 135.158 122.115Z" fill="#F7916D"/>
<path d="M140.301 133.994C143.349 133.314 145.823 131.76 147.458 129.339C146.985 127.255 146.756 125.123 146.776 122.986C143.341 122.456 135.158 122.115 135.158 122.115C135.158 122.115 136.345 127.878 134.33 132.021C135.123 132.765 136.068 133.326 137.099 133.667C138.13 134.008 139.223 134.119 140.301 133.994Z" fill="#E88262"/>
<path d="M149.683 134.524L144.805 134.509L135.969 133.547C135.969 133.547 128.582 135.783 121.673 140.042C122.07 160.926 120.347 167.875 120.617 183.854C120.886 199.832 164.615 174.439 149.683 134.524Z" fill="#F7916D"/>
<path d="M128.672 139.19C128.672 139.19 129.335 138.727 133.494 140.186C137.654 141.644 139.9 142.241 139.507 140.979C139.114 139.718 132.834 138.669 128.672 139.19Z" fill="#E88262"/>
<path d="M155.454 138.833C155.454 138.833 154.791 138.37 150.631 139.829C146.472 141.287 144.225 141.884 144.618 140.625C145.012 139.366 151.296 138.304 155.454 138.833Z" fill="#E88262"/>
<path d="M124.688 163.014C124.688 163.014 129.598 151.795 126.327 144.535C130.192 147.417 129.198 153.18 129.3 156.869C129.401 160.558 141.589 158.658 144.661 154.874C138.319 167.51 128.896 166.379 124.688 163.014Z" fill="#E88262"/>
<path d="M168.141 211.654C168.02 211.736 167.9 211.818 167.777 211.896C167.507 212.079 167.236 212.259 166.964 212.434C162.999 215.035 158.866 217.368 154.593 219.419C153.798 219.803 153.001 220.173 152.194 220.528C150.053 221.493 147.876 222.388 145.665 223.215C144.936 223.488 144.199 223.753 143.456 224.01C142.463 224.356 141.465 224.688 140.46 225.006C139.042 225.449 137.613 225.868 136.172 226.263C136.172 226.314 136.188 226.365 136.195 226.416L136.131 226.271C135.516 226.44 134.9 226.601 134.282 226.755C131.174 227.536 128.015 228.179 124.805 228.683C124.474 227.116 124.16 225.358 123.868 223.498C123.349 220.2 122.896 216.648 122.543 213.554C122.544 213.549 122.544 213.545 122.543 213.541C122.448 212.709 122.36 211.909 122.278 211.158C121.889 207.582 121.666 205.059 121.666 205.059L126.018 204.638L129.093 204.339L129.336 204.317L145.24 202.765L147.467 202.543L163.2 201.018L164.317 200.909L167.646 200.586L167.805 204.208L167.931 207.09L168.037 209.433L168.141 211.654Z" fill="#EAEAEA"/>
<path d="M167.939 207.121L166.773 207.232L160.924 207.801L160.46 207.843L138.396 209.985L135.083 210.304L134.356 210.375C134.356 210.375 134.374 210.577 134.409 210.947C134.458 211.486 134.541 212.381 134.659 213.529C134.698 213.922 134.74 214.345 134.789 214.793C134.824 215.134 134.86 215.491 134.902 215.861C135.133 218.041 135.434 220.67 135.785 223.383C135.911 224.343 136.041 225.309 136.178 226.265C136.178 226.316 136.194 226.367 136.2 226.418L136.136 226.274C135.522 226.442 134.906 226.603 134.287 226.757C131.18 227.539 128.021 228.181 124.811 228.685C124.479 227.118 124.166 225.36 123.874 223.5C123.355 220.202 122.902 216.651 122.549 213.556C122.55 213.552 122.55 213.547 122.549 213.543C122.454 212.711 122.365 211.911 122.284 211.16C121.895 207.584 121.672 205.061 121.672 205.061L126.024 204.64L129.099 204.341L129.342 204.319L145.246 202.767L147.473 202.545L163.205 201.02L164.323 200.912L167.652 200.588L167.811 204.21L167.939 207.121Z" fill="#E0E0E0"/>
<path d="M168.139 211.656C168.017 211.738 167.898 211.82 167.774 211.898C167.505 212.081 167.234 212.261 166.961 212.437C162.996 215.037 158.864 217.371 154.591 219.422C153.796 219.805 152.998 220.175 152.192 220.53C150.051 221.495 147.874 222.391 145.662 223.217C144.933 223.49 144.197 223.755 143.453 224.013C142.461 224.358 141.462 224.69 140.458 225.008C139.04 225.451 137.61 225.87 136.17 226.265C136.17 226.316 136.186 226.367 136.192 226.418L136.128 226.274C135.514 226.442 134.898 226.603 134.279 226.757C133.888 225.666 133.517 224.54 133.175 223.407C132.179 220.142 131.363 216.757 130.716 213.631C130.585 213.008 130.462 212.395 130.347 211.792C129.784 208.894 129.371 206.301 129.086 204.341L129.329 204.317L145.234 202.776L147.458 202.554L163.193 201.029C163.244 201.113 163.292 201.198 163.341 201.284C163.442 201.461 163.548 201.641 163.655 201.823C164.613 203.476 165.667 205.305 166.747 207.216L167.374 208.325C167.589 208.7 167.804 209.077 168.017 209.455L168.139 211.656Z" fill="#E2E2E2"/>
<path d="M168.968 211.093C168.695 211.282 168.421 211.47 168.145 211.654C168.023 211.736 167.904 211.818 167.78 211.896C167.511 212.079 167.24 212.258 166.967 212.434C163.002 215.035 158.87 217.368 154.597 219.419C153.802 219.803 153.004 220.173 152.198 220.528C150.057 221.493 147.88 222.388 145.668 223.214C144.939 223.488 144.203 223.753 143.459 224.01C142.466 224.356 141.468 224.688 140.464 225.006C139.045 225.449 137.616 225.868 136.176 226.262C136.176 226.313 136.191 226.364 136.198 226.415L136.134 226.271C135.692 225.334 135.292 224.367 134.899 223.39C133.675 220.281 132.609 217.112 131.705 213.895C131.535 213.308 131.374 212.727 131.221 212.159C130.395 209.116 129.768 206.374 129.335 204.323C129.264 204 129.2 203.691 129.143 203.405C128.782 201.659 128.604 200.61 128.604 200.61L139.739 198.274L155.807 194.904L159.194 194.195C159.194 194.195 160.338 196.121 162.065 199.072L163.207 201.031C163.258 201.116 163.307 201.2 163.355 201.286C163.457 201.464 163.563 201.643 163.669 201.825C164.628 203.479 165.682 205.307 166.762 207.218L167.389 208.327C167.604 208.702 167.818 209.079 168.032 209.457L168.968 211.093Z" fill="#F2F2F2"/>
<path d="M166.96 212.437C162.995 215.037 158.862 217.37 154.589 219.422C153.794 219.805 152.997 220.175 152.19 220.53C150.257 219.581 148.23 218.838 146.142 218.313C143.611 217.659 141.439 216.941 139.142 216.181C137.768 215.737 136.35 215.256 134.781 214.775L134.532 214.698C133.648 214.429 132.705 214.157 131.702 213.882C131.53 213.833 131.353 213.787 131.176 213.74C131 213.693 130.869 213.658 130.719 213.623C125.614 212.366 122.546 213.554 122.546 213.554C122.547 213.549 122.547 213.545 122.546 213.541C122.387 212.689 122.259 211.9 122.144 211.171C121.746 208.619 121.565 206.755 121.207 205.126C122.746 204.57 124.332 204.157 125.945 203.891C126.946 203.709 128.02 203.543 129.146 203.397C134.211 202.732 140.315 202.479 145.241 202.774C146.635 202.858 147.934 202.984 149.087 203.162C149.677 203.25 150.227 203.354 150.732 203.468C153.268 204.046 155.97 205.241 158.672 206.773C159.261 207.111 159.854 207.464 160.452 207.832C162.7 209.252 164.872 210.788 166.96 212.437Z" fill="#E2E2E2"/>
<path d="M143.464 224.015C142.472 224.361 141.473 224.692 140.469 225.01C139.965 224.446 139.498 223.886 139.066 223.332C137.279 221.085 135.871 218.559 134.9 215.855C134.756 215.451 134.637 215.068 134.538 214.709C134.394 214.214 134.288 213.764 134.209 213.379C134.067 212.741 133.984 212.092 133.959 211.439C133.959 211.439 134.129 211.237 134.401 210.949C134.584 210.761 134.816 210.535 135.075 210.306C136.155 209.36 137.725 208.398 138.388 209.987C138.629 210.552 138.755 211.439 138.706 212.767C138.689 213.26 138.708 213.755 138.761 214.246C138.833 214.907 138.96 215.561 139.139 216.201C139.802 218.604 141.147 221.022 142.868 223.279C143.069 223.527 143.265 223.773 143.464 224.015Z" fill="#E2E2E2"/>
<path d="M184.584 198.039C184.023 198.606 183.454 199.166 182.878 199.719C182.302 200.272 181.713 200.83 181.111 201.395C178.184 204.1 175.111 206.64 171.904 209.003C170.938 209.717 169.96 210.414 168.97 211.093C168.697 211.282 168.423 211.47 168.147 211.654C168.025 211.736 167.906 211.818 167.782 211.896C167.513 212.079 167.242 212.259 166.969 212.434C163.004 215.035 158.872 217.368 154.599 219.419C153.184 218.031 151.643 216.778 149.995 215.678C146.554 213.354 142.9 214.423 138.773 214.241C137.376 214.194 135.992 213.954 134.66 213.527C134.512 213.481 134.362 213.43 134.219 213.374L133.998 213.292C132.86 212.849 131.976 212.477 131.232 212.162C130.921 212.029 130.636 211.909 130.364 211.798C129.111 211.286 128.206 211.002 126.843 210.931C126.401 210.907 125.904 210.907 125.334 210.931H125.153L124.81 210.949L124.501 210.967C124.247 210.985 123.978 211.005 123.693 211.029L123.381 211.056L123.16 211.076L122.878 211.102C122.752 211.113 122.621 211.124 122.491 211.14L122.27 211.16L122.133 211.173L121.362 211.253C121.243 211.268 121.119 211.282 120.993 211.293L120.37 211.379L119.82 211.441C119.82 211.441 119.82 211.441 119.82 211.41C119.82 211.379 119.82 211.381 119.82 211.362C119.822 211.316 119.825 211.27 119.831 211.224C120.008 209.451 121.157 197.259 120.715 187.039C120.688 186.434 120.677 185.694 120.68 184.865C120.68 183.393 120.73 181.641 120.825 179.866C120.825 179.768 120.825 179.677 120.841 179.58C121.02 176.255 121.356 172.892 121.837 171.136C122.082 170.232 122.369 169.757 122.692 169.93C125.564 171.482 135.129 172.998 143.587 159.472C145.419 156.566 146.902 153.452 148.005 150.197C148.201 149.606 148.38 149.029 148.542 148.468C149.032 146.751 149.402 145.002 149.646 143.234C149.81 142.079 149.9 141.017 149.944 140.057C149.964 139.636 149.978 139.237 149.982 138.858C149.986 138.479 149.982 138.069 149.971 137.714C149.96 137.359 149.949 137.069 149.933 136.783C149.918 136.497 149.894 136.218 149.869 135.976C149.788 135.089 149.688 134.58 149.677 134.522C151.72 134.407 154.784 134.881 158.122 136.592L158.151 136.608C158.338 136.705 158.528 136.807 158.721 136.914C159.045 137.091 159.368 137.282 159.697 137.486C161.483 138.604 163.12 139.945 164.57 141.476C164.884 141.802 165.191 142.141 165.498 142.496C165.562 142.567 165.622 142.638 165.683 142.717C166.893 144.147 167.977 145.678 168.924 147.295C169.24 147.829 169.551 148.383 169.852 148.96C170.276 149.765 170.685 150.613 171.08 151.502C174.849 159.986 180.557 181.73 184.584 198.039Z" fill="white"/>
<path d="M144.805 152.824C134.052 164.595 128.017 163.12 124.84 162.325C121.664 161.529 119.819 174.472 120.592 196.452C120.76 201.231 119.828 211.437 119.828 211.437C123.376 211.029 125.375 210.858 126.844 210.934C125.041 199.597 124.454 184.038 129.104 180.141C134.257 175.822 152.797 173.974 153.82 156.67C154.843 139.366 149.692 134.524 149.692 134.524C149.692 134.524 150.619 146.459 144.805 152.824Z" fill="#F2F2F2"/>
<path d="M127.285 179.478C127.219 179.345 140.19 180.143 150.619 170.859C161.048 161.575 159.733 141.287 159.532 140.359C163.029 148.051 163.451 160.012 154.73 171.152C146.009 182.291 127.285 179.478 127.285 179.478Z" fill="#F2F2F2"/>
<path d="M171.898 209.003C170.932 209.717 169.954 210.413 168.965 211.093C168.691 211.282 168.417 211.47 168.141 211.654C168.019 211.736 167.9 211.818 167.776 211.896C165.639 210.3 163.344 208.927 160.928 207.799C160.186 207.44 159.435 207.103 158.684 206.782C155.384 205.374 152.075 204.261 149.088 203.177C148.536 202.975 147.995 202.776 147.469 202.574C144.195 201.324 141.447 200.034 139.738 198.283L139.702 198.247C134.036 192.373 142.949 187.762 155.806 194.922C156.442 195.274 157.087 195.656 157.741 196.068C159.205 196.995 160.652 198.005 162.062 199.098C162.829 199.689 163.582 200.307 164.321 200.952C165.525 201.986 166.687 203.086 167.809 204.25C169.268 205.749 170.634 207.336 171.898 209.003Z" fill="#F2F2F2"/>
<path d="M182.885 199.719C182.296 200.29 181.707 200.848 181.118 201.395C178.246 197.833 174.491 194.097 169.781 191.267C157.227 183.73 146.16 183.59 146.16 183.59C156.942 182.621 173.481 184.443 182.885 199.719Z" fill="#F2F2F2"/>
<path d="M112.337 208.209C112.337 208.209 111.963 209.273 112.337 211.412C112.71 213.552 113.154 214.345 113.441 214.618C113.728 214.891 115.515 217.187 115.763 217.801C115.937 218.231 115.845 219.131 114.658 218.573C113.472 218.014 111.413 215.691 110.545 213.6C109.677 211.51 111.7 208.116 112.337 208.209Z" fill="#CC6550"/>
<path d="M112.104 209.138C112.104 209.138 111.733 210.202 112.104 212.339C112.475 214.476 112.922 215.274 113.209 215.547C113.496 215.819 115.281 218.114 115.528 218.73C115.703 219.16 115.612 220.047 114.424 219.501C113.235 218.956 111.179 216.62 110.311 214.527C109.442 212.434 111.468 209.045 112.104 209.138Z" fill="#DD7458"/>
<path d="M123.737 140.037C123.737 140.037 117.994 136.958 116.07 154.462C114.146 171.965 112.429 173.215 111.093 178.6C109.756 183.984 109.56 192.641 108.793 196.68C108.027 200.719 107.547 207.019 107.404 209.471C107.26 211.922 109.273 214.855 109.801 216.01C110.329 217.165 113.202 219.28 113.825 220.193C114.448 221.106 115.023 219.399 114.473 218.391C113.923 217.382 112.794 216.249 112.46 215.731C112.127 215.212 111.74 212.341 111.645 211.259C111.55 210.178 112.244 209.191 112.75 209.238C113.255 209.284 113.443 209.504 113.348 211.067C113.253 212.629 112.869 214.529 114.353 215.5C115.838 216.471 115.743 213.962 115.721 212.76C115.699 211.559 115.816 209.105 115.911 207.928C116.006 206.751 115.889 204.394 114.689 202.519C113.49 200.643 116.151 192.781 117.877 189.03C119.602 185.279 121.541 177.707 121.758 174.317C121.974 170.928 124.431 165.592 125.222 161.697C126.012 157.802 127.135 151.453 127.28 147.922C127.521 141.935 123.737 140.037 123.737 140.037Z" fill="#E88262"/>
<path d="M123.737 140.037C123.737 140.037 117.994 136.958 116.07 154.462C114.146 171.965 112.429 173.215 111.093 178.6C109.756 183.984 109.56 192.641 108.793 196.68C108.027 200.719 107.547 207.019 107.404 209.471C107.26 211.922 109.273 214.855 109.801 216.01C110.329 217.165 113.202 219.28 113.825 220.193C114.448 221.106 115.023 219.399 114.473 218.391C113.923 217.382 112.396 216.274 112.06 215.746C111.725 215.219 110.918 211.956 110.823 210.869C110.728 209.783 111.756 208.635 112.259 208.681C112.763 208.728 113.441 209.493 113.346 211.056C113.251 212.618 112.867 214.518 114.351 215.489C115.836 216.46 115.741 213.951 115.718 212.749C115.696 211.548 115.813 209.094 115.908 207.917C116.003 206.74 115.232 203.075 113.152 201.045C111.557 199.493 116.185 191.453 117.91 187.702C119.635 183.951 121.917 177.684 121.749 174.297C121.404 167.543 124.422 165.572 125.213 161.677C126.004 157.782 127.126 151.434 127.272 147.902C127.521 141.935 123.737 140.037 123.737 140.037Z" fill="#F7916D"/>
<path d="M150.452 118.129C150.452 118.129 150.837 114.411 153.445 115.602C156.054 116.792 154.148 120.623 152.659 121.197C151.17 121.771 150.571 120.089 150.463 119.264C150.355 118.439 150.452 118.129 150.452 118.129Z" fill="#F7916D"/>
<path d="M153.914 118.867C154.086 118.598 154.18 118.285 154.183 117.965C154.186 117.645 154.099 117.331 153.932 117.058C153.344 116.118 152.193 116.783 151.97 117.987C151.747 119.191 152.266 119.608 152.595 119.539C152.924 119.47 153.09 118.916 153.037 118.53C152.984 118.144 152.43 118.195 152.279 118.331C152.231 117.681 152.573 116.963 153.163 116.963C153.753 116.963 154.263 117.801 153.914 118.867Z" fill="#E58061"/>
<path d="M132.997 118.129C132.997 118.129 132.614 114.411 130.006 115.602C127.397 116.792 129.301 120.623 130.792 121.197C132.283 121.771 132.877 120.089 132.988 119.264C133.098 118.439 132.997 118.129 132.997 118.129Z" fill="#EA8068"/>
<path d="M129.538 118.867C129.366 118.598 129.273 118.285 129.27 117.965C129.266 117.645 129.354 117.331 129.521 117.058C130.108 116.118 131.257 116.783 131.48 117.987C131.703 119.191 131.186 119.608 130.855 119.539C130.524 119.47 130.362 118.916 130.413 118.53C130.464 118.144 131.019 118.195 131.171 118.331C131.22 117.681 130.877 116.963 130.287 116.963C129.698 116.963 129.189 117.801 129.538 118.867Z" fill="#CE6A52"/>
<path d="M133.039 109.832C133.039 109.832 130.373 121.543 135.339 126.584C140.304 131.625 149.414 130.334 151.243 120.652C151.752 112.946 150.271 109.756 148.352 107.774C146.432 105.793 135.975 105.196 133.039 109.832Z" fill="#F7916D"/>
<path d="M142.294 129.465C138.152 129.605 133.995 126.852 132.82 120.652C132.312 112.946 133.792 109.756 135.709 107.774C137.408 106.021 145.793 105.336 149.738 108.44C149.67 108.885 149.568 109.326 149.433 109.756C149.433 109.639 148.49 107.209 146.447 108.484C144.19 109.87 141.486 110.326 138.901 109.756C136.228 109.127 137.251 112.044 136.111 113.582C134.971 115.121 135.007 119.302 135.638 121.904C136.27 124.507 136.577 128.517 142.294 129.465Z" fill="#E88262"/>
<path d="M133.819 121.312L150.113 121.678L150.411 120.463L151.253 120.652C151.253 120.652 150.977 124.657 148.62 126.905C146.263 129.153 144.449 129.864 141.84 129.864C139.232 129.864 136.521 128.279 135.101 126.983C133.398 125.431 132.596 121.31 132.596 121.31L133.819 121.312Z" fill="#622807"/>
<path d="M137.855 107.675C137.855 107.675 139.728 108.954 142.8 108.803C145.873 108.652 146.437 107.635 146.962 107.675C147.488 107.715 149.436 108.615 149.023 110.419C148.61 112.224 150.15 113.992 150.41 114.558C150.671 115.123 150.41 120.463 150.41 120.463L151.252 120.652C151.252 120.652 151.197 116.591 152.284 115.367C152.622 111.399 151.862 106.622 150.41 104.061C148.959 101.501 147.263 101.783 147.263 101.783C144.362 99.4483 140.492 99.435 137.293 100.838C134.095 102.241 133.556 102.592 133.039 103.359C132.323 103.545 132.445 105.615 132.445 105.615C130.399 106.28 130.121 109.69 130.094 111.47C130.068 113.25 130.256 115.498 130.256 115.498C130.256 115.498 131.373 115.624 131.895 117.271C132.416 118.918 132.595 121.306 132.595 121.306H133.819C133.819 121.306 133.07 117.196 133.169 115.717C133.269 114.239 135.343 113.587 135.118 111.417C134.892 109.246 136.017 107.699 137.855 107.675Z" fill="#622807"/>
<path d="M130.311 109.007C130.311 109.007 132.299 105.549 140.894 105.482C149.489 105.416 151.917 108.615 151.917 108.615C151.917 108.615 151.643 101.506 145.014 99.9804C138.384 98.4553 131.104 100.956 130.311 109.007Z" fill="white"/>
<path d="M141.55 116.593C141.55 116.593 140.43 119.503 140.399 120.787C140.368 122.07 143.661 121.878 144.013 120.787C143.436 121.204 141.854 121.476 141.293 120.946C140.732 120.417 141.55 116.593 141.55 116.593Z" fill="#DB7158"/>
<path d="M144.396 114.309C144.396 114.309 146.292 113.201 148.865 115.252C147.14 114.651 145.801 114.877 145.055 114.908C144.308 114.939 144.125 114.54 144.396 114.309Z" fill="#622807"/>
<path d="M139.861 114.309C139.861 114.309 137.966 113.201 135.393 115.252C137.118 114.651 138.456 114.877 139.203 114.908C139.95 114.939 140.133 114.54 139.861 114.309Z" fill="#622807"/>
<path d="M136.819 117.559H136.797C136.769 117.553 136.744 117.536 136.728 117.511C136.712 117.487 136.706 117.457 136.711 117.428C136.711 117.375 136.991 116.125 138.036 116.058C138.871 115.996 139.216 116.828 139.278 117.269C139.281 117.298 139.274 117.327 139.256 117.351C139.238 117.374 139.212 117.389 139.183 117.393C139.168 117.395 139.154 117.394 139.14 117.391C139.126 117.387 139.113 117.381 139.101 117.372C139.09 117.364 139.08 117.353 139.073 117.34C139.066 117.328 139.061 117.314 139.059 117.3C139.059 117.256 138.891 116.229 138.052 116.278C137.168 116.333 136.947 117.462 136.947 117.473C136.941 117.501 136.925 117.526 136.901 117.542C136.877 117.558 136.847 117.564 136.819 117.559Z" fill="#622807"/>
<path d="M144.954 117.559H144.932C144.903 117.553 144.878 117.536 144.862 117.511C144.846 117.487 144.84 117.457 144.846 117.428C144.857 117.375 145.126 116.125 146.171 116.058C147.006 115.996 147.351 116.828 147.412 117.269C147.416 117.298 147.408 117.327 147.391 117.351C147.373 117.374 147.346 117.389 147.317 117.393C147.303 117.395 147.289 117.394 147.275 117.391C147.261 117.387 147.248 117.381 147.236 117.372C147.225 117.364 147.215 117.353 147.208 117.34C147.2 117.328 147.196 117.314 147.194 117.3C147.194 117.256 147.026 116.229 146.186 116.278C145.303 116.333 145.082 117.462 145.071 117.473C145.065 117.499 145.05 117.522 145.029 117.538C145.007 117.554 144.98 117.561 144.954 117.559Z" fill="#622807"/>
<path d="M139.002 122.893C139.002 122.893 143.442 123.558 145.015 122.893C143.639 125.615 140.694 126.047 139.002 122.893Z" fill="#FFF5F3"/>
</g>
<defs>
<clipPath id="clip0_311_5566">
<rect width="216" height="230" fill="white"/>
</clipPath>
</defs>
</svg>
