<svg width="235" height="230" viewBox="0 0 235 230" fill="none" xmlns="http://www.w3.org/2000/svg">
<path d="M234.607 119.563C234.607 121.121 234.575 122.671 234.51 124.211C234.266 130.142 233.547 136.044 232.359 141.86C232.308 142.095 232.262 142.339 232.211 142.579C231.743 144.804 231.206 147.001 230.601 149.171C230.054 151.148 229.452 153.1 228.796 155.029C228.679 155.376 228.562 155.722 228.44 156.049C227.573 158.549 226.616 161.003 225.57 163.411C224.975 164.792 224.35 166.153 223.694 167.493C223.628 167.631 223.562 167.769 223.49 167.906C223.215 168.488 222.924 169.07 222.629 169.646V170.769L222.119 170.616C222.007 170.835 221.89 171.044 221.778 171.259C221.665 171.473 221.563 171.662 221.462 171.861C221.064 172.606 220.651 173.34 220.238 174.075C219.672 175.06 219.102 176.034 218.515 177.004C217.858 178.08 217.19 179.141 216.502 180.187L215.86 181.152C214.978 182.458 214.076 183.749 213.138 185.014C212.628 185.728 212.073 186.438 211.532 187.142L210.885 187.968C210.462 188.478 210.034 189.035 209.6 189.565C209.453 189.744 209.31 189.922 209.157 190.075L209.07 190.183C209.009 190.264 208.938 190.341 208.872 190.422L208.199 191.218C207.934 191.53 207.689 191.841 207.398 192.147C207.042 192.565 206.675 192.973 206.303 193.387C206.134 193.581 205.956 193.775 205.793 193.968C200.701 199.544 195.057 204.587 188.947 209.02C186.442 210.829 183.863 212.539 181.209 214.148C169.724 221.089 157.064 225.862 143.857 228.23C131.443 230.446 118.742 230.539 106.296 228.505C93.0964 226.347 80.4025 221.789 68.8424 215.056C65.7569 213.26 62.7666 211.321 59.8714 209.239L45.8287 197.229C43.9122 195.297 42.0704 193.292 40.3034 191.213C37.7942 188.278 35.4411 185.212 33.254 182.029C31.8744 180.019 30.5576 177.963 29.3037 175.861C29.0183 175.351 28.7328 174.891 28.4474 174.396L28.376 174.269C27.7134 173.106 27.066 171.932 26.4442 170.738C26.3066 170.483 26.174 170.228 26.0466 169.968C25.6083 169.126 25.1801 168.274 24.7723 167.417C24.3645 166.56 23.9466 165.677 23.549 164.804C22.8456 163.226 22.1745 161.634 21.5356 160.029C21.0871 158.891 20.6589 157.748 20.246 156.59C20.1594 156.36 20.0829 156.126 20.0065 155.896C19.6854 155.003 19.3846 154.1 19.0941 153.197C12.8085 133.563 12.1368 112.56 17.155 92.5637C22.1733 72.5674 32.6812 54.3757 47.4904 40.046C48.4554 39.114 49.4341 38.199 50.4263 37.301C66.295 23.0154 85.961 13.6414 107.043 10.3141C128.125 6.98684 149.718 9.84902 169.208 18.5541C188.698 27.2591 205.249 41.4336 216.856 59.3611C228.463 77.2886 234.629 98.2001 234.607 119.563Z" fill="#EBF4F9"/>
<path d="M234.607 119.563C234.607 121.121 234.575 122.671 234.51 124.211C234.266 130.142 233.547 136.044 232.359 141.86C232.308 142.095 232.262 142.339 232.211 142.579C231.743 144.804 231.206 147.001 230.601 149.171C230.054 151.148 229.452 153.1 228.796 155.029C228.679 155.376 228.562 155.722 228.44 156.049C227.573 158.549 226.616 161.003 225.57 163.411C224.975 164.792 224.35 166.153 223.694 167.493C223.628 167.631 223.562 167.769 223.49 167.906C223.215 168.488 222.924 169.07 222.629 169.646C222.466 169.973 222.297 170.294 222.119 170.616C222.007 170.835 221.89 171.044 221.778 171.259C221.665 171.473 221.563 171.662 221.462 171.861C221.064 172.606 220.651 173.34 220.238 174.075C219.672 175.06 219.102 176.034 218.515 177.004C217.858 178.08 217.19 179.141 216.502 180.187L215.86 181.152C214.978 182.458 214.076 183.749 213.138 185.014C212.628 185.728 212.073 186.438 211.532 187.142L210.885 187.968C210.462 188.478 210.034 189.035 209.6 189.565C209.453 189.744 209.31 189.922 209.157 190.075L209.07 190.183C209.009 190.264 208.938 190.341 208.872 190.422L208.199 191.218C207.934 191.53 207.689 191.841 207.398 192.147C207.042 192.565 206.675 192.973 206.303 193.387C206.134 193.581 205.956 193.775 205.793 193.968C200.701 199.544 195.057 204.587 188.947 209.02C186.442 210.829 183.863 212.539 181.209 214.148C169.724 221.089 157.064 225.862 143.857 228.23C131.443 230.446 118.742 230.539 106.296 228.505C93.0964 226.347 80.4025 221.789 68.8424 215.056C65.7569 213.26 62.7666 211.321 59.8714 209.239L45.8287 197.229C43.9122 195.297 42.0704 193.292 40.3034 191.213C37.7942 188.278 35.4411 185.212 33.254 182.029C31.8744 180.019 30.5576 177.963 29.3037 175.861C29.0183 175.351 28.7328 174.891 28.4474 174.396L28.376 174.269C27.7134 173.106 27.066 171.932 26.4442 170.738C26.3066 170.483 26.174 170.228 26.0466 169.968C25.6083 169.126 25.1801 168.274 24.7723 167.417C24.3645 166.56 23.9466 165.677 23.549 164.804C22.8456 163.226 22.1745 161.634 21.5356 160.029C21.0871 158.891 20.6589 157.748 20.246 156.59C20.1594 156.36 20.0829 156.126 20.0065 155.896C19.6854 155.003 19.3846 154.1 19.0941 153.197C12.8085 133.563 12.1368 112.56 17.155 92.5637C22.1733 72.5674 32.6812 54.3757 47.4904 40.046C48.4554 39.114 49.4341 38.199 50.4263 37.301C66.295 23.0154 85.961 13.6414 107.043 10.3141C128.125 6.98684 149.718 9.84902 169.208 18.5541C188.698 27.2591 205.249 41.4336 216.856 59.3611C228.463 77.2886 234.629 98.2001 234.607 119.563Z" fill="#87CEEB"/>
<path d="M234.401 119.626C234.401 121.183 234.369 122.733 234.305 124.274C234.06 130.205 233.341 136.106 232.154 141.922C232.103 142.157 232.057 142.402 232.006 142.641C231.537 144.866 231 147.063 230.395 149.234C229.848 151.21 229.247 153.162 228.591 155.091C228.473 155.438 228.356 155.785 228.234 156.111C227.367 158.611 226.411 161.065 225.364 163.474C224.77 164.855 224.144 166.215 223.488 167.555C223.422 167.693 223.356 167.831 223.285 167.969C223.009 168.55 222.719 169.132 222.423 169.709V170.831L221.913 170.678C221.801 170.897 221.684 171.107 221.572 171.321C221.46 171.535 221.358 171.724 221.256 171.923C220.858 172.668 220.445 173.403 220.033 174.137C219.467 175.122 218.896 176.096 218.31 177.066C217.652 178.142 216.984 179.204 216.296 180.25L215.654 181.214C214.772 182.52 213.87 183.811 212.932 185.076C212.422 185.791 211.867 186.5 211.327 187.204L210.679 188.03C210.256 188.541 209.828 189.097 209.395 189.627C209.247 189.806 209.104 189.985 208.951 190.138L208.865 190.245C208.803 190.326 208.732 190.403 208.666 190.485L207.993 191.281H40.0416C37.5324 188.345 35.1793 185.28 32.9922 182.097C31.6126 180.086 30.2958 178.03 29.0419 175.928C28.7565 175.418 28.471 174.959 28.1856 174.464L28.1142 174.336C27.4516 173.173 26.8043 171.999 26.1824 170.806C26.0448 170.55 25.9122 170.295 25.7848 170.035C25.3465 169.193 24.9183 168.341 24.5105 167.484C24.1028 166.627 23.6848 165.744 23.2872 164.872C22.5838 163.293 21.9127 161.702 21.2738 160.096C20.8253 158.958 20.3971 157.815 19.9842 156.657C19.8976 156.428 19.8211 156.193 19.7447 155.963C19.4236 155.07 19.1228 154.167 18.8323 153.264C11.7448 131.022 11.8447 107.108 19.1177 84.9257C21.2151 83.9373 23.6028 83.7577 25.8241 84.4214C28.0454 85.085 29.9443 86.5453 31.1572 88.5227C31.3972 88.9053 31.6069 89.3062 31.7842 89.7217C32.8558 88.7804 34.1657 88.1529 35.5703 87.9081C36.9748 87.6633 38.4196 87.8106 39.7459 88.3339C40.2493 86.6484 41.1013 85.0878 42.2466 83.7534C43.3918 82.419 44.8048 81.3407 46.3935 80.5886C47.9823 79.8365 49.7114 79.4274 51.4684 79.3879C53.2255 79.3484 54.9711 79.6793 56.5921 80.3592C56.507 79.8535 56.4643 79.3415 56.4646 78.8286C56.4716 77.2257 56.8868 75.6511 57.6712 74.2536C58.4555 72.8562 59.5829 71.6821 60.9469 70.8424C62.3109 70.0026 63.8663 69.5251 65.4661 69.4547C67.0658 69.3844 68.6571 69.7238 70.0893 70.4406C71.817 71.3081 73.2395 72.6821 74.1671 74.3795C74.9165 75.7606 75.3073 77.3079 75.3037 78.8796C75.3044 79.3923 75.2635 79.9042 75.1814 80.4103C75.1814 80.5735 75.1253 80.7368 75.0846 80.9205C75.7884 80.7584 76.5082 80.6763 77.2305 80.6756C79.5664 80.6792 81.8209 81.5354 83.5713 83.0838C84.2875 81.8493 85.275 80.7942 86.4588 79.9983C87.6427 79.2024 88.992 78.6865 90.4045 78.4899C91.8171 78.2932 93.2558 78.4209 94.6117 78.8632C95.9676 79.3056 97.2052 80.0509 98.2308 81.0429L98.3684 81.1654C99.0847 77.9576 100.958 75.1272 103.63 73.2165C106.302 71.3058 109.584 70.4491 112.848 70.8106C116.112 71.1722 119.128 72.7264 121.317 75.1757C123.507 77.6249 124.717 80.7969 124.716 84.0838C124.716 84.2879 124.716 84.4869 124.69 84.691C124.69 84.7726 124.69 84.8491 124.69 84.9257C125.087 85.0474 125.474 85.1992 125.847 85.3798C126 85.4512 126.153 85.5175 126.306 85.6043C126.525 84.8615 126.839 84.1499 127.239 83.4869C128.197 81.8725 129.614 80.581 131.309 79.7776C133.005 78.9742 134.901 78.6955 136.756 78.9772C138.61 79.2588 140.339 80.088 141.72 81.3585C143.101 82.6291 144.071 84.2833 144.508 86.1094C146.752 84.6348 149.378 83.8508 152.062 83.8542C153.279 83.8529 154.492 84.016 155.666 84.3389C155.926 84.4104 156.175 84.4818 156.435 84.5634C156.445 84.1071 156.486 83.6519 156.558 83.2011C156.893 80.9733 158.017 78.9402 159.725 77.4719C161.432 76.0036 163.609 75.1977 165.86 75.2009C166.409 75.2007 166.956 75.2502 167.496 75.3489C167.624 75.3489 167.746 75.3897 167.863 75.4203C168.31 73.6632 169.365 72.1219 170.842 71.0711C172.318 70.0203 174.119 69.5283 175.924 69.6827C177.728 69.8371 179.42 70.6278 180.696 71.9141C181.973 73.2003 182.752 74.8985 182.895 76.7061C183.537 76.5358 184.198 76.4484 184.862 76.4459C186.885 76.4526 188.824 77.2619 190.252 78.6964C191.68 80.131 192.482 82.0738 192.482 84.0991C192.482 85.0311 192.309 85.9549 191.973 86.8237C193.528 87.2691 194.954 88.0832 196.128 89.1969C197.303 90.3106 198.193 91.6912 198.721 93.2218C201.024 91.61 203.766 90.7477 206.576 90.7524C207.369 90.7546 208.16 90.8246 208.941 90.9616L209.369 91.0432C209.42 89.0472 210.248 87.15 211.676 85.7564C213.104 84.3628 215.02 83.5832 217.015 83.5838C217.234 83.5838 217.453 83.5838 217.667 83.6195C217.935 83.637 218.2 83.6728 218.463 83.7267C218.555 82.3717 218.858 81.0395 219.36 79.7776C219.56 79.2664 219.793 78.7688 220.058 78.2878C221.094 76.3755 222.586 74.749 224.401 73.5529C231.019 88.0073 234.431 103.725 234.401 119.626Z" fill="#D2E9F7"/>
<path d="M234.511 124.212C234.266 130.142 233.547 136.044 232.36 141.86C232.309 142.095 232.263 142.34 232.212 142.579C231.743 144.804 231.206 147.001 230.601 149.171C230.054 151.148 229.453 153.1 228.797 155.029C228.68 155.376 228.562 155.723 228.44 156.049C227.574 158.549 226.617 161.003 225.57 163.412C224.976 164.793 224.35 166.153 223.695 167.493H24.7168C24.2937 166.626 23.891 165.753 23.4934 164.881C22.79 163.303 22.1189 161.711 21.4801 160.105C21.0315 158.968 20.6033 157.825 20.1905 156.666C20.1038 156.437 20.0274 156.202 19.9509 155.973C19.6298 155.08 19.3291 154.177 19.0385 153.274C14.0444 137.555 12.5994 120.923 14.8079 104.578C18.6511 104.788 24.2631 106.339 26.5313 108.721C28.6534 110.962 29.9325 113.871 30.1503 116.951C30.413 116.9 30.6786 116.864 30.9455 116.844C31.1647 116.844 31.3787 116.813 31.5979 116.813C33.5917 116.813 35.5069 117.592 36.9352 118.984C38.3635 120.377 39.1918 122.273 39.2437 124.268C39.3864 124.237 39.5291 124.212 39.6769 124.191C40.4558 124.051 41.2456 123.981 42.0369 123.982C44.8456 123.978 47.5875 124.839 49.8916 126.446C50.4209 124.924 51.3072 123.551 52.4761 122.442C53.645 121.333 55.0625 120.521 56.6097 120.074C56.2749 119.202 56.1022 118.277 56.1 117.344C56.1 115.314 56.9055 113.368 58.3394 111.932C59.7732 110.497 61.7179 109.691 63.7457 109.691C64.4116 109.693 65.0746 109.78 65.7183 109.951C65.8328 108.352 66.4463 106.828 67.4722 105.597C68.4981 104.365 69.8845 103.487 71.4358 103.087C72.987 102.687 74.6247 102.784 76.1176 103.366C77.6105 103.947 78.8831 104.984 79.7559 106.328C80.2117 107.046 80.5458 107.834 80.7448 108.66C80.862 108.629 80.9894 108.614 81.1067 108.594C81.6482 108.495 82.1975 108.446 82.7479 108.446C84.9991 108.443 87.1764 109.25 88.8843 110.718C90.5922 112.186 91.7174 114.218 92.0554 116.446C92.1254 116.897 92.1646 117.352 92.1726 117.808C92.4274 117.722 92.6823 117.655 92.9423 117.584C94.1163 117.261 95.3284 117.098 96.546 117.099C99.2295 117.094 101.856 117.876 104.1 119.349C104.426 117.986 105.051 116.712 105.931 115.62C106.81 114.529 107.921 113.647 109.183 113.038C110.445 112.43 111.827 112.111 113.227 112.104C114.628 112.097 116.013 112.402 117.281 112.997C117.409 113.058 117.531 113.119 117.653 113.191C118.227 113.491 118.767 113.852 119.264 114.267C120.1 114.957 120.81 115.785 121.364 116.716C121.758 117.384 122.071 118.097 122.297 118.839C122.443 118.754 122.594 118.679 122.75 118.614C123.066 118.458 123.394 118.325 123.729 118.216L123.908 118.16C123.908 118.084 123.908 118.002 123.908 117.921C123.908 117.839 123.908 117.88 123.908 117.854C123.908 117.681 123.908 117.507 123.908 117.344C123.906 115.007 124.519 112.71 125.683 110.684C126.847 108.658 128.523 106.974 130.542 105.8C132.562 104.626 134.854 104.004 137.189 103.995C139.524 103.987 141.82 104.593 143.848 105.752L144.164 105.936C145.694 106.871 147.021 108.104 148.067 109.563C149.112 111.021 149.855 112.675 150.25 114.426L150.387 114.298C151.451 113.27 152.741 112.508 154.154 112.073C154.302 112.028 154.445 111.987 154.592 111.951C155.35 111.753 156.129 111.654 156.912 111.655C158.363 111.655 159.795 111.991 161.095 112.637C162.395 113.283 163.528 114.222 164.404 115.38C164.636 115.683 164.849 116 165.042 116.329C165.149 116.227 165.266 116.13 165.383 116.038C165.769 115.726 166.178 115.445 166.606 115.196C167.029 114.949 167.47 114.738 167.927 114.563C169.714 113.874 171.666 113.733 173.533 114.16C173.496 114 173.466 113.83 173.442 113.65C173.36 113.144 173.319 112.632 173.319 112.119C173.317 111.199 173.453 110.284 173.722 109.405C173.9 108.787 174.145 108.19 174.451 107.624C174.788 107.005 175.195 106.426 175.664 105.9C176.024 105.488 176.422 105.111 176.852 104.772C177.319 104.395 177.82 104.064 178.35 103.782L178.544 103.685C180.19 102.861 182.042 102.538 183.87 102.758C185.697 102.977 187.42 103.729 188.825 104.92C189.718 105.679 190.465 106.596 191.027 107.624C191.643 108.758 192.019 110.007 192.133 111.293C192.133 111.568 192.169 111.844 192.169 112.119C192.168 112.632 192.123 113.144 192.036 113.65C192.949 113.267 193.903 112.995 194.88 112.839C195.539 112.732 196.206 112.679 196.873 112.681C199.44 112.689 201.943 113.486 204.042 114.964C206.142 116.442 207.737 118.531 208.612 120.946C208.704 121.186 208.785 121.456 208.862 121.681C209.063 121.598 209.269 121.526 209.479 121.467C210.21 121.255 210.965 121.138 211.727 121.12C212.552 121.121 213.371 121.258 214.153 121.523C215.134 121.85 216.041 122.37 216.819 123.053C216.996 122.636 217.205 122.234 217.446 121.849C218.404 120.291 219.793 119.046 221.446 118.265C223.098 117.484 224.942 117.2 226.753 117.449C228.563 117.697 230.262 118.468 231.643 119.666C233.024 120.864 234.028 122.438 234.531 124.196L234.511 124.212Z" fill="#B8DFF7"/>
<path d="M232.212 142.579C231.743 144.804 231.206 147.001 230.601 149.171C230.054 151.148 229.453 153.1 228.797 155.029C228.68 155.376 228.562 155.723 228.44 156.049C227.573 158.549 226.617 161.003 225.57 163.412C224.976 164.793 224.35 166.153 223.694 167.493C223.628 167.631 223.562 167.769 223.491 167.907C223.215 168.488 222.925 169.07 222.629 169.646V170.769L222.119 170.616C222.007 170.835 221.89 171.044 221.778 171.259C221.666 171.473 221.564 171.662 221.462 171.861C221.064 172.606 220.651 173.34 220.239 174.075C219.673 175.06 219.102 176.034 218.516 177.004C217.858 178.08 217.191 179.142 216.502 180.188L215.86 181.152C214.978 182.458 214.076 183.749 213.138 185.014C212.629 185.729 212.073 186.438 211.533 187.142L210.885 187.968C210.462 188.479 210.034 189.035 209.601 189.565C209.453 189.744 209.31 189.923 209.157 190.076L209.071 190.183C209.01 190.264 208.938 190.341 208.872 190.423L208.199 191.218C207.934 191.53 207.689 191.841 207.399 192.147C207.042 192.565 206.675 192.974 206.303 193.387C206.135 193.581 205.956 193.775 205.793 193.969C200.702 199.544 195.057 204.587 188.947 209.02C186.443 210.83 183.864 212.539 181.21 214.148C169.724 221.089 157.064 225.862 143.858 228.23L106.297 228.505C93.0967 226.347 80.4029 221.789 68.8427 215.056C65.7572 213.26 62.7669 211.321 59.8717 209.239L45.8291 197.229C43.9125 195.297 42.0707 193.292 40.3037 191.213C37.7945 188.278 35.4415 185.212 33.2544 182.029C31.8747 180.019 30.558 177.963 29.3041 175.861C29.0186 175.351 28.7332 174.891 28.4477 174.397L28.3764 174.269C27.7137 173.106 27.0664 171.932 26.4445 170.738C26.3069 170.483 26.1744 170.228 26.047 169.968C25.6086 169.126 25.1805 168.274 24.7727 167.417C24.3649 166.56 23.9469 165.677 23.5494 164.804C22.846 163.226 22.1748 161.634 21.536 160.029C21.0874 158.891 20.6593 157.748 20.2464 156.59C20.1597 156.36 20.0833 156.126 20.0068 155.896L20.1241 155.85C21.1696 155.462 22.2761 155.263 23.3914 155.263H23.585C23.7125 155.263 23.8399 155.263 23.9673 155.263C25.4385 155.375 26.8628 155.831 28.1248 156.596C29.3867 157.361 30.4508 158.413 31.2308 159.667C31.2818 159.738 31.3276 159.809 31.3684 159.876C31.6074 160.263 31.817 160.667 31.9954 161.085C32.7707 160.399 33.6778 159.878 34.6612 159.554C35.4406 159.288 36.2586 159.152 37.0823 159.151C37.4439 159.155 37.8049 159.182 38.1629 159.233C38.7776 159.32 39.3798 159.479 39.9571 159.707C40.462 158.023 41.3148 156.463 42.4603 155.13C43.6057 153.796 45.0183 152.718 46.6065 151.966C48.1947 151.213 49.923 150.804 51.6796 150.762C53.4362 150.721 55.1817 151.05 56.8032 151.728C56.7181 151.222 56.6755 150.71 56.6758 150.197C56.6721 148.589 57.0799 147.007 57.8603 145.602C58.6407 144.197 59.7677 143.015 61.1338 142.169C62.4999 141.323 64.0597 140.842 65.6643 140.771C67.269 140.7 68.8651 141.041 70.3005 141.763C72.0291 142.629 73.452 144.004 74.3782 145.702C75.1283 147.081 75.5192 148.627 75.5149 150.197C75.5153 150.71 75.4744 151.222 75.3926 151.728C75.3926 151.896 75.3365 152.059 75.2957 152.238C76.7804 151.893 78.3263 151.909 79.8032 152.287C81.2801 152.664 82.6448 153.391 83.7825 154.406C84.6137 152.981 85.8047 151.799 87.2361 150.98C88.6675 150.16 90.289 149.732 91.938 149.738C92.8725 149.739 93.8017 149.878 94.6955 150.151C96.1093 150.584 97.4002 151.346 98.4623 152.376L98.6 152.498C99.3163 149.29 101.19 146.46 103.862 144.549C106.534 142.638 109.816 141.782 113.08 142.143C116.343 142.505 119.359 144.059 121.549 146.508C123.739 148.958 124.949 152.13 124.947 155.416C124.947 155.626 124.947 155.825 124.922 156.029C124.922 156.105 124.922 156.182 124.922 156.263C125.32 156.379 125.707 156.529 126.079 156.712C126.232 156.789 126.385 156.855 126.537 156.937C126.758 156.194 127.071 155.483 127.47 154.82C128.445 153.179 129.891 151.87 131.619 151.064C131.772 150.993 131.93 150.921 132.099 150.86C132.432 150.727 132.772 150.613 133.118 150.518L133.694 150.386C134.315 150.261 134.947 150.197 135.58 150.197C137.7 150.198 139.758 150.913 141.422 152.228C143.086 153.542 144.26 155.379 144.755 157.442C145.025 157.263 145.3 157.095 145.58 156.932L146.029 156.687C146.355 156.524 146.687 156.365 147.048 156.228C147.252 156.136 147.461 156.059 147.665 155.988C150.32 155.032 153.205 154.918 155.928 155.661C156.188 155.733 156.437 155.804 156.697 155.891C156.707 155.435 156.748 154.979 156.82 154.529C157.058 152.954 157.691 151.465 158.66 150.202C159.276 149.391 160.021 148.687 160.867 148.12L161.213 147.901C162.691 147.001 164.387 146.526 166.117 146.528C166.666 146.527 167.213 146.574 167.753 146.671L168.12 146.743C168.567 144.986 169.622 143.444 171.099 142.394C172.575 141.343 174.376 140.851 176.181 141.005C177.985 141.16 179.677 141.95 180.954 143.237C182.23 144.523 183.009 146.221 183.152 148.029C183.794 147.86 184.455 147.774 185.119 147.773C187.087 147.771 188.979 148.534 190.395 149.901C190.61 150.106 190.812 150.324 191.001 150.554C191.307 150.928 191.578 151.33 191.812 151.753C191.903 151.927 191.99 152.1 192.072 152.263C192.516 153.246 192.743 154.313 192.739 155.391C192.741 155.985 192.674 156.577 192.541 157.156C192.46 157.483 192.359 157.805 192.24 158.121C192.783 158.276 193.311 158.478 193.82 158.723C194.236 158.922 194.636 159.153 195.018 159.411C195.944 160.022 196.761 160.784 197.434 161.667C198.092 162.52 198.609 163.475 198.963 164.493C199.956 163.798 201.037 163.24 202.179 162.835C202.388 162.759 202.602 162.687 202.817 162.626C204.114 162.231 205.462 162.032 206.818 162.034H206.955C207.702 162.04 208.447 162.108 209.183 162.238C209.326 162.238 209.463 162.284 209.601 162.315C209.62 161.592 209.74 160.876 209.958 160.187C210.262 159.207 210.766 158.3 211.436 157.524C211.482 157.473 211.522 157.422 211.573 157.371C211.733 157.19 211.903 157.02 212.083 156.86C212.545 156.43 213.058 156.06 213.612 155.758C214.467 155.3 215.401 155.01 216.365 154.901C216.647 154.87 216.932 154.855 217.216 154.855C217.435 154.855 217.654 154.855 217.868 154.886C218.083 154.916 218.404 154.942 218.664 154.993C218.752 153.667 219.044 152.362 219.53 151.126C220.153 149.506 221.088 148.026 222.283 146.768C222.882 146.138 223.539 145.566 224.245 145.059C226.497 143.452 229.196 142.59 231.962 142.595H232.197L232.212 142.579Z" fill="#EBF4F9"/>
<mask id="mask0_311_13372" style="mask-type:luminance" maskUnits="userSpaceOnUse" x="0" y="0" width="121" height="196">
<path d="M120.156 0H0V195.678H120.156V0Z" fill="white"/>
</mask>
<g mask="url(#mask0_311_13372)">
<path d="M59.8004 217.953C59.8004 217.953 107.899 157.086 58.2461 56.2039C58.0158 55.7354 57.933 55.2081 58.0087 54.6915C58.0844 54.175 58.315 53.6936 58.67 53.3111C58.9271 53.0346 59.242 52.8183 59.5922 52.6778C59.9425 52.5372 60.3195 52.4759 60.6962 52.4981C61.0729 52.5203 61.44 52.6256 61.7714 52.8064C62.1027 52.9871 62.3901 53.2389 62.6129 53.5438C70.9773 65.051 103.637 117.386 86.9722 213.842L59.8004 217.953Z" fill="#C2794E"/>
<path d="M76.6432 179.416C76.6432 179.416 79.214 182.154 87.1864 180.99C83.6198 183.178 79.5178 184.334 75.335 184.33L76.6432 179.416Z" fill="#A3562F"/>
<path d="M91.4114 172.951C91.4114 172.951 87.2042 175.529 82.2949 173.863C82.2949 173.863 84.5741 177.942 91.2792 176.053L91.4114 172.951Z" fill="#A3562F"/>
<path d="M79.4737 164.053C79.4737 164.053 82.5004 166.207 88.2757 165.878C88.2757 165.878 84.0001 168.187 79.0498 167.092L79.4737 164.053Z" fill="#A3562F"/>
<path d="M91.5298 153.728C91.5298 153.728 86.9716 156.502 84.4463 156.055C84.4463 156.055 89.4148 157.743 91.5936 156.488L91.5298 153.728Z" fill="#A3562F"/>
<path d="M80.7458 144.192C80.7458 144.192 84.479 146.017 87.7381 144.466C87.7381 144.466 86.3205 147.349 80.7275 147.089L80.7458 144.192Z" fill="#A3562F"/>
<path d="M90.0259 132.83C88.1472 134.563 85.7364 135.605 83.1885 135.787C83.1885 135.787 85.9234 137.22 90.2857 135.176L90.0259 132.83Z" fill="#A3562F"/>
<path d="M79.793 127.136C79.793 127.136 83.3666 127.246 86.1745 125.48C86.1745 125.48 85.5546 127.706 79.9024 129.171L79.793 127.136Z" fill="#A3562F"/>
<path d="M87.7603 117.691C86.1523 118.828 84.2892 119.55 82.3359 119.795C82.3359 119.795 85.2988 121.164 88.093 119.516L87.7603 117.691Z" fill="#A3562F"/>
<path d="M76.7891 108.402C76.7891 108.402 81.5752 108.497 83.1387 106.157C83.1387 106.157 83.7176 109.734 77.3634 110.633L76.7891 108.402Z" fill="#A3562F"/>
<path d="M82.2272 95.0327C82.2272 95.0327 81.4842 97.3141 77.833 99.0114C77.833 99.0114 81.5753 99.5316 82.9155 97.6928L82.2272 95.0327Z" fill="#A3562F"/>
<path d="M71.9893 90.2282C71.9893 90.2282 73.9174 89.74 77.1219 85.7795C77.1219 85.7795 75.1345 91.9347 72.787 92.829L71.9893 90.2282Z" fill="#A3562F"/>
<path d="M74.7468 75.089C74.7468 75.089 72.65 78.4289 70.0381 79.1042C72.065 79.0204 74.0154 78.3059 75.6174 77.0601L74.7468 75.089Z" fill="#A3562F"/>
<path d="M64.459 69.7916C64.459 69.7916 68.0053 68.6875 68.7939 65.6852C68.7939 65.6852 70.1841 67.5833 65.5438 72.3833L64.459 69.7916Z" fill="#A3562F"/>
<path d="M65.2792 57.4448C65.2792 57.4448 65.1015 61.095 62.4668 62.0669C62.4668 62.0669 65.8262 62.3771 66.6558 59.6349L65.2792 57.4448Z" fill="#A3562F"/>
<path d="M60.3657 53.4023C51.4816 54.6799 42.1326 58.4989 35.7192 65.6031C32.9842 65.0875 29.2556 65.0555 25.846 65.051C24.989 65.051 24.1549 65.051 23.3617 65.051C24.0683 65.3019 24.7566 65.5529 25.413 65.8129C27.9084 66.7917 30.3438 67.9177 32.7062 69.1848C31.4846 70.7498 30.3587 72.324 29.3376 73.8388C27.5143 73.7339 24.9252 73.6791 22.6142 73.7932C20.4764 73.8981 18.5665 74.1582 17.6685 74.6783C19.2426 74.9222 20.7944 75.293 22.3088 75.7871C24.2916 76.4031 26.0511 77.1012 27.0084 77.4981C25.3334 80.2279 23.8204 83.0541 22.4774 85.962L13.7848 87.9514C9.18101 36.3833 59.5133 53.1148 60.3566 53.3977L60.3657 53.4023Z" fill="#8B8326"/>
<path d="M27.0167 77.4981C25.3417 80.228 23.8288 83.0541 22.4858 85.962C21.9401 82.5962 21.8833 79.1692 22.3171 75.7871C24.3 76.4031 26.0458 77.1012 27.0167 77.4981Z" fill="#797222"/>
<path d="M32.715 69.1849C31.4934 70.7499 30.3675 72.3241 29.3465 73.8389C27.5232 73.734 24.9341 73.6792 22.623 73.7933C23.1298 71.0092 24.0712 68.3223 25.4127 65.8313C27.9108 66.8038 30.3492 67.9237 32.715 69.1849Z" fill="#797222"/>
<path d="M60.3654 53.4022C51.4813 54.6798 42.1324 58.4988 35.7189 65.603C32.9839 65.0874 29.2553 65.0555 25.8457 65.0509C30.404 57.422 40.0994 51.1437 60.3563 53.3977L60.3654 53.4022Z" fill="#797222"/>
<path d="M83.9676 0.707275L84.0451 9.64568C81.5251 11.6311 79.1248 13.7641 76.8567 16.0335C75.2792 13.8701 73.8812 11.5811 72.6768 9.18941C72.4124 8.65101 72.1708 8.10804 71.9657 7.57876C71.7921 8.38383 71.7612 9.21319 71.8745 10.029C72.1207 12.7666 73.1098 16.6586 73.8437 19.1544C72.6039 20.4959 71.3367 21.956 70.1059 23.5073C68.6008 21.8086 67.1829 20.0345 65.8577 18.1917C65.2241 17.3156 64.5722 16.3666 63.9204 15.3491C64.2531 16.7179 64.6041 18.251 64.9825 19.775C65.5497 22.3312 66.3289 24.8357 67.3117 27.2624C61.8874 35.1331 60.3376 45.1347 61.1399 54.0822C61.1444 54.0548 32.3454 8.20842 83.9676 0.707275Z" fill="#8B8326"/>
<path d="M67.3117 27.235C61.8874 35.1057 60.3376 45.1073 61.1398 54.0548C58.1222 39.2442 60.6612 28.0061 64.9824 19.7476C65.5497 22.3038 66.3288 24.8083 67.3117 27.235Z" fill="#797222"/>
<path d="M73.8445 19.127C72.6046 20.4685 71.3374 21.9285 70.1067 23.4799C68.6015 21.7812 67.1836 20.007 65.8584 18.1643C67.5542 15.2332 69.5724 12.5014 71.8753 10.0198C72.1214 12.7574 73.1106 16.6494 73.8445 19.127Z" fill="#797222"/>
<path d="M83.9676 0.707275L84.045 9.64568C81.5251 11.6311 79.1247 13.7641 76.8567 16.0335C75.2791 13.8701 73.8812 11.5811 72.6768 9.18941C78.4657 3.26241 83.9676 0.707275 83.9676 0.707275Z" fill="#797222"/>
<path d="M26.4199 41.5529L24.8975 40.3529C25.2014 40.8092 25.4794 41.2655 25.7316 41.7218C27.2248 44.1937 28.5556 46.7604 29.7156 49.4054C27.792 49.8617 25.9368 50.4229 24.2001 50.9841C22.1574 49.1697 19.9966 47.493 17.7319 45.9651C16.4465 45.1347 15.2887 44.5324 14.5001 44.4229C15.2805 45.2469 16.0053 46.1218 16.6698 47.0419C17.9265 48.7596 19.0788 50.5514 20.1204 52.4077C17.1205 53.5253 14.1877 54.8157 11.3367 56.2723L3.25488 52.467C31.6619 8.6647 61.2131 54.0366 61.2131 54.0366C53.423 49.556 43.7048 46.7864 34.2875 48.429C32.3639 46.2115 29.2369 43.7476 26.4199 41.5529Z" fill="#ADA933"/>
<path d="M16.6701 47.0419C17.9268 48.7595 19.0791 50.5514 20.1207 52.4077C17.1208 53.5253 14.188 54.8157 11.3369 56.2723C12.7636 52.3301 14.5824 49.305 16.6701 47.0419Z" fill="#9A982F"/>
<path d="M25.7322 41.708C27.2258 44.1844 28.5566 46.7556 29.7161 49.4054C27.7925 49.8616 25.9373 50.4228 24.2006 50.9841C22.1579 49.1696 19.9971 47.4929 17.7324 45.965C19.9761 43.8631 22.7365 42.3941 25.7322 41.708Z" fill="#9A982F"/>
<path d="M61.2131 54.0365C53.423 49.5559 43.7048 46.7863 34.2875 48.4289C32.3639 46.2114 29.2369 43.7476 26.4199 41.5529C41.8314 38.5141 61.2131 54.0365 61.2131 54.0365Z" fill="#9A982F"/>
<path d="M111.336 25.8343L105.893 32.9156C102.694 32.9208 99.4977 33.1128 96.3208 33.4905C96.3892 31.6654 96.6581 27.235 97.6883 23.8221C95.9288 25.0677 93.3488 30.7757 92.0452 34.0791C90.2218 34.3712 88.3439 34.7362 86.4157 35.1924C86.2106 31.7804 86.2639 28.3577 86.5752 24.9537C84.9434 28.5582 82.7463 33.0434 81.9076 36.4244C72.7911 39.267 65.3976 46.1795 60.5157 53.7217C60.4929 53.7217 66.0904 -0.141417 111.336 25.8343Z" fill="#CCE54C"/>
<path d="M111.336 25.8387L105.893 32.9155C102.694 32.9205 99.4976 33.1124 96.3207 33.4904C96.406 30.9572 96.6849 28.4343 97.1549 25.9437C97.3008 25.2136 97.474 24.4973 97.6745 23.822C96.9137 24.4752 96.2747 25.2585 95.7874 26.1353C94.3269 28.6802 93.0622 31.3327 92.0041 34.0699C90.1808 34.3619 88.3073 34.7269 86.3746 35.1832C86.3062 34.111 86.1832 31.6881 86.2971 28.6265C86.3382 27.4767 86.4111 26.2357 86.5342 24.9444C85.9188 26.3132 85.2168 27.8098 84.5422 29.3201C83.4544 31.6064 82.5594 33.9796 81.8665 36.4151C72.75 39.2623 65.3565 46.1703 60.4746 53.7125C60.4746 53.7125 66.0721 -0.127844 111.313 25.825L111.336 25.8387Z" fill="#ADA933"/>
<path d="M84.5608 29.3292C83.473 31.6155 82.578 33.9888 81.8851 36.4243C72.7685 39.2714 65.3751 46.1794 60.4932 53.7216C66.3824 40.2524 75.5901 33.0844 84.5608 29.3292Z" fill="#9A982F"/>
<path d="M95.7877 26.1353C94.3273 28.6802 93.0625 31.3327 92.0044 34.0699C90.1811 34.3619 88.3076 34.7269 86.3749 35.1832C86.3066 34.1109 86.1835 31.6881 86.2974 28.6265C89.3731 27.4915 92.5514 26.6572 95.7877 26.1353Z" fill="#9A982F"/>
<path d="M111.336 25.8389L105.894 32.9157C102.694 32.9206 99.4982 33.1126 96.3213 33.4906C96.4066 30.9574 96.6855 28.4344 97.1555 25.9438C101.858 25.258 106.633 25.2211 111.345 25.8343L111.336 25.8389Z" fill="#9A982F"/>
<path d="M64.2808 62.8199C64.7489 66.043 64.4951 69.3299 63.5378 72.4427C63.1093 71.2062 60.8028 70.8001 59.6952 69.7963C60.9447 71.6567 61.7924 73.7579 62.184 75.9651C60.7662 78.9127 58.9401 81.6453 56.7597 84.0823C56.3038 82.1294 54.1341 81.1347 53.3318 79.9758C54.1223 82.0463 54.5315 84.2429 54.5398 86.4594C51.178 89.7641 47.4154 92.6336 43.3402 95.0009C41.7345 91.5979 40.5748 88.0016 39.8896 84.3013C40.9607 83.1286 43.3447 80.5507 45.1179 78.9127C43.198 79.4244 41.3118 80.0553 39.4702 80.8016C39.1811 77.021 39.7337 73.2232 41.0884 69.6822C43.0826 68.5614 45.3089 67.918 47.593 67.8024C47.593 67.8024 44.8033 67.3461 42.2371 67.1408C47.903 56.3225 60.1145 52.2754 60.1145 52.2754C62.2444 55.4496 63.6654 59.0461 64.2808 62.8199Z" fill="#ADA933"/>
<path d="M64.2809 62.8198C64.749 66.0429 64.4952 69.3299 63.5379 72.4426C63.1094 71.2061 60.8029 70.8001 59.6953 69.7963C60.9448 71.6567 61.7925 73.7578 62.1841 75.9651C60.7663 78.9126 58.9402 81.6453 56.7598 84.0822C56.3039 82.1293 54.1342 81.1347 53.3319 79.9757C54.1224 82.0462 54.5316 84.2429 54.5399 86.4594C51.1781 89.764 47.4155 92.6335 43.3402 95.0008C41.7346 91.5979 40.5749 88.0016 39.8896 84.3012C51.9052 82.6312 64.2718 62.8563 64.2718 62.8563L64.2809 62.8198Z" fill="#9A982F"/>
<path d="M60.1148 52.2754C56.4135 56.6647 50.4058 69.4769 43.5273 93.34C43.5273 93.3172 52.5071 68.9705 60.1148 52.2754Z" fill="#9A982F"/>
<path d="M106.171 67.9347C101.86 69.5189 97.3498 70.497 92.7699 70.8412C90.8434 69.3346 89.1599 67.5402 87.7786 65.5211C88.3712 66.9446 88.0886 69.2762 89.5381 70.9963C86.1846 71.0316 82.8422 70.6032 79.6057 69.7233C77.9041 67.9494 76.536 65.8829 75.5671 63.623C75.8497 65.1424 74.9699 67.223 75.8178 68.3956C69.7416 65.7811 64.0256 60.8488 60.1055 52.0929C60.1055 52.0929 70.1336 45.3674 82.564 48.2876C81.4016 50.3454 80.3487 52.7317 80.2849 52.8777C81.6153 51.1829 83.3795 49.8805 85.3901 49.1089C88.5509 50.2335 91.5094 51.8621 94.1511 53.9317C94.73 54.388 95.3134 54.8442 95.8923 55.3507C94.2643 56.2694 92.7057 57.3064 91.2292 58.4534C93.6086 58.1933 97.1185 58.0838 98.7093 58.0473C101.547 61.0629 104.049 64.3782 106.171 67.9347Z" fill="#8B8326"/>
<path d="M106.171 67.9346C101.86 69.5188 97.3498 70.4969 92.7699 70.8411C90.8434 69.3345 89.1599 67.5401 87.7786 65.5209C88.3712 66.9445 88.0886 69.2761 89.5381 70.9962C86.1846 71.0315 82.8422 70.6031 79.6057 69.7232C77.9041 67.9493 76.536 65.8828 75.5671 63.6228C75.8497 65.1422 74.9699 67.2228 75.8178 68.3954C69.7416 65.781 64.0256 60.8487 60.1055 52.0928C78.8399 67.1498 90.076 58.5262 94.1511 53.9179C94.73 54.3741 95.3134 54.8304 95.8923 55.3369C94.2643 56.2556 92.7057 57.2926 91.2292 58.4395C93.6086 58.1795 97.1185 58.07 98.7093 58.0335C101.548 61.0534 104.05 64.3733 106.171 67.9346Z" fill="#797222"/>
<path d="M60.1055 52.0746C65.899 52.175 80.2438 56.1811 104.64 66.9674C104.64 66.9674 78.6804 57.4677 60.1055 52.0746Z" fill="#797222"/>
</g>
<path d="M222.129 170.652C222.017 170.871 221.9 171.08 221.788 171.294C221.675 171.509 221.574 171.698 221.472 171.896C221.074 172.641 220.661 173.376 220.248 174.111C219.682 175.096 219.112 176.07 218.525 177.039C217.868 178.116 217.2 179.177 216.512 180.223L215.87 181.188C214.988 182.494 214.086 183.785 213.148 185.05C212.638 185.764 212.083 186.473 211.542 187.178L210.895 188.004C210.472 188.514 210.044 189.07 209.61 189.601C209.463 189.78 209.32 189.958 209.167 190.111L209.08 190.218C209.019 190.3 208.948 190.377 208.882 190.458L208.209 191.254C207.944 191.565 207.699 191.877 207.409 192.183C207.052 192.601 206.685 193.009 206.313 193.423C206.144 193.616 205.966 193.81 205.803 194.004C200.711 199.58 195.067 204.623 188.957 209.056C186.452 210.865 183.873 212.574 181.219 214.183C169.734 221.125 157.074 225.898 143.867 228.265C131.453 230.482 118.752 230.575 106.306 228.541C93.1064 226.383 80.4125 221.825 68.8524 215.092C65.7669 213.296 62.7766 211.357 59.8814 209.275L45.8387 197.265C43.9222 195.332 42.0804 193.327 40.3134 191.249C37.8042 188.314 35.4512 185.248 33.264 182.065C31.8844 180.055 30.5676 177.999 29.3137 175.897C29.0283 175.386 28.7428 174.927 28.4574 174.432L28.386 174.305C27.7234 173.141 27.0761 171.968 26.4542 170.774C26.3166 170.519 26.1841 170.264 26.0566 170.004L27.0149 169.718C27.8406 169.473 28.6715 169.238 29.5125 169.004L29.6858 168.953C30.5269 168.718 31.3679 168.488 32.2344 168.264C32.3924 168.218 32.5402 168.177 32.6982 168.141L35.3743 167.447C36.3121 167.213 37.2551 166.978 38.2134 166.754C39.8784 166.359 41.5775 165.975 43.3105 165.6C65.9827 160.677 93.5227 157.794 123.219 157.794C126.056 157.794 128.875 157.821 131.675 157.876H132.154H133.173C133.367 157.876 133.561 157.876 133.749 157.876C134.538 157.876 135.323 157.896 136.104 157.937C136.655 157.937 137.2 157.968 137.746 157.983C139.158 158.029 140.554 158.075 141.946 158.141L143.592 158.207L145.631 158.309C145.779 158.309 145.932 158.309 146.079 158.309L147.099 158.36L147.716 158.396C150.923 158.57 154.089 158.779 157.212 159.024L159.363 159.197C163.471 159.537 167.499 159.934 171.448 160.386C173.456 160.61 175.437 160.854 177.391 161.116C177.605 161.116 177.82 161.167 178.023 161.197C179.44 161.381 180.847 161.58 182.239 161.784L182.866 161.871C184.079 162.054 185.287 162.233 186.48 162.422L187.203 162.728C188.569 162.947 189.92 163.177 191.281 163.406L191.913 163.519C195.41 164.131 198.808 164.791 202.107 165.498L202.734 165.636C204.151 165.939 205.548 166.25 206.924 166.57C208.301 166.89 209.65 167.218 210.971 167.555L211.236 167.621L211.863 167.779C212.455 167.927 213.046 168.08 213.622 168.238C214.448 168.453 215.263 168.677 216.069 168.896L216.696 169.075C217.358 169.254 218.011 169.442 218.663 169.631C219.428 169.856 220.192 170.075 220.931 170.305L221.354 170.437L221.777 170.57C221.89 170.575 222.007 170.616 222.129 170.652Z" fill="#F4D770"/>
<path d="M206.267 193.494C206.099 193.688 205.92 193.882 205.757 194.076C200.665 199.651 195.021 204.694 188.911 209.127C182.582 211.434 176.063 213.181 169.43 214.347C155.158 216.989 136.125 218.428 111.353 217.25C101.23 216.775 92.6205 216 85.3009 215.03C73.9598 213.5 65.7431 211.515 59.8151 209.346L45.7725 197.336C45.7743 196.956 45.8204 196.577 45.9101 196.208C46.429 194.299 47.5172 192.594 49.0295 191.32C52.6995 188.019 59.1372 185.708 67.1347 184.137C68.8983 183.784 70.7384 183.473 72.6447 183.188C75.8865 182.677 79.3169 182.305 82.839 181.983C84.8575 181.8 86.9099 181.64 88.9964 181.504C90.0158 181.432 91.0488 181.369 92.0955 181.315C102.025 180.759 112.418 180.631 122.051 180.631H128.392H133.923H138.607C140.136 180.631 141.665 180.631 143.194 180.657H145.101C146.99 180.677 148.883 180.704 150.779 180.738C151.37 180.738 151.962 180.738 152.548 180.779H152.68H153.491L155.657 180.835H155.769C160.948 180.994 166.065 181.239 170.954 181.626C172.992 181.79 174.97 181.973 176.902 182.188L177.529 182.259C178.966 182.422 180.371 182.604 181.744 182.805L182.376 182.897C185.409 183.351 188.269 183.917 190.884 184.545L191.51 184.708C192.673 185.004 193.784 185.33 194.839 185.672C196.291 186.139 197.713 186.696 199.095 187.341C199.983 187.752 200.845 188.218 201.674 188.739C201.888 188.876 202.092 189.014 202.296 189.157C203.202 189.766 204.032 190.482 204.768 191.29C205.37 191.949 205.875 192.691 206.267 193.494Z" fill="#EDC060"/>
<path d="M37.9891 148.508C34.7983 151.09 32.6422 154.789 31.2303 159.666C30.7071 161.484 30.2935 163.33 29.9917 165.197C29.9135 165.643 29.8422 166.097 29.7776 166.559C29.7266 166.881 29.6807 167.207 29.6451 167.539C29.5737 168.049 29.5125 168.56 29.4514 169.07C29.4514 169.294 29.4004 169.524 29.38 169.753C29.2165 171.33 28.8622 172.88 28.3249 174.371C27.6623 173.208 27.0149 172.034 26.3931 170.84C26.2555 170.585 26.1229 170.33 25.9955 170.07C25.5571 169.228 25.129 168.376 24.7212 167.519C24.3134 166.662 23.8955 165.779 23.4979 164.906C22.7945 163.328 22.1234 161.736 21.4845 160.131C21.036 158.993 20.6078 157.85 20.1949 156.692C20.1083 156.462 20.0318 156.228 19.9554 155.998C19.6342 155.105 19.3335 154.202 19.043 153.299C26.5868 137.727 42.7805 144.656 37.9891 148.508Z" fill="#A7A332"/>
<path d="M21.4795 160.141C21.9514 158.791 22.5081 157.472 23.1463 156.192C27.224 147.988 32.7544 145.988 32.7544 145.988" stroke="#8A8226" stroke-width="1.1" stroke-miterlimit="10"/>
<path d="M33.6161 152.069C33.6161 152.069 28.2997 150.682 23.1465 156.192" stroke="#8A8226" stroke-width="1.1" stroke-miterlimit="10"/>
<path d="M19.7725 153.641C19.8591 154.437 19.9611 155.223 20.0681 155.952C20.1089 156.207 20.1497 156.462 20.1904 156.692" stroke="#8A8226" stroke-width="1.1" stroke-miterlimit="10"/>
<path d="M23.4932 164.917C25.225 163.553 27.198 162.528 29.309 161.896" stroke="#8A8226" stroke-width="1.1" stroke-miterlimit="10"/>
<path d="M43.7647 165.381C43.5812 165.473 43.3977 165.575 43.2244 165.682C42.3354 166.196 41.5121 166.816 40.7726 167.529C38.0457 170.141 36.0425 174.162 34.34 179.499C34.0477 180.416 33.667 181.303 33.2034 182.147C31.8237 180.137 30.507 178.08 29.2531 175.978C28.9676 175.468 28.6822 175.009 28.3967 174.514L28.3254 174.386C27.6627 173.223 27.0154 172.05 26.3936 170.856C26.572 170.509 26.7605 170.157 26.9542 169.8C27.1479 169.442 27.4079 168.973 27.6475 168.549C27.887 168.126 28.0552 167.85 28.2591 167.529C28.7773 166.703 29.3566 165.917 29.9921 165.177C37.7093 156.274 47.6997 163.361 43.7647 165.381Z" fill="#8B8326"/>
<path d="M40.3495 162.764C40.3495 162.764 36.2718 163.361 32.1533 168.345L31.8526 168.723C31.0318 169.768 30.2939 170.875 29.6455 172.034C29.2139 172.796 28.796 173.623 28.3916 174.514" stroke="#A7A332" stroke-width="1.1" stroke-miterlimit="10"/>
<path d="M40.0641 167.32C40.0641 167.32 36.4145 165.519 31.8525 168.743" stroke="#A7A332" stroke-width="1.1" stroke-miterlimit="10"/>
<path d="M29.6507 172.034C29.5613 170.144 29.6073 168.249 29.7883 166.366" stroke="#A7A332" stroke-width="1.1" stroke-miterlimit="10"/>
<path d="M29.248 175.993C31.1089 174.761 33.2449 174.007 35.4666 173.8" stroke="#A7A332" stroke-width="1.1" stroke-miterlimit="10"/>
<path d="M230.601 149.171C230.054 151.148 229.452 153.1 228.796 155.029C228.679 155.376 228.562 155.723 228.44 156.049C227.573 158.549 226.616 161.003 225.57 163.412C224.975 164.793 224.35 166.153 223.694 167.493C223.628 167.631 223.562 167.769 223.49 167.907C223.215 168.488 222.924 169.07 222.629 169.646V170.769L222.119 170.616C222.007 170.835 221.89 171.044 221.778 171.259C221.778 171.009 221.778 170.748 221.778 170.509C221.778 169.998 221.778 169.529 221.844 169.019C221.91 168.509 221.92 167.998 221.951 167.488C221.981 166.978 222.007 166.468 222.027 166.003C222.048 165.539 222.058 165.172 222.068 164.764C222.175 159.151 221.441 154.626 219.52 151.059C218.996 150.086 218.369 149.172 217.649 148.335C215.61 145.947 219.581 143.799 224.234 144.993C226.744 145.678 228.973 147.141 230.601 149.171Z" fill="#A7A332"/>
<path d="M222.797 146.977C222.797 146.977 226.365 149.079 228.796 155.029" stroke="#8A8226" stroke-width="1.1" stroke-miterlimit="10"/>
<path d="M220.987 152.33C220.987 152.33 224.943 152.049 228.439 156.064" stroke="#8A8226" stroke-width="1.1" stroke-miterlimit="10"/>
<path d="M225.57 163.427C224.833 162.861 224.047 162.364 223.22 161.942" stroke="#8A8226" stroke-width="1.1" stroke-miterlimit="10"/>
<path d="M223.491 167.942C223.215 168.524 222.925 169.106 222.629 169.682V170.805L222.119 170.652C222.007 170.871 221.89 171.08 221.778 171.294C221.666 171.509 221.564 171.697 221.462 171.896C221.064 172.641 220.651 173.376 220.239 174.111C219.673 175.096 219.102 176.07 218.516 177.039C217.858 178.116 217.191 179.177 216.502 180.223C216.094 179.19 215.821 178.108 215.692 177.004C215.395 173.992 214.692 171.035 213.602 168.213C213.51 167.978 213.408 167.748 213.301 167.529C212.47 165.618 211.184 163.939 209.555 162.641C209.392 162.523 209.252 162.376 209.142 162.207C208.683 161.519 209.045 160.748 209.917 160.167C212.256 158.59 218.281 158.365 222.048 164.815C222.551 165.685 222.981 166.597 223.333 167.539C223.394 167.667 223.45 167.799 223.491 167.942Z" fill="#8B8326"/>
<path d="M221.472 171.912C221.381 171.621 221.294 171.34 221.202 171.07C221.11 170.799 221.019 170.56 220.922 170.294C220.593 169.407 220.208 168.541 219.77 167.702C219.746 167.65 219.719 167.599 219.688 167.549C216.808 162.146 213.098 160.871 213.098 160.871" stroke="#A7A332" stroke-width="1.1" stroke-miterlimit="10"/>
<path d="M212.582 165.009C212.582 165.009 216.186 163.988 219.769 167.682" stroke="#A7A332" stroke-width="1.1" stroke-miterlimit="10"/>
<path d="M221.196 171.055C221.597 169.359 221.876 167.637 222.032 165.901" stroke="#A7A332" stroke-width="1.1" stroke-miterlimit="10"/>
<path d="M215.646 171.646C217.335 172.126 218.9 172.967 220.233 174.111" stroke="#A7A332" stroke-width="1.1" stroke-miterlimit="10"/>
<path d="M166.559 98.9446L152.654 185.067L154.779 185.41L168.684 99.2883L166.559 98.9446Z" fill="#9B643D"/>
<path d="M166.866 100.415L160.698 137.436C160.975 138.66 161.529 139.804 162.319 140.778L168.945 100.767L166.866 100.415Z" fill="#5B4127"/>
<path d="M215.554 125.176C215.554 125.176 186.684 107.318 168.222 98.8384L211.711 129.053C212.549 127.386 213.895 126.029 215.554 125.176Z" fill="#F8E9D4"/>
<path d="M114.921 108.415C116.212 109.761 117.045 111.481 117.301 113.329L168.222 98.8384C148.012 100.869 114.921 108.415 114.921 108.415Z" fill="#DF5D52"/>
<path d="M168.221 98.8384L117.301 113.329C120.182 114.544 122.644 116.579 124.381 119.181L168.216 98.8384H168.221Z" fill="#F8E9D4"/>
<path d="M168.222 98.8384L162.9 130.849C170.595 130.137 178.355 130.858 185.787 132.977L168.222 98.8384Z" fill="#DF5D52"/>
<path d="M168.221 98.8384L124.386 119.181C130.099 120.319 135.573 122.439 140.564 125.446L168.226 98.8384H168.221Z" fill="#DF5D52"/>
<path d="M168.222 98.8384L185.787 132.977C191.481 131.751 197.344 131.518 203.117 132.288L168.217 98.8384H168.222Z" fill="#F8E9D4"/>
<path d="M211.711 129.053L168.222 98.8435L203.122 132.293C205.608 130.398 208.593 129.272 211.711 129.053Z" fill="#DF5D52"/>
<path d="M168.222 98.8384L140.56 125.446C148.276 125.849 155.851 127.681 162.9 130.849L168.222 98.8384Z" fill="#F8E9D4"/>
<path d="M169.873 99.5935C169.311 99.8425 168.688 99.9216 168.081 99.821C167.474 99.7204 166.91 99.4444 166.458 99.0271C166.769 96.9455 170.184 97.5067 169.873 99.5935Z" fill="#C43551"/>
<g style="mix-blend-mode:multiply" opacity="0.17">
<path d="M117.694 113.237C120.575 114.45 123.037 116.483 124.774 119.084C130.487 120.226 135.96 122.347 140.952 125.355C148.67 125.756 156.247 127.586 163.298 130.753C166.615 130.454 169.95 130.415 173.273 130.635C149.439 124.462 130.116 110.9 126.93 105.828C120.003 107.272 115.313 108.344 115.313 108.344C116.603 109.682 117.436 111.395 117.694 113.237Z" fill="#857C71"/>
</g>
<path d="M84.8026 190.324C91.473 187.18 94.3348 179.219 91.1945 172.542C88.0542 165.865 80.101 163.001 73.4305 166.144C66.76 169.287 63.8983 177.249 67.0386 183.926C70.1789 190.603 78.1321 193.467 84.8026 190.324Z" fill="white"/>
<path d="M75.7692 170.299C71.2633 177.131 71.9311 184.698 74.8568 190.907C77.724 191.87 80.8327 191.831 83.675 190.797C86.5173 189.763 88.9252 187.794 90.5051 185.213C85.6373 170.81 75.7692 170.299 75.7692 170.299Z" fill="#DF5D52"/>
<path d="M71.437 167.32C69.8851 168.405 68.5824 169.81 67.6155 171.439C66.6487 173.069 66.04 174.886 65.8301 176.769C68.8408 173.255 72.1489 171.102 75.7543 170.31C74.3219 168.779 72.8744 167.759 71.437 167.32Z" fill="#DF5D52"/>
<path d="M90.0517 170.575C88.6996 168.643 86.8609 167.103 84.7223 166.112C82.5837 165.121 80.2212 164.714 77.8746 164.932C76.7838 166.121 76.0651 167.881 75.6777 170.146C81.5904 167.141 86.081 168.156 90.067 170.6L90.0517 170.575Z" fill="#DF5D52"/>
<g style="mix-blend-mode:multiply" opacity="0.15">
<path d="M76.3965 172.325C75.0967 172.937 73.6441 172.58 73.1496 171.529C72.6552 170.478 73.3076 169.131 74.6074 168.519C75.9072 167.907 77.3599 168.264 77.8543 169.315C78.3487 170.366 77.6912 171.713 76.3965 172.325Z" fill="#DF5D52"/>
</g>
<path d="M76.6618 172.192C75.362 172.805 73.9093 172.448 73.42 171.396C72.9307 170.345 73.578 168.993 74.8778 168.386C76.1776 167.779 77.6303 168.131 78.1247 169.182C78.6191 170.233 77.9616 171.58 76.6618 172.192Z" fill="#BD463E"/>
<g style="mix-blend-mode:multiply" opacity="0.3">
<path d="M80.8516 183.718C87.9876 179.228 83.8487 168.799 82.1411 165.228C84.2497 165.719 86.2072 166.717 87.8448 168.134C89.4825 169.552 90.7512 171.346 91.5416 173.364C92.332 175.381 92.6203 177.561 92.3817 179.715C92.1431 181.869 91.3848 183.932 90.172 185.728C88.9593 187.523 87.3286 188.996 85.4205 190.02C83.5124 191.043 81.3842 191.587 79.2193 191.604C77.0544 191.622 74.9178 191.112 72.9938 190.118C71.0697 189.125 69.4159 187.678 68.1749 185.902C67.9557 185.591 67.757 185.269 67.5684 184.943C71.3912 186.055 76.3966 186.514 80.8516 183.718Z" fill="#A8BBBF"/>
</g>
<path d="M151.941 46.9083C151.385 48.4254 150.39 49.7429 149.085 50.6938C147.779 51.6448 146.221 52.1865 144.608 52.2502C142.994 52.3139 141.398 51.8968 140.022 51.0517C138.646 50.2067 137.551 48.9717 136.877 47.5032C136.202 46.0348 135.978 44.399 136.233 42.8031C136.488 41.2071 137.211 39.7229 138.31 38.5385C139.408 37.3541 140.833 36.5228 142.405 36.1498C143.976 35.7769 145.622 35.8792 147.135 36.4437C149.155 37.1976 150.795 38.7218 151.696 40.6829C152.597 42.6439 152.685 44.8823 151.941 46.9083Z" fill="#F6E27D"/>
<path d="M147.573 34.9845C147.541 34.8279 147.521 34.6694 147.511 34.51C147.501 34.34 147.501 34.1697 147.511 33.9997C147.515 33.778 147.531 33.5566 147.557 33.3365C147.585 33.0841 147.627 32.8336 147.685 32.5864C147.738 32.3095 147.817 32.038 147.919 31.7752C148.031 31.4978 148.163 31.2284 148.312 30.9691C148.46 30.6986 148.607 30.418 148.74 30.1374C149.015 29.5762 149.275 29.0149 149.545 28.4945C149.815 27.9741 150.055 27.4741 150.274 27.071C150.713 26.2393 151.023 25.6934 151.023 25.6934C151.035 25.674 151.054 25.6599 151.076 25.6542C151.098 25.6485 151.121 25.6515 151.141 25.6628C151.157 25.6696 151.17 25.6823 151.178 25.6983C151.185 25.7143 151.187 25.7326 151.181 25.7495C151.181 25.7495 151.064 26.3669 150.855 27.2802C150.748 27.7343 150.626 28.27 150.483 28.8108C150.34 29.3517 150.182 29.9792 150.024 30.5813C149.943 30.8823 149.877 31.1884 149.81 31.4895C149.757 31.7853 149.682 32.0769 149.586 32.3619C149.489 32.626 149.372 32.882 149.234 33.1273C149.116 33.3541 148.985 33.5739 148.842 33.7854C148.72 33.9622 148.589 34.1325 148.449 34.2957C148.322 34.4487 148.2 34.5814 148.098 34.6885C147.985 34.8029 147.866 34.9103 147.741 35.01C147.722 35.0287 147.696 35.0391 147.67 35.0391C147.643 35.0391 147.617 35.0287 147.598 35.01C147.588 35.0031 147.579 34.9945 147.573 34.9845Z" fill="#F6E27D"/>
<path d="M144.3 34.4182C144.241 34.356 144.187 34.2895 144.137 34.2192C144.086 34.148 144.04 34.073 144 33.9948C143.947 33.8986 143.899 33.7998 143.857 33.6988C143.762 33.4616 143.711 33.2093 143.704 32.9539C143.704 32.6784 143.806 32.3876 143.837 32.0916C143.867 31.7957 143.903 31.51 143.949 31.2345C143.995 30.959 144.035 30.7243 144.076 30.4896C144.153 30.0508 144.224 29.7548 144.224 29.7548C144.228 29.7394 144.237 29.726 144.25 29.7175C144.264 29.7089 144.28 29.7059 144.295 29.7089C144.307 29.7112 144.318 29.7167 144.327 29.7248C144.336 29.7329 144.343 29.7433 144.346 29.7548C144.346 29.7548 144.423 30.0457 144.515 30.4794C144.56 30.6987 144.616 30.9539 144.667 31.2243C144.718 31.4947 144.764 31.7855 144.81 32.0763C144.856 32.3672 144.958 32.658 144.973 32.9335C144.972 33.188 144.925 33.4402 144.836 33.6784C144.802 33.7823 144.76 33.8831 144.708 33.9794C144.67 34.0607 144.625 34.1391 144.576 34.2141C144.531 34.2863 144.479 34.3546 144.423 34.4182C144.407 34.4344 144.385 34.4435 144.362 34.4435C144.339 34.4435 144.317 34.4344 144.3 34.4182Z" fill="#F6E27D"/>
<path d="M140.983 35.0099C140.859 34.9081 140.741 34.7991 140.631 34.6834C140.508 34.5568 140.393 34.424 140.284 34.2854C140.162 34.1324 140.029 33.9538 139.897 33.7497C139.755 33.538 139.626 33.3182 139.509 33.0915C139.375 32.8441 139.261 32.5865 139.168 32.3211C139.076 32.0356 139.005 31.7441 138.954 31.4486C138.893 31.1476 138.826 30.8415 138.75 30.5404C138.597 29.9333 138.434 29.3312 138.307 28.7598C138.179 28.1883 138.057 27.6577 137.955 27.1985C137.756 26.2801 137.644 25.6679 137.644 25.6679C137.642 25.6487 137.647 25.6296 137.657 25.6135C137.668 25.5974 137.683 25.5851 137.701 25.5787C137.719 25.5723 137.739 25.5721 137.757 25.578C137.775 25.584 137.791 25.5959 137.802 25.6117C137.802 25.6117 138.108 26.1628 138.536 26.9944C138.745 27.4128 138.995 27.9026 139.249 28.4281C139.504 28.9536 139.759 29.52 140.034 30.0812C140.167 30.367 140.31 30.6425 140.458 30.9129C140.604 31.1763 140.734 31.449 140.845 31.7292C140.943 31.9928 141.018 32.2642 141.069 32.5405C141.122 32.7899 141.161 33.042 141.186 33.2956C141.186 33.5303 141.222 33.7548 141.227 33.9538C141.232 34.1528 141.227 34.3313 141.227 34.464C141.218 34.6251 141.197 34.7853 141.166 34.9436C141.159 34.9693 141.142 34.9914 141.12 35.0056C141.097 35.0198 141.07 35.0249 141.044 35.0201C141.023 35.0232 141.001 35.0196 140.983 35.0099Z" fill="#F6E27D"/>
<path d="M138.112 36.7038C138.027 36.6968 137.944 36.6814 137.862 36.6579C137.776 36.6335 137.691 36.6045 137.607 36.5711C137.505 36.5327 137.407 36.4866 137.312 36.4334C137.086 36.3148 136.882 36.1577 136.71 35.9691C136.537 35.7548 136.425 35.4589 136.262 35.2242C136.099 34.9895 135.941 34.7139 135.798 34.4945C135.655 34.2752 135.528 34.0302 135.416 33.8364C135.196 33.4486 135.059 33.1833 135.059 33.1833C135.051 33.1683 135.05 33.151 135.054 33.1349C135.059 33.1188 135.07 33.1051 135.084 33.0965C135.095 33.0916 135.106 33.089 135.117 33.089C135.129 33.089 135.14 33.0916 135.151 33.0965C135.151 33.0965 135.395 33.27 135.747 33.5455L136.343 34.0149C136.557 34.1884 136.777 34.3874 137.001 34.5813C137.225 34.7752 137.485 34.9282 137.669 35.1272C137.835 35.3236 137.964 35.5483 138.051 35.7905C138.09 35.8915 138.121 35.9956 138.143 36.1017C138.165 36.1889 138.183 36.2776 138.194 36.367C138.199 36.4503 138.199 36.5338 138.194 36.6171C138.193 36.6284 138.19 36.6396 138.185 36.6499C138.18 36.6602 138.173 36.6694 138.165 36.6769C138.156 36.6845 138.146 36.6903 138.135 36.6941C138.125 36.6978 138.113 36.6994 138.102 36.6987L138.112 36.7038Z" fill="#F6E27D"/>
<path d="M135.951 39.2551C135.792 39.2677 135.632 39.2677 135.472 39.2551C135.301 39.2384 135.131 39.2129 134.963 39.1785C134.769 39.1377 134.55 39.0867 134.32 39.0153C134.076 38.9429 133.836 38.8578 133.602 38.7602C133.34 38.6586 133.088 38.5357 132.847 38.3928C132.594 38.2385 132.35 38.068 132.118 37.8826C131.879 37.6887 131.609 37.4948 131.379 37.3111C130.869 36.9489 130.36 36.5917 129.901 36.2397C129.442 35.8876 128.999 35.556 128.627 35.2703C127.883 34.6937 127.398 34.2957 127.398 34.2957C127.382 34.2795 127.373 34.2575 127.373 34.2345C127.373 34.2116 127.382 34.1896 127.398 34.1733C127.412 34.1629 127.429 34.1573 127.447 34.1573C127.464 34.1573 127.481 34.1629 127.495 34.1733C127.495 34.1733 128.081 34.3978 128.948 34.76C129.376 34.9437 129.881 35.158 130.416 35.3978C130.951 35.6376 131.512 35.908 132.078 36.158C132.363 36.2907 132.648 36.4132 132.934 36.5254C133.215 36.6338 133.489 36.7599 133.754 36.903C134 37.0396 134.232 37.1984 134.448 37.3775C134.657 37.5407 134.85 37.7142 135.024 37.8877C135.197 38.0612 135.345 38.2193 135.477 38.3673C135.61 38.5152 135.717 38.6632 135.804 38.7857C135.896 38.9152 135.981 39.0497 136.058 39.1887C136.065 39.2008 136.068 39.2139 136.069 39.2274C136.07 39.2409 136.068 39.2544 136.064 39.2672C136.06 39.28 136.053 39.2919 136.044 39.302C136.035 39.3122 136.025 39.3205 136.013 39.3265L135.951 39.2551Z" fill="#F6E27D"/>
<path d="M134.825 42.3929C134.754 42.4403 134.678 42.4813 134.6 42.5153C134.52 42.556 134.436 42.5901 134.35 42.6174C134.249 42.6536 134.145 42.6826 134.04 42.7041C133.79 42.7565 133.533 42.7651 133.28 42.7296C133.01 42.6786 132.74 42.5306 132.454 42.449C132.169 42.3674 131.894 42.2806 131.634 42.1837C131.374 42.0868 131.124 42.0102 130.915 41.9337C130.502 41.7755 130.222 41.6582 130.222 41.6582C130.214 41.6549 130.208 41.6501 130.202 41.6442C130.197 41.6383 130.192 41.6313 130.189 41.6238C130.187 41.6162 130.185 41.6081 130.186 41.6C130.186 41.5919 130.188 41.5839 130.191 41.5765C130.196 41.5666 130.203 41.558 130.212 41.5517C130.221 41.5454 130.231 41.5417 130.242 41.5408C130.242 41.5408 130.543 41.5408 130.986 41.4949C131.211 41.4949 131.496 41.4949 131.746 41.4949C131.996 41.4949 132.317 41.4949 132.612 41.4949C132.908 41.4949 133.209 41.449 133.479 41.4949C133.73 41.5387 133.972 41.6268 134.192 41.7551C134.287 41.8069 134.378 41.8666 134.463 41.9337C134.536 41.9867 134.606 42.0446 134.672 42.1072C134.735 42.1633 134.793 42.2248 134.845 42.2908C134.859 42.3081 134.867 42.3298 134.867 42.3521C134.867 42.3744 134.859 42.396 134.845 42.4133L134.825 42.3929Z" fill="#F6E27D"/>
<path d="M134.83 45.7654C134.708 45.8694 134.58 45.9665 134.448 46.0562C134.303 46.1538 134.153 46.2441 133.999 46.3266C133.805 46.4336 133.606 46.5307 133.403 46.6174C133.17 46.7201 132.932 46.8104 132.689 46.8878C132.423 46.9745 132.15 47.041 131.873 47.0868C131.576 47.128 131.276 47.1485 130.976 47.148C130.665 47.148 130.355 47.148 130.044 47.1889C129.422 47.2348 128.805 47.2909 128.219 47.3164C127.633 47.3419 127.087 47.3776 126.618 47.3929C125.686 47.4338 125.053 47.4338 125.053 47.4338C125.042 47.4345 125.031 47.4329 125.021 47.4291C125.01 47.4253 125.001 47.4194 124.993 47.4117C124.984 47.4041 124.978 47.3948 124.973 47.3846C124.969 47.3743 124.967 47.3633 124.967 47.3521C124.966 47.3336 124.972 47.3154 124.983 47.3006C124.994 47.2857 125.01 47.2751 125.028 47.2705C125.028 47.2705 125.619 47.0613 126.516 46.7603C126.965 46.6225 127.485 46.4644 128.046 46.3011C128.606 46.1378 129.208 45.9796 129.809 45.7909C130.11 45.7092 130.406 45.6174 130.701 45.5205C130.985 45.4223 131.274 45.3422 131.568 45.2806C131.844 45.2315 132.123 45.2042 132.404 45.199C132.658 45.1859 132.913 45.1859 133.168 45.199C133.408 45.199 133.627 45.2449 133.826 45.2755C134.024 45.3062 134.198 45.347 134.335 45.3827C134.49 45.4224 134.641 45.4718 134.789 45.5307C134.814 45.5408 134.834 45.5605 134.844 45.5854C134.855 45.6103 134.855 45.6383 134.845 45.6633C134.853 45.6799 134.856 45.6985 134.853 45.7167C134.85 45.7349 134.842 45.7518 134.83 45.7654Z" fill="#F6E27D"/>
<path d="M135.972 48.8828C135.949 48.9649 135.92 49.0451 135.885 49.1226C135.849 49.194 135.809 49.2757 135.758 49.3624C135.702 49.4559 135.639 49.5446 135.569 49.6277C135.413 49.8306 135.221 50.0034 135.003 50.1379C134.769 50.2706 134.463 50.3318 134.198 50.4492C133.933 50.5665 133.658 50.6839 133.398 50.7808C133.138 50.8778 132.888 50.9696 132.684 51.0461C132.266 51.1941 131.981 51.2808 131.981 51.2808C131.973 51.284 131.964 51.2855 131.955 51.2851C131.947 51.2847 131.938 51.2825 131.931 51.2787C131.923 51.2748 131.916 51.2694 131.911 51.2627C131.905 51.2561 131.901 51.2483 131.899 51.24C131.894 51.2306 131.892 51.2201 131.892 51.2094C131.892 51.1987 131.894 51.1882 131.899 51.1788C131.899 51.1788 132.113 50.9645 132.444 50.6686C132.608 50.5206 132.801 50.342 133.01 50.1583C133.219 49.9747 133.454 49.7961 133.678 49.6073C133.902 49.4185 134.106 49.1889 134.336 49.041C134.557 48.9137 134.798 48.8257 135.049 48.7808C135.157 48.7621 135.266 48.7502 135.375 48.7451C135.465 48.7399 135.556 48.7399 135.645 48.7451C135.73 48.7468 135.813 48.757 135.895 48.7757C135.917 48.7806 135.937 48.794 135.949 48.8131C135.962 48.8322 135.966 48.8554 135.962 48.8777L135.972 48.8828Z" fill="#F6E27D"/>
<path d="M138.143 51.4645C138.117 51.6231 138.082 51.7799 138.036 51.9339C137.99 52.107 137.934 52.2773 137.868 52.4441C137.789 52.6497 137.699 52.8507 137.598 53.0462C137.485 53.2735 137.361 53.4949 137.226 53.7095C137.075 53.9496 136.905 54.1766 136.716 54.3881C136.515 54.6124 136.299 54.8221 136.069 55.0156C135.839 55.2197 135.605 55.4289 135.381 55.6483C134.937 56.082 134.499 56.5208 134.065 56.9187C133.632 57.3167 133.24 57.6892 132.893 58.0055C132.2 58.6382 131.721 59.0259 131.721 59.0259C131.705 59.0421 131.683 59.0512 131.66 59.0512C131.637 59.0512 131.615 59.0421 131.598 59.0259C131.588 59.0108 131.583 58.9931 131.583 58.9749C131.583 58.9568 131.588 58.939 131.598 58.9239C131.598 58.9239 131.925 58.3831 132.429 57.5973C132.689 57.2045 132.985 56.7453 133.311 56.2606C133.637 55.7759 133.994 55.2401 134.331 54.7299C134.509 54.4748 134.677 54.2197 134.84 53.9493C134.995 53.6924 135.165 53.4453 135.35 53.2095C135.531 52.994 135.729 52.7927 135.941 52.6074C136.14 52.4288 136.339 52.2707 136.533 52.1278C136.711 51.9974 136.897 51.8765 137.088 51.7655C137.237 51.6728 137.392 51.5893 137.552 51.5155C137.696 51.4448 137.844 51.3834 137.995 51.3319C138.021 51.3251 138.048 51.3282 138.072 51.3405C138.095 51.3527 138.114 51.3733 138.123 51.3982C138.135 51.4182 138.142 51.441 138.143 51.4645Z" fill="#F6E27D"/>
<path d="M141.023 53.1176C141.059 53.1949 141.088 53.2751 141.11 53.3574C141.11 53.434 141.145 53.5207 141.166 53.6227C141.183 53.7308 141.191 53.8399 141.191 53.9493C141.202 54.2037 141.165 54.4579 141.084 54.6993C140.987 54.9544 140.794 55.2095 140.666 55.4595C140.539 55.7095 140.401 55.9698 140.263 56.23C140.126 56.4902 140.004 56.6943 139.891 56.8881C139.667 57.2759 139.504 57.5259 139.504 57.5259C139.492 57.5363 139.477 57.5421 139.461 57.5421C139.445 57.5421 139.429 57.5363 139.417 57.5259C139.408 57.5191 139.4 57.5099 139.394 57.4992C139.389 57.4885 139.386 57.4766 139.387 57.4647C139.387 57.4647 139.417 57.1688 139.473 56.7249C139.509 56.5055 139.545 56.2453 139.591 55.9749C139.637 55.7044 139.693 55.4136 139.744 55.1228C139.795 54.832 139.805 54.5258 139.886 54.2656C139.972 54.0245 140.102 53.8013 140.269 53.6074C140.336 53.5229 140.41 53.4428 140.488 53.3676C140.554 53.3063 140.624 53.2484 140.697 53.1942C140.764 53.1425 140.836 53.0964 140.911 53.0564C140.931 53.0475 140.954 53.0468 140.975 53.0544C140.996 53.062 141.013 53.0773 141.023 53.0972V53.1176Z" fill="#F6E27D"/>
<path d="M144.341 53.6992C144.426 53.8357 144.5 53.9791 144.561 54.1278C144.636 54.2937 144.7 54.4641 144.754 54.638C144.816 54.8268 144.882 55.0411 144.933 55.2707C144.993 55.5197 145.041 55.7718 145.075 56.0258C145.115 56.3029 145.134 56.5826 145.132 56.8626C145.116 57.1635 145.084 57.4633 145.035 57.7605C144.989 58.0667 144.943 58.3728 144.912 58.684C144.851 59.3065 144.8 59.9239 144.724 60.5055C144.647 61.0872 144.581 61.628 144.52 62.0923C144.392 63.026 144.291 63.6229 144.291 63.6229C144.289 63.6344 144.285 63.6454 144.278 63.6552C144.272 63.6651 144.264 63.6736 144.255 63.6803C144.245 63.6869 144.234 63.6916 144.223 63.694C144.212 63.6965 144.2 63.6966 144.189 63.6944C144.171 63.6907 144.155 63.6821 144.142 63.6694C144.13 63.6567 144.121 63.6405 144.117 63.6229C144.117 63.6229 144.02 63.0005 143.903 62.0923C143.847 61.628 143.781 61.0719 143.72 60.5004C143.658 59.929 143.602 59.2963 143.551 58.6789C143.521 58.3677 143.48 58.0565 143.439 57.7503C143.391 57.4532 143.362 57.1533 143.353 56.8524C143.351 56.5721 143.373 56.2921 143.419 56.0156C143.453 55.7628 143.502 55.5123 143.567 55.2656C143.619 55.0516 143.682 54.8404 143.755 54.6329C143.81 54.4594 143.875 54.289 143.949 54.1227C144.013 53.9762 144.088 53.8347 144.173 53.6992C144.18 53.6879 144.189 53.678 144.2 53.6703C144.21 53.6625 144.223 53.657 144.235 53.6542C144.248 53.6513 144.262 53.6511 144.275 53.6536C144.288 53.6561 144.3 53.6612 144.311 53.6686C144.318 53.6708 144.325 53.6747 144.33 53.6801C144.335 53.6854 144.339 53.692 144.341 53.6992Z" fill="#F6E27D"/>
<path d="M147.613 53.1125C147.69 53.1498 147.764 53.1942 147.833 53.2451C147.906 53.2952 147.975 53.3498 148.042 53.4084C148.123 53.4797 148.2 53.5564 148.271 53.638C148.443 53.8278 148.58 54.0473 148.674 54.286C148.765 54.5411 148.77 54.8523 148.842 55.138C148.913 55.4237 148.979 55.7095 149.025 55.985C149.071 56.2605 149.127 56.4952 149.168 56.7299C149.239 57.1687 149.275 57.4646 149.275 57.4646C149.277 57.4727 149.276 57.4809 149.275 57.4889C149.273 57.4969 149.269 57.5044 149.265 57.5111C149.26 57.5178 149.254 57.5234 149.247 57.5277C149.24 57.532 149.232 57.5348 149.224 57.536C149.213 57.5388 149.2 57.5379 149.189 57.5333C149.178 57.5287 149.169 57.5207 149.163 57.5105C149.163 57.5105 148.99 57.2656 148.755 56.8881C148.638 56.6993 148.5 56.4799 148.358 56.2401C148.215 56.0003 148.077 55.7299 147.935 55.485C147.792 55.2401 147.593 54.9748 147.491 54.7401C147.402 54.5 147.358 54.246 147.359 53.99C147.353 53.8813 147.353 53.7723 147.359 53.6635C147.371 53.5742 147.388 53.4856 147.41 53.3982C147.426 53.3161 147.449 53.2358 147.481 53.1584C147.485 53.1476 147.491 53.1378 147.499 53.1295C147.507 53.1213 147.516 53.1148 147.527 53.1104C147.537 53.1061 147.549 53.1041 147.56 53.1044C147.572 53.1048 147.583 53.1075 147.593 53.1125H147.613Z" fill="#F6E27D"/>
<path d="M150.503 51.4186C150.654 51.4736 150.802 51.5366 150.947 51.6074C151.106 51.6842 151.261 51.7693 151.411 51.8625C151.599 51.9755 151.781 52.0981 151.956 52.2298C152.162 52.3887 152.36 52.559 152.547 52.74C152.756 52.9255 152.95 53.1268 153.128 53.3421C153.312 53.5827 153.482 53.8331 153.638 54.0921C153.796 54.3574 153.959 54.6023 154.148 54.8779C154.499 55.3881 154.856 55.8983 155.167 56.4085C155.478 56.9187 155.779 57.3575 156.029 57.7504C156.538 58.5463 156.849 59.0871 156.849 59.0871C156.861 59.1076 156.864 59.1317 156.858 59.1545C156.853 59.1772 156.838 59.197 156.819 59.2096C156.803 59.2186 156.786 59.2233 156.768 59.2233C156.75 59.2233 156.732 59.2186 156.717 59.2096C156.717 59.2096 156.243 58.7963 155.555 58.1586C155.213 57.8371 154.815 57.4647 154.392 57.0565C153.969 56.6483 153.531 56.2095 153.093 55.7707C152.873 55.5513 152.639 55.3422 152.41 55.133C152.183 54.9351 151.969 54.7238 151.767 54.5003C151.589 54.2853 151.427 54.0567 151.283 53.8166C151.14 53.587 151.018 53.3625 150.911 53.1482C150.814 52.9505 150.727 52.7478 150.651 52.5411C150.58 52.3574 150.529 52.1839 150.488 52.0308C150.442 51.8772 150.408 51.7203 150.386 51.5614C150.384 51.5483 150.384 51.5349 150.388 51.522C150.391 51.5091 150.397 51.497 150.405 51.4865C150.413 51.4759 150.423 51.4672 150.435 51.4608C150.447 51.4544 150.459 51.4504 150.473 51.4492L150.503 51.4186Z" fill="#F6E27D"/>
<path d="M152.655 48.8675C152.737 48.8479 152.821 48.8343 152.905 48.8267C152.995 48.8213 153.085 48.8213 153.175 48.8267C153.283 48.8279 153.39 48.8365 153.496 48.8522C153.749 48.889 153.994 48.9683 154.22 49.0869C154.454 49.2297 154.658 49.4593 154.898 49.6328C155.137 49.8063 155.367 49.9848 155.581 50.143C155.795 50.3012 155.999 50.4798 156.167 50.6226C156.509 50.9134 156.728 51.1328 156.728 51.1328C156.736 51.1432 156.741 51.1559 156.742 51.1691C156.743 51.1824 156.74 51.1957 156.734 51.2072C156.727 51.2188 156.717 51.2281 156.705 51.2339C156.693 51.2398 156.68 51.2419 156.667 51.24C156.667 51.24 156.376 51.1635 155.953 51.0257C155.744 50.9543 155.494 50.8777 155.234 50.7808C154.974 50.6838 154.725 50.5869 154.424 50.4798C154.123 50.3726 153.848 50.3216 153.603 50.194C153.38 50.0609 153.183 49.8879 153.022 49.6838C152.951 49.6024 152.886 49.5154 152.828 49.4236C152.734 49.2757 152.656 49.1184 152.594 48.9542C152.589 48.9319 152.593 48.9086 152.604 48.8888C152.615 48.869 152.633 48.8541 152.655 48.8471V48.8675Z" fill="#F6E27D"/>
<path d="M153.801 45.699C153.951 45.6403 154.104 45.5926 154.26 45.5561C154.428 45.512 154.598 45.478 154.77 45.4541C154.969 45.4235 155.188 45.398 155.427 45.3827C155.667 45.3674 155.937 45.3827 156.192 45.3827C156.473 45.3914 156.752 45.4221 157.028 45.4745C157.32 45.5379 157.608 45.6214 157.889 45.7245C158.185 45.8214 158.481 45.9184 158.781 46.0051C159.378 46.1735 159.979 46.3317 160.54 46.5153C161.101 46.699 161.62 46.8521 162.069 46.9898C162.961 47.2807 163.552 47.5001 163.552 47.5001C163.563 47.504 163.573 47.5101 163.581 47.5179C163.59 47.5257 163.596 47.5351 163.601 47.5455C163.606 47.556 163.609 47.5673 163.609 47.5787C163.609 47.5902 163.607 47.6016 163.603 47.6123C163.598 47.6293 163.587 47.644 163.572 47.6542C163.557 47.6643 163.54 47.6693 163.522 47.6684C163.522 47.6684 162.895 47.6684 161.957 47.6123C161.488 47.5868 160.937 47.5562 160.361 47.5154C159.785 47.4746 159.153 47.4184 158.537 47.3674C158.226 47.3674 157.915 47.3266 157.604 47.3164C157.304 47.3112 157.004 47.2873 156.707 47.245C156.432 47.1958 156.161 47.1258 155.896 47.0358C155.636 46.949 155.387 46.8572 155.183 46.7603C154.979 46.6633 154.765 46.5613 154.591 46.4643C154.437 46.3787 154.287 46.285 154.143 46.1837C154.011 46.095 153.885 45.9979 153.766 45.8929C153.756 45.8838 153.748 45.8728 153.743 45.8605C153.737 45.8482 153.734 45.8349 153.734 45.8214C153.734 45.808 153.737 45.7947 153.743 45.7824C153.748 45.7701 153.756 45.7591 153.766 45.75C153.771 45.7294 153.784 45.7113 153.801 45.699Z" fill="#F6E27D"/>
<path d="M153.791 42.3723C153.842 42.3031 153.898 42.2382 153.959 42.1784C154.022 42.1154 154.089 42.0558 154.158 41.9999C154.242 41.9322 154.33 41.8708 154.423 41.8162C154.639 41.6765 154.879 41.5795 155.132 41.5305C155.397 41.4846 155.702 41.5305 155.998 41.5305C156.294 41.5305 156.584 41.4999 156.86 41.4948H157.639C158.083 41.4948 158.384 41.4948 158.384 41.4948C158.392 41.4947 158.4 41.4965 158.408 41.4999C158.416 41.5032 158.423 41.5082 158.429 41.5144C158.434 41.5207 158.439 41.5281 158.442 41.5361C158.444 41.5441 158.445 41.5526 158.445 41.5611C158.444 41.572 158.44 41.5825 158.434 41.5915C158.428 41.6004 158.419 41.6076 158.409 41.6121C158.409 41.6121 158.134 41.7397 157.721 41.908C157.517 41.9897 157.277 42.0917 157.018 42.1835C156.758 42.2754 156.482 42.3774 156.202 42.4744C155.922 42.5713 155.657 42.7244 155.392 42.7805C155.14 42.8265 154.883 42.8265 154.632 42.7805C154.523 42.7662 154.416 42.7423 154.311 42.7091L154.061 42.6172C153.983 42.5849 153.908 42.5456 153.837 42.4999C153.818 42.4874 153.805 42.4682 153.801 42.4463C153.796 42.4245 153.8 42.4016 153.811 42.3825L153.791 42.3723Z" fill="#F6E27D"/>
<path d="M152.634 39.209C152.712 39.0694 152.799 38.9348 152.894 38.8059C152.994 38.662 153.103 38.524 153.22 38.3927C153.367 38.2268 153.521 38.0685 153.684 37.9182C153.868 37.738 154.062 37.5677 154.265 37.4079C154.483 37.2335 154.715 37.0765 154.958 36.9385C155.224 36.7968 155.5 36.6741 155.784 36.5712C156.069 36.4589 156.36 36.3416 156.645 36.214C157.211 35.9589 157.777 35.7038 158.317 35.4691C158.857 35.2344 159.337 35.0303 159.79 34.8518C160.657 34.4946 161.248 34.2752 161.248 34.2752C161.259 34.2711 161.27 34.2692 161.282 34.2696C161.293 34.2699 161.304 34.2726 161.315 34.2773C161.325 34.282 161.335 34.2888 161.342 34.2972C161.35 34.3056 161.356 34.3155 161.36 34.3262C161.366 34.3436 161.366 34.3623 161.361 34.3797C161.355 34.3971 161.344 34.4123 161.33 34.4232C161.33 34.4232 160.845 34.8211 160.096 35.3875C159.724 35.6681 159.286 35.9997 158.812 36.3416C158.338 36.6834 157.828 37.0406 157.318 37.4028C157.063 37.5814 156.808 37.7702 156.574 37.959C156.342 38.1463 156.096 38.3168 155.84 38.4692C155.599 38.6104 155.346 38.7316 155.086 38.8315C154.849 38.926 154.607 39.0077 154.362 39.0764C154.132 39.1478 153.913 39.1937 153.719 39.2345C153.526 39.2753 153.342 39.2906 153.21 39.306C153.05 39.3174 152.89 39.3174 152.731 39.306C152.717 39.3053 152.705 39.302 152.693 39.2962C152.681 39.2904 152.67 39.2822 152.662 39.2722C152.653 39.2622 152.647 39.2505 152.643 39.2379C152.639 39.2252 152.637 39.212 152.639 39.1988C152.637 39.2023 152.636 39.2057 152.634 39.209Z" fill="#F6E27D"/>
<path d="M150.503 36.6683C150.497 36.5834 150.497 36.4981 150.503 36.4132C150.503 36.3315 150.503 36.2448 150.544 36.1479C150.562 36.0403 150.589 35.9345 150.625 35.8315C150.704 35.5876 150.824 35.3596 150.982 35.158C151.161 34.9539 151.426 34.7907 151.64 34.5866C151.854 34.3825 152.063 34.1835 152.277 34.0049L152.853 33.4947C153.194 33.2141 153.434 33.0304 153.434 33.0304C153.446 33.0186 153.463 33.012 153.48 33.012C153.497 33.012 153.513 33.0186 153.526 33.0304C153.532 33.0393 153.536 33.05 153.536 33.061C153.536 33.0721 153.532 33.0828 153.526 33.0917C153.526 33.0917 153.398 33.3672 153.189 33.76C153.087 33.9539 152.965 34.1835 152.827 34.4233C152.69 34.6631 152.542 34.9335 152.389 35.1733C152.236 35.4131 152.129 35.7142 151.966 35.9285C151.803 36.1324 151.604 36.3053 151.38 36.4387C151.287 36.496 151.19 36.5455 151.089 36.5866C151.008 36.6215 150.924 36.6522 150.84 36.6785C150.757 36.7017 150.674 36.7204 150.59 36.7346C150.568 36.7361 150.546 36.7289 150.529 36.7147C150.512 36.7004 150.501 36.6802 150.498 36.6581L150.503 36.6683Z" fill="#F6E27D"/>
</svg>
