<svg width="220" height="230" viewBox="0 0 220 230" fill="none" xmlns="http://www.w3.org/2000/svg">
<mask id="mask0_311_18889" style="mask-type:alpha" maskUnits="userSpaceOnUse" x="0" y="10" width="220" height="220">
<circle cx="109.558" cy="120.442" r="109.558" fill="#D9D9D9"/>
</mask>
<g mask="url(#mask0_311_18889)">
<path d="M286.79 2.36621H-68.1484V238.992H286.79V2.36621Z" fill="#602F55"/>
<path d="M35.6757 2.36621H-68.1484V23.4675L95.1061 238.992H214.914L35.6757 2.36621Z" fill="#7C4167"/>
<path d="M77.9551 2.36621L257.193 238.992H286.786L107.547 2.36621H77.9551Z" fill="#7C4167"/>
<path d="M174.492 38.0409C173.113 37.6396 171.694 37.6695 170.428 38.0405C169.521 38.3063 168.822 38.9334 168.555 39.7206L167.052 44.1633C166.772 44.9921 166.981 45.8893 167.625 46.5534C168.401 47.3545 169.457 47.9717 170.715 48.2823C174.108 49.1209 177.656 47.4051 178.545 44.4619C179.359 41.7659 177.577 38.9385 174.492 38.0409Z" fill="white"/>
<path d="M174.784 55.6675L173.155 55.2648C172.471 55.0958 172.078 54.4856 172.276 53.9019L175.77 43.5749C175.967 42.9908 176.681 42.6547 177.364 42.8233C178.947 43.2147 179.859 44.6286 179.401 45.9817L176.378 54.9163C176.181 55.5 175.467 55.8365 174.784 55.6675Z" fill="white"/>
<path d="M173.208 57.7172C172.68 57.5868 172.376 57.1149 172.529 56.6638L174.475 50.912C174.523 50.7678 174.699 50.6848 174.868 50.7267L176.169 51.0482C176.338 51.0901 176.435 51.2405 176.386 51.3847L174.44 57.1364C174.288 57.5876 173.736 57.8475 173.208 57.7172Z" fill="white"/>
<path d="M170.953 37.8144L167.877 46.9277L168.286 47.0287L171.362 37.9153L170.953 37.8144Z" fill="#602F55"/>
<path d="M173.064 55.0599L172.945 55.4097L174.857 55.8822L174.975 55.5324L173.064 55.0599Z" fill="#602F55"/>
<path d="M211.669 86.4888L212.522 87.7414C212.88 88.2665 213.669 88.4442 214.283 88.1383L225.15 82.7263C225.764 82.4204 225.972 81.7464 225.614 81.2213C224.785 80.0044 222.958 79.5926 221.534 80.3019L212.133 84.9842C211.518 85.2901 211.31 85.9637 211.669 86.4888Z" fill="white"/>
<path d="M209.727 88.2949C210.004 88.7009 210.613 88.8382 211.088 88.6015L217.14 85.5873C217.291 85.5119 217.343 85.3455 217.254 85.2159L216.572 84.2156C216.484 84.086 216.29 84.0419 216.138 84.1176L210.086 87.1319C209.611 87.3682 209.451 87.8889 209.727 88.2949Z" fill="white"/>
<path d="M211.792 86.2925L211.424 86.4758L212.426 87.9455L212.794 87.7622L211.792 86.2925Z" fill="#602F55"/>
<path d="M76.0319 174.05C68.8322 174.05 61.6168 173.884 54.4307 173.444C44.6299 172.843 33.3704 171.65 24.166 167.365C23.6629 167.13 23.1726 166.854 22.7091 166.544C21.5871 166.929 20.4514 167.112 19.521 167.196C3.36137 167.959 -6.68482 149.594 -12.6858 138.622C-13.4935 137.146 -14.19 135.872 -14.8213 134.795L-14.44 134.632C-13.807 135.713 -13.1084 136.99 -12.3003 138.468C-6.34403 149.357 3.61952 167.577 19.4865 166.833C20.3184 166.758 21.3255 166.599 22.3313 166.279C20.2294 164.734 18.807 162.476 19.5397 160.264C19.8379 159.363 20.4803 158.602 21.3021 158.176C22.1421 157.741 23.1798 157.66 24.2269 157.949C25.4086 158.275 26.3863 159.017 26.8413 159.933C27.6494 161.56 27.047 163.678 25.3767 165.086C24.7096 165.648 23.9436 166.067 23.156 166.378C23.5458 166.627 23.953 166.85 24.3696 167.044C33.5025 171.297 44.7057 172.482 54.4614 173.08C72.8668 174.209 91.4917 173.534 109.502 172.88L114.041 172.717C115.271 172.673 116.988 172.677 119.163 172.683C131.397 172.72 156.843 172.783 163.221 163.436C165.399 159.988 164.582 155.144 163.792 150.461C163.26 147.307 162.758 144.328 163.283 142.095C165.006 134.759 171.436 128.616 182.923 123.342C182.17 119.729 182.53 116.006 184.004 112.227C185.785 107.659 189.186 103.145 193.839 99.1748C198.798 94.944 204.513 91.2988 210.04 87.7736L210.151 87.7034L210.405 87.995L210.295 88.0657C204.78 91.5828 199.077 95.2204 194.141 99.4323C183.17 108.793 182.276 117.57 183.354 123.145C183.651 123.011 183.952 122.877 184.255 122.743C187.145 121.475 190.276 120.244 193.58 119.824C196.787 119.416 199.773 119.902 201.984 121.19C204.933 122.907 206.401 125.942 205.815 129.11C205.219 132.339 202.688 134.886 199.211 135.756C195.335 136.727 192.108 135.393 190.084 134.105C187.633 132.544 185.536 130.159 184.332 127.56C183.746 126.295 183.303 125.013 183.005 123.717C171.712 128.924 165.39 134.969 163.7 142.167C163.19 144.337 163.687 147.287 164.214 150.409C164.976 154.93 165.841 160.054 163.592 163.613C157.087 173.148 131.477 173.081 119.162 173.047C116.992 173.041 115.28 173.037 114.059 173.08L109.521 173.243C98.5248 173.643 87.2986 174.05 76.0319 174.05ZM23.0073 158.143C22.4714 158.143 21.9649 158.259 21.524 158.487C20.793 158.866 20.2196 159.55 19.9508 160.363C19.2484 162.483 20.6946 164.663 22.7781 166.125C23.5952 165.822 24.3935 165.404 25.0789 164.826C26.6274 163.521 27.1914 161.568 26.4502 160.075C26.0425 159.254 25.1633 158.589 24.097 158.295C23.7277 158.194 23.3613 158.143 23.0073 158.143ZM183.432 123.523C183.777 125.135 184.28 126.459 184.729 127.426C187.059 132.455 192.882 136.961 199.092 135.408C202.409 134.578 204.825 132.143 205.395 129.054C205.955 126.027 204.556 123.129 201.746 121.492C199.623 120.256 196.745 119.791 193.643 120.185C190.4 120.598 187.309 121.814 184.451 123.068C184.107 123.219 183.767 123.371 183.432 123.523Z" fill="white"/>
<path d="M172.314 178.128C168.703 178.128 164.841 177.955 160.733 177.609C156.152 177.308 151.501 176.575 146.577 175.799C137.026 174.293 126.201 172.588 111.375 173.177L111.354 172.814C126.231 172.22 137.081 173.932 146.654 175.441C151.567 176.215 156.207 176.947 160.769 177.246C177.57 178.663 206.113 178.178 208.593 159.018C210.254 146.185 188.814 120.121 177.295 106.119C173.204 101.146 170.234 97.5348 169.554 96.1118C168.874 95.6789 168.217 95.1971 167.591 94.6699C157.849 86.0117 162.142 78.7739 167.114 70.3935C169.589 66.2217 172.148 61.9083 173.289 56.9722L173.707 57.0424C172.554 62.0281 169.982 66.3645 167.494 70.5581C162.596 78.8147 158.365 85.9454 167.894 94.4139C168.336 94.7857 168.793 95.1341 169.264 95.4586C167.484 91.3647 166.846 87.9652 167.258 84.8031C167.771 80.86 170.696 76.0098 175.903 74.6782C178.565 73.9984 181.158 74.3363 183.402 75.6581C187.179 77.8829 189.16 82.2637 189.449 85.618C189.782 89.4913 188.324 93.4533 185.643 95.9578C183.708 97.766 181.203 98.7412 178.4 98.778C175.669 98.8136 172.838 98.0191 170.27 96.5448C171.31 98.2095 174.04 101.529 177.644 105.909C190.006 120.937 210.696 146.088 209.017 159.058C208.492 163.112 206.336 168.8 199.046 172.875C192.79 176.371 183.827 178.128 172.314 178.128ZM169.907 95.882C172.556 97.545 175.559 98.4521 178.393 98.4135C181.077 98.3778 183.476 97.4438 185.329 95.7116C187.933 93.2785 189.349 89.4213 189.024 85.645C188.743 82.3769 186.821 78.1145 183.16 75.9578C180.997 74.6829 178.596 74.3702 176.025 75.027C171.004 76.3106 168.18 81.0151 167.681 84.8432C167.259 88.0868 167.966 91.5955 169.907 95.882Z" fill="white"/>
<path d="M116.725 173.819L105.67 174.194C105.025 174.216 104.482 173.787 104.456 173.236C104.43 172.684 104.932 172.22 105.577 172.198L116.632 171.824C117.277 171.802 117.82 172.231 117.846 172.782C117.871 173.333 117.37 173.797 116.725 173.819Z" fill="white"/>
<path d="M3.74889 109.63L-33.6067 33.7906C-34.5172 31.9426 -36.7533 31.1821 -38.6014 32.0926L-68.6221 46.8798V81.4219L-43.3102 132.81C-42.3997 134.658 -40.1636 135.418 -38.3155 134.508L2.05087 114.625C3.89892 113.714 4.65896 111.478 3.74889 109.63Z" fill="#FF5C7B"/>
<path d="M204.367 170.464C205.548 164.15 201.387 158.073 195.073 156.892C188.758 155.711 182.682 159.872 181.5 166.186C180.319 172.501 184.48 178.577 190.795 179.759C197.109 180.94 203.186 176.779 204.367 170.464Z" fill="#FFC549"/>
<path d="M196.337 176.504C196.524 176.426 196.705 176.34 196.884 176.251C192.51 177.747 187.664 175.616 185.852 171.289C184.04 166.962 185.921 162.015 190.056 159.947C189.867 160.012 189.679 160.081 189.492 160.159C184.978 162.049 182.851 167.241 184.742 171.754C186.632 176.268 191.823 178.395 196.337 176.504Z" fill="#F9B130"/>
<path d="M192.916 177.434C191.748 177.434 190.58 177.206 189.467 176.75C187.218 175.829 185.463 174.087 184.525 171.847C182.587 167.22 184.775 161.879 189.401 159.941C191.642 159.002 194.115 158.993 196.364 159.914C198.612 160.835 200.368 162.576 201.306 164.818C202.245 167.059 202.255 169.532 201.334 171.78C200.413 174.029 198.671 175.784 196.43 176.722C195.298 177.197 194.107 177.434 192.916 177.434ZM192.914 159.703C191.785 159.703 190.657 159.928 189.584 160.377C185.198 162.215 183.124 167.277 184.961 171.663C185.851 173.788 187.515 175.439 189.647 176.312C191.778 177.185 194.122 177.176 196.247 176.286C198.371 175.396 200.022 173.732 200.895 171.601C201.769 169.469 201.759 167.125 200.869 165.001C199.979 162.876 198.316 161.225 196.184 160.352C195.129 159.919 194.021 159.703 192.914 159.703Z" fill="#602F55"/>
<path d="M194.199 163.993L197.627 168.037L198.307 166.399L199.432 166.808L198.545 169.558L197.536 170.413L192.704 164.713L191.59 165.568L190.849 164.694L194.429 161.658L195.144 162.502L194.209 163.402C194.112 163.496 194.06 163.587 194.053 163.676C194.045 163.764 194.094 163.87 194.199 163.993Z" fill="white"/>
<path d="M193.514 174.053C191.957 175.373 190.221 174.905 188.309 172.648C187.291 171.448 186.748 170.396 186.678 169.495C186.609 168.592 186.972 167.804 187.768 167.129C188.564 166.454 189.391 166.228 190.251 166.448C191.11 166.669 192.034 167.363 193.022 168.529C194.011 169.695 194.53 170.745 194.581 171.681C194.631 172.617 194.275 173.407 193.514 174.053ZM189.883 167.944C189.388 167.757 188.955 167.82 188.584 168.134C188.214 168.448 188.081 168.872 188.188 169.407C188.294 169.942 188.729 170.661 189.494 171.563C190.258 172.465 190.89 173.012 191.388 173.202C191.885 173.394 192.323 173.329 192.7 173.009C193.078 172.689 193.202 172.256 193.075 171.71C192.948 171.164 192.508 170.446 191.755 169.557C191.001 168.67 190.377 168.132 189.883 167.944Z" fill="white"/>
<path d="M-3.68014 33.7303C-3.59969 35.045 -3.42222 37.938 -3.18228 41.8026L1.73196 41.4386C1.39974 37.5807 1.14939 34.6934 1.03533 33.3811C0.997474 32.9471 0.617925 32.6243 0.183481 32.6565L-2.94376 32.8879C-3.37868 32.9201 -3.70664 33.2949 -3.68014 33.7303Z" fill="white"/>
<path d="M8.39887 155.236L8.68282 159.072C8.71169 159.464 8.41827 159.804 8.02689 159.833C7.63552 159.862 7.29525 159.569 7.26638 159.177L6.98243 155.341C6.95356 154.95 7.24698 154.609 7.63836 154.58C8.02926 154.551 8.37 154.845 8.39887 155.236Z" fill="#FFC549"/>
<path d="M1.89244 134.472C3.18205 145.836 6.87814 157.278 6.87814 157.278L8.78724 157.136C8.78724 157.136 10.7579 145.275 10.3598 133.845C9.98929 123.204 3.42294 47.4337 2.51855 37.0284C2.46176 36.372 1.88771 35.8841 1.23036 35.9328L-3.49741 36.283C-4.15428 36.3318 -4.65025 36.8987 -4.61002 37.5565C-3.97255 47.9813 0.691805 123.892 1.89244 134.472Z" fill="#979EED"/>
<path d="M-0.180664 107.023C-0.149903 107.479 -0.119138 107.932 -0.0883766 108.382L8.47746 107.748C8.4415 107.299 8.40506 106.845 8.36862 106.39L-0.180664 107.023Z" fill="white"/>
<path d="M-0.00292969 109.635C0.0742102 110.768 0.150874 111.881 0.226121 112.968L8.8426 112.33C8.75694 111.244 8.66845 110.131 8.57806 108.999L-0.00292969 109.635Z" fill="white"/>
<path d="M8.81274 112.091L0.197266 112.731L0.232368 113.203L8.84785 112.563L8.81274 112.091Z" fill="#602F55"/>
<path d="M2.99291 42.447L-4.2793 42.9595L-4.24599 43.432L3.02621 42.9195L2.99291 42.447Z" fill="#602F55"/>
<path d="M166.979 28.2004C166.29 28.2004 165.59 28.1232 164.891 27.9619C164.455 27.8615 164.025 27.7295 163.611 27.5696L163.782 27.1275C164.175 27.2794 164.583 27.4053 164.997 27.5005C169.742 28.5937 174.486 25.6245 175.579 20.882C176.108 18.5849 175.711 16.2186 174.462 14.2196C173.211 12.2206 171.258 10.8283 168.961 10.2992C164.217 9.20646 159.471 12.1756 158.378 16.9176C158.083 18.1987 158.073 19.494 158.35 20.7689L157.888 20.8697C157.596 19.5262 157.605 18.1609 157.917 16.8116C159.069 11.8146 164.072 8.68589 169.067 9.83825C171.488 10.3962 173.546 11.8628 174.863 13.9688C176.18 16.0748 176.598 18.5678 176.04 20.9885C175.05 25.2847 171.213 28.2004 166.979 28.2004Z" fill="white"/>
<path d="M175.108 25.2758L174.735 24.9838C175.482 24.0316 176.042 22.9578 176.4 21.7917C177.204 19.1704 176.901 16.4132 175.546 14.029L175.957 13.7952C177.378 16.2939 177.696 19.1836 176.852 21.9304C176.478 23.1528 175.891 24.2782 175.108 25.2758Z" fill="white"/>
<path d="M166.992 29.2331C165.974 29.2331 164.95 29.0808 163.949 28.7731C161.311 27.9639 159.147 26.1759 157.854 23.7387C156.562 21.3015 156.296 18.506 157.105 15.869C157.915 13.2316 159.703 11.0674 162.14 9.77447C164.577 8.48202 167.372 8.2156 170.009 9.02533C170.484 9.17109 170.95 9.3514 171.396 9.56152L171.194 9.98933C170.769 9.78868 170.323 9.61688 169.871 9.47728C167.354 8.70493 164.688 8.95906 162.362 10.1928C160.036 11.4256 158.33 13.4914 157.558 16.0077C156.785 18.5239 157.039 21.1912 158.273 23.5167C159.506 25.8423 161.571 27.5488 164.088 28.3207C166.604 29.0926 169.271 28.8394 171.597 27.6056C173.923 26.3728 175.629 24.3071 176.401 21.7908C176.832 20.3871 176.945 18.9447 176.738 17.5031L177.206 17.4359C177.423 18.947 177.305 20.4591 176.853 21.9295C176.044 24.5669 174.256 26.7315 171.818 28.024C170.307 28.8266 168.657 29.2331 166.992 29.2331Z" fill="white"/>
<path d="M192.108 19.7027C192.306 19.3393 192.478 18.9971 192.629 18.672L197.111 18.8291L197.92 18.026L199.319 18.0724L200.7 16.5897L211.816 16.948L213.165 18.2371L214.015 16.9551L214.806 16.9811L216.04 18.6157L217.665 16.9882L218.603 17.0189L219.658 18.1235L221.01 16.858L222.21 16.8978L223.829 18.7634L228.343 15.134L228.371 14.285L227.227 14.2471L224.593 11.4966L192.865 10.4483C191.348 6.05798 187.253 2.8394 182.334 2.67708C175.963 2.46648 170.627 7.46117 170.417 13.8325C170.206 20.2039 175.201 25.5398 181.572 25.7504C186.093 25.9005 190.091 23.4272 192.108 19.7027ZM176.718 11.428C178.16 11.4758 179.29 12.683 179.242 14.1245C179.194 15.5665 177.987 16.6967 176.546 16.6489C175.104 16.6011 173.974 15.3938 174.021 13.9518C174.069 12.5103 175.276 11.3802 176.718 11.428Z" fill="#979EED"/>
<path d="M193.399 12.8439L193.384 13.3169L227.218 14.4001L227.233 13.9271L193.399 12.8439Z" fill="#602F55"/>
<path d="M193.081 11.5216L193.065 11.9951L225.156 13.0546L225.171 12.5811L193.081 11.5216Z" fill="#602F55"/>
<path d="M192.698 17.6003L192.682 18.0737L197.912 18.2553L197.928 17.7819L192.698 17.6003Z" fill="#602F55"/>
<path d="M192.74 18.7715L192.306 18.5845C193.017 16.931 193.317 15.1757 193.194 13.3669C193.128 12.3954 192.94 11.4403 192.633 10.527L193.081 10.3765C193.401 11.3282 193.598 12.3234 193.666 13.3348C193.794 15.2197 193.482 17.0488 192.74 18.7715Z" fill="#602F55"/>
<path d="M176.63 17.9209C174.607 17.9209 172.897 16.3474 172.758 14.3006C172.614 12.1648 174.234 10.3096 176.369 10.1653C177.401 10.0943 178.404 10.4317 179.185 11.1151C179.966 11.7971 180.435 12.7426 180.505 13.7776C180.574 14.8122 180.238 15.8117 179.555 16.5925C178.873 17.3734 177.928 17.8424 176.893 17.9124C176.805 17.9181 176.717 17.9209 176.63 17.9209ZM176.637 10.6296C176.559 10.6296 176.481 10.6319 176.402 10.6376C174.527 10.7644 173.103 12.3934 173.231 14.2684C173.358 16.1434 174.99 17.566 176.862 17.4401C177.77 17.3786 178.601 16.9673 179.199 16.2816C179.799 15.5958 180.094 14.7175 180.033 13.8093C179.972 12.9007 179.56 12.0701 178.874 11.4715C178.248 10.9239 177.461 10.6296 176.637 10.6296Z" fill="#602F55"/>
<path d="M191.206 8.60935C191.172 8.19668 191.128 7.81665 191.075 7.46218L198.844 2.715L199.079 1.60003L200.274 0.869801L200.613 -1.1278L206.162 -4.51817L207.997 -4.18216L208.004 -5.72023L208.678 -6.13243L210.607 -5.44432L211.072 -7.697L211.872 -8.18634L213.361 -7.84275L213.795 -9.64253L214.819 -10.2682L217.197 -9.59899L218.976 -15.1114L218.533 -15.836L217.556 -15.2392L213.844 -16.0906L186.756 0.462336C183.077 -2.37339 177.887 -2.81305 173.687 -0.247079C168.247 3.07704 166.532 10.1815 169.856 15.6215C173.18 21.0611 180.285 22.7766 185.725 19.4525C189.586 17.0924 191.568 12.8298 191.206 8.60935ZM173.801 10.1488C175.032 9.39684 176.64 9.7849 177.392 11.0158C178.144 12.2468 177.756 13.8544 176.525 14.6064C175.294 15.3584 173.686 14.9703 172.934 13.7394C172.182 12.5089 172.57 10.9013 173.801 10.1488Z" fill="#FFC549"/>
<path d="M179.7 19.9897C178.883 19.9897 178.062 19.8927 177.248 19.6963C174.556 19.0465 172.277 17.3868 170.833 15.0234C167.852 10.1447 169.396 3.75057 174.274 0.769086C177.754 -1.3577 182.179 -1.24223 185.544 1.06298L185.705 1.17277L185.152 2.4534L189.144 8.98615L190.039 9.05572L190.046 9.26725C190.168 12.9969 188.268 16.5212 185.087 18.4644C183.439 19.472 181.585 19.9897 179.7 19.9897ZM179.682 -0.276318C177.895 -0.276318 176.106 0.204973 174.522 1.17324C169.866 4.01843 168.392 10.121 171.238 14.7768C172.616 17.0324 174.79 18.6159 177.36 19.2368C179.928 19.8558 182.586 19.4393 184.842 18.0612C187.817 16.2434 189.618 12.9761 189.578 9.4949L188.868 9.43952L184.622 2.49173L185.117 1.34504C183.474 0.266025 181.579 -0.276318 179.682 -0.276318Z" fill="#602F55"/>
<path d="M185.677 11.2424C185.123 11.2424 184.581 10.9627 184.272 10.4564L181.313 5.61547C181.085 5.24066 181.015 4.79912 181.118 4.37225C181.221 3.94538 181.484 3.5838 181.859 3.35522C182.234 3.12664 182.675 3.05566 183.102 3.16025C183.529 3.26342 183.89 3.52608 184.119 3.90089L187.077 8.74178C187.55 9.51507 187.305 10.5288 186.531 11.0015C186.264 11.1643 185.969 11.2424 185.677 11.2424ZM182.714 3.58617C182.501 3.58617 182.292 3.64486 182.106 3.75844C181.839 3.92172 181.652 4.17869 181.578 4.48252C181.505 4.78682 181.554 5.10153 181.717 5.36797L184.676 10.2088C184.839 10.4758 185.096 10.6632 185.4 10.7361C185.704 10.8094 186.018 10.7602 186.285 10.5969C186.551 10.4336 186.739 10.1767 186.812 9.87284C186.886 9.56854 186.837 9.2543 186.673 8.98786L183.715 4.1465C183.552 3.88006 183.295 3.69218 182.991 3.61883C182.899 3.59706 182.806 3.58617 182.714 3.58617Z" fill="#602F55"/>
<path d="M175.546 14.0286C174.299 11.8346 172.284 10.219 169.871 9.47785C168.77 9.1409 167.636 9.00034 166.501 9.05334L166.478 8.58105C167.671 8.52142 168.858 8.67237 170.009 9.02589C172.539 9.80249 174.652 11.4958 175.958 13.7949L175.546 14.0286Z" fill="white"/>
<path d="M203.784 69.7742L186.197 61.5368C185.193 61.0664 184.76 59.8705 185.23 58.8653L189.65 49.4287C190.121 48.4239 191.317 47.9909 192.322 48.4618L209.908 56.6992C210.913 57.1696 211.346 58.3655 210.875 59.3702L206.455 68.8069C205.984 69.812 204.789 70.2451 203.784 69.7742Z" fill="white"/>
<path d="M201.284 69.0126L188.382 62.9692C188.2 62.884 188.122 62.6682 188.207 62.487L194.338 49.3973C194.423 49.216 194.639 49.138 194.82 49.2227L207.722 55.2661C207.904 55.3508 207.982 55.5666 207.897 55.7483L201.766 68.838C201.681 69.0192 201.466 69.0973 201.284 69.0126Z" fill="#FF5C7B"/>
<path d="M194.848 57.8979C194.709 57.8979 194.57 57.8676 194.441 57.8071L193.146 57.2008C192.667 56.9765 192.46 56.4039 192.684 55.925L194.653 51.7211C194.762 51.4892 194.955 51.3131 195.196 51.2256C195.436 51.1375 195.697 51.1503 195.93 51.2587L197.224 51.8649C197.456 51.9733 197.632 52.1664 197.719 52.4073C197.807 52.6486 197.795 52.9094 197.686 53.1418L195.718 57.3452C195.609 57.5775 195.416 57.7531 195.175 57.8407C195.068 57.879 194.958 57.8979 194.848 57.8979ZM195.522 51.6411C195.466 51.6411 195.41 51.651 195.356 51.6709C195.234 51.7149 195.137 51.8039 195.082 51.9217L193.113 56.1256C192.999 56.3689 193.104 56.6585 193.347 56.7721L194.642 57.3788C194.759 57.4337 194.892 57.4403 195.013 57.3953C195.135 57.3513 195.233 57.2624 195.288 57.1445L197.257 52.9406C197.312 52.8228 197.318 52.6908 197.274 52.5687C197.23 52.4466 197.141 52.3491 197.023 52.2942L195.728 51.6879C195.663 51.6567 195.593 51.6411 195.522 51.6411Z" fill="#602F55"/>
<path d="M229.757 228.119L217.583 218.642H210.168C209.387 220.222 209.795 222.184 211.239 223.309L225.1 234.1C226.752 235.386 229.133 235.089 230.419 233.438C231.705 231.787 231.409 229.405 229.757 228.119Z" fill="white"/>
<path d="M178.415 218.642C179.884 223.009 182.604 227.009 186.511 230.051C197.101 238.296 212.37 236.395 220.614 225.805C222.341 223.587 223.617 221.163 224.467 218.643H178.415V218.642Z" fill="white"/>
<path d="M218.216 228.787L217.892 228.442C218.801 227.588 219.654 226.651 220.427 225.659C221.2 224.666 221.899 223.61 222.503 222.519L222.918 222.748C222.301 223.86 221.589 224.937 220.801 225.95C220.013 226.961 219.143 227.916 218.216 228.787Z" fill="#602F55"/>
<path d="M183.483 218.642C184.744 221.563 186.735 224.219 189.423 226.312C197.947 232.948 210.238 231.418 216.875 222.893C217.915 221.557 218.754 220.128 219.398 218.642H183.483Z" fill="#FFC549"/>
<path d="M320.39 -33.1277H-34.5479V203.498H320.39V-33.1277Z" fill="#602F55"/>
<path d="M69.2763 -33.1277H-34.5479V-12.0264L128.707 203.498H248.514L69.2763 -33.1277Z" fill="#7C4167"/>
<path d="M111.556 -33.1277L290.794 203.498H320.386L141.148 -33.1277H111.556Z" fill="#7C4167"/>
<path d="M191.71 76.4563C190.458 76.0924 189.171 76.1194 188.021 76.4559C187.197 76.697 186.563 77.2656 186.321 77.9796L184.957 82.0085C184.703 82.7601 184.893 83.5738 185.477 84.1761C186.181 84.9026 187.14 85.4623 188.281 85.744C191.361 86.5045 194.582 84.9485 195.389 82.2793C196.128 79.8344 194.51 77.2703 191.71 76.4563Z" fill="white"/>
<path d="M191.975 92.4415L190.497 92.0763C189.876 91.923 189.52 91.3696 189.699 90.8402L192.87 81.4749C193.049 80.9453 193.697 80.6405 194.317 80.7934C195.754 81.1484 196.582 82.4306 196.166 83.6577L193.422 91.7602C193.243 92.2896 192.595 92.5947 191.975 92.4415Z" fill="white"/>
<path d="M190.544 94.3003C190.065 94.1821 189.789 93.7541 189.927 93.345L191.694 88.1288C191.738 87.9981 191.898 87.9228 192.051 87.9608L193.232 88.2524C193.385 88.2903 193.473 88.4267 193.429 88.5575L191.663 93.7736C191.524 94.1827 191.023 94.4185 190.544 94.3003Z" fill="white"/>
<path d="M188.497 76.251L185.705 84.5156L186.077 84.6072L188.869 76.3425L188.497 76.251Z" fill="#602F55"/>
<path d="M190.413 91.8903L190.306 92.2075L192.041 92.636L192.148 92.3188L190.413 91.8903Z" fill="#602F55"/>
<path d="M100.651 199.712C94.0254 199.712 87.3847 199.562 80.7711 199.163C71.7511 198.62 61.3886 197.542 52.9175 193.666C52.4545 193.454 52.0032 193.204 51.5767 192.924C50.544 193.272 49.4988 193.438 48.6425 193.514C33.7703 194.203 24.5244 177.596 19.0015 167.673C18.2582 166.338 17.6172 165.186 17.0361 164.212L17.387 164.065C17.9696 165.042 18.6126 166.197 19.3563 167.533C24.838 177.381 34.0078 193.858 48.6108 193.185C49.3764 193.117 50.3033 192.974 51.2289 192.684C49.2945 191.287 47.9854 189.245 48.6598 187.245C48.9342 186.43 49.5254 185.741 50.2817 185.356C51.0548 184.963 52.0099 184.89 52.9736 185.151C54.0611 185.446 54.9609 186.117 55.3796 186.945C56.1233 188.416 55.569 190.332 54.0317 191.605C53.4178 192.113 52.7128 192.492 51.9879 192.774C52.3467 192.999 52.7215 193.201 53.1049 193.376C61.5102 197.222 71.8209 198.294 80.7993 198.834C97.7385 199.855 114.88 199.245 131.455 198.654L135.633 198.506C136.765 198.467 138.345 198.47 140.347 198.476C151.605 198.509 175.025 198.566 180.894 190.113C182.899 186.995 182.147 182.615 181.421 178.379C180.931 175.527 180.468 172.833 180.951 170.814C182.537 164.18 188.455 158.624 199.027 153.854C198.334 150.587 198.665 147.221 200.022 143.803C201.661 139.672 204.791 135.59 209.074 132C213.637 128.173 218.897 124.877 223.984 121.689L224.086 121.625L224.32 121.889L224.219 121.953C219.143 125.134 213.894 128.423 209.351 132.232C199.254 140.698 198.431 148.635 199.424 153.677C199.697 153.555 199.974 153.434 200.253 153.313C202.913 152.167 205.794 151.053 208.835 150.673C211.786 150.304 214.534 150.744 216.57 151.909C219.283 153.461 220.634 156.206 220.096 159.071C219.546 161.991 217.217 164.295 214.017 165.081C210.45 165.959 207.48 164.753 205.617 163.588C203.362 162.177 201.432 160.019 200.323 157.669C199.784 156.525 199.377 155.366 199.102 154.193C188.709 158.903 182.891 164.369 181.335 170.878C180.866 172.842 181.324 175.509 181.808 178.332C182.51 182.421 183.306 187.055 181.236 190.273C175.25 198.896 151.68 198.836 140.346 198.804C138.348 198.799 136.773 198.795 135.649 198.835L131.472 198.982C121.352 199.344 111.021 199.712 100.651 199.712ZM51.8511 185.326C51.3579 185.326 50.8917 185.431 50.486 185.638C49.8132 185.98 49.2855 186.599 49.0381 187.334C48.3916 189.251 49.7226 191.222 51.6402 192.545C52.3921 192.271 53.1269 191.893 53.7577 191.37C55.1828 190.19 55.7019 188.423 55.0197 187.074C54.6445 186.331 53.8353 185.73 52.854 185.464C52.5141 185.372 52.1769 185.326 51.8511 185.326ZM199.495 154.018C199.813 155.476 200.276 156.673 200.689 157.548C202.834 162.096 208.193 166.171 213.908 164.766C216.961 164.016 219.184 161.814 219.709 159.02C220.224 156.283 218.937 153.662 216.35 152.182C214.396 151.064 211.748 150.644 208.893 151C205.908 151.373 203.063 152.473 200.433 153.607C200.117 153.743 199.804 153.881 199.495 154.018Z" fill="white"/>
<path d="M189.733 203.498C186.456 203.498 182.95 203.341 179.221 203.027C175.064 202.754 170.843 202.089 166.373 201.385C157.704 200.02 147.878 198.474 134.421 199.008L134.402 198.678C147.905 198.14 157.754 199.692 166.443 201.061C170.902 201.763 175.114 202.426 179.255 202.698C194.504 203.983 220.412 203.543 222.663 186.167C224.17 174.529 204.71 150.893 194.254 138.194C190.541 133.684 187.845 130.41 187.229 129.119C186.611 128.727 186.015 128.29 185.447 127.812C176.604 119.96 180.501 113.396 185.014 105.796C187.26 102.013 189.582 98.1009 190.619 93.6245L190.998 93.6882C189.952 98.2096 187.617 102.142 185.359 105.945C180.913 113.433 177.073 119.9 185.722 127.579C186.123 127.917 186.538 128.233 186.965 128.527C185.349 124.814 184.77 121.731 185.144 118.864C185.61 115.288 188.265 110.889 192.991 109.682C195.407 109.065 197.761 109.372 199.798 110.57C203.226 112.588 205.025 116.561 205.286 119.603C205.589 123.115 204.265 126.708 201.832 128.98C200.076 130.619 197.802 131.504 195.257 131.537C192.779 131.569 190.21 130.849 187.878 129.512C188.822 131.022 191.3 134.032 194.572 138.004C205.792 151.633 224.572 174.441 223.048 186.203C222.572 189.88 220.615 195.039 213.998 198.733C208.319 201.904 200.183 203.498 189.733 203.498ZM187.549 128.911C189.954 130.419 192.679 131.242 195.252 131.207C197.688 131.174 199.865 130.327 201.547 128.756C203.91 126.55 205.195 123.052 204.9 119.627C204.646 116.663 202.901 112.798 199.578 110.842C197.615 109.686 195.436 109.402 193.102 109.998C188.544 111.162 185.981 115.428 185.528 118.9C185.145 121.842 185.787 125.024 187.549 128.911Z" fill="white"/>
<path d="M139.275 199.59L129.241 199.93C128.656 199.95 128.163 199.561 128.14 199.061C128.116 198.561 128.572 198.14 129.157 198.12L139.191 197.78C139.777 197.76 140.27 198.149 140.293 198.649C140.316 199.149 139.861 199.57 139.275 199.59Z" fill="white"/>
<path d="M19.6901 168.116L18.9059 168.502C18.179 168.86 17.2992 168.561 16.9414 167.834L9.80574 153.347C9.44749 152.62 9.74659 151.741 10.4735 151.383L11.2577 150.997C11.9846 150.638 12.8644 150.938 13.2221 151.664L20.3578 166.151C20.7161 166.878 20.4175 167.758 19.6901 168.116Z" fill="white"/>
<path d="M18.5244 162.588L15.2334 164.209C14.5609 164.54 13.7469 164.263 13.4156 163.591L6.18295 148.907C5.85167 148.234 6.12852 147.42 6.80101 147.089L10.092 145.468C10.7645 145.137 11.5785 145.414 11.9098 146.086L19.1425 160.77C19.4737 161.443 19.1969 162.257 18.5244 162.588Z" fill="white"/>
<path d="M37.3495 145.597L-0.00611496 69.7577C-0.916649 67.9096 -3.15276 67.1491 -5.0008 68.0596L-35.0215 82.8468V117.389L-9.70965 168.777C-8.79912 170.625 -6.56301 171.385 -4.71496 170.475L35.6515 150.592C37.4995 149.681 38.2595 147.445 37.3495 145.597Z" fill="#FF5C7B"/>
<path d="M-3.65251 73.0208L-35.0215 88.4719V106.724L-9.26669 159.011L29.3373 139.996L-3.65251 73.0208Z" fill="#D4D4FF"/>
<path d="M7.0766 159.128C6.91712 159.128 6.75716 159.101 6.60146 159.048C6.22948 158.921 5.9285 158.658 5.75529 158.305L5.70418 158.202C5.34545 157.473 5.64597 156.589 6.37383 156.231L17.6003 150.701C17.9533 150.527 18.3523 150.501 18.7247 150.628C19.0967 150.755 19.3977 151.018 19.5709 151.371L19.6225 151.475C19.7957 151.828 19.8217 152.227 19.6949 152.599C19.5681 152.971 19.3045 153.272 18.9519 153.445L7.72543 158.975C7.52051 159.077 7.29951 159.128 7.0766 159.128ZM18.2501 151.022C18.0991 151.022 17.9486 151.057 17.809 151.126L6.58253 156.655C6.08893 156.899 5.88496 157.498 6.12821 157.992L6.17932 158.096C6.42304 158.59 7.02218 158.794 7.51625 158.551L18.7427 153.021C19.2368 152.778 19.4408 152.179 19.1975 151.685L19.1459 151.58C19.0286 151.34 18.8241 151.162 18.5719 151.076C18.4668 151.04 18.358 151.022 18.2501 151.022Z" fill="#602F55"/>
<path d="M-33.3272 87.6372L-35.0215 88.472V106.066L2.45716 153.236L14.1985 147.453L-33.3272 87.6372Z" fill="white"/>
<path d="M-13.8137 78.0259L-22.124 82.1195L25.4017 141.935L29.3378 139.996L19.4104 119.842L-13.8137 78.0259Z" fill="white"/>
<path d="M-30.2578 86.1256L17.2675 145.942L20.0885 144.552L-27.4368 84.7361L-30.2578 86.1256Z" fill="white"/>
<path d="M29.2339 139.796L-9.375 158.804L-9.16618 159.228L29.4428 140.22L29.2339 139.796Z" fill="#602F55"/>
<path d="M18.4249 162.368L15.1338 163.989L15.3427 164.413L18.6338 162.792L18.4249 162.368Z" fill="#602F55"/>
<path d="M193.929 57.8562C194.864 52.8628 191.573 48.0576 186.58 47.1234C181.586 46.1892 176.781 49.4799 175.847 54.4733C174.913 59.4667 178.203 64.2719 183.197 65.2061C188.19 66.1403 192.995 62.8496 193.929 57.8562Z" fill="#FFC549"/>
<path d="M187.58 62.6325C187.728 62.5707 187.872 62.5026 188.013 62.4319C184.554 63.6149 180.722 61.93 179.289 58.5084C177.856 55.0867 179.343 51.1744 182.613 49.5393C182.464 49.5906 182.315 49.6448 182.167 49.7066C178.597 51.2017 176.916 55.3067 178.411 58.8762C179.906 62.4457 184.011 64.1276 187.58 62.6325Z" fill="#F9B130"/>
<path d="M184.874 63.3674C183.95 63.3674 183.027 63.187 182.146 62.827C180.368 62.0988 178.98 60.7212 178.238 58.9491C176.706 55.2906 178.436 51.0673 182.094 49.5348C183.867 48.7923 185.822 48.7844 187.601 49.513C189.379 50.2413 190.767 51.6185 191.509 53.3909C192.251 55.1633 192.259 57.1187 191.531 58.8968C190.802 60.6748 189.425 62.0628 187.653 62.805C186.757 63.1799 185.815 63.3674 184.874 63.3674ZM184.873 49.3465C183.98 49.3465 183.087 49.5243 182.239 49.8794C178.77 51.3326 177.131 55.3359 178.583 58.8043C179.287 60.4843 180.603 61.79 182.289 62.4805C183.974 63.171 185.828 63.1635 187.508 62.4599C189.188 61.756 190.494 60.4405 191.184 58.7549C191.874 57.0693 191.867 55.2157 191.163 53.5358C190.459 51.8554 189.144 50.5497 187.458 49.8592C186.624 49.5172 185.748 49.3465 184.873 49.3465Z" fill="#602F55"/>
<path d="M185.889 52.7391L188.6 55.9366L189.138 54.6417L190.027 54.9647L189.326 57.1394L188.529 57.8157L184.707 53.3079L183.827 53.9846L183.24 53.293L186.072 50.8926L186.637 51.5598L185.898 52.2713C185.821 52.3458 185.779 52.418 185.774 52.488C185.768 52.5576 185.807 52.6414 185.889 52.7391Z" fill="white"/>
<path d="M185.348 60.6944C184.116 61.7381 182.744 61.368 181.231 59.5836C180.426 58.6342 179.997 57.8026 179.942 57.0897C179.887 56.376 180.175 55.7525 180.804 55.2192C181.433 54.6856 182.088 54.5063 182.767 54.6807C183.446 54.8551 184.177 55.4037 184.959 56.3259C185.741 57.248 186.152 58.0788 186.192 58.819C186.231 59.5589 185.95 60.1839 185.348 60.6944ZM182.476 55.8637C182.085 55.7155 181.743 55.7652 181.45 56.0137C181.157 56.2622 181.052 56.5976 181.136 57.0208C181.22 57.4437 181.564 58.0122 182.168 58.7255C182.773 59.4388 183.272 59.871 183.666 60.0219C184.06 60.173 184.406 60.1218 184.704 59.8692C185.003 59.6162 185.101 59.2737 185.001 58.8415C184.9 58.4096 184.552 57.8419 183.957 57.1395C183.361 56.4374 182.867 56.0122 182.476 55.8637Z" fill="white"/>
<path d="M237.384 34.2803L219.798 26.0429C218.793 25.5725 218.36 24.3766 218.831 23.3714L223.251 13.9348C223.721 12.93 224.917 12.497 225.922 12.9679L243.509 21.2053C244.514 21.6757 244.947 22.8716 244.476 23.8763L240.055 33.313C239.585 34.3181 238.389 34.7512 237.384 34.2803Z" fill="white"/>
<path d="M212.016 183.148C213.484 187.515 216.204 191.515 220.112 194.557C230.702 202.802 245.97 200.901 254.215 190.311C255.941 188.093 257.217 185.669 258.067 183.148H212.016V183.148Z" fill="white"/>
<path d="M217.084 183.148C218.344 186.069 220.335 188.725 223.023 190.817C231.548 197.454 243.839 195.924 250.475 187.399C251.516 186.063 252.355 184.633 252.999 183.148H217.084Z" fill="#FFC549"/>
<path d="M36.6215 95.2934C36.5424 95.823 36.403 96.3518 36.1989 96.8705C36.0719 97.1934 35.9212 97.5087 35.7509 97.8084L35.431 97.6265C35.5927 97.3422 35.7362 97.0426 35.8566 96.7362C37.2401 93.2164 35.5032 89.2326 31.986 87.8498C30.2823 87.1799 28.4194 87.2137 26.7408 87.9446C25.0621 88.6758 23.7689 90.0167 23.0992 91.7205C21.7164 95.2384 23.453 99.2241 26.9699 100.607C27.92 100.98 28.9138 101.136 29.9248 101.07L29.9492 101.436C28.8838 101.507 27.8362 101.343 26.8356 100.949C23.1296 99.4917 21.2999 95.2904 22.7574 91.5858C23.4634 89.7906 24.8257 88.3775 26.5941 87.6076C28.3625 86.8373 30.3253 86.8017 32.1206 87.5076C35.3069 88.7604 37.1066 92.042 36.6215 95.2934Z" fill="white"/>
<path d="M35.3068 88.7151L35.0398 88.9677C34.3941 88.285 33.6335 87.7316 32.7789 87.3232C30.8577 86.4052 28.7053 86.3219 26.7187 87.09L26.5863 86.7474C28.6683 85.9426 30.9242 86.0294 32.9372 86.9919C33.8332 87.4195 34.6303 87.9992 35.3068 88.7151Z" fill="white"/>
<path d="M37.416 95.4022C37.2993 96.1845 37.0649 96.9536 36.7139 97.6875C35.7901 99.6204 34.1689 101.078 32.1488 101.792C30.1287 102.505 27.9511 102.389 26.0185 101.465C24.0856 100.541 22.6282 98.9197 21.9145 96.8996C21.2011 94.8799 21.3168 92.7022 22.2409 90.7693C22.4073 90.4214 22.5992 90.0841 22.8117 89.7657L23.1171 89.9696C22.9143 90.2734 22.7312 90.5961 22.5722 90.9276C21.6906 92.7721 21.5802 94.8491 22.2613 96.777C22.9416 98.7045 24.3327 100.252 26.1769 101.133C28.021 102.015 30.0987 102.126 32.0263 101.444C33.9537 100.764 35.5012 99.373 36.3824 97.5288C37.2636 95.6842 37.3748 93.6069 36.6937 91.679C36.0133 89.7516 34.6223 88.2041 32.7781 87.3229C31.7493 86.8313 30.6544 86.5791 29.5234 86.5731L29.5255 86.2056C30.711 86.2119 31.8587 86.4764 32.9364 86.9917C34.8693 87.9155 36.327 89.5368 37.0404 91.5572C37.4836 92.8102 37.6068 94.1239 37.416 95.4022Z" fill="white"/>
<path d="M32.9744 75.0196C32.718 74.8257 32.4749 74.6545 32.2424 74.5017L32.8768 71.0768L32.3526 70.3635L32.5486 69.294L31.5681 68.0634L33.117 59.5669L34.2618 58.6784L33.3745 57.8786L33.4851 57.2746L34.882 56.5139L33.8182 55.0789L33.9494 54.362L34.9186 53.6783L34.1015 52.4952L34.2695 51.5783L35.888 50.5482L33.6177 46.6654L32.9688 46.5467L32.8086 47.4209L30.3942 49.1288L25.9532 73.3779C22.4074 74.0394 19.466 76.8162 18.7777 80.5753C17.8858 85.4448 21.1105 90.1154 25.98 91.0073C30.8495 91.8992 35.5202 88.6744 36.412 83.805C37.0454 80.3494 35.6039 76.9956 32.9744 75.0196ZM24.8552 85.892C25.0572 84.7899 26.114 84.0602 27.2157 84.2621C28.3177 84.4641 29.0474 85.5209 28.8455 86.6226C28.6435 87.7246 27.5868 88.4543 26.4847 88.2523C25.383 88.0504 24.6533 86.9937 24.8552 85.892Z" fill="#979EED"/>
<path d="M27.8543 73.2423L28.2158 73.3081L32.925 47.4458L32.5634 47.38L27.8543 73.2423Z" fill="#602F55"/>
<path d="M26.8022 73.3351L27.1641 73.4014L31.6552 48.8755L31.2933 48.8092L26.8022 73.3351Z" fill="#602F55"/>
<path d="M31.4273 74.3252L31.7891 74.3921L32.5279 70.3959L32.1661 70.329L31.4273 74.3252Z" fill="#602F55"/>
<path d="M32.3317 74.4277L32.1383 74.7399C30.9498 74.0038 29.6359 73.5729 28.2326 73.4597C27.4789 73.3989 26.7238 73.4342 25.9871 73.565L25.9229 73.2036C26.6904 73.0673 27.4774 73.0301 28.262 73.0937C29.7244 73.2115 31.0935 73.6607 32.3317 74.4277Z" fill="#602F55"/>
<path d="M29.8325 86.7037C29.6007 88.2572 28.1961 89.3906 26.6081 89.2625C24.9512 89.1286 23.712 87.6718 23.8458 86.0149C23.9095 85.2147 24.2836 84.4828 24.898 83.961C25.5113 83.4394 26.2913 83.1875 27.0942 83.2527C27.8968 83.3178 28.6259 83.6908 29.1474 84.3044C29.669 84.9177 29.9209 85.6977 29.8561 86.5003C29.8504 86.5689 29.8425 86.6365 29.8325 86.7037ZM24.2331 85.8627C24.2241 85.9227 24.217 85.9829 24.2123 86.0439C24.0948 87.4989 25.1829 88.7786 26.6376 88.8957C28.0923 89.0132 29.372 87.9222 29.4898 86.4705C29.5466 85.7656 29.3259 85.0805 28.8678 84.5421C28.4098 84.0034 27.7691 83.6755 27.0645 83.6187C26.3596 83.5615 25.6745 83.7825 25.1361 84.2406C24.6438 84.6591 24.3275 85.2299 24.2331 85.8627Z" fill="#602F55"/>
<path d="M24.3502 74.4408C24.0294 74.4197 23.7324 74.4103 23.4541 74.41L20.6983 67.8991L19.8688 67.591L19.4449 66.5895L17.9495 66.1L15.9813 61.4499L16.4497 60.0785L15.2691 59.8975L15.0298 59.3319L15.7794 57.9292L14.1024 57.3145L13.8183 56.6434L14.2528 55.5396L12.9202 54.9997L12.5571 54.1414L13.3436 52.3916L9.31347 50.3939L8.70621 50.6511L9.05263 51.4697L7.97332 54.2233L17.5828 76.9258C14.9832 79.4262 14.0508 83.3622 15.5403 86.8818C17.47 91.441 22.7302 93.5724 27.2894 91.6427C31.8482 89.7129 33.98 84.4528 32.0502 79.8937C30.68 76.6579 27.6332 74.6471 24.3502 74.4408ZM23.5381 87.9855C23.1016 86.9539 23.5839 85.7636 24.6155 85.3271C25.6471 84.8906 26.8374 85.3729 27.2739 86.4045C27.7104 87.4361 27.2281 88.6264 26.1965 89.0629C25.1653 89.4995 23.975 89.0172 23.5381 87.9855Z" fill="#FFC549"/>
<path d="M31.7725 84.5823C31.6789 85.2096 31.5102 85.8295 31.2661 86.4322C30.4585 88.4256 28.9227 89.9853 26.9419 90.8238C22.8531 92.5543 18.119 90.6359 16.388 86.5474C15.1534 83.6306 15.7491 80.2456 17.9053 77.9247L18.0081 77.8137L18.9283 78.3853L24.4033 76.0676L24.5593 75.3886L24.7226 75.4074C27.6012 75.741 30.0903 77.6042 31.2183 80.2699C31.8033 81.6514 31.9884 83.1349 31.7725 84.5823ZM16.2048 82.274C16 83.6466 16.1647 85.0757 16.7268 86.4036C18.3786 90.3056 22.8969 92.1365 26.7989 90.4848C28.6892 89.6848 30.1546 88.196 30.926 86.2938C31.6958 84.3917 31.6805 82.3027 30.8805 80.4124C29.8253 77.9188 27.5222 76.161 24.8438 75.7926L24.7198 76.3322L18.897 78.7968L18.073 78.2852C17.0559 79.4239 16.4222 80.8172 16.2048 82.274Z" fill="#602F55"/>
<path d="M25.7395 78.9893C25.6759 79.4149 25.399 79.7991 24.9746 79.9788L20.9175 81.6962C20.6034 81.8288 20.2563 81.832 19.9403 81.7038C19.6242 81.5757 19.3767 81.3321 19.244 81.018C19.1114 80.704 19.1075 80.3567 19.2367 80.0412C19.3649 79.7251 19.608 79.4779 19.9221 79.3449L23.9792 77.6275C24.6273 77.353 25.3778 77.6575 25.6523 78.3056C25.7468 78.5292 25.7729 78.765 25.7395 78.9893ZM19.5194 80.3877C19.495 80.5513 19.5161 80.7186 19.582 80.8745C19.6769 81.0982 19.8528 81.2716 20.0777 81.3628C20.303 81.454 20.5504 81.4523 20.7737 81.3574L24.8308 79.64C25.0546 79.5452 25.2279 79.3693 25.3187 79.1443C25.4099 78.9193 25.4082 78.6719 25.3133 78.4486C25.2184 78.2252 25.0426 78.0515 24.8176 77.9603C24.5923 77.8691 24.3453 77.8709 24.122 77.9658L20.0645 79.6831C19.8411 79.778 19.6674 79.9538 19.5762 80.1788C19.549 80.2468 19.53 80.3168 19.5194 80.3877Z" fill="#602F55"/>
<path d="M8.82742 51.5673L19.3916 76.5269L19.73 76.3836L9.16585 51.424L8.82742 51.5673Z" fill="#602F55"/>
<path d="M8.56495 53.491L18.4785 76.9133L18.817 76.7701L8.90339 53.3477L8.56495 53.491Z" fill="#602F55"/>
<path d="M17.7775 66.1701L21.7402 75.5327L22.0787 75.3895L18.1159 66.0269L17.7775 66.1701Z" fill="#602F55"/>
<path d="M19.6922 67.6629L22.8281 75.072L23.1666 74.9288L20.0306 67.5197L19.6922 67.6629Z" fill="#602F55"/>
<path d="M26.7184 87.0897C24.8904 87.796 23.4185 89.159 22.5727 90.9275C22.1879 91.734 21.9498 92.5895 21.8605 93.4672L21.4951 93.4309C21.5861 92.5074 21.838 91.6134 22.2415 90.7692C23.1279 88.9153 24.6705 87.4868 26.586 86.747L26.7184 87.0897Z" fill="white"/>
<path d="M171.221 227.106L151.828 226.097C150.72 226.039 149.868 225.094 149.926 223.986L150.467 213.579C150.525 212.471 151.47 211.62 152.578 211.678L171.972 212.687C173.08 212.745 173.931 213.69 173.873 214.798L173.332 225.204C173.274 226.313 172.329 227.164 171.221 227.106Z" fill="white"/>
<path d="M168.619 227.342L154.391 226.601C154.191 226.59 154.037 226.42 154.048 226.22L154.799 211.785C154.809 211.585 154.98 211.432 155.18 211.442L169.408 212.183C169.608 212.193 169.762 212.363 169.751 212.564L169 226.998C168.99 227.198 168.819 227.352 168.619 227.342Z" fill="#FF5C7B"/>
<path d="M158.471 219.469C158.342 219.521 158.203 219.545 158.06 219.537L156.632 219.463C156.104 219.436 155.696 218.983 155.724 218.455L155.965 213.819C155.978 213.564 156.091 213.328 156.281 213.156C156.47 212.984 156.717 212.898 156.973 212.911L158.401 212.985C158.656 212.998 158.892 213.111 159.064 213.301C159.236 213.491 159.323 213.738 159.309 213.994L159.069 218.629C159.055 218.885 158.942 219.121 158.753 219.292C158.668 219.368 158.573 219.427 158.471 219.469ZM156.74 213.418C156.688 213.439 156.64 213.469 156.598 213.508C156.501 213.595 156.444 213.714 156.438 213.844L156.196 218.48C156.183 218.748 156.389 218.977 156.656 218.991L158.085 219.065C158.214 219.072 158.34 219.028 158.435 218.941C158.532 218.854 158.588 218.735 158.595 218.605L158.836 213.969C158.843 213.839 158.799 213.714 158.712 213.618C158.625 213.522 158.506 213.465 158.376 213.458L156.949 213.384C156.876 213.38 156.805 213.392 156.74 213.418Z" fill="#602F55"/>
<path d="M148.737 189.284C148.691 188.957 148.762 188.627 148.942 188.344C149.144 188.026 149.459 187.806 149.827 187.726L177.073 181.843C177.438 181.764 177.812 181.832 178.126 182.035C178.441 182.237 178.657 182.55 178.736 182.915L179.207 185.095L178.282 185.295L177.811 183.115C177.785 182.997 177.715 182.896 177.613 182.83C177.512 182.765 177.391 182.743 177.273 182.768L150.028 188.652C149.908 188.678 149.807 188.749 149.741 188.852C149.676 188.955 149.657 189.077 149.682 189.195C149.736 189.434 149.974 189.586 150.213 189.538L158.387 187.868L158.576 188.796L150.403 190.465C149.665 190.616 148.927 190.141 148.759 189.407C148.75 189.365 148.742 189.325 148.737 189.284Z" fill="white"/>
<path d="M184.114 184.785C182.823 185.047 179.983 185.623 176.188 186.395L177.229 191.211C181.004 190.349 183.828 189.701 185.112 189.407C185.537 189.309 185.804 188.889 185.712 188.463L185.05 185.398C184.958 184.972 184.542 184.699 184.114 184.785Z" fill="white"/>
<path d="M65.447 213.555L61.687 214.367C61.3033 214.45 60.9258 214.206 60.8426 213.823C60.7598 213.439 61.0034 213.062 61.387 212.979L65.147 212.167C65.5306 212.084 65.9082 212.328 65.9914 212.711C66.0741 213.095 65.8301 213.473 65.447 213.555Z" fill="#FFC549"/>
<path d="M85.1119 204.24C74.0359 207.089 63.2153 212.332 63.2153 212.332L63.6196 214.203C63.6196 214.203 75.6392 214.514 86.9042 212.539C97.3917 210.7 171.525 193.716 181.706 191.381C182.348 191.234 182.752 190.598 182.612 189.953L181.612 185.32C181.473 184.676 180.842 184.263 180.196 184.394C169.96 186.467 95.4242 201.587 85.1119 204.24Z" fill="#979EED"/>
<path d="M112.01 198.389C111.562 198.483 111.118 198.576 110.677 198.669L112.49 207.064C112.929 206.967 113.373 206.868 113.819 206.769L112.01 198.389Z" fill="white"/>
<path d="M109.449 198.926C108.337 199.159 107.245 199.389 106.179 199.614L108.003 208.06C109.067 207.825 110.156 207.583 111.265 207.337L109.449 198.926Z" fill="white"/>
<path d="M108.235 207.997L106.409 199.553L105.946 199.653L107.772 208.097L108.235 207.997Z" fill="#602F55"/>
<path d="M176.404 192.6L174.891 185.468L174.427 185.567L175.941 192.698L176.404 192.6Z" fill="#602F55"/>
</g>
<path d="M167.228 174.782L59.3393 181.707C53.5427 182.08 48.5565 177.45 48.2019 171.367L39.3002 18.6338C38.9456 12.5508 43.3574 7.31809 49.1535 6.94595L157.042 0.020951C162.839 -0.351186 167.825 4.27866 168.18 10.3612L177.081 163.095C177.436 169.178 173.024 174.41 167.228 174.782Z" fill="#FFC549"/>
<path d="M162.465 8.34289L44.7324 15.9062L53.9173 173.361L171.65 165.798L162.465 8.34289Z" fill="white"/>
<path d="M162.465 8.34288L44.7324 15.9062L45.0312 21.0287L162.764 13.4654L162.465 8.34288Z" fill="#D4D4FF"/>
<path d="M117.327 173.341L108.711 173.89L108.738 174.354L117.353 173.805L117.327 173.341Z" fill="#602F55"/>
<path d="M103.349 9.40175C102.981 9.40175 102.63 9.2622 102.351 9.00449C102.049 8.72399 101.869 8.33697 101.845 7.91506C101.794 7.0438 102.428 6.29115 103.259 6.23812C104.096 6.18462 104.806 6.85029 104.857 7.72155C104.907 8.59328 104.273 9.34546 103.443 9.39849C103.412 9.40035 103.38 9.40175 103.349 9.40175ZM103.351 6.70003C103.33 6.70003 103.307 6.70096 103.286 6.7019C102.699 6.73957 102.251 7.27126 102.287 7.88668C102.304 8.18486 102.431 8.45791 102.645 8.65608C102.858 8.85377 103.134 8.95239 103.416 8.93471C104.002 8.89704 104.451 8.36581 104.415 7.74992C104.38 7.1573 103.909 6.70003 103.351 6.70003Z" fill="#602F55"/>
<path d="M162.465 8.16008L44.7207 15.6492L44.7475 16.1135L162.492 8.62441L162.465 8.16008Z" fill="#602F55"/>
<path d="M171.641 165.626L53.8965 173.115L53.9233 173.579L171.668 166.09L171.641 165.626Z" fill="#602F55"/>
<path d="M48.1196 17.2201L46.5352 19.0986L46.8667 19.4066L48.4512 17.5281L48.1196 17.2201Z" fill="#602F55"/>
<path d="M46.7427 17.2997L46.4492 17.6477L48.2395 19.3102L48.5329 18.9622L46.7427 17.2997Z" fill="#602F55"/>
<path d="M158.863 48.2534L56.6758 54.7637L56.7026 55.228L158.89 48.7177L158.863 48.2534Z" fill="#602F55"/>
<path d="M159.632 61.4457L57.4443 67.9561L57.4712 68.4204L159.659 61.9101L159.632 61.4457Z" fill="#602F55"/>
<path d="M160.4 74.645L58.2129 81.1445L58.2397 81.6089L160.427 75.1093L160.4 74.645Z" fill="#602F55"/>
<path d="M161.168 87.8383L58.9814 94.3379L59.0083 94.8022L161.195 88.3027L161.168 87.8383Z" fill="#602F55"/>
<path d="M161.939 101.028L59.752 107.538L59.7788 108.002L161.966 101.492L161.939 101.028Z" fill="#602F55"/>
<path d="M162.707 114.226L60.5195 120.725L60.5463 121.189L162.733 114.69L162.707 114.226Z" fill="#602F55"/>
<path d="M163.476 127.42L61.2881 133.919L61.3149 134.384L163.502 127.884L163.476 127.42Z" fill="#602F55"/>
<path d="M164.246 140.609L62.0586 147.119L62.0855 147.583L164.272 141.073L164.246 140.609Z" fill="#602F55"/>
<path d="M165.013 153.807L62.8262 160.307L62.853 160.771L165.04 154.271L165.013 153.807Z" fill="#602F55"/>
<path d="M77.1641 41.4446C76.717 41.4733 76.4217 41.4596 76.2782 41.4033C76.1347 41.3471 76.0304 41.2415 75.9653 41.0867L72.3811 32.7595C72.3708 32.5825 72.6895 32.3562 73.3373 32.0808C73.9943 31.8048 74.6628 31.645 75.3428 31.6013C76.2183 31.5451 76.7 31.79 76.7879 32.3362L77.5209 36.7362L77.7165 36.7236L77.8497 32.268C77.8643 31.7152 78.477 31.4 79.6878 31.3222C80.1535 31.2923 80.4693 31.3375 80.6353 31.4578C80.8007 31.5687 80.8986 31.7261 80.9292 31.9299L81.6564 36.4705L81.852 36.458L81.9573 32.0042C81.9695 31.7321 82.2742 31.5068 82.8715 31.3282C83.4781 31.1489 84.0794 31.0402 84.6755 31.0019C85.2809 30.963 85.6959 31.0252 85.9205 31.1885C86.1543 31.3511 86.2769 31.5303 86.2883 31.726L83.8031 40.5833C83.7175 40.8787 83.0367 41.0674 81.7606 41.1494C81.3788 41.1739 81.1207 41.1578 80.9865 41.1009C80.8523 41.0441 80.7573 40.9379 80.7015 40.7825L79.8334 38.3973L79.6657 38.4081L79.0669 40.8875C78.9999 41.1818 78.3656 41.3675 77.1641 41.4446ZM90.8629 33.312L91.2642 40.2023C91.2702 40.3048 91.005 40.406 90.4685 40.5059C89.9409 40.5959 89.393 40.6592 88.8248 40.6957C88.266 40.7316 87.9014 40.7316 87.731 40.6958C87.5694 40.65 87.4851 40.5666 87.478 40.4455L87.0914 33.8067C87.0795 33.6018 87.3286 33.3847 87.8388 33.1555C88.3578 32.9164 88.9293 32.7768 89.5533 32.7368C90.4009 32.6823 90.8374 32.8741 90.8629 33.312ZM88.7488 29.7582C89.3635 29.7188 89.8486 29.7811 90.2041 29.9453C90.5684 30.0996 90.7643 30.4144 90.792 30.8896C90.8408 31.7282 90.2133 32.1893 88.9093 32.2731C87.6053 32.3568 86.9289 31.9794 86.88 31.1409C86.8312 30.3023 87.4541 29.8414 88.7488 29.7582ZM96.1336 40.3525C94.5875 40.4518 93.4471 40.3754 92.7126 40.1233C92.3401 39.9882 92.1495 39.8462 92.1408 39.6971C92.1186 39.3151 92.2043 38.8606 92.398 38.3338C92.5917 37.807 92.7724 37.5382 92.94 37.5274C93.0332 37.5215 93.3512 37.6039 93.894 37.7748C94.4462 37.9451 94.9039 38.0186 95.2671 37.9952C95.6397 37.9713 95.8805 37.9325 95.9896 37.8787C96.1079 37.8243 96.1633 37.7319 96.1557 37.6015C96.1476 37.4617 96.0482 37.3605 95.8576 37.298C95.6664 37.2261 95.4303 37.1851 95.1493 37.1751C94.8682 37.1651 94.5622 37.1286 94.2314 37.0657C93.9098 37.0022 93.6055 36.9142 93.3185 36.8017C93.0315 36.6892 92.7861 36.4899 92.5825 36.2037C92.3783 35.9081 92.2662 35.588 92.2461 35.2433C92.2255 34.8892 92.2196 34.6277 92.2284 34.4588C92.2368 34.2806 92.2972 34.0335 92.4097 33.7177C92.5309 33.3919 92.7069 33.1234 92.9377 32.9122C93.1778 32.7004 93.5494 32.4988 94.0524 32.3075C94.5648 32.1156 95.1423 31.999 95.785 31.9577C96.4277 31.9164 96.9646 31.9053 97.3957 31.9244C97.8357 31.9336 98.1786 31.963 98.4246 32.0126C98.6799 32.0617 98.8891 32.1231 99.0523 32.1968C99.3306 32.3192 99.4746 32.4643 99.4844 32.632C99.5055 32.9954 99.3996 33.423 99.1664 33.915C98.9333 34.4069 98.7376 34.658 98.5792 34.6681C98.4302 34.6777 98.0949 34.6198 97.5734 34.4943C97.0514 34.3594 96.6693 34.2998 96.4271 34.3154C96.0359 34.3405 95.8468 34.4649 95.8599 34.6885C95.868 34.8283 96.0046 34.927 96.2698 34.9848C96.5437 35.0327 96.8691 35.0819 97.246 35.1326C97.6229 35.1832 98.0017 35.2664 98.3824 35.3822C98.7719 35.4881 99.1073 35.7098 99.3888 36.0471C99.6795 36.3838 99.8406 36.8224 99.8721 37.3628C99.9784 39.189 98.7323 40.1856 96.1336 40.3525ZM105.388 39.2951L105.162 35.4097C105.121 34.7109 105.064 34.2049 104.989 33.8917C104.915 33.5785 104.771 33.4288 104.557 33.4425C104.37 33.4545 104.284 33.5862 104.299 33.8378L104.62 39.3445C104.626 39.447 104.361 39.5482 103.824 39.6481C103.287 39.7387 102.735 39.8023 102.166 39.8388C101.598 39.8752 101.238 39.875 101.087 39.838C100.934 39.7916 100.855 39.7079 100.848 39.5868L100.284 29.9012C100.272 29.7055 100.531 29.4925 101.06 29.2621C101.589 29.0318 102.151 28.8974 102.747 28.8592C103.371 28.8191 103.774 28.9101 103.955 29.1323C104.015 29.2032 104.048 29.2806 104.053 29.3645L104.172 31.419L104.075 32.3933L104.173 32.387C104.292 32.1829 104.486 31.9974 104.757 31.8304C105.262 31.5173 105.823 31.3411 106.437 31.3016C107.322 31.2448 107.935 31.4907 108.275 32.0393C108.624 32.578 108.836 33.481 108.91 34.7481L109.16 39.0528C109.166 39.1553 108.897 39.2568 108.351 39.3574C107.814 39.448 107.261 39.5115 106.693 39.548C106.134 39.5839 105.779 39.5833 105.627 39.5463C105.475 39.5 105.395 39.4163 105.388 39.2951ZM114.54 39.044C114.074 39.0739 113.761 39.0707 113.6 39.0343C113.438 38.9885 113.354 38.9051 113.347 38.784L112.841 30.0907C112.829 29.8857 113.087 29.668 113.616 29.4377C114.144 29.198 114.744 29.0566 115.414 29.0135C116.01 28.9752 116.409 29.0759 116.61 29.3155C116.681 29.4045 116.719 29.4956 116.724 29.5888L117.085 35.7803C118.217 35.6327 119.071 35.5404 119.649 35.5033C119.844 35.4908 119.96 35.7966 119.997 36.4209C120.032 37.0359 120.021 37.5697 119.964 38.0223C119.906 38.4749 119.807 38.7057 119.667 38.7147L114.54 39.044ZM124.317 31.1632L124.719 38.0536C124.725 38.1561 124.459 38.2573 123.923 38.3572C123.395 38.4472 122.847 38.5104 122.279 38.5469C121.72 38.5828 121.356 38.5829 121.186 38.547C121.024 38.5013 120.94 38.4179 120.933 38.2967L120.546 31.658C120.534 31.453 120.783 31.2359 121.293 31.0068C121.812 30.7677 122.384 30.6281 123.008 30.588C123.855 30.5336 124.292 30.7253 124.317 31.1632ZM122.203 27.6095C122.818 27.57 123.303 27.6324 123.659 27.7966C124.023 27.9509 124.219 28.2656 124.246 28.7408C124.295 29.5794 123.668 30.0406 122.364 30.1243C121.06 30.2081 120.383 29.8307 120.335 28.9921C120.286 28.1535 120.909 27.6927 122.203 27.6095ZM129.588 38.2037C128.042 38.3031 126.902 38.2267 126.167 37.9746C125.795 37.8395 125.604 37.6974 125.595 37.5483C125.573 37.1663 125.659 36.7119 125.853 36.1851C126.046 35.6583 126.227 35.3895 126.395 35.3787C126.488 35.3727 126.806 35.4552 127.349 35.626C127.901 35.7963 128.358 35.8698 128.722 35.8465C129.094 35.8226 129.335 35.7837 129.444 35.7299C129.562 35.6756 129.618 35.5832 129.61 35.4527C129.602 35.313 129.503 35.2118 129.312 35.1492C129.121 35.0773 128.885 35.0364 128.604 35.0264C128.323 35.0164 128.017 34.9799 127.686 34.917C127.364 34.8535 127.06 34.7655 126.773 34.653C126.486 34.5405 126.241 34.3411 126.037 34.0549C125.833 33.7594 125.721 33.4393 125.701 33.0945C125.68 32.7404 125.674 32.479 125.683 32.31C125.691 32.1318 125.752 31.8848 125.864 31.5689C125.985 31.2431 126.161 30.9747 126.392 30.7634C126.632 30.5516 127.004 30.35 127.507 30.1587C128.019 29.9668 128.597 29.8503 129.239 29.809C129.882 29.7677 130.419 29.7566 130.85 29.7757C131.29 29.7848 131.633 29.8142 131.879 29.8639C132.134 29.913 132.344 29.9743 132.507 30.048C132.785 30.1705 132.929 30.3155 132.939 30.4832C132.96 30.8466 132.854 31.2743 132.621 31.7662C132.388 32.2582 132.192 32.5092 132.034 32.5194C131.885 32.529 131.549 32.471 131.028 32.3455C130.506 32.2107 130.124 32.1511 129.882 32.1666C129.49 32.1918 129.301 32.3161 129.314 32.5397C129.323 32.6795 129.459 32.7783 129.724 32.8361C129.998 32.8839 130.324 32.9332 130.701 32.9838C131.077 33.0344 131.456 33.1176 131.837 33.2335C132.226 33.3394 132.562 33.561 132.843 33.8983C133.134 34.235 133.295 34.6736 133.327 35.214C133.433 37.0403 132.187 38.0368 129.588 38.2037ZM139.805 37.295C139.647 37.4642 139.269 37.5679 138.673 37.6062C138.077 37.6445 137.581 37.6389 137.186 37.5895C136.79 37.5308 136.408 37.3963 136.04 37.1861C135.334 36.7732 134.939 35.8447 134.854 34.4004L134.727 32.2201L134.029 32.265C133.926 32.2716 133.832 32.1701 133.745 31.9606C133.658 31.7511 133.603 31.46 133.582 31.0873C133.56 30.7146 133.597 30.3849 133.692 30.0982C133.797 29.8015 133.942 29.6472 134.128 29.6353L134.575 29.6066L134.477 27.9154C134.46 27.6266 134.726 27.3757 135.274 27.1628C135.832 26.9492 136.381 26.8251 136.921 26.7904C137.769 26.736 138.205 26.9184 138.229 27.3377L138.347 29.3643L139.381 29.2979C139.624 29.2823 139.765 29.6239 139.806 30.3228C139.832 30.7793 139.798 31.1603 139.704 31.4656C139.618 31.761 139.492 31.9141 139.324 31.9249L138.5 31.9778L138.649 34.5355C138.663 34.7871 138.781 34.9619 139.002 35.0599C139.222 35.1487 139.411 35.188 139.57 35.1778C139.737 35.167 139.844 35.2396 139.891 35.3956C139.937 35.5517 139.97 35.7881 139.988 36.1048C140.024 36.7291 139.963 37.1258 139.805 37.295Z" fill="#602F55"/>
</svg>
