<svg width="178" height="178" viewBox="0 0 178 178" fill="none" xmlns="http://www.w3.org/2000/svg">
<g filter="url(#filter0_d_217_3004)">
<circle cx="88.8273" cy="84.8273" r="68.8273" fill="white"/>
</g>
<path d="M117.325 123.828L65.6143 126.99C62.836 127.16 60.4461 125.046 60.2761 122.268L56.0096 52.5106C55.8396 49.7323 57.9542 47.3424 60.7322 47.1724L112.443 44.0096C115.221 43.8396 117.611 45.9542 117.781 48.7322L122.048 118.489C122.218 121.268 120.103 123.658 117.325 123.828Z" fill="#FFC549"/>
<path d="M115.042 47.8104L58.6133 51.2648L63.0156 123.178L119.445 119.724L115.042 47.8104Z" fill="white"/>
<path d="M115.042 47.8106L58.6133 51.265L58.7565 53.6045L115.186 50.1502L115.042 47.8106Z" fill="#D4D4FF"/>
<path d="M93.4078 123.169L89.2783 123.42L89.2912 123.632L93.4207 123.381L93.4078 123.169Z" fill="#602F55"/>
<path d="M86.7078 48.2939C86.5312 48.2939 86.363 48.2302 86.2295 48.1125C86.0846 47.9844 85.9986 47.8076 85.9867 47.6149C85.9625 47.217 86.2663 46.8732 86.6644 46.849C87.0658 46.8246 87.4059 47.1286 87.4303 47.5265C87.4546 47.9247 87.1508 48.2682 86.7526 48.2924C86.7377 48.2933 86.7227 48.2939 86.7078 48.2939ZM86.7088 47.06C86.6984 47.06 86.6878 47.0604 86.6774 47.0608C86.3963 47.078 86.1815 47.3209 86.1987 47.602C86.207 47.7381 86.2678 47.8629 86.3702 47.9534C86.4726 48.0437 86.6047 48.0887 86.7399 48.0806C87.0209 48.0634 87.2357 47.8208 87.2185 47.5395C87.2017 47.2688 86.9763 47.06 86.7088 47.06Z" fill="#602F55"/>
<path d="M115.042 47.727L58.6074 51.1474L58.6203 51.3595L115.055 47.939L115.042 47.727Z" fill="#602F55"/>
<path d="M119.441 119.645L63.0059 123.066L63.0187 123.278L119.454 119.858L119.441 119.645Z" fill="#602F55"/>
<path d="M60.236 51.8647L59.4766 52.7226L59.6355 52.8633L60.3949 52.0054L60.236 51.8647Z" fill="#602F55"/>
<path d="M59.5762 51.901L59.4355 52.0599L60.2936 52.8192L60.4343 52.6603L59.5762 51.901Z" fill="#602F55"/>
<path d="M78.6098 63.4683C78.3223 63.4859 78.1324 63.4765 78.04 63.44C77.9476 63.4036 77.8803 63.3356 77.8382 63.236L75.518 57.8777C75.511 57.7639 75.7156 57.6192 76.1316 57.4434C76.5537 57.2673 76.9833 57.1659 77.4205 57.1391C77.9834 57.1047 78.2936 57.263 78.3512 57.6141L78.8306 60.4431L78.9564 60.4354L79.0339 57.5724C79.0422 57.2172 79.4357 57.0158 80.2142 56.9681C80.5137 56.9498 80.7169 56.9794 80.8238 57.057C80.9304 57.1287 80.9937 57.23 81.0137 57.361L81.4897 60.2804L81.6154 60.2727L81.6749 57.4107C81.6823 57.2359 81.8779 57.0917 82.2616 56.9781C82.6514 56.864 83.0379 56.7953 83.4212 56.7718C83.8105 56.748 84.0775 56.7888 84.2222 56.8941C84.3729 56.9991 84.4521 57.1145 84.4597 57.2403L82.8777 62.9275C82.8232 63.1172 82.3857 63.2372 81.5652 63.2874C81.3197 63.3024 81.1537 63.2915 81.0673 63.2547C80.9809 63.218 80.9196 63.1496 80.8835 63.0496L80.3208 61.5151L80.213 61.5217L79.8324 63.1139C79.7899 63.3029 79.3823 63.421 78.6098 63.4683ZM87.4046 58.2683L87.6752 62.697C87.6793 62.7629 87.5089 62.8274 87.1641 62.8906C86.8249 62.9474 86.4727 62.987 86.1074 63.0094C85.748 63.0314 85.5136 63.0307 85.4039 63.0074C85.2999 62.9777 85.2455 62.9239 85.2408 62.846L84.98 58.579C84.9719 58.4472 85.1318 58.3082 85.4594 58.1619C85.7928 58.0093 86.16 57.9207 86.5613 57.8961C87.1063 57.8628 87.3874 57.9868 87.4046 58.2683ZM86.0385 55.9805C86.4337 55.9563 86.7458 55.9973 86.9747 56.1035C87.2092 56.2034 87.3358 56.406 87.3545 56.7114C87.3874 57.2504 86.9847 57.5456 86.1463 57.5969C85.3078 57.6482 84.8721 57.4044 84.8392 56.8654C84.8063 56.3264 85.206 56.0314 86.0385 55.9805ZM90.807 62.8029C89.8129 62.8638 89.0794 62.8125 88.6065 62.649C88.3667 62.5615 88.2439 62.4699 88.2381 62.374C88.223 62.1285 88.2773 61.8366 88.4009 61.4985C88.5245 61.1603 88.6402 60.9879 88.748 60.9813C88.8079 60.9776 89.0126 61.0312 89.362 61.1421C89.7174 61.2526 90.0119 61.3007 90.2454 61.2864C90.485 61.2717 90.6398 61.2472 90.7098 61.2129C90.7858 61.1782 90.8213 61.1189 90.8162 61.035C90.8107 60.9452 90.7466 60.88 90.6239 60.8394C90.5008 60.7929 90.3489 60.7661 90.1681 60.7591C89.9874 60.7521 89.7905 60.7281 89.5776 60.6871C89.3707 60.6456 89.1749 60.5885 88.9901 60.5156C88.8053 60.4428 88.6472 60.3142 88.5157 60.1299C88.3838 59.9396 88.3111 59.7336 88.2976 59.5121C88.2837 59.2845 88.2794 59.1164 88.2848 59.0079C88.2898 58.8934 88.3282 58.7347 88.4 58.532C88.4774 58.3229 88.5901 58.1506 88.7381 58.0154C88.8921 57.8797 89.1307 57.7509 89.4539 57.6289C89.783 57.5066 90.1542 57.4328 90.5674 57.4075C90.9806 57.3822 91.3259 57.3761 91.6032 57.3892C91.8862 57.3959 92.1068 57.4154 92.265 57.4478C92.4293 57.4799 92.564 57.5197 92.6691 57.5674C92.8483 57.6466 92.9411 57.7401 92.9477 57.8479C92.962 58.0814 92.8946 58.3561 92.7456 58.6718C92.5966 58.9875 92.4712 59.1484 92.3694 59.1546C92.2735 59.1605 92.0578 59.1226 91.7222 59.041C91.3862 58.9533 91.1404 58.9143 90.9847 58.9238C90.7332 58.9392 90.6118 59.0188 90.6206 59.1625C90.6261 59.2523 90.7141 59.3161 90.8847 59.3537C91.061 59.385 91.2703 59.4173 91.5128 59.4505C91.7553 59.4838 91.9991 59.538 92.2441 59.6132C92.4948 59.682 92.7109 59.825 92.8925 60.0423C93.0801 60.2593 93.1845 60.5414 93.2057 60.8888C93.2774 62.0626 92.4779 62.7006 90.807 62.8029ZM96.7567 62.1412L96.604 59.6439C96.5766 59.1947 96.5387 58.8694 96.4903 58.668C96.4419 58.4666 96.3489 58.3701 96.2111 58.3785C96.0913 58.3858 96.0364 58.4704 96.0463 58.632L96.2626 62.1714C96.2666 62.2373 96.0962 62.3019 95.7515 62.365C95.4063 62.4222 95.0511 62.462 94.6857 62.4844C94.3204 62.5067 94.0889 62.5059 93.9913 62.4818C93.8933 62.4517 93.8419 62.3977 93.8371 62.3199L93.4567 56.0945C93.449 55.9687 93.615 55.8323 93.9546 55.6853C94.2943 55.5383 94.6558 55.4531 95.039 55.4296C95.4403 55.405 95.6994 55.4643 95.8163 55.6074C95.8552 55.6532 95.8763 55.703 95.8796 55.7569L95.9603 57.0774L95.8993 57.7033L95.9622 57.6994C96.0384 57.5685 96.1634 57.4497 96.3372 57.3429C96.6616 57.1427 97.0214 57.0305 97.4167 57.0063C97.9856 56.9715 98.38 57.1307 98.6 57.4839C98.8256 57.8308 98.9633 58.4114 99.013 59.2259L99.1821 61.9928C99.1862 62.0586 99.0128 62.1233 98.662 62.1869C98.3169 62.2441 97.9616 62.2839 97.5963 62.3062C97.237 62.3282 97.0085 62.3272 96.9108 62.3031C96.8128 62.273 96.7614 62.2191 96.7567 62.1412ZM80.4428 73.3748C80.1434 73.3931 79.9419 73.3904 79.8382 73.3667C79.7342 73.337 79.6798 73.2832 79.6751 73.2054L79.3336 67.6178C79.3255 67.4861 79.4913 67.3467 79.831 67.1996C80.1703 67.0466 80.5555 66.9569 80.9867 66.9305C81.37 66.9071 81.6265 66.9725 81.7561 67.1269C81.8017 67.1842 81.8263 67.2428 81.83 67.3027L82.0732 71.2823C82.8009 71.1897 83.3504 71.132 83.7217 71.1093C83.8475 71.1016 83.9226 71.2983 83.9472 71.6996C83.9713 72.0948 83.9652 72.4379 83.9289 72.7286C83.8926 73.0194 83.8295 73.1675 83.7397 73.173L80.4428 73.3748ZM86.7162 68.3291L86.9869 72.7579C86.9909 72.8237 86.8205 72.8883 86.4758 72.9515C86.1366 73.0083 85.7843 73.0479 85.419 73.0702C85.0597 73.0922 84.8252 73.0915 84.7156 73.0682C84.6116 73.0385 84.5572 72.9847 84.5525 72.9069L84.2917 68.6398C84.2836 68.5081 84.4434 68.369 84.7711 68.2228C85.1044 68.0701 85.4717 67.9815 85.873 67.957C86.4179 67.9236 86.699 68.0477 86.7162 68.3291ZM85.3501 66.0413C85.7454 66.0171 86.0575 66.0581 86.2864 66.1643C86.5209 66.2642 86.6475 66.4669 86.6662 66.7723C86.6991 67.3113 86.2964 67.6064 85.4579 67.6577C84.6195 67.7091 84.1838 67.4652 84.1509 66.9262C84.1179 66.3872 84.5177 66.0923 85.3501 66.0413ZM90.1187 72.8637C89.1245 72.9246 88.391 72.8733 87.9182 72.7099C87.6784 72.6224 87.5556 72.5307 87.5497 72.4349C87.5347 72.1893 87.589 71.8975 87.7126 71.5593C87.8362 71.2211 87.9519 71.0487 88.0597 71.0421C88.1196 71.0385 88.3243 71.0921 88.6737 71.2029C89.0291 71.3134 89.3236 71.3615 89.5571 71.3472C89.7967 71.3326 89.9515 71.3081 90.0215 71.2737C90.0975 71.239 90.133 71.1797 90.1278 71.0959C90.1224 71.0061 90.0583 70.9408 89.9356 70.9003C89.8125 70.8537 89.6606 70.8269 89.4798 70.82C89.299 70.813 89.1022 70.789 88.8893 70.7479C88.6824 70.7065 88.4865 70.6493 88.3018 70.5765C88.117 70.5036 87.9588 70.375 87.8273 70.1907C87.6955 70.0004 87.6228 69.7945 87.6092 69.5729C87.5953 69.3453 87.5911 69.1773 87.5965 69.0687C87.6015 68.9542 87.6399 68.7956 87.7117 68.5928C87.789 68.3837 87.9017 68.2115 88.0498 68.0762C88.2038 67.9405 88.4424 67.8117 88.7655 67.6897C89.0947 67.5674 89.4659 67.4936 89.8791 67.4683C90.2923 67.443 90.6376 67.4369 90.9149 67.45C91.1978 67.4567 91.4184 67.4763 91.5767 67.5087C91.741 67.5407 91.8757 67.5805 91.9808 67.6282C92.1599 67.7074 92.2528 67.8009 92.2594 67.9087C92.2737 68.1423 92.2063 68.4169 92.0573 68.7326C91.9083 69.0483 91.7828 69.2093 91.681 69.2155C91.5852 69.2214 91.3695 69.1835 91.0339 69.1018C90.6979 69.0142 90.4521 68.9751 90.2964 68.9846C90.0448 69 89.9235 69.0796 89.9323 69.2233C89.9377 69.3132 90.0258 69.3769 90.1964 69.4146C90.3726 69.4458 90.582 69.4781 90.8245 69.5114C91.067 69.5446 91.3107 69.5988 91.5558 69.674C91.8064 69.7428 92.0226 69.8859 92.2042 70.1032C92.3917 70.3201 92.4961 70.6023 92.5174 70.9496C92.5891 72.1234 91.7895 72.7615 90.1187 72.8637ZM96.6874 72.2994C96.5859 72.4078 96.3434 72.4737 95.9601 72.4972C95.5769 72.5207 95.258 72.5161 95.0035 72.4836C94.7487 72.4451 94.5029 72.358 94.2662 72.2222C93.8111 71.9555 93.5552 71.358 93.4984 70.4297L93.4128 69.0283L92.9636 69.0558C92.8978 69.0599 92.8367 68.9945 92.7803 68.8597C92.724 68.7249 92.6885 68.5377 92.6739 68.2981C92.6592 68.0586 92.6824 67.8468 92.7432 67.6627C92.8097 67.4723 92.9029 67.3734 93.0227 67.3661L93.3101 67.3485L93.2437 66.2615C93.2323 66.0759 93.4029 65.9151 93.7552 65.7794C94.1136 65.6432 94.4665 65.5645 94.8138 65.5432C95.3588 65.5099 95.6395 65.628 95.656 65.8975L95.7356 67.2L96.4003 67.1593C96.5561 67.1498 96.6476 67.3696 96.6751 67.8188C96.693 68.1122 96.6719 68.357 96.6118 68.553C96.5572 68.7427 96.4761 68.8409 96.3683 68.8475L95.8383 68.8799L95.9387 70.5238C95.9486 70.6855 96.0246 70.7981 96.1667 70.8615C96.3085 70.919 96.4303 70.9446 96.5321 70.9384C96.6399 70.9318 96.7089 70.9786 96.7391 71.079C96.7693 71.1793 96.7906 71.3313 96.803 71.5349C96.8275 71.9362 96.789 72.191 96.6874 72.2994Z" fill="#602F55"/>
<path d="M112.324 78.2094L65.252 81.0624L65.2643 81.2662L112.336 78.4132L112.324 78.2094Z" fill="#602F55"/>
<path d="M112.679 84.0008L65.6064 86.8538L65.6188 87.0576L112.691 84.2046L112.679 84.0008Z" fill="#602F55"/>
<path d="M113.033 89.7902L65.9609 92.6479L65.9733 92.8517L113.046 89.994L113.033 89.7902Z" fill="#602F55"/>
<path d="M113.387 95.5836L66.3145 98.4366L66.3268 98.6404L113.399 95.7874L113.387 95.5836Z" fill="#602F55"/>
<path d="M113.741 101.375L66.6689 104.228L66.6813 104.432L113.754 101.579L113.741 101.375Z" fill="#602F55"/>
<path d="M114.096 107.165L67.0234 110.022L67.0358 110.226L114.108 107.368L114.096 107.165Z" fill="#602F55"/>
<path d="M114.449 112.958L67.377 115.811L67.3893 116.015L114.461 113.162L114.449 112.958Z" fill="#602F55"/>
<defs>
<filter id="filter0_d_217_3004" x="0" y="0" width="177.654" height="177.655" filterUnits="userSpaceOnUse" color-interpolation-filters="sRGB">
<feFlood flood-opacity="0" result="BackgroundImageFix"/>
<feColorMatrix in="SourceAlpha" type="matrix" values="0 0 0 0 0 0 0 0 0 0 0 0 0 0 0 0 0 0 127 0" result="hardAlpha"/>
<feOffset dy="4"/>
<feGaussianBlur stdDeviation="10"/>
<feComposite in2="hardAlpha" operator="out"/>
<feColorMatrix type="matrix" values="0 0 0 0 0 0 0 0 0 0 0 0 0 0 0 0 0 0 0.25 0"/>
<feBlend mode="normal" in2="BackgroundImageFix" result="effect1_dropShadow_217_3004"/>
<feBlend mode="normal" in="SourceGraphic" in2="effect1_dropShadow_217_3004" result="shape"/>
</filter>
</defs>
</svg>
