<svg width="9" height="10" viewBox="0 0 9 10" fill="none" xmlns="http://www.w3.org/2000/svg">
<path d="M8.04199 0.833332H0.625325C0.503768 0.833332 0.387189 0.881621 0.301235 0.967575C0.215281 1.05353 0.166992 1.17011 0.166992 1.29167V8.70833C0.166992 8.82989 0.215281 8.94647 0.301235 9.03242C0.387189 9.11838 0.503768 9.16667 0.625325 9.16667H4.61699V5.9375H3.53366V4.6875H4.61699V3.75C4.59455 3.5299 4.62054 3.30755 4.69312 3.09856C4.76571 2.88956 4.88314 2.69898 5.03719 2.54017C5.19123 2.38136 5.37815 2.25818 5.58484 2.17926C5.79152 2.10035 6.01298 2.0676 6.23366 2.08333C6.55796 2.08134 6.88211 2.09803 7.20449 2.13333V3.25833H6.54199C6.01699 3.25833 5.91699 3.50833 5.91699 3.87083V4.675H7.16699L7.00449 5.925H5.91699V9.16667H8.04199C8.10218 9.16667 8.16178 9.15481 8.21739 9.13178C8.273 9.10874 8.32352 9.07498 8.36608 9.03242C8.40864 8.98986 8.4424 8.93934 8.46544 8.88373C8.48847 8.82812 8.50033 8.76852 8.50033 8.70833V1.29167C8.50033 1.23148 8.48847 1.17188 8.46544 1.11627C8.4424 1.06066 8.40864 1.01014 8.36608 0.967575C8.32352 0.925015 8.273 0.891254 8.21739 0.868221C8.16178 0.845187 8.10218 0.833332 8.04199 0.833332Z" fill="#FEFEFE"/>
</svg>
