<svg width="42" height="42" viewBox="0 0 42 42" fill="none" xmlns="http://www.w3.org/2000/svg">
<path d="M27.7707 0.166687H14.229C10.5011 0.172198 6.92744 1.65555 4.2914 4.29158C1.65536 6.92762 0.172015 10.5013 0.166504 14.2292V27.7709C0.166504 31.5005 1.64808 35.0773 4.28532 37.7145C6.92255 40.3518 10.4994 41.8334 14.229 41.8334H27.7707C31.5003 41.8334 35.0771 40.3518 37.7144 37.7145C40.3516 35.0773 41.8332 31.5005 41.8332 27.7709V14.2292C41.8277 10.5013 40.3443 6.92762 37.7083 4.29158C35.0722 1.65555 31.4986 0.172198 27.7707 0.166687ZM38.7082 22.0417H32.5832L26.9582 31.4584C26.7712 31.7655 26.5079 32.019 26.194 32.1942C25.88 32.3695 25.5261 32.4604 25.1665 32.4584H25.0415C24.6587 32.4381 24.2889 32.3127 23.9727 32.0958C23.6566 31.879 23.4065 31.5791 23.2498 31.2292L16.5623 16.1459L12.3957 23.125C12.2087 23.4321 11.9454 23.6857 11.6315 23.8609C11.3175 24.0361 10.9636 24.1271 10.604 24.125H3.31234V19.9584H9.4165L15.0623 10.5625C15.259 10.2364 15.5414 9.97036 15.8787 9.79345C16.216 9.61654 16.5954 9.53549 16.9756 9.55912C17.3557 9.58274 17.7221 9.71014 18.035 9.92745C18.3478 10.1448 18.595 10.4437 18.7498 10.7917L25.4582 25.875L29.6248 18.8959C29.8092 18.5849 30.0714 18.3272 30.3855 18.1482C30.6996 17.9692 31.055 17.8751 31.4165 17.875H38.7082V22.0417Z" fill="#DF5D53"/>
</svg>
