<svg width="50" height="50" viewBox="0 0 50 50" fill="none" xmlns="http://www.w3.org/2000/svg">
<g clip-path="url(#clip0_413_1139)">
<path d="M22.5042 46.875H10.8292L9.1875 39.4917C6.4375 38.2708 3.00833 36.1521 0.614583 33.7708L0 33.1583V17.7104H4.02917L6.01458 14.3979L3.41458 7.89792L5.77708 7.34583C8.09792 6.80833 11.1313 6.94375 14.0979 8.57917L14.1396 8.55625C14.6289 8.26412 15.1235 7.98074 15.6229 7.70625C16.6378 7.13365 17.6838 6.61826 18.7563 6.1625C19.7083 5.77708 20.6146 5.45417 21.4937 5.1875C20.3311 8.5622 20.5478 12.2595 22.0968 15.4752C23.6458 18.691 26.4018 21.1651 29.7654 22.3595C33.129 23.5539 36.8282 23.372 40.0583 21.8534C43.2885 20.3348 45.7885 17.6022 47.0146 14.25L47.2083 14.5833C52.3437 23.475 50.1771 34.575 42.5708 40.9521L41.2542 46.8771H29.5792L28.6521 42.7104H23.4312L22.5042 46.875ZM9.375 23.9583H13.55V19.7833H9.375V23.9583Z" fill="#FEC524"/>
<path d="M34.375 0C36.8614 0 39.246 0.98772 41.0041 2.74587C42.7623 4.50403 43.75 6.8886 43.75 9.375C43.75 11.8614 42.7623 14.246 41.0041 16.0041C39.246 17.7623 36.8614 18.75 34.375 18.75C31.8886 18.75 29.504 17.7623 27.7459 16.0041C25.9877 14.246 25 11.8614 25 9.375C25 6.8886 25.9877 4.50403 27.7459 2.74587C29.504 0.98772 31.8886 0 34.375 0Z" fill="#FEC524"/>
</g>
<defs>
<clipPath id="clip0_413_1139">
<rect width="50" height="50" fill="white"/>
</clipPath>
</defs>
</svg>
