<svg width="50" height="50" viewBox="0 0 50 50" fill="none" xmlns="http://www.w3.org/2000/svg">
<path d="M24.9837 30.5209C23.8899 30.5218 22.8203 30.1978 21.9109 29.5899C21.0015 28.9821 20.2931 28.1177 19.8757 27.1066C19.4583 26.0955 19.3507 24.9832 19.5665 23.9108C19.7824 22.8384 20.3119 21.8543 21.0879 21.0834C21.2343 20.9384 21.4078 20.8236 21.5985 20.7457C21.7892 20.6677 21.9934 20.6281 22.1994 20.629C22.4055 20.63 22.6093 20.6716 22.7993 20.7513C22.9893 20.831 23.1617 20.9474 23.3067 21.0938C23.4517 21.2401 23.5664 21.4136 23.6444 21.6044C23.7223 21.7951 23.7619 21.9993 23.761 22.2053C23.76 22.4113 23.7185 22.6152 23.6387 22.8051C23.559 22.9951 23.4426 23.1675 23.2963 23.3125C23.0715 23.5323 22.893 23.7948 22.7714 24.0846C22.6497 24.3744 22.5874 24.6857 22.5879 25C22.5602 25.4948 22.688 25.9859 22.9533 26.4045C23.2187 26.823 23.6083 27.1481 24.0677 27.3341C24.527 27.5201 25.033 27.5578 25.5149 27.4419C25.9967 27.3259 26.4302 27.0622 26.7546 26.6875C27.0511 26.3936 27.4517 26.2288 27.8692 26.2288C28.2866 26.2288 28.6872 26.3936 28.9837 26.6875C29.2727 26.9866 29.4342 27.3862 29.4342 27.8021C29.4342 28.218 29.2727 28.6176 28.9837 28.9167C28.4572 29.4367 27.8323 29.8464 27.1454 30.1219C26.4586 30.3974 25.7237 30.533 24.9837 30.5209Z" fill="#1385BE"/>
<path d="M46.3372 25C46.3372 30.6635 44.0874 36.095 40.0828 40.0997C36.0781 44.1043 30.6466 46.3541 24.9831 46.3541C19.3196 46.3541 13.8881 44.1043 9.8834 40.0997C5.87871 36.095 3.62891 30.6635 3.62891 25C3.62891 19.3365 5.87871 13.905 9.8834 9.9003C13.8881 5.89562 19.3196 3.64581 24.9831 3.64581C25.3975 3.64581 25.7949 3.81043 26.0879 4.10346C26.381 4.39648 26.5456 4.79391 26.5456 5.20831V13.125C26.5402 13.5377 26.3738 13.932 26.082 14.2239C25.7901 14.5157 25.3958 14.6821 24.9831 14.6875C22.9427 14.6734 20.9458 15.2762 19.2539 16.4166C17.5525 17.5442 16.2257 19.1532 15.4427 21.0382C14.6598 22.9232 14.4562 24.9988 14.8581 27C15.5116 29.3741 16.985 31.44 19.0169 32.831C21.0488 34.222 23.5078 34.8482 25.9576 34.5984C28.4073 34.3487 30.6894 33.2392 32.3988 31.4668C34.1083 29.6945 35.1346 27.3738 35.2956 24.9166C35.2928 24.7107 35.3313 24.5062 35.4088 24.3154C35.4863 24.1246 35.6013 23.9512 35.747 23.8055C35.8926 23.6599 36.066 23.5449 36.2568 23.4674C36.4477 23.3898 36.6521 23.3513 36.8581 23.3541H44.7747C44.9871 23.3538 45.1974 23.3968 45.3926 23.4805C45.5878 23.5642 45.7639 23.6868 45.9101 23.8408C46.0564 23.9949 46.1697 24.1771 46.2431 24.3764C46.3165 24.5757 46.3486 24.7879 46.3372 25Z" fill="#1385BE"/>
<path d="M45.5875 12.7709C45.5331 13.1762 45.3672 13.5584 45.1084 13.875L40.5875 18.3959C39.9446 19.0414 39.1492 19.5143 38.275 19.7709C37.7622 19.9283 37.2281 20.0056 36.6917 20C36.3243 20.0326 35.9549 20.0326 35.5875 20L32.8167 19.4584L28.0667 24.2292C27.768 24.5133 27.3746 24.6766 26.9625 24.6875C26.5483 24.6872 26.1511 24.5223 25.8583 24.2292C25.7109 24.0856 25.5938 23.9139 25.5138 23.7242C25.4338 23.5346 25.3926 23.3308 25.3926 23.125C25.3926 22.9192 25.4338 22.7155 25.5138 22.5258C25.5938 22.3362 25.7109 22.1645 25.8583 22.0209L30.6292 17.2292L30.0667 14.4792C29.8986 13.5928 29.9414 12.6793 30.1917 11.8125C30.4482 10.9383 30.9212 10.143 31.5667 9.50003L36.0458 5.02086C36.3536 4.74089 36.7382 4.55948 37.15 4.50003C37.5354 4.44419 37.9286 4.50973 38.275 4.68753C38.6188 4.86238 38.9073 5.12923 39.1083 5.45836C39.3118 5.82665 39.3989 6.24791 39.3584 6.6667L38.6917 11.375L43.3792 10.7292C43.7716 10.6907 44.1664 10.7715 44.5121 10.9611C44.8578 11.1506 45.1382 11.4401 45.3167 11.7917C45.4864 12.0907 45.5794 12.4271 45.5875 12.7709Z" fill="#1385BE"/>
</svg>
