<svg width="50" height="50" viewBox="0 0 50 50" fill="none" xmlns="http://www.w3.org/2000/svg">
<path d="M13.0413 44.5584H12.4997C10.5351 44.5584 9.55384 44.5583 8.94342 43.9479C8.33301 43.3417 8.33301 42.3583 8.33301 40.3938V38.0771C8.33301 36.9979 8.33301 36.4584 8.61009 35.975C8.88717 35.4917 9.30592 35.25 10.1434 34.7625C15.6559 31.5563 23.483 29.7521 28.7059 32.8667C29.0573 33.0764 29.3698 33.332 29.6434 33.6334C29.9237 33.9397 30.1398 34.2992 30.2786 34.6906C30.4175 35.082 30.4765 35.4972 30.452 35.9118C30.4275 36.3263 30.3201 36.7317 30.1361 37.104C29.9522 37.4763 29.6954 37.8079 29.3809 38.0792C29.1304 38.317 28.8247 38.4888 28.4913 38.5792C28.7413 38.55 28.9809 38.5174 29.2101 38.4813C31.108 38.1792 32.7018 37.1625 34.1601 36.0604L37.9268 33.2167C38.5991 32.7288 39.4085 32.4661 40.2393 32.4661C41.07 32.4661 41.8794 32.7288 42.5518 33.2167C43.7455 34.1188 44.1122 35.6042 43.3559 36.8167C42.4747 38.2292 41.233 40.0354 40.0413 41.1396C38.8497 42.2438 37.0705 43.2313 35.6205 43.9313C34.0122 44.7084 32.2372 45.1542 30.4309 45.4479C26.7684 46.0396 22.9518 45.9479 19.3268 45.2021C17.2587 44.7764 15.1528 44.5594 13.0413 44.5584ZM13.7205 5.38752C12.9559 6.1521 12.6705 7.20627 12.5643 8.85419C13.7855 8.83747 14.952 8.34476 15.8154 7.48094C16.6788 6.61713 17.171 5.45042 17.1872 4.22919C15.5413 4.33752 14.4851 4.62294 13.7205 5.38752ZM36.2788 5.38752C35.5143 4.62294 34.4601 4.33752 32.8122 4.23127C32.8289 5.4525 33.3216 6.61898 34.1854 7.48241C35.0492 8.34583 36.2159 8.83802 37.4372 8.85419C37.3288 7.20835 37.0434 6.1521 36.2788 5.38752ZM36.2788 19.6125C35.5143 20.3771 34.4601 20.6625 32.8122 20.7688C32.8289 19.5475 33.3216 18.3811 34.1854 17.5176C35.0492 16.6542 36.2159 16.162 37.4372 16.1459C37.3288 17.7917 37.0434 18.8479 36.2788 19.6125ZM13.7205 19.6125C14.4851 20.3771 15.5393 20.6625 17.1872 20.7688C17.1705 19.5475 16.6777 18.3811 15.8139 17.5176C14.9501 16.6542 13.7834 16.162 12.5622 16.1459C12.6705 17.7917 12.9559 18.8479 13.7205 19.6125Z" fill="#96A238"/>
<path fill-rule="evenodd" clip-rule="evenodd" d="M12.5 11.9792C14.572 11.9792 16.5591 11.1561 18.0243 9.69096C19.4894 8.22583 20.3125 6.23869 20.3125 4.16669H29.6875C29.6875 6.23869 30.5106 8.22583 31.9757 9.69096C33.4409 11.1561 35.428 11.9792 37.5 11.9792V13.0209C35.428 13.0209 33.4409 13.844 31.9757 15.3091C30.5106 16.7742 29.6875 18.7613 29.6875 20.8334H20.3125C20.3125 18.7613 19.4894 16.7742 18.0243 15.3091C16.5591 13.844 14.572 13.0209 12.5 13.0209V11.9792ZM25 14.5834C25.5525 14.5834 26.0824 14.3639 26.4731 13.9732C26.8638 13.5825 27.0833 13.0526 27.0833 12.5C27.0833 11.9475 26.8638 11.4176 26.4731 11.0269C26.0824 10.6362 25.5525 10.4167 25 10.4167C24.4475 10.4167 23.9176 10.6362 23.5269 11.0269C23.1362 11.4176 22.9167 11.9475 22.9167 12.5C22.9167 13.0526 23.1362 13.5825 23.5269 13.9732C23.9176 14.3639 24.4475 14.5834 25 14.5834Z" fill="#96A238"/>
</svg>
