<svg width="10" height="10" viewBox="0 0 10 10" fill="none" xmlns="http://www.w3.org/2000/svg">
<path d="M3.25016 0.833332H6.75016C8.0835 0.833332 9.16683 1.91667 9.16683 3.25V6.75C9.16683 7.39094 8.91222 8.00563 8.459 8.45884C8.00579 8.91205 7.3911 9.16667 6.75016 9.16667H3.25016C1.91683 9.16667 0.833496 8.08333 0.833496 6.75V3.25C0.833496 2.60906 1.08811 1.99437 1.54132 1.54116C1.99453 1.08794 2.60922 0.833332 3.25016 0.833332ZM3.16683 1.66667C2.769 1.66667 2.38747 1.8247 2.10617 2.10601C1.82486 2.38731 1.66683 2.76884 1.66683 3.16667V6.83333C1.66683 7.6625 2.33766 8.33333 3.16683 8.33333H6.8335C7.23132 8.33333 7.61285 8.1753 7.89416 7.89399C8.17546 7.61269 8.3335 7.23116 8.3335 6.83333V3.16667C8.3335 2.3375 7.66266 1.66667 6.8335 1.66667H3.16683ZM7.18766 2.29167C7.3258 2.29167 7.45827 2.34654 7.55595 2.44421C7.65362 2.54189 7.7085 2.67437 7.7085 2.8125C7.7085 2.95063 7.65362 3.08311 7.55595 3.18078C7.45827 3.27846 7.3258 3.33333 7.18766 3.33333C7.04953 3.33333 6.91705 3.27846 6.81938 3.18078C6.7217 3.08311 6.66683 2.95063 6.66683 2.8125C6.66683 2.67437 6.7217 2.54189 6.81938 2.44421C6.91705 2.34654 7.04953 2.29167 7.18766 2.29167ZM5.00016 2.91667C5.5527 2.91667 6.0826 3.13616 6.4733 3.52686C6.864 3.91756 7.0835 4.44746 7.0835 5C7.0835 5.55253 6.864 6.08244 6.4733 6.47314C6.0826 6.86384 5.5527 7.08333 5.00016 7.08333C4.44763 7.08333 3.91772 6.86384 3.52702 6.47314C3.13632 6.08244 2.91683 5.55253 2.91683 5C2.91683 4.44746 3.13632 3.91756 3.52702 3.52686C3.91772 3.13616 4.44763 2.91667 5.00016 2.91667ZM5.00016 3.75C4.66864 3.75 4.3507 3.88169 4.11628 4.11612C3.88186 4.35054 3.75016 4.66848 3.75016 5C3.75016 5.33152 3.88186 5.64946 4.11628 5.88388C4.3507 6.1183 4.66864 6.25 5.00016 6.25C5.33168 6.25 5.64963 6.1183 5.88405 5.88388C6.11847 5.64946 6.25016 5.33152 6.25016 5C6.25016 4.66848 6.11847 4.35054 5.88405 4.11612C5.64963 3.88169 5.33168 3.75 5.00016 3.75Z" fill="#FEFEFE"/>
</svg>
