<svg width="20" height="20" viewBox="0 0 20 20" fill="none" xmlns="http://www.w3.org/2000/svg">
<path d="M1.28 0.201292C1.13783 0.0688118 0.949779 -0.00331137 0.755477 0.000116847C0.561176 0.00354506 0.375791 0.0822571 0.238378 0.21967C0.100965 0.357083 0.0222533 0.542468 0.0188251 0.736769C0.0153968 0.93107 0.08752 1.11912 0.22 1.26129L1.94 2.98129H1.75C1.28587 2.98129 0.840752 3.16567 0.512563 3.49385C0.184375 3.82204 0 4.26716 0 4.73129V13.2313C0 14.1973 0.784 14.9813 1.75 14.9813H13.94L15.434 16.4763C15.3727 16.4798 15.3114 16.4815 15.25 16.4813H2.401C2.66438 16.9375 3.04324 17.3163 3.49948 17.5796C3.95571 17.8429 4.47323 17.9815 5 17.9813H15.25C15.76 17.9813 16.25 17.9013 16.71 17.7523L18.72 19.7623C18.7892 19.8339 18.872 19.891 18.9635 19.9303C19.055 19.9695 19.1535 19.9902 19.2531 19.991C19.3526 19.9918 19.4514 19.9728 19.5435 19.935C19.6357 19.8973 19.7194 19.8415 19.7898 19.7711C19.8602 19.7006 19.9158 19.6169 19.9535 19.5247C19.9912 19.4325 20.0101 19.3337 20.0092 19.2341C20.0083 19.1345 19.9875 19.0361 19.9482 18.9447C19.9088 18.8532 19.8517 18.7704 19.78 18.7013L1.28 0.201292ZM9.928 10.9703C9.49629 11.3254 8.94786 11.5071 8.38954 11.4799C7.83121 11.4528 7.30297 11.2188 6.90771 10.8236C6.51245 10.4283 6.27847 9.90008 6.25135 9.34176C6.22423 8.78343 6.40591 8.235 6.761 7.80329L9.928 10.9703ZM3.19 4.23129L4.482 5.52329C4.4111 6.06501 4.14551 6.56242 3.73481 6.92271C3.3241 7.283 2.79634 7.48154 2.25 7.48129H1.25V5.98129H2.25C2.44891 5.98129 2.63968 5.90227 2.78033 5.76162C2.92098 5.62097 3 5.4302 3 5.23129V4.23129H3.19ZM2.25 11.9813H1.25V10.4813H2.25C2.84674 10.4813 3.41903 10.7183 3.84099 11.1403C4.26295 11.5623 4.5 12.1346 4.5 12.7313V13.7313H3V12.7313C3 12.5324 2.92098 12.3416 2.78033 12.201C2.63968 12.0603 2.44891 11.9813 2.25 11.9813ZM15.75 11.9813H15.18L16.928 13.7293C16.976 13.5706 17 13.4046 17 13.2313V4.73129C17 4.26716 16.8156 3.82204 16.4874 3.49385C16.1592 3.16567 15.7141 2.98129 15.25 2.98129H6.18L13.863 10.6633C14.1428 10.5418 14.4449 10.4798 14.75 10.4813H15.75V11.9813ZM14 4.23129V5.23129C14 5.64529 14.336 5.98129 14.75 5.98129H15.75V7.48129H14.75C14.1533 7.48129 13.581 7.24424 13.159 6.82228C12.7371 6.40032 12.5 5.82803 12.5 5.23129V4.23129H14ZM18.062 14.8623L19.147 15.9473C19.685 15.1773 20 14.2413 20 13.2313V7.98129C20.0002 7.45452 19.8616 6.937 19.5983 6.48077C19.335 6.02453 18.9562 5.64568 18.5 5.38229V13.2313C18.5 13.8253 18.34 14.3833 18.062 14.8623Z" fill="#333333"/>
</svg>
