<svg width="61" height="47" viewBox="0 0 61 47" fill="none" xmlns="http://www.w3.org/2000/svg">
<path d="M33.2556 12.9653C33.1858 11.3325 33.4744 9.70424 34.1007 8.19655C34.7271 6.68887 35.6758 5.33881 36.8794 4.24251L36.8889 4.23484C39.3797 2.00967 42.6244 0.833549 45.9521 0.949676H45.9311C47.9425 0.839084 49.9534 1.17644 51.8206 1.93774C53.6878 2.69903 55.3653 3.86553 56.7338 5.35418L56.7414 5.36184C59.4856 8.64243 60.8855 12.8527 60.6564 17.1359L60.6583 17.0957C60.7883 21.5441 59.9672 25.9687 58.2507 30.0696L58.3268 29.8645C56.9583 33.08 55.0601 36.0395 52.7123 38.6179L52.7332 38.5949C50.7923 40.7145 48.5439 42.5258 46.0643 43.9673L45.9273 44.0402C44.051 45.1285 42.0937 46.0685 40.073 46.8519L39.7761 46.9535L33.8114 36.8143C36.2896 35.8065 38.4651 34.1672 40.1244 32.0572L40.1491 32.0246C41.8011 30.0436 42.8371 27.6164 43.1277 25.046L43.1334 24.9847C41.8354 24.9522 40.5589 24.6437 39.3876 24.0796C38.2164 23.5154 37.1767 22.7082 36.337 21.711L36.3255 21.6976C34.1901 19.3028 33.0854 16.1526 33.2537 12.9384L33.2518 12.9672L33.2556 12.9653ZM0.999761 12.9653C0.930191 11.3323 1.21903 9.704 1.84571 8.1963C2.47239 6.68861 3.42149 5.33863 4.62541 4.24251L4.63492 4.23484C7.12575 2.00967 10.3705 0.833549 13.6981 0.949676H13.6771C15.6886 0.839084 17.6995 1.17644 19.5666 1.93774C21.4338 2.69903 23.1114 3.86553 24.4799 5.35418L24.4875 5.36376C27.2321 8.64483 28.6321 12.8559 28.4024 17.1398L28.4043 17.0995C28.5343 21.5479 27.7132 25.9725 25.9967 30.0734L26.0729 29.8683C24.705 33.0837 22.8074 36.0432 20.4602 38.6218L20.4812 38.5988C18.5397 40.7185 16.2906 42.5298 13.8104 43.9712L13.6733 44.044C11.797 45.1323 9.83972 46.0724 7.81902 46.8558L7.52212 46.9573L1.55931 36.8182C4.03798 35.8093 6.21351 34.1686 7.87231 32.0572L7.89705 32.0246C9.54906 30.0436 10.585 27.6164 10.8756 25.046L10.8813 24.9847C9.58399 24.9516 8.30824 24.6429 7.13766 24.0788C5.96707 23.5146 4.92805 22.7077 4.0887 21.711L4.07728 21.6976C1.94026 19.3042 0.833449 16.1547 0.999761 12.9403L0.997858 12.9691L0.999761 12.9653Z" fill="#DF5D53"/>
</svg>
