<svg width="60" height="47" viewBox="0 0 60 47" fill="none" xmlns="http://www.w3.org/2000/svg">
<path d="M32.2722 12.9653C32.2024 11.3325 32.491 9.70424 33.1173 8.19655C33.7437 6.68887 34.6924 5.33881 35.896 4.24251L35.9055 4.23484C38.3963 2.00967 41.641 0.833549 44.9687 0.949676H44.9477C46.9591 0.839084 48.97 1.17644 50.8372 1.93774C52.7044 2.69903 54.3819 3.86553 55.7504 5.35418L55.758 5.36184C58.5022 8.64243 59.9021 12.8527 59.673 17.1359L59.6749 17.0957C59.8049 21.5441 58.9838 25.9687 57.2673 30.0696L57.3434 29.8645C55.9749 33.08 54.0767 36.0395 51.7289 38.6179L51.7498 38.5949C49.8089 40.7145 47.5605 42.5258 45.0809 43.9673L44.9439 44.0402C43.0676 45.1285 41.1103 46.0685 39.0896 46.8519L38.7927 46.9535L32.828 36.8143C35.3062 35.8065 37.4817 34.1672 39.141 32.0572L39.1657 32.0246C40.8177 30.0436 41.8537 27.6164 42.1443 25.046L42.15 24.9847C40.852 24.9522 39.5755 24.6437 38.4042 24.0796C37.233 23.5154 36.1933 22.7082 35.3536 21.711L35.3421 21.6976C33.2067 19.3028 32.102 16.1526 32.2703 12.9384L32.2684 12.9672L32.2722 12.9653ZM0.0163628 12.9653C-0.0532075 11.3323 0.235633 9.704 0.862312 8.1963C1.48899 6.68861 2.43809 5.33863 3.64201 4.24251L3.65152 4.23484C6.14236 2.00967 9.38705 0.833549 12.7147 0.949676H12.6937C14.7052 0.839084 16.7161 1.17644 18.5832 1.93774C20.4504 2.69903 22.128 3.86553 23.4965 5.35418L23.5041 5.36376C26.2487 8.64483 27.6487 12.8559 27.419 17.1398L27.4209 17.0995C27.5509 21.5479 26.7298 25.9725 25.0133 30.0734L25.0895 29.8683C23.7216 33.0837 21.824 36.0432 19.4768 38.6218L19.4978 38.5988C17.5563 40.7185 15.3072 42.5298 12.827 43.9712L12.6899 44.044C10.8136 45.1323 8.85632 46.0724 6.83562 46.8558L6.53872 46.9573L0.575911 36.8182C3.05458 35.8093 5.23011 34.1686 6.88891 32.0572L6.91365 32.0246C8.56566 30.0436 9.60162 27.6164 9.8922 25.046L9.89791 24.9847C8.60059 24.9516 7.32485 24.6429 6.15426 24.0788C4.98367 23.5146 3.94466 22.7077 3.1053 21.711L3.09388 21.6976C0.956859 19.3042 -0.149949 16.1547 0.0163628 12.9403L0.0144595 12.9691L0.0163628 12.9653Z" fill="#1385BE"/>
</svg>
