<svg width="61" height="47" viewBox="0 0 61 47" fill="none" xmlns="http://www.w3.org/2000/svg">
<path d="M32.7556 12.9653C32.6858 11.3325 32.9744 9.70424 33.6007 8.19655C34.2271 6.68887 35.1758 5.33881 36.3794 4.24251L36.3889 4.23484C38.8797 2.00967 42.1244 0.833549 45.4521 0.949676H45.4311C47.4425 0.839084 49.4534 1.17644 51.3206 1.93774C53.1878 2.69903 54.8653 3.86553 56.2338 5.35418L56.2414 5.36184C58.9856 8.64243 60.3855 12.8527 60.1564 17.1359L60.1583 17.0957C60.2883 21.5441 59.4672 25.9687 57.7507 30.0696L57.8268 29.8645C56.4583 33.08 54.5601 36.0395 52.2123 38.6179L52.2332 38.5949C50.2923 40.7145 48.0439 42.5258 45.5643 43.9673L45.4273 44.0402C43.551 45.1285 41.5937 46.0685 39.573 46.8519L39.2761 46.9535L33.3114 36.8143C35.7896 35.8065 37.9651 34.1672 39.6244 32.0572L39.6491 32.0246C41.3011 30.0436 42.3371 27.6164 42.6277 25.046L42.6334 24.9847C41.3354 24.9522 40.0589 24.6437 38.8876 24.0796C37.7164 23.5154 36.6767 22.7082 35.837 21.711L35.8255 21.6976C33.6901 19.3028 32.5854 16.1526 32.7537 12.9384L32.7518 12.9672L32.7556 12.9653ZM0.499761 12.9653C0.430191 11.3323 0.719032 9.704 1.34571 8.1963C1.97239 6.68861 2.92149 5.33863 4.12541 4.24251L4.13492 4.23484C6.62575 2.00967 9.87045 0.833549 13.1981 0.949676H13.1771C15.1886 0.839084 17.1995 1.17644 19.0666 1.93774C20.9338 2.69903 22.6114 3.86553 23.9799 5.35418L23.9875 5.36376C26.7321 8.64483 28.1321 12.8559 27.9024 17.1398L27.9043 17.0995C28.0343 21.5479 27.2132 25.9725 25.4967 30.0734L25.5729 29.8683C24.205 33.0837 22.3074 36.0432 19.9602 38.6218L19.9812 38.5988C18.0397 40.7185 15.7906 42.5298 13.3104 43.9712L13.1733 44.044C11.297 45.1323 9.33972 46.0724 7.31902 46.8558L7.02212 46.9573L1.05931 36.8182C3.53798 35.8093 5.71351 34.1686 7.37231 32.0572L7.39705 32.0246C9.04906 30.0436 10.085 27.6164 10.3756 25.046L10.3813 24.9847C9.08399 24.9516 7.80824 24.6429 6.63766 24.0788C5.46707 23.5146 4.42805 22.7077 3.5887 21.711L3.57728 21.6976C1.44026 19.3042 0.333449 16.1547 0.499761 12.9403L0.497858 12.9691L0.499761 12.9653Z" fill="#96A238"/>
</svg>
