<svg width="16" height="16" viewBox="0 0 16 16" fill="none" xmlns="http://www.w3.org/2000/svg">
<path d="M0.750343 10.5628C1.16461 10.894 1.6935 11.0471 2.22067 10.9884C2.74783 10.9297 3.23008 10.664 3.56134 10.2498L6.35034 6.76378L8.80034 8.60178C9.21622 8.91348 9.7371 9.05104 10.2527 8.98534C10.7682 8.91963 11.2379 8.65582 11.5623 8.24978L15.5623 3.24978C15.8937 2.83551 16.047 2.30657 15.9884 1.77931C15.9298 1.25205 15.6641 0.769668 15.2498 0.43828C14.8356 0.106892 14.3066 -0.0463554 13.7794 0.0122497C13.2521 0.0708548 12.7697 0.336512 12.4383 0.75078L9.64934 4.23678L7.20034 2.40178C6.78471 2.08986 6.26398 1.95197 5.74845 2.0173C5.23291 2.08262 4.76304 2.34605 4.43834 2.75178L0.438343 7.75178C0.106985 8.16593 -0.0462968 8.69474 0.0122135 9.22189C0.0707238 9.74905 0.336234 10.2314 0.750343 10.5628ZM1.00034 16.0018H15.0003C15.2656 16.0018 15.5199 15.8964 15.7074 15.7089C15.895 15.5214 16.0003 15.267 16.0003 15.0018C16.0003 14.7366 15.895 14.4822 15.7074 14.2947C15.5199 14.1071 15.2656 14.0018 15.0003 14.0018H1.00034C0.735126 14.0018 0.480772 14.1071 0.293236 14.2947C0.1057 14.4822 0.000342671 14.7366 0.000342671 15.0018C0.000342671 15.267 0.1057 15.5214 0.293236 15.7089C0.480772 15.8964 0.735126 16.0018 1.00034 16.0018Z" fill="#333333"/>
</svg>
