<svg width="8" height="8" viewBox="0 0 8 8" fill="none" xmlns="http://www.w3.org/2000/svg">
<path d="M5.72484 1.425C5.44001 1.09984 5.28305 0.682263 5.28317 0.25H3.99567V5.41667C3.98574 5.69626 3.8677 5.96109 3.66641 6.15539C3.46511 6.34969 3.19627 6.45829 2.9165 6.45833C2.32484 6.45833 1.83317 5.975 1.83317 5.375C1.83317 4.65833 2.52484 4.12083 3.23734 4.34167V3.025C1.79984 2.83333 0.541504 3.95 0.541504 5.375C0.541504 6.7625 1.6915 7.75 2.91234 7.75C4.22067 7.75 5.28317 6.6875 5.28317 5.375V2.75417C5.80525 3.1291 6.43207 3.33027 7.07484 3.32917V2.04167C7.07484 2.04167 6.2915 2.07917 5.72484 1.425Z" fill="#FEFEFE"/>
</svg>
