<svg width="10" height="6" viewBox="0 0 10 6" fill="none" xmlns="http://www.w3.org/2000/svg">
<path d="M4.16683 4.25L6.32933 3L4.16683 1.75V4.25ZM8.9835 0.987499C9.03766 1.18333 9.07516 1.44583 9.10016 1.77917C9.12933 2.1125 9.14183 2.4 9.14183 2.65L9.16683 3C9.16683 3.9125 9.10016 4.58333 8.9835 5.0125C8.87933 5.3875 8.63766 5.62917 8.26266 5.73333C8.06683 5.7875 7.7085 5.825 7.1585 5.85C6.61683 5.87917 6.121 5.89167 5.66266 5.89167L5.00016 5.91667C3.25433 5.91667 2.16683 5.85 1.73766 5.73333C1.36266 5.62917 1.121 5.3875 1.01683 5.0125C0.962663 4.81667 0.925163 4.55417 0.900163 4.22083C0.870996 3.8875 0.858496 3.6 0.858496 3.35L0.833496 3C0.833496 2.0875 0.900163 1.41667 1.01683 0.987499C1.121 0.612499 1.36266 0.370832 1.73766 0.266665C1.9335 0.212499 2.29183 0.174999 2.84183 0.149999C3.3835 0.120832 3.87933 0.108332 4.33766 0.108332L5.00016 0.0833321C6.746 0.0833321 7.8335 0.149999 8.26266 0.266665C8.63766 0.370832 8.87933 0.612499 8.9835 0.987499Z" fill="#FEFEFE"/>
</svg>
