<svg width="50" height="48" viewBox="0 0 50 48" fill="none" xmlns="http://www.w3.org/2000/svg">
<path d="M-0.000377655 23.5291C-0.000377655 36.5248 10.6849 47.0582 23.8639 47.0582C28.7154 47.0657 33.4529 45.6083 37.4392 42.8821L49.999 44.0431L44.8351 34.7686C46.7395 31.3203 47.7342 27.4554 47.7276 23.5291C47.7276 10.5352 37.0435 0 23.8627 0C10.6819 0 -0.000377655 10.5352 -0.000377655 23.5291Z" fill="#1385BE"/>
<path d="M23.6732 45.4483C24.7863 45.448 25.8692 45.0916 26.7592 44.4325C27.6491 43.7734 28.2981 42.8473 28.6085 41.7934C28.919 40.7395 28.8741 39.6148 28.4806 38.5882C28.0871 37.5617 27.3663 36.6887 26.4266 36.1007C25.4868 35.5126 24.3788 35.2411 23.2692 35.3271C22.1596 35.4131 21.1082 35.8518 20.2731 36.5774C19.4381 37.303 18.8644 38.2762 18.6384 39.3508C18.4124 40.4253 18.5462 41.5432 19.0198 42.5363C19.4363 43.4063 20.0947 44.1417 20.9185 44.6571C21.7423 45.1725 22.6976 45.4467 23.6732 45.4477V45.4483ZM23.6673 36.6894C24.3371 36.689 24.9947 36.8659 25.5715 37.2017C26.1483 37.5376 26.623 38.0199 26.9461 38.5985C27.2691 39.177 27.4287 39.8305 27.408 40.4906C27.3874 41.1507 27.1873 41.7932 26.8288 42.351C26.4702 42.9088 25.9662 43.3615 25.3696 43.6616C24.7729 43.9618 24.1055 44.0985 23.4369 44.0574C22.7684 44.0163 22.1233 43.7989 21.5691 43.428C21.0149 43.057 20.5719 42.5462 20.2864 41.9488C20.0188 41.3869 19.8992 40.7675 19.9388 40.1479C19.9784 39.5283 20.1758 38.9286 20.5129 38.4043C20.8499 37.8799 21.3157 37.4479 21.8671 37.1481C22.4185 36.8484 23.0376 36.6906 23.6673 36.6894Z" fill="white"/>
<path d="M23.6692 43.308C22.0282 43.308 20.6979 41.9964 20.6979 40.3784C20.6979 38.7604 22.0282 37.4487 23.6692 37.4487C25.3103 37.4487 26.6406 38.7604 26.6406 40.3784C26.6406 41.9964 25.3103 43.308 23.6692 43.308Z" fill="white"/>
<path d="M17.8604 29.1767C17.9009 29.2607 17.9511 29.3398 18.0099 29.4125L18.0469 29.4484C18.1199 29.518 18.194 29.5852 18.2699 29.6529C20.1611 31.3503 22.3716 32.2172 24.9921 31.9278C25.3723 31.8848 25.5761 31.9514 25.8319 32.2773C26.1182 32.6349 26.509 32.897 26.9515 33.0281C27.3508 33.133 27.5558 33.301 27.7495 33.6328C27.7728 33.6723 27.7961 33.713 27.8218 33.7507L28.8183 33.0234C28.8129 33.014 28.8087 33.0046 28.8021 32.9951C28.6939 32.8083 28.7657 32.5089 28.7884 32.2643C28.8308 31.7764 28.9928 31.2772 28.9253 30.8098C28.8733 30.4562 28.9366 30.2794 29.1811 30.0596C31.2092 28.2432 31.9905 25.9436 31.8602 23.3316C31.8602 23.3239 31.8602 23.3151 31.8602 23.3074C31.8572 23.2367 31.853 23.1642 31.8476 23.0923C31.8439 23.0482 31.8375 23.0043 31.8285 22.9609C31.8083 22.8799 31.7803 22.8009 31.7448 22.7252C31.6342 22.4945 31.4528 22.3039 31.2263 22.1804C30.9998 22.0568 30.7397 22.0067 30.4827 22.0369C30.2257 22.0671 29.9848 22.1762 29.7941 22.3488C29.6035 22.5214 29.4727 22.7487 29.4202 22.9986C29.4206 23.0025 29.4206 23.0065 29.4202 23.0104C29.4136 23.0623 29.407 23.1118 29.4011 23.1595C29.4006 23.1648 29.4006 23.1701 29.4011 23.1754C29.2899 24.0005 29.3311 24.8739 29.0884 25.6601C28.474 27.6415 27.2528 29.1001 25.0411 29.4473C23.0315 29.762 21.356 29.0188 19.8294 27.7871C19.7882 27.7558 19.7451 27.7222 19.7015 27.691C19.6841 27.6786 19.668 27.6668 19.6507 27.6568C19.428 27.509 19.1622 27.4374 18.8942 27.4531C18.6263 27.4688 18.3709 27.5708 18.1675 27.7435C17.9641 27.9162 17.8239 28.15 17.7684 28.409C17.7129 28.6679 17.7452 28.9377 17.8604 29.1767Z" fill="white"/>
<path d="M31.8453 23.0944C31.8506 23.1651 31.8548 23.2382 31.8578 23.3089C31.8637 23.1925 31.8529 23.0758 31.8255 22.9624C31.8356 23.0058 31.8422 23.05 31.8453 23.0944Z" fill="black"/>
<path d="M18.0095 29.4126C18.0838 29.5048 18.1714 29.5858 18.2695 29.6531C18.1936 29.5853 18.1195 29.5181 18.0466 29.4485L18.0095 29.4126Z" fill="white"/>
<path d="M19.0842 40.4554L19.4602 39.1258C13.2939 37.4332 8.64764 32.3165 7.6249 26.0889C7.27905 23.986 7.35666 21.8366 7.85331 19.7633C8.34997 17.6901 9.25594 15.7336 10.5195 14.0055C11.7831 12.2775 13.3795 10.8117 15.2175 9.69194C17.0556 8.57217 19.0994 7.82033 21.2322 7.47933C23.365 7.13833 25.545 7.21485 27.6478 7.70453C29.7506 8.19421 31.735 9.08746 33.4877 10.3333C37.0274 12.8493 39.4084 16.6487 40.1069 20.8955C40.5638 23.7086 40.2642 26.5907 39.2379 29.2538C38.2117 31.917 36.4947 34.2682 34.2585 36.0724C33.9533 36.317 33.5977 36.493 33.2164 36.5883C32.8351 36.6835 32.4374 36.6956 32.0508 36.6238C31.6643 36.552 31.2983 36.398 30.9783 36.1725C30.6584 35.947 30.3921 35.6554 30.1981 35.318L30.1544 35.2473C28.7378 32.7379 27.9924 31.4301 27.9924 31.4301L26.7718 32.1067C26.7718 32.1067 27.5166 33.4133 28.9314 35.9192L28.9793 36.0017C29.2742 36.5132 29.6786 36.9551 30.1643 37.2968C30.6501 37.6385 31.2055 37.8717 31.792 37.9802C32.3785 38.0886 32.9819 38.0698 33.5602 37.925C34.1386 37.7801 34.6779 37.5128 35.1408 37.1415C37.5673 35.1841 39.4304 32.6333 40.5441 29.7438C41.6578 26.8544 41.9832 23.7273 41.4876 20.6751C40.7071 16.0873 38.1164 11.9906 34.2817 9.28043C30.447 6.57021 25.68 5.46682 21.0227 6.21138C16.3653 6.95595 12.1963 9.48794 9.42662 13.254C6.65696 17.0201 5.51191 21.7139 6.24173 26.3099C7.35233 33.0667 12.3937 38.6196 19.0842 40.4554Z" fill="white"/>
<g opacity="0.1">
<path d="M28.8895 13.8345L28.9463 13.9523C28.9176 13.8893 28.8997 13.848 28.8931 13.8345H28.8895Z" fill="white"/>
<path d="M30.3329 22.2844C30.5886 22.2551 30.8471 22.3085 31.0693 22.4365C31.0448 18.8597 29.3568 14.8752 28.9689 14.0029C28.9462 14.0094 28.6766 14.0795 28.2516 14.2051C28.5176 14.785 30.2576 18.7784 30.3329 22.2844Z" fill="white"/>
</g>
<g opacity="0.1">
<path d="M12.819 21.6238C13.1884 22.2945 15.4395 26.2478 18.1581 28.3365C18.2469 28.1046 18.4089 27.9069 18.6201 27.7725C15.8914 25.6809 13.5572 21.4482 13.4245 21.2036C13.0749 21.4388 12.8531 21.5985 12.819 21.6238Z" fill="white"/>
</g>
<path d="M12.4573 20.8978L12.8118 21.6274C12.8118 21.6274 15.886 19.4002 18.2226 18.6217C18.2226 18.6217 18.2985 17.5821 17.5244 17.1831C17.5244 17.1819 14.1125 18.5404 12.4573 20.8978Z" fill="white"/>
<path d="M23.2041 16.2699C25.2848 14.9663 28.9717 14.0021 28.9717 14.0021L28.619 13.2731C25.7182 13.0639 22.5029 14.8307 22.5029 14.8307C22.3343 15.6764 23.2041 16.2699 23.2041 16.2699Z" fill="white"/>
</svg>
