<?xml version="1.0" standalone="no"?>
<!DOCTYPE svg PUBLIC "-//W3C//DTD SVG 20010904//EN"
 "http://www.w3.org/TR/2001/REC-SVG-20010904/DTD/svg10.dtd">
<svg version="1.0" xmlns="http://www.w3.org/2000/svg"
 width="113.000000pt" height="135.000000pt" viewBox="0 0 113.000000 135.000000"
 preserveAspectRatio="xMidYMid meet">

<g transform="translate(0.000000,135.000000) scale(0.100000,-0.100000)"
fill="#000000" stroke="none">
<path d="M294 1306 c-18 -14 -17 -19 51 -153 l70 -138 136 -3 136 -3 25 33
c46 60 118 192 118 215 0 29 -5 29 -71 -2 -30 -13 -72 -27 -94 -30 -41 -7 -45
-5 -190 73 -47 26 -150 30 -181 8z"/>
<path d="M341 915 c-16 -14 -50 -60 -74 -103 -25 -42 -74 -116 -109 -163 -113
-151 -153 -333 -98 -444 52 -104 226 -182 430 -192 133 -6 320 16 405 48 96
36 169 132 182 238 11 96 -39 219 -174 421 -149 223 -144 220 -372 220 -156 0
-160 -1 -190 -25z m249 -194 c0 -11 12 -24 31 -31 35 -15 69 -63 69 -97 0 -19
-5 -23 -34 -23 -23 0 -38 7 -49 23 -15 21 -16 20 -16 -35 -1 -54 0 -57 34 -77
36 -21 65 -71 65 -112 0 -37 -31 -88 -66 -110 -20 -12 -34 -29 -34 -40 0 -14
-7 -19 -30 -19 -23 0 -30 4 -30 20 0 12 -13 25 -35 35 -23 12 -41 31 -56 61
-12 25 -20 47 -18 49 10 9 79 16 79 8 0 -5 7 -18 15 -29 13 -17 14 -14 15 38
0 54 -1 57 -35 77 -39 22 -65 71 -65 119 0 37 37 93 73 110 16 8 27 21 27 33
0 14 7 19 30 19 23 0 30 -5 30 -19z"/>
<path d="M512 608 c-17 -17 -15 -73 3 -88 13 -11 15 -5 15 44 0 31 -1 56 -3
56 -2 0 -8 -5 -15 -12z"/>
<path d="M590 380 c0 -45 2 -51 15 -40 8 7 15 25 15 40 0 15 -7 33 -15 40 -13
11 -15 5 -15 -40z"/>
</g>
</svg>
