<?xml version="1.0" standalone="no"?>
<!DOCTYPE svg PUBLIC "-//W3C//DTD SVG 20010904//EN"
 "http://www.w3.org/TR/2001/REC-SVG-20010904/DTD/svg10.dtd">
<svg version="1.0" xmlns="http://www.w3.org/2000/svg"
 width="748.000000pt" height="671.000000pt" viewBox="0 0 748.000000 671.000000"
 preserveAspectRatio="xMidYMid meet">

<g transform="translate(0.000000,671.000000) scale(0.100000,-0.100000)"
fill="#000000" stroke="none">
<path d="M3500 6694 c-14 -2 -65 -11 -114 -20 -92 -16 -239 -62 -338 -107
-208 -93 -451 -290 -586 -476 -68 -93 -167 -285 -205 -401 -107 -319 -97 -688
28 -1007 19 -48 35 -89 35 -90 0 -2 -32 -19 -72 -39 -97 -49 -230 -132 -330
-206 -99 -73 -277 -244 -360 -345 -182 -222 -329 -510 -399 -778 -33 -129 -59
-297 -59 -383 0 -34 -4 -63 -9 -66 -5 -4 -30 -9 -54 -12 l-45 -7 10 44 c17 76
5 207 -27 277 -62 139 -204 199 -351 149 -230 -79 -267 -400 -67 -576 29 -25
53 -48 53 -51 0 -10 -65 -40 -134 -63 -76 -24 -103 -50 -112 -107 -4 -27 0
-43 18 -70 32 -47 83 -64 146 -49 89 21 205 84 278 152 l69 65 115 3 115 4 7
-55 c64 -466 275 -882 615 -1210 139 -134 259 -225 419 -317 l100 -58 13 -185
c22 -316 47 -413 132 -505 82 -88 219 -135 398 -135 140 0 223 14 298 50 114
56 157 136 174 324 16 179 16 178 47 172 15 -3 117 -13 227 -22 198 -16 843
-22 884 -9 17 5 20 -1 26 -62 31 -321 186 -453 530 -453 204 0 332 44 392 134
67 100 118 344 130 623 l7 158 126 62 c279 139 526 377 685 660 l55 98 162 49
c306 90 382 122 448 188 62 62 91 132 97 231 5 81 -42 506 -68 622 -43 187
-160 294 -365 334 l-83 16 -16 74 c-51 226 -177 443 -343 589 -43 37 -87 74
-99 82 l-21 15 21 105 c16 85 21 145 21 310 1 200 0 207 -27 285 -16 44 -42
101 -58 127 -130 203 -403 285 -659 199 -53 -18 -129 -52 -170 -76 -41 -23
-76 -42 -77 -41 -1 1 5 46 14 101 18 121 13 347 -12 475 -112 589 -570 1055
-1160 1182 -87 18 -411 34 -475 22z m433 -229 c248 -56 454 -170 634 -350 145
-145 242 -300 303 -483 151 -456 45 -942 -281 -1285 l-84 -88 -115 20 c-158
27 -298 40 -473 43 -142 3 -148 4 -143 23 3 11 6 56 6 100 l0 81 58 12 c124
26 220 101 278 216 80 162 45 348 -87 470 -98 91 -178 116 -370 116 -130 0
-154 7 -200 57 -38 41 -49 66 -49 117 0 81 33 134 105 167 53 25 247 27 303 4
67 -29 112 -86 112 -145 0 -112 113 -172 192 -101 32 28 33 32 32 104 0 66 -5
85 -37 150 -59 119 -153 192 -282 222 l-50 11 -5 91 c-5 96 -13 114 -61 139
-36 18 -63 18 -99 -1 -45 -23 -60 -62 -60 -153 l0 -79 -48 -7 c-155 -20 -295
-164 -324 -334 -36 -214 111 -421 331 -462 29 -5 105 -10 168 -10 129 0 174
-15 214 -71 27 -38 37 -121 20 -172 -16 -46 -69 -93 -123 -108 -63 -16 -255
-8 -295 14 -50 26 -82 77 -95 147 -12 73 -39 108 -89 119 -41 9 -83 -4 -112
-37 -57 -63 -16 -233 82 -344 48 -54 156 -113 225 -123 l45 -7 4 -87 c2 -47 7
-95 11 -106 7 -20 1 -22 -96 -33 -132 -17 -315 -53 -445 -90 l-101 -29 -69 57
c-183 152 -320 350 -393 568 -50 153 -63 233 -63 402 0 167 15 273 59 408 144
441 526 771 989 857 101 18 379 13 478 -10z m1771 -1651 c70 -24 147 -102 177
-179 21 -54 23 -76 23 -210 0 -130 -5 -170 -32 -301 -36 -171 -39 -210 -14
-241 9 -12 58 -48 107 -81 201 -131 296 -276 354 -535 34 -153 47 -183 90
-220 25 -20 45 -27 108 -32 166 -14 238 -55 262 -151 16 -62 61 -404 68 -511
9 -132 -13 -162 -149 -209 -100 -34 -413 -124 -432 -124 -31 0 -76 -57 -130
-164 -69 -135 -128 -217 -231 -325 -139 -146 -330 -275 -505 -341 -45 -17
-106 -74 -133 -125 -20 -37 -22 -55 -23 -242 -1 -112 -5 -224 -9 -250 -10 -70
-36 -174 -51 -204 -26 -52 -178 -81 -314 -60 -94 15 -116 29 -147 98 -21 45
-27 78 -33 186 -9 148 -19 178 -67 208 -33 21 -37 21 -316 9 -370 -15 -657 -3
-1098 46 -66 7 -111 -11 -133 -55 -10 -18 -23 -108 -35 -237 -18 -200 -20
-209 -45 -230 -50 -44 -302 -47 -388 -5 -86 41 -94 71 -119 411 -16 231 -22
279 -38 300 -10 14 -63 48 -117 75 -502 255 -854 716 -976 1275 -19 92 -22
134 -23 330 0 196 3 240 23 339 75 373 258 702 539 972 145 139 325 262 485
333 l57 25 22 -32 c13 -18 52 -66 87 -107 57 -66 89 -98 220 -210 17 -16 32
-35 32 -42 0 -8 11 -25 25 -38 36 -33 77 -31 225 13 264 80 520 117 800 117
215 0 350 -12 537 -46 179 -33 187 -32 230 14 19 20 63 66 97 102 83 87 144
161 197 241 43 64 104 123 272 261 90 75 206 140 288 163 65 18 163 13 233
-11z m-4948 -1815 c15 -17 19 -36 19 -98 0 -42 -5 -85 -11 -95 -11 -18 -14
-17 -53 20 -69 64 -74 149 -11 181 33 17 34 17 56 -8z"/>
<path d="M5690 3332 c-23 -11 -42 -32 -57 -62 -33 -69 -73 -102 -130 -107 -61
-6 -104 22 -143 91 -14 27 -38 55 -51 62 -89 49 -194 -34 -168 -132 25 -91 93
-169 191 -221 48 -25 63 -28 158 -28 93 0 111 3 162 27 141 66 241 247 184
334 -17 24 -70 54 -98 54 -7 0 -29 -8 -48 -18z"/>
</g>
</svg>
