<?xml version="1.0" standalone="no"?>
<!DOCTYPE svg PUBLIC "-//W3C//DTD SVG 20010904//EN"
 "http://www.w3.org/TR/2001/REC-SVG-20010904/DTD/svg10.dtd">
<svg version="1.0" xmlns="http://www.w3.org/2000/svg"
 width="698.000000pt" height="674.000000pt" viewBox="0 0 698.000000 674.000000"
 preserveAspectRatio="xMidYMid meet">

<g transform="translate(0.000000,674.000000) scale(0.100000,-0.100000)"
fill="#000000" stroke="none">
<path d="M3330 6664 c-416 -48 -713 -192 -991 -481 -98 -102 -165 -198 -232
-333 -103 -210 -145 -372 -154 -601 -9 -226 23 -419 101 -613 l33 -83 -56 -28
c-103 -50 -240 -135 -341 -211 -472 -355 -765 -876 -823 -1459 l-12 -120 -40
-6 c-22 -4 -41 -6 -42 -5 -1 1 3 33 9 71 18 122 -20 262 -93 334 -19 18 -58
45 -88 59 -134 62 -318 -13 -384 -157 -32 -67 -31 -206 1 -276 34 -73 71 -123
119 -160 l43 -33 -32 -20 c-18 -11 -60 -28 -93 -38 -73 -21 -88 -30 -109 -65
-47 -80 15 -180 111 -179 82 1 236 79 331 168 l57 53 104 5 c58 3 109 7 113
10 4 3 8 1 8 -4 0 -40 45 -259 74 -357 147 -512 497 -956 960 -1220 l105 -60
5 -50 c3 -27 11 -120 17 -205 18 -250 45 -345 124 -437 41 -48 127 -94 225
-120 84 -23 300 -22 391 1 185 48 247 140 270 400 5 66 12 122 14 124 2 2 55
-1 117 -7 242 -23 532 -33 779 -28 l256 5 6 -76 c11 -142 81 -288 165 -346
105 -72 278 -106 449 -88 183 19 285 69 333 163 58 113 100 335 107 576 l6
172 86 41 c309 148 554 378 732 689 l54 94 190 57 c340 103 416 144 478 258
51 93 51 178 3 557 -38 294 -71 381 -176 464 -59 46 -138 78 -234 95 l-70 12
-13 60 c-35 154 -113 326 -202 444 -49 65 -153 169 -224 226 l-39 30 23 129
c30 170 33 417 6 515 -37 137 -103 243 -188 306 -209 153 -468 152 -732 -2
l-58 -34 8 63 c4 34 8 148 8 252 0 161 -4 206 -24 295 -147 668 -728 1152
-1411 1174 -69 2 -141 2 -160 0z m346 -239 c517 -98 915 -504 1009 -1028 24
-132 17 -382 -14 -507 -59 -234 -155 -412 -312 -575 l-87 -89 -73 12 c-177 30
-306 43 -476 49 l-181 6 9 24 c5 13 9 57 9 97 l0 73 45 6 c111 16 235 113 289
227 29 60 31 73 31 171 0 101 -1 108 -37 181 -45 91 -103 147 -196 191 -64 30
-74 32 -227 37 -124 4 -167 9 -192 23 -91 49 -118 167 -60 256 40 60 74 71
227 71 152 0 187 -11 227 -71 14 -21 28 -61 32 -93 13 -94 78 -142 156 -116
100 33 102 192 4 339 -59 89 -155 151 -270 175 -26 6 -27 9 -31 88 -6 115 -38
158 -119 158 -76 0 -119 -63 -119 -175 0 -62 -1 -65 -27 -71 -58 -12 -119 -35
-148 -54 -59 -39 -126 -115 -158 -179 -30 -61 -32 -72 -32 -171 0 -97 2 -110
32 -172 41 -88 113 -160 201 -201 64 -30 74 -31 227 -37 178 -6 204 -14 250
-74 64 -85 33 -210 -66 -262 -39 -20 -279 -20 -317 0 -58 30 -102 96 -102 153
0 63 -57 123 -117 123 -38 0 -91 -34 -104 -68 -17 -43 -5 -152 24 -215 51
-112 184 -219 290 -233 l45 -6 4 -88 c2 -51 9 -95 17 -104 15 -18 12 -19 -129
-36 -118 -15 -296 -51 -414 -86 l-89 -25 -31 22 c-213 156 -383 407 -455 672
-35 131 -44 218 -38 379 10 268 74 468 216 675 202 295 536 499 891 543 97 12
284 5 386 -15z m1796 -1655 c116 -43 180 -137 199 -292 12 -103 2 -215 -38
-404 -33 -156 -34 -205 -8 -233 10 -12 56 -46 101 -77 115 -76 186 -143 244
-232 57 -86 78 -146 119 -325 43 -193 76 -229 221 -241 194 -15 234 -61 260
-291 5 -49 19 -157 31 -239 33 -231 18 -272 -113 -319 -89 -32 -284 -91 -393
-119 -44 -11 -90 -26 -103 -34 -12 -8 -43 -56 -68 -107 -112 -223 -224 -360
-424 -518 -66 -52 -155 -103 -283 -164 -122 -57 -155 -86 -190 -165 -19 -41
-20 -63 -18 -236 2 -161 -1 -208 -19 -295 -29 -145 -43 -170 -105 -192 -40
-14 -75 -17 -170 -14 -135 3 -167 14 -202 66 -32 47 -41 87 -52 235 -10 143
-20 167 -82 198 -30 15 -50 16 -169 8 -173 -12 -627 -12 -795 0 -71 5 -212 17
-313 27 -162 15 -186 16 -209 3 -57 -32 -63 -54 -84 -263 -23 -246 -23 -245
-68 -265 -52 -22 -279 -21 -341 2 -97 36 -115 82 -131 325 -21 329 -25 369
-43 396 -10 15 -50 41 -102 65 -103 48 -262 150 -364 235 -324 270 -558 667
-632 1075 -31 167 -31 449 0 613 104 552 451 1025 943 1285 136 72 129 72 179
6 60 -80 160 -184 239 -249 38 -30 74 -69 81 -86 14 -32 55 -59 91 -59 12 0
74 16 138 35 293 87 513 119 831 119 248 0 343 -8 556 -50 121 -23 135 -24
167 -10 21 8 46 31 60 53 14 21 48 61 77 88 62 60 153 169 203 245 62 92 319
308 436 366 85 42 129 53 213 53 54 1 93 -5 130 -19z m-4944 -1817 c17 -34 21
-83 12 -135 -6 -28 -12 -53 -14 -56 -3 -2 -19 6 -37 18 -56 41 -77 132 -39
170 25 25 66 26 78 3z"/>
<path d="M5448 3292 c-15 -9 -39 -40 -52 -68 -38 -81 -103 -116 -170 -94 -36
11 -96 70 -96 94 0 18 -41 54 -76 66 -68 24 -154 -40 -154 -115 0 -44 47 -132
98 -183 23 -24 73 -58 110 -75 60 -28 77 -32 157 -32 82 0 97 3 157 33 112 55
208 185 208 280 0 33 -30 81 -62 98 -32 18 -88 17 -120 -4z"/>
</g>
</svg>
